%FSLAX44Y44*%
%MOMM*%
G71*
G01*
G75*
G04 Layer_Color=32896*
%ADD10O,2.4000X0.7500*%
%ADD11O,0.7500X2.4000*%
%ADD12R,0.6200X0.5000*%
%ADD13R,1.0000X1.1000*%
%ADD14R,0.4000X0.8000*%
%ADD15R,2.0000X2.2000*%
%ADD16R,1.1500X0.6500*%
%ADD17R,0.8000X0.5400*%
%ADD18R,1.3000X0.4500*%
%ADD19R,1.7000X1.3400*%
%ADD20R,1.7000X1.4000*%
%ADD21R,0.6000X0.6200*%
%ADD22R,1.5000X1.6000*%
%ADD23R,5.0000X1.9000*%
%ADD24P,0.8485X4X180.0*%
%ADD25C,0.2032*%
%ADD26C,0.2000*%
%ADD27C,0.7500*%
%ADD28C,0.3000*%
%ADD29C,0.5000*%
%ADD30C,0.1800*%
%ADD31C,0.8000*%
%ADD32C,1.2000*%
%ADD33C,1.0000*%
%ADD34R,5.0000X4.0000*%
%ADD35R,5.0000X4.0000*%
%ADD36C,3.0000*%
%ADD37C,1.0000*%
%ADD38R,1.0000X1.0000*%
%ADD39C,0.6100*%
%ADD40C,0.6000*%
%ADD41C,1.2700*%
%ADD42C,0.6350*%
%ADD43R,2.8700X0.7110*%
%ADD44R,1.1000X1.0000*%
%ADD45R,0.5000X2.1300*%
%ADD46R,3.2000X1.0000*%
%ADD47R,2.6000X1.0000*%
%ADD48R,1.2000X0.9000*%
%ADD49R,1.2700X1.2700*%
%ADD50R,0.5000X0.5000*%
%ADD51R,0.5000X0.4000*%
%ADD52C,0.2500*%
%ADD53C,0.1524*%
%ADD54C,0.2540*%
%ADD55C,0.1499*%
%ADD56O,2.6032X0.9532*%
%ADD57O,0.9532X2.6032*%
%ADD58R,0.8232X0.7032*%
%ADD59R,1.2032X1.3032*%
%ADD60R,0.6032X1.0032*%
%ADD61R,2.2032X2.4032*%
%ADD62R,1.3532X0.8532*%
%ADD63R,1.0032X0.7432*%
%ADD64R,1.5032X0.6532*%
%ADD65R,1.9032X1.5432*%
%ADD66R,1.9032X1.6032*%
%ADD67R,0.8032X0.8232*%
%ADD68R,1.7032X1.8032*%
%ADD69R,5.2032X2.1032*%
%ADD70P,1.1359X4X180.0*%
%ADD71C,3.2032*%
%ADD72C,1.2032*%
%ADD73R,1.2032X1.2032*%
%ADD74C,0.8132*%
%ADD75C,0.8032*%
%ADD76C,1.4732*%
%ADD77R,3.0732X0.9142*%
%ADD78R,1.3032X1.2032*%
%ADD79R,0.7032X2.3332*%
%ADD80R,3.4032X1.2032*%
%ADD81R,2.8032X1.2032*%
%ADD82R,1.4032X1.1032*%
%ADD83R,1.4732X1.4732*%
%ADD84R,0.7032X0.7032*%
%ADD85R,0.7032X0.6032*%
%ADD86C,0.3001*%
%ADD87C,0.0254*%
%ADD88C,0.2286*%
D25*
X62852Y327658D02*
X65391D01*
X64121D01*
Y321310D01*
X65391Y320040D01*
X66660D01*
X67930Y321310D01*
X60312Y320040D02*
X57773D01*
X59043D01*
Y327658D01*
X60312Y326388D01*
X88770Y319100D02*
Y322432D01*
Y320766D01*
X98767D01*
X97101Y319100D01*
X94734Y69100D02*
X96427Y70793D01*
Y74178D01*
X94734Y75871D01*
X93041D01*
X91348Y74178D01*
Y72486D01*
Y74178D01*
X89656Y75871D01*
X87963D01*
X86270Y74178D01*
Y70793D01*
X87963Y69100D01*
X94734Y79257D02*
X96427Y80949D01*
Y84335D01*
X94734Y86028D01*
X93041D01*
X91348Y84335D01*
Y82642D01*
Y84335D01*
X89656Y86028D01*
X87963D01*
X86270Y84335D01*
Y80949D01*
X87963Y79257D01*
X39734Y69100D02*
X41427Y70793D01*
Y74178D01*
X39734Y75871D01*
X38041D01*
X36348Y74178D01*
Y72486D01*
Y74178D01*
X34656Y75871D01*
X32963D01*
X31270Y74178D01*
Y70793D01*
X32963Y69100D01*
X31270Y84335D02*
X41427D01*
X36348Y79257D01*
Y86028D01*
X31270Y325871D02*
Y319100D01*
X38041Y325871D01*
X39734D01*
X41427Y324178D01*
Y320793D01*
X39734Y319100D01*
D26*
X64294Y368730D02*
X68294D01*
X64294Y390730D02*
X68294D01*
X64294Y368730D02*
Y390730D01*
X68294Y368730D02*
Y390730D01*
D28*
X0Y400000D02*
X400000D01*
X0D02*
X400000D01*
X0Y-0D02*
Y400000D01*
Y-0D02*
X400000D01*
Y400000D01*
Y-0D02*
Y400000D01*
X762Y-254D02*
X400762D01*
D52*
X85846Y25070D02*
G03*
X85846Y25070I-1250J0D01*
G01*
X53794Y364730D02*
G03*
X53794Y364730I-1250J0D01*
G01*
D53*
X27888Y313538D02*
X28396D01*
X129540Y338836D02*
Y339344D01*
X336169Y184023D02*
X337439Y185293D01*
Y167767D02*
Y185293D01*
X317246Y193294D02*
X317627Y190246D01*
X317246Y193294D02*
Y196596D01*
X317627Y199517D01*
X318516Y201930D01*
X320294Y204343D01*
X322326Y206121D01*
X324739Y207264D01*
X326898Y207645D01*
X329057D01*
X331089Y207264D01*
X333121Y206502D01*
X335407Y205105D01*
X337439Y203327D01*
Y211582D01*
X337312Y264287D02*
Y287274D01*
Y294005D01*
X335534Y292354D02*
X337312Y294005D01*
X333883Y291211D02*
X335534Y292354D01*
X331978Y290195D02*
X333883Y291211D01*
X330073Y289687D02*
X331978Y290195D01*
X327660Y289560D02*
X330073Y289687D01*
X325628D02*
X327660Y289560D01*
X322961Y290830D02*
X325628Y289687D01*
X320802Y292354D02*
X322961Y290830D01*
X318770Y295148D02*
X320802Y292354D01*
X317627Y297688D02*
X318770Y295148D01*
X317246Y300736D02*
X317627Y297688D01*
X317246Y300736D02*
Y304165D01*
X317500Y306959D01*
X318008Y308991D01*
X337439Y317373D02*
Y329692D01*
X356235Y241554D02*
X357251Y244221D01*
X357632Y246634D01*
Y251079D01*
X353314Y260096D02*
X355219Y258318D01*
X351028Y261493D02*
X353314Y260096D01*
X348615Y262128D02*
X351028Y261493D01*
X344932Y262128D02*
X348615D01*
X343027Y261493D02*
X344932Y262128D01*
X341249Y260604D02*
X343027Y261493D01*
X356870Y276225D02*
X358013Y275717D01*
X355854Y276987D02*
X356870Y276225D01*
X354965Y278003D02*
X355854Y276987D01*
X354076Y279146D02*
X354965Y278003D01*
X353314Y280416D02*
X354076Y279146D01*
X352552Y281940D02*
X353314Y280416D01*
X352425Y283464D02*
X352552Y281940D01*
X355981Y290322D02*
X356489Y291084D01*
X358394Y292227D01*
X360172Y292735D01*
X362331Y293243D01*
X364617Y293497D01*
X366649Y293624D01*
X368935D01*
X371602D01*
X373380Y293370D01*
X375031Y292862D01*
X376936Y292100D01*
X378714Y291211D01*
X380492Y289941D01*
X382016Y288544D01*
X383032Y286512D01*
X383413Y285369D01*
Y283337D02*
Y285369D01*
X383286Y281813D02*
X383413Y283337D01*
X382524Y280035D02*
X383286Y281813D01*
X381254Y278384D02*
X382524Y280035D01*
X379857Y276987D02*
X381254Y278384D01*
X378206Y275844D02*
X379857Y276987D01*
X378206Y275717D02*
Y275844D01*
Y275717D02*
X398018D01*
X321564Y270764D02*
X322199Y269113D01*
X320548Y272415D02*
X321564Y270764D01*
X319278Y273812D02*
X320548Y272415D01*
X318008Y274955D02*
X319278Y273812D01*
X317500Y275717D02*
X318008Y274955D01*
X317500Y275717D02*
X332232D01*
X358013D01*
X310515Y257810D02*
X312547Y258318D01*
X309118Y257683D02*
X310515Y257810D01*
X276733Y275717D02*
X296926D01*
X295529Y274447D02*
X296926Y275717D01*
X294005Y272923D02*
X295529Y274447D01*
X292989Y271399D02*
X294005Y272923D01*
X292227Y269875D02*
X292989Y271399D01*
X291973Y268859D02*
X292227Y269875D01*
X291973Y266192D02*
Y268859D01*
Y266192D02*
X292481Y264033D01*
X293751Y262255D01*
X295402Y260731D01*
X297561Y259461D01*
X300228Y258445D01*
X303022Y257937D01*
X305308Y257683D01*
X309118D01*
X378206Y221615D02*
X398018D01*
X378206Y221488D02*
Y221615D01*
Y221488D02*
X379857Y220345D01*
X381254Y218948D01*
X382524Y217297D01*
X383286Y215519D01*
X383413Y213995D01*
Y211963D02*
Y213995D01*
X383032Y210820D02*
X383413Y211963D01*
X382016Y208788D02*
X383032Y210820D01*
X380492Y207391D02*
X382016Y208788D01*
X378714Y206121D02*
X380492Y207391D01*
X376936Y205232D02*
X378714Y206121D01*
X375031Y204470D02*
X376936Y205232D01*
X373380Y203962D02*
X375031Y204470D01*
X371602Y203708D02*
X373380Y203962D01*
X368935Y203708D02*
X371602D01*
X366649D02*
X368935D01*
X364617Y203835D02*
X366649Y203708D01*
X362712Y204089D02*
X364617Y203835D01*
X354965Y208153D02*
X356870Y206375D01*
X353822Y209804D02*
X354965Y208153D01*
X353187Y211328D02*
X353822Y209804D01*
X353187Y211328D02*
Y213106D01*
X332232Y221742D02*
X358013D01*
X317500D02*
X332232D01*
X317500D02*
X318008Y222504D01*
X319278Y223647D01*
X320548Y225044D01*
X321564Y226695D01*
X322199Y228346D01*
Y229743D01*
X315595Y238252D02*
X318643Y236601D01*
X312674Y239141D02*
X315595Y238252D01*
X309118Y239649D02*
X312674Y239141D01*
X305308Y239649D02*
X309118D01*
X303022Y239395D02*
X305308Y239649D01*
X300228Y238887D02*
X303022Y239395D01*
X297561Y237871D02*
X300228Y238887D01*
X295402Y236601D02*
X297561Y237871D01*
X293751Y235077D02*
X295402Y236601D01*
X292481Y233299D02*
X293751Y235077D01*
X291973Y231140D02*
X292481Y233299D01*
X291973Y228473D02*
Y231140D01*
Y228473D02*
X292227Y227457D01*
X292989Y225933D01*
X294005Y224409D01*
X295529Y222885D01*
X296926Y221615D01*
X276733D02*
X296926D01*
X398018Y167767D02*
Y329692D01*
X276733Y167767D02*
X398018D01*
X276733D02*
Y329692D01*
X398018D01*
D54*
X115040Y302830D02*
G03*
X115040Y302830I-1270J0D01*
G01*
X131518Y339718D02*
G03*
X131518Y339718I-1270J0D01*
G01*
X101596Y57570D02*
G03*
X101596Y57570I-32000J0D01*
G01*
X18770Y89100D02*
X107136D01*
X18770Y313538D02*
X107136D01*
X18770Y89662D02*
Y314100D01*
X108770Y89662D02*
Y314100D01*
X81534Y366268D02*
X96774D01*
X81534D02*
Y391668D01*
X96774D01*
Y366268D02*
Y391668D01*
X110240Y366268D02*
X125480D01*
X110240D02*
Y391668D01*
X125480D01*
Y366268D02*
Y391668D01*
X95760Y366268D02*
X111000D01*
X95760D02*
Y391668D01*
X111000D01*
Y366268D02*
Y391668D01*
X224416Y374810D02*
Y394930D01*
X184216Y374810D02*
X224416D01*
X184216D02*
Y394930D01*
X224416D01*
X224470Y354744D02*
Y374864D01*
X184270Y354744D02*
X224470D01*
X184270D02*
Y374864D01*
X224470D01*
X224416Y334678D02*
Y354798D01*
X184216Y334678D02*
X224416D01*
X184216D02*
Y354798D01*
X224416D01*
X263840Y374810D02*
Y394930D01*
X223640Y374810D02*
X263840D01*
X223640D02*
Y394930D01*
X263840D01*
Y354744D02*
Y374864D01*
X223640Y354744D02*
X263840D01*
X223640D02*
Y374864D01*
X263840D01*
Y334678D02*
Y354798D01*
X223640Y334678D02*
X263840D01*
X223640D02*
Y354798D01*
X263840D01*
X178978Y336352D02*
Y394718D01*
X136478Y334718D02*
Y394718D01*
Y334718D02*
X178978D01*
X136478Y394718D02*
X178978D01*
X85856Y351790D02*
X101096D01*
Y326390D02*
Y351790D01*
X85856Y326390D02*
X101096D01*
X85856D02*
Y351790D01*
X70616Y326390D02*
X85856D01*
X70616D02*
Y351790D01*
X85856D01*
Y326390D02*
Y351790D01*
X4064Y246126D02*
X19304D01*
Y220726D02*
Y246126D01*
X4064Y220726D02*
X19304D01*
X4064D02*
Y246126D01*
X4060Y145796D02*
X19300D01*
X4060D02*
Y171196D01*
X19300D01*
Y145796D02*
Y171196D01*
X4064Y115316D02*
X19304D01*
X4064D02*
Y140716D01*
X19304D01*
Y115316D02*
Y140716D01*
X185868Y331307D02*
X189200D01*
X187534D01*
Y322976D01*
X189200Y321310D01*
X190866D01*
X192532Y322976D01*
X175871Y321310D02*
X182535D01*
X175871Y327975D01*
Y329641D01*
X177537Y331307D01*
X180869D01*
X182535Y329641D01*
X26609Y61925D02*
X28276Y63591D01*
X31608D01*
X33274Y61925D01*
Y55260D01*
X31608Y53594D01*
X28276D01*
X26609Y55260D01*
X16613Y63591D02*
X19945Y61925D01*
X23277Y58592D01*
Y55260D01*
X21611Y53594D01*
X18279D01*
X16613Y55260D01*
Y56926D01*
X18279Y58592D01*
X23277D01*
X308804Y386283D02*
X310470Y387949D01*
X313802D01*
X315468Y386283D01*
Y379618D01*
X313802Y377952D01*
X310470D01*
X308804Y379618D01*
X305471Y387949D02*
X298807D01*
Y386283D01*
X305471Y379618D01*
Y377952D01*
X307787Y366217D02*
X309454Y367883D01*
X312786D01*
X314452Y366217D01*
Y359552D01*
X312786Y357886D01*
X309454D01*
X307787Y359552D01*
X304455Y366217D02*
X302789Y367883D01*
X299457D01*
X297791Y366217D01*
Y364551D01*
X299457Y362884D01*
X297791Y361218D01*
Y359552D01*
X299457Y357886D01*
X302789D01*
X304455Y359552D01*
Y361218D01*
X302789Y362884D01*
X304455Y364551D01*
Y366217D01*
X302789Y362884D02*
X299457D01*
X308041Y345135D02*
X309708Y346801D01*
X313040D01*
X314706Y345135D01*
Y338470D01*
X313040Y336804D01*
X309708D01*
X308041Y338470D01*
X304709D02*
X303043Y336804D01*
X299711D01*
X298045Y338470D01*
Y345135D01*
X299711Y346801D01*
X303043D01*
X304709Y345135D01*
Y343469D01*
X303043Y341802D01*
X298045D01*
X284928Y386791D02*
X286594Y388457D01*
X289926D01*
X291592Y386791D01*
Y380126D01*
X289926Y378460D01*
X286594D01*
X284928Y380126D01*
X281595Y378460D02*
X278263D01*
X279929D01*
Y388457D01*
X281595Y386791D01*
X273265D02*
X271598Y388457D01*
X268266D01*
X266600Y386791D01*
Y380126D01*
X268266Y378460D01*
X271598D01*
X273265Y380126D01*
Y386791D01*
X282896Y367233D02*
X284562Y368899D01*
X287894D01*
X289560Y367233D01*
Y360568D01*
X287894Y358902D01*
X284562D01*
X282896Y360568D01*
X279563Y358902D02*
X276231D01*
X277897D01*
Y368899D01*
X279563Y367233D01*
X271233Y358902D02*
X267900D01*
X269566D01*
Y368899D01*
X271233Y367233D01*
X285436Y345135D02*
X287102Y346801D01*
X290434D01*
X292100Y345135D01*
Y338470D01*
X290434Y336804D01*
X287102D01*
X285436Y338470D01*
X282103Y336804D02*
X278771D01*
X280437D01*
Y346801D01*
X282103Y345135D01*
X267108Y336804D02*
X273773D01*
X267108Y343469D01*
Y345135D01*
X268774Y346801D01*
X272106D01*
X273773Y345135D01*
X66802Y336296D02*
Y346293D01*
X61804D01*
X60138Y344627D01*
Y341294D01*
X61804Y339628D01*
X66802D01*
X63470D02*
X60138Y336296D01*
X50141D02*
X56805D01*
X50141Y342961D01*
Y344627D01*
X51807Y346293D01*
X55139D01*
X56805Y344627D01*
X15748Y268478D02*
X5751D01*
Y263480D01*
X7417Y261814D01*
X10750D01*
X12416Y263480D01*
Y268478D01*
Y265146D02*
X15748Y261814D01*
X7417Y258481D02*
X5751Y256815D01*
Y253483D01*
X7417Y251817D01*
X9083D01*
X10750Y253483D01*
Y255149D01*
Y253483D01*
X12416Y251817D01*
X14082D01*
X15748Y253483D01*
Y256815D01*
X14082Y258481D01*
X121666Y324866D02*
Y334863D01*
X116668D01*
X115001Y333197D01*
Y329864D01*
X116668Y328198D01*
X121666D01*
X118334D02*
X115001Y324866D01*
X105005Y334863D02*
X108337Y333197D01*
X111669Y329864D01*
Y326532D01*
X110003Y324866D01*
X106671D01*
X105005Y326532D01*
Y328198D01*
X106671Y329864D01*
X111669D01*
X105410Y345440D02*
X115407D01*
Y350438D01*
X113741Y352104D01*
X110408D01*
X108742Y350438D01*
Y345440D01*
Y348772D02*
X105410Y352104D01*
X113741Y355437D02*
X115407Y357103D01*
Y360435D01*
X113741Y362101D01*
X112074D01*
X110408Y360435D01*
X108742Y362101D01*
X107076D01*
X105410Y360435D01*
Y357103D01*
X107076Y355437D01*
X108742D01*
X110408Y357103D01*
X112074Y355437D01*
X113741D01*
X110408Y357103D02*
Y360435D01*
X119888Y345440D02*
X129885D01*
Y350438D01*
X128219Y352104D01*
X124886D01*
X123220Y350438D01*
Y345440D01*
Y348772D02*
X119888Y352104D01*
X121554Y355437D02*
X119888Y357103D01*
Y360435D01*
X121554Y362101D01*
X128219D01*
X129885Y360435D01*
Y357103D01*
X128219Y355437D01*
X126552D01*
X124886Y357103D01*
Y362101D01*
X67056Y367030D02*
X77053D01*
Y372028D01*
X75387Y373694D01*
X72054D01*
X70388Y372028D01*
Y367030D01*
Y370362D02*
X67056Y373694D01*
Y377027D02*
Y380359D01*
Y378693D01*
X77053D01*
X75387Y377027D01*
Y385357D02*
X77053Y387024D01*
Y390356D01*
X75387Y392022D01*
X68722D01*
X67056Y390356D01*
Y387024D01*
X68722Y385357D01*
X75387D01*
X14224Y111252D02*
X4227D01*
Y106254D01*
X5893Y104587D01*
X9226D01*
X10892Y106254D01*
Y111252D01*
Y107920D02*
X14224Y104587D01*
Y101255D02*
Y97923D01*
Y99589D01*
X4227D01*
X5893Y101255D01*
X14224Y92925D02*
Y89592D01*
Y91258D01*
X4227D01*
X5893Y92925D01*
X15748Y201168D02*
X5751D01*
Y196170D01*
X7417Y194503D01*
X10750D01*
X12416Y196170D01*
Y201168D01*
Y197836D02*
X15748Y194503D01*
Y191171D02*
Y187839D01*
Y189505D01*
X5751D01*
X7417Y191171D01*
X15748Y176176D02*
Y182841D01*
X9083Y176176D01*
X7417D01*
X5751Y177842D01*
Y181174D01*
X7417Y182841D01*
X273558Y330703D02*
Y318007D01*
X271019Y315468D01*
X265940D01*
X263401Y318007D01*
Y330703D01*
X258323Y315468D02*
X253245D01*
X255784D01*
Y330703D01*
X258323Y328164D01*
X61214Y362549D02*
Y354218D01*
X59548Y352552D01*
X56216D01*
X54549Y354218D01*
Y362549D01*
X51217Y360883D02*
X49551Y362549D01*
X46219D01*
X44553Y360883D01*
Y359216D01*
X46219Y357550D01*
X47885D01*
X46219D01*
X44553Y355884D01*
Y354218D01*
X46219Y352552D01*
X49551D01*
X51217Y354218D01*
X101118Y16256D02*
Y12924D01*
X104450D01*
Y16256D01*
X101118D01*
D86*
X108618Y3756D02*
Y311256D01*
X293618D01*
X108618Y3756D02*
X293618D01*
Y311256D01*
D87*
X351536Y182880D02*
X362585Y181483D01*
X351536Y182880D02*
Y183007D01*
X362712Y181610D01*
X351536Y197231D02*
X362585Y201803D01*
X351536Y197104D02*
Y197231D01*
Y197104D02*
X362712Y201676D01*
X323977Y185801D02*
X343408Y183642D01*
Y183769D02*
Y193929D01*
X323469Y186055D02*
X343408Y183769D01*
X323469Y186055D02*
X343408Y194056D01*
X313309Y180721D02*
X362712Y174752D01*
Y174625D02*
Y174752D01*
X313182Y180594D02*
X362712Y174625D01*
X313182Y188976D02*
X362458Y209169D01*
X313182Y188976D02*
Y189230D01*
X362712Y209423D01*
Y209296D02*
Y209423D01*
X313182Y206756D02*
X362585Y214376D01*
X313182Y206629D02*
Y206756D01*
Y206629D02*
X362712Y214249D01*
Y214376D01*
X313182Y214122D02*
X362712Y221615D01*
X313182Y214122D02*
Y214249D01*
X362712Y221742D01*
X313182Y228346D02*
X362712Y235839D01*
X313182Y228092D02*
Y228346D01*
Y228092D02*
X362712Y235712D01*
X313182Y235458D02*
Y235585D01*
Y235712D01*
Y235585D02*
X362712Y243078D01*
Y243205D01*
X313182Y235712D02*
X362712Y243205D01*
X313182Y307213D02*
X354584Y313563D01*
Y313436D02*
Y313563D01*
X313182Y307086D02*
X354584Y313436D01*
X362712Y322072D02*
Y322326D01*
X313182Y314579D02*
X362712Y322326D01*
X313182Y314452D02*
Y314579D01*
Y314452D02*
X362712Y322072D01*
X313182Y284099D02*
X362712Y291973D01*
Y284480D02*
Y284734D01*
X313182Y276860D02*
X362712Y284734D01*
X313182Y276733D02*
Y276860D01*
Y276733D02*
X362712Y284480D01*
X314452Y277114D02*
Y284353D01*
X313182Y284226D02*
X362712Y292100D01*
X354584Y294767D02*
Y294894D01*
Y294767D02*
X362712Y296037D01*
Y296164D01*
X354584Y294894D02*
X362712Y296164D01*
X363474Y293116D02*
Y293624D01*
X363728Y293116D02*
Y293624D01*
X363982Y293116D02*
Y293624D01*
X364236Y293116D02*
Y293624D01*
X364490Y293116D02*
Y293878D01*
X364744Y293116D02*
Y293878D01*
X364998Y293370D02*
Y293878D01*
X365252Y293370D02*
Y293878D01*
X365506Y293370D02*
Y293878D01*
X365760Y293370D02*
Y293878D01*
X366014Y293370D02*
Y293878D01*
X366268Y293370D02*
Y293878D01*
X366522Y293370D02*
Y293878D01*
X366776Y293370D02*
Y293878D01*
X367030Y293370D02*
Y293878D01*
X367284Y293370D02*
Y293878D01*
X367538Y293370D02*
Y293878D01*
X367792Y293370D02*
Y294132D01*
X368046Y293370D02*
Y294132D01*
X368300Y293370D02*
Y294132D01*
X368554Y293370D02*
Y294132D01*
X368808Y293370D02*
Y294132D01*
X369062Y293370D02*
Y294132D01*
X369316Y293370D02*
Y293878D01*
X369570Y293370D02*
Y293878D01*
X369824Y293370D02*
Y293878D01*
X370078Y293370D02*
Y293878D01*
X370332Y293370D02*
Y293878D01*
X370586Y293370D02*
Y293878D01*
X370840Y293370D02*
Y293878D01*
X371094Y293370D02*
Y293878D01*
X371348Y293370D02*
Y293878D01*
X371602Y293370D02*
Y293878D01*
X371856Y293116D02*
Y293878D01*
X372110Y293116D02*
Y293878D01*
X372364Y293116D02*
Y293624D01*
X372618Y293116D02*
Y293624D01*
X372872Y293116D02*
Y293624D01*
X373126Y293116D02*
Y293624D01*
X373380Y292862D02*
Y293624D01*
X373634Y292862D02*
Y293624D01*
X373888Y292862D02*
Y293624D01*
X374142Y292862D02*
Y293370D01*
X374396Y292862D02*
Y293370D01*
X374650Y292608D02*
Y293370D01*
X374904Y292608D02*
Y293370D01*
X375158Y292608D02*
Y293370D01*
X375412Y292608D02*
Y293116D01*
X375666Y292354D02*
Y293116D01*
X375920Y292354D02*
Y292862D01*
X376174Y292354D02*
Y292862D01*
X376428Y292100D02*
Y292862D01*
X376682Y292100D02*
Y292608D01*
X376936Y292100D02*
Y292608D01*
X377190Y291846D02*
Y292608D01*
X377444Y291846D02*
Y292354D01*
X377698Y291592D02*
Y292354D01*
X377952Y275336D02*
Y276098D01*
Y291592D02*
Y292100D01*
X378206Y275336D02*
Y276098D01*
Y291338D02*
Y292100D01*
X378460Y275336D02*
Y276098D01*
Y291338D02*
Y291846D01*
X378714Y275336D02*
Y276352D01*
Y291084D02*
Y291846D01*
X378968Y275336D02*
Y276352D01*
Y290830D02*
Y291592D01*
X379222Y275336D02*
Y276606D01*
Y290830D02*
Y291592D01*
X379476Y275336D02*
Y276860D01*
Y290576D02*
Y291338D01*
X379730Y275336D02*
Y276098D01*
Y276352D02*
Y277114D01*
Y290322D02*
Y291084D01*
X379984Y275336D02*
Y276098D01*
Y276606D02*
Y277368D01*
Y290322D02*
Y291084D01*
X380238Y275336D02*
Y276098D01*
Y276860D02*
Y277622D01*
Y290068D02*
Y290830D01*
X380492Y275336D02*
Y276098D01*
Y277114D02*
Y277876D01*
Y289814D02*
Y290576D01*
X380746Y275336D02*
Y276098D01*
Y277368D02*
Y278384D01*
Y289560D02*
Y290322D01*
X381000Y275336D02*
Y276098D01*
Y277622D02*
Y278638D01*
Y289306D02*
Y290322D01*
X381254Y275336D02*
Y276098D01*
Y277876D02*
Y278892D01*
Y289052D02*
Y290068D01*
X381508Y275336D02*
Y276098D01*
Y278130D02*
Y279146D01*
Y288798D02*
Y289814D01*
X381762Y275336D02*
Y276098D01*
Y278638D02*
Y279654D01*
Y288544D02*
Y289560D01*
X382016Y275336D02*
Y276098D01*
Y278892D02*
Y280162D01*
Y288036D02*
Y289306D01*
X382270Y275336D02*
Y276098D01*
Y279400D02*
Y280670D01*
Y287782D02*
Y288798D01*
X382524Y275336D02*
Y276098D01*
Y279654D02*
Y281178D01*
Y287274D02*
Y288544D01*
X382778Y275336D02*
Y276098D01*
Y280162D02*
Y281686D01*
Y286766D02*
Y288036D01*
X383032Y275336D02*
Y276098D01*
Y280670D02*
Y282702D01*
Y285496D02*
Y287528D01*
X383286Y275336D02*
Y276098D01*
Y281178D02*
Y287020D01*
X383540Y275336D02*
Y276098D01*
Y282194D02*
Y286258D01*
X383794Y275336D02*
Y276098D01*
Y283972D02*
Y284734D01*
X384048Y275336D02*
Y276098D01*
X384302Y275336D02*
Y276098D01*
X384556Y275336D02*
Y276098D01*
X384810Y275336D02*
Y276098D01*
X385064Y275336D02*
Y276098D01*
X385318Y275336D02*
Y276098D01*
X385572Y275336D02*
Y276098D01*
X385826Y275336D02*
Y276098D01*
X386080Y275336D02*
Y276098D01*
X386334Y275336D02*
Y276098D01*
X386588Y275336D02*
Y276098D01*
X386842Y275336D02*
Y276098D01*
X387096Y275336D02*
Y276098D01*
X387350Y275336D02*
Y276098D01*
X387604Y275336D02*
Y276098D01*
X387858Y275336D02*
Y276098D01*
X388112Y275336D02*
Y276098D01*
X388366Y275336D02*
Y276098D01*
X388620Y275336D02*
Y276098D01*
X388874Y275336D02*
Y276098D01*
X389128Y275336D02*
Y276098D01*
X389382Y275336D02*
Y276098D01*
X389636Y275336D02*
Y276098D01*
X389890Y275336D02*
Y276098D01*
X390144Y275336D02*
Y276098D01*
X390398Y275336D02*
Y276098D01*
X390652Y275336D02*
Y276098D01*
X390906Y275336D02*
Y276098D01*
X391160Y275336D02*
Y276098D01*
X391414Y275336D02*
Y276098D01*
X391668Y275336D02*
Y276098D01*
X391922Y275336D02*
Y276098D01*
X392176Y275336D02*
Y276098D01*
X392430Y275336D02*
Y276098D01*
X392684Y275336D02*
Y276098D01*
X392938Y275336D02*
Y276098D01*
X393192Y275336D02*
Y276098D01*
X393446Y275336D02*
Y276098D01*
X393700Y275336D02*
Y276098D01*
X393954Y275336D02*
Y276098D01*
X394208Y275336D02*
Y276098D01*
X394462Y275336D02*
Y276098D01*
X394716Y275336D02*
Y276098D01*
X394970Y275336D02*
Y276098D01*
X395224Y275336D02*
Y276098D01*
X395478Y275336D02*
Y276098D01*
X395732Y275336D02*
Y276098D01*
X395986Y275336D02*
Y276098D01*
X396240Y275336D02*
Y276098D01*
X396494Y275336D02*
Y276098D01*
X396748Y275336D02*
Y276098D01*
X397002Y275336D02*
Y276098D01*
X397256Y275336D02*
Y276098D01*
X397510Y275336D02*
Y276098D01*
X397764Y275336D02*
Y276098D01*
X317246Y275463D02*
Y276225D01*
X317500Y275209D02*
Y276225D01*
X317754Y274955D02*
Y276225D01*
X318008Y274955D02*
Y276225D01*
X318262Y274701D02*
Y275209D01*
Y275463D02*
Y276225D01*
X318516Y274447D02*
Y275209D01*
Y275463D02*
Y276225D01*
X318770Y274193D02*
Y274955D01*
Y275463D02*
Y276225D01*
X319024Y273939D02*
Y274701D01*
Y275463D02*
Y276225D01*
X319278Y273685D02*
Y274447D01*
Y275463D02*
Y276225D01*
X319532Y273431D02*
Y273939D01*
Y275463D02*
Y276225D01*
X319786Y272923D02*
Y273685D01*
Y275463D02*
Y276225D01*
X320040Y272669D02*
Y273431D01*
Y275463D02*
Y276225D01*
X320294Y272415D02*
Y273177D01*
Y275463D02*
Y276225D01*
X320548Y271907D02*
Y272923D01*
Y275463D02*
Y276225D01*
X320802Y271399D02*
Y272415D01*
Y275463D02*
Y276225D01*
X321056Y270891D02*
Y272161D01*
Y275463D02*
Y276225D01*
X321310Y270383D02*
Y271907D01*
Y275463D02*
Y276225D01*
X321564Y269621D02*
Y271399D01*
Y275463D02*
Y276225D01*
X321818Y268605D02*
Y270891D01*
Y275463D02*
Y276225D01*
X322072Y275463D02*
Y276225D01*
X322326Y275463D02*
Y276225D01*
X322580Y275463D02*
Y276225D01*
X322834Y275463D02*
Y276225D01*
X323088Y275463D02*
Y276225D01*
X323342Y275463D02*
Y276225D01*
X323596Y275463D02*
Y276225D01*
X323850Y275463D02*
Y276225D01*
X324104Y275463D02*
Y276225D01*
X324358Y275463D02*
Y276225D01*
X324612Y275463D02*
Y276225D01*
X324866Y275463D02*
Y276225D01*
X277114Y275336D02*
Y276098D01*
X277368Y275336D02*
Y276098D01*
X277622Y275336D02*
Y276098D01*
X277876Y275336D02*
Y276098D01*
X278130Y275336D02*
Y276098D01*
X278384Y275336D02*
Y276098D01*
X278638Y275336D02*
Y276098D01*
X278892Y275336D02*
Y276098D01*
X279146Y275336D02*
Y276098D01*
X279400Y275336D02*
Y276098D01*
X279654Y275336D02*
Y276098D01*
X279908Y275336D02*
Y276098D01*
X280162Y275336D02*
Y276098D01*
X280416Y275336D02*
Y276098D01*
X280670Y275336D02*
Y276098D01*
X280924Y275336D02*
Y276098D01*
X281178Y275336D02*
Y276098D01*
X281432Y275336D02*
Y276098D01*
X281686Y275336D02*
Y276098D01*
X281940Y275336D02*
Y276098D01*
X282194Y275336D02*
Y276098D01*
X282448Y275336D02*
Y276098D01*
X282702Y275336D02*
Y276098D01*
X282956Y275336D02*
Y276098D01*
X283210Y275336D02*
Y276098D01*
X283464Y275336D02*
Y276098D01*
X283718Y275336D02*
Y276098D01*
X283972Y275336D02*
Y276098D01*
X284226Y275336D02*
Y276098D01*
X284480Y275336D02*
Y276098D01*
X284734Y275336D02*
Y276098D01*
X284988Y275336D02*
Y276098D01*
X285242Y275336D02*
Y276098D01*
X285496Y275336D02*
Y276098D01*
X285750Y275336D02*
Y276098D01*
X286004Y275336D02*
Y276098D01*
X286258Y275336D02*
Y276098D01*
X286512Y275336D02*
Y276098D01*
X286766Y275336D02*
Y276098D01*
X287020Y275336D02*
Y276098D01*
X287274Y275336D02*
Y276098D01*
X287528Y275336D02*
Y276098D01*
X287782Y275336D02*
Y276098D01*
X288036Y275336D02*
Y276098D01*
X288290Y275336D02*
Y276098D01*
X288544Y275336D02*
Y276098D01*
X288798Y275336D02*
Y276098D01*
X289052Y275336D02*
Y276098D01*
X289306Y275336D02*
Y276098D01*
X289560Y275336D02*
Y276098D01*
X289814Y275336D02*
Y276098D01*
X290068Y275336D02*
Y276098D01*
X290322Y275336D02*
Y276098D01*
X290576Y275336D02*
Y276098D01*
X290830Y275336D02*
Y276098D01*
X291084Y275336D02*
Y276098D01*
X291338Y275336D02*
Y276098D01*
X291592Y266700D02*
Y268224D01*
Y275336D02*
Y276098D01*
X291846Y265176D02*
Y269494D01*
Y275336D02*
Y276098D01*
X292100Y264414D02*
Y270256D01*
Y275336D02*
Y276098D01*
X292354Y263906D02*
Y265684D01*
Y268986D02*
Y270764D01*
Y275336D02*
Y276098D01*
X292608Y263398D02*
Y264668D01*
Y269748D02*
Y271272D01*
Y275336D02*
Y276098D01*
X292862Y262890D02*
Y263906D01*
Y270510D02*
Y271526D01*
Y275336D02*
Y276098D01*
X293116Y262636D02*
Y263398D01*
Y271272D02*
Y272034D01*
Y275336D02*
Y276098D01*
X293370Y262382D02*
Y263144D01*
Y271526D02*
Y272288D01*
Y275336D02*
Y276098D01*
X293624Y262128D02*
Y262636D01*
Y272034D02*
Y272796D01*
Y275336D02*
Y276098D01*
X293878Y261874D02*
Y262382D01*
Y272288D02*
Y273050D01*
Y275336D02*
Y276098D01*
X294132Y261620D02*
Y262128D01*
Y272542D02*
Y273304D01*
Y275336D02*
Y276098D01*
X294386Y261366D02*
Y261874D01*
Y273050D02*
Y273558D01*
Y275336D02*
Y276098D01*
X294640Y261112D02*
Y261620D01*
Y273304D02*
Y273812D01*
Y275336D02*
Y276098D01*
X294894Y260858D02*
Y261620D01*
Y273558D02*
Y274320D01*
Y275336D02*
Y276098D01*
X295148Y260604D02*
Y261366D01*
Y273812D02*
Y274574D01*
Y275336D02*
Y276098D01*
X295402Y260604D02*
Y261112D01*
Y274066D02*
Y274828D01*
Y275336D02*
Y276098D01*
X295656Y260350D02*
Y260858D01*
Y274320D02*
Y274828D01*
Y275336D02*
Y276098D01*
X295910Y260096D02*
Y260604D01*
Y274574D02*
Y275082D01*
Y275336D02*
Y276098D01*
X296164Y260096D02*
Y260604D01*
Y274828D02*
Y276098D01*
X296418Y259842D02*
Y260350D01*
Y275082D02*
Y276098D01*
X296672Y259588D02*
Y260096D01*
Y275082D02*
Y276098D01*
X296926Y259588D02*
Y260096D01*
Y275336D02*
Y275844D01*
X297180Y259334D02*
Y259842D01*
X297434Y259334D02*
Y259842D01*
X297688Y259080D02*
Y259588D01*
X297942Y259080D02*
Y259588D01*
X298196Y258826D02*
Y259588D01*
X298450Y258826D02*
Y259334D01*
X298704Y258826D02*
Y259334D01*
X298958Y258572D02*
Y259080D01*
X299212Y258572D02*
Y259080D01*
X299466Y258572D02*
Y259080D01*
X299720Y258318D02*
Y258826D01*
X299974Y258318D02*
Y258826D01*
X300228Y258318D02*
Y258826D01*
X300482Y258064D02*
Y258826D01*
X300736Y258064D02*
Y258826D01*
X300990Y258064D02*
Y258572D01*
X301244Y258064D02*
Y258572D01*
X301498Y257810D02*
Y258572D01*
X301752Y257810D02*
Y258572D01*
X302006Y257810D02*
Y258318D01*
X302260Y257810D02*
Y258318D01*
X302514Y257810D02*
Y258318D01*
X302768Y257556D02*
Y258318D01*
X303022Y257556D02*
Y258318D01*
X303276Y257556D02*
Y258318D01*
X303530Y257556D02*
Y258318D01*
X303784Y257556D02*
Y258064D01*
X304038Y257556D02*
Y258064D01*
X304292Y257556D02*
Y258064D01*
X304546Y257556D02*
Y258064D01*
X304800Y257556D02*
Y258064D01*
X305054Y257302D02*
Y258064D01*
X305308Y257302D02*
Y258064D01*
X305562Y257302D02*
Y258064D01*
X305816Y257302D02*
Y258064D01*
X306070Y257302D02*
Y258064D01*
X306324Y257302D02*
Y258064D01*
X306578Y257302D02*
Y258064D01*
X306832Y257302D02*
Y258064D01*
X307086Y257302D02*
Y258064D01*
X307340Y257302D02*
Y258064D01*
X307594Y257302D02*
Y258064D01*
X307848Y257302D02*
Y258064D01*
X308102Y257302D02*
Y258064D01*
X308356Y257302D02*
Y258064D01*
X308610Y257302D02*
Y258064D01*
X308864Y257302D02*
Y258064D01*
X309118Y257302D02*
Y258064D01*
X309372Y257556D02*
Y258064D01*
X309626Y257556D02*
Y258064D01*
X309880Y257556D02*
Y258064D01*
X310134Y257556D02*
Y258064D01*
X310388Y257556D02*
Y258064D01*
X310642Y257556D02*
Y258318D01*
X310896Y257556D02*
Y258318D01*
X311150Y257556D02*
Y258318D01*
X311404Y257556D02*
Y258318D01*
X311658Y257810D02*
Y258318D01*
X311912Y257810D02*
Y258318D01*
X312166Y257810D02*
Y258572D01*
X312420Y257810D02*
Y258572D01*
X398272Y167640D02*
Y329946D01*
X398018Y167640D02*
Y329946D01*
X397764Y167640D02*
Y167894D01*
Y221234D02*
Y221996D01*
Y275336D02*
Y276098D01*
Y329438D02*
Y329946D01*
X397510Y167640D02*
Y167894D01*
Y221234D02*
Y221996D01*
Y275336D02*
Y276098D01*
Y329438D02*
Y329946D01*
X397256Y167640D02*
Y167894D01*
Y221234D02*
Y221996D01*
Y275336D02*
Y276098D01*
Y329438D02*
Y329946D01*
X397002Y167640D02*
Y167894D01*
Y221234D02*
Y221996D01*
Y275336D02*
Y276098D01*
Y329438D02*
Y329946D01*
X396748Y167640D02*
Y167894D01*
Y221234D02*
Y221996D01*
Y275336D02*
Y276098D01*
Y329438D02*
Y329946D01*
X396494Y167640D02*
Y167894D01*
Y221234D02*
Y221996D01*
Y275336D02*
Y276098D01*
Y329438D02*
Y329946D01*
X396240Y167640D02*
Y167894D01*
Y221234D02*
Y221996D01*
Y275336D02*
Y276098D01*
Y329438D02*
Y329946D01*
X395986Y167640D02*
Y167894D01*
Y221234D02*
Y221996D01*
Y275336D02*
Y276098D01*
Y329438D02*
Y329946D01*
X395732Y167640D02*
Y167894D01*
Y221234D02*
Y221996D01*
Y275336D02*
Y276098D01*
Y329438D02*
Y329946D01*
X395478Y167640D02*
Y167894D01*
Y221234D02*
Y221996D01*
Y275336D02*
Y276098D01*
Y329438D02*
Y329946D01*
X395224Y167640D02*
Y167894D01*
Y221234D02*
Y221996D01*
Y275336D02*
Y276098D01*
Y329438D02*
Y329946D01*
X394970Y167640D02*
Y167894D01*
Y221234D02*
Y221996D01*
Y275336D02*
Y276098D01*
Y329438D02*
Y329946D01*
X394716Y167640D02*
Y167894D01*
Y221234D02*
Y221996D01*
Y275336D02*
Y276098D01*
Y329438D02*
Y329946D01*
X394462Y167640D02*
Y167894D01*
Y221234D02*
Y221996D01*
Y275336D02*
Y276098D01*
Y329438D02*
Y329946D01*
X394208Y167640D02*
Y167894D01*
Y221234D02*
Y221996D01*
Y275336D02*
Y276098D01*
Y329438D02*
Y329946D01*
X393954Y167640D02*
Y167894D01*
Y221234D02*
Y221996D01*
Y275336D02*
Y276098D01*
Y329438D02*
Y329946D01*
X393700Y167640D02*
Y167894D01*
Y221234D02*
Y221996D01*
Y275336D02*
Y276098D01*
Y329438D02*
Y329946D01*
X393446Y167640D02*
Y167894D01*
Y221234D02*
Y221996D01*
Y275336D02*
Y276098D01*
Y329438D02*
Y329946D01*
X393192Y167640D02*
Y167894D01*
Y221234D02*
Y221996D01*
Y275336D02*
Y276098D01*
Y329438D02*
Y329946D01*
X392938Y167640D02*
Y167894D01*
Y221234D02*
Y221996D01*
Y275336D02*
Y276098D01*
Y329438D02*
Y329946D01*
X392684Y167640D02*
Y167894D01*
Y221234D02*
Y221996D01*
Y275336D02*
Y276098D01*
Y329438D02*
Y329946D01*
X392430Y167640D02*
Y167894D01*
Y221234D02*
Y221996D01*
Y275336D02*
Y276098D01*
Y329438D02*
Y329946D01*
X392176Y167640D02*
Y167894D01*
Y221234D02*
Y221996D01*
Y275336D02*
Y276098D01*
Y329438D02*
Y329946D01*
X391922Y167640D02*
Y167894D01*
Y221234D02*
Y221996D01*
Y275336D02*
Y276098D01*
Y329438D02*
Y329946D01*
X391668Y167640D02*
Y167894D01*
Y221234D02*
Y221996D01*
Y275336D02*
Y276098D01*
Y329438D02*
Y329946D01*
X391414Y167640D02*
Y167894D01*
Y221234D02*
Y221996D01*
Y275336D02*
Y276098D01*
Y329438D02*
Y329946D01*
X391160Y167640D02*
Y167894D01*
Y221234D02*
Y221996D01*
Y275336D02*
Y276098D01*
Y329438D02*
Y329946D01*
X390906Y167640D02*
Y167894D01*
Y221234D02*
Y221996D01*
Y275336D02*
Y276098D01*
Y329438D02*
Y329946D01*
X390652Y167640D02*
Y167894D01*
Y221234D02*
Y221996D01*
Y275336D02*
Y276098D01*
Y329438D02*
Y329946D01*
X390398Y167640D02*
Y167894D01*
Y221234D02*
Y221996D01*
Y275336D02*
Y276098D01*
Y329438D02*
Y329946D01*
X390144Y167640D02*
Y167894D01*
Y221234D02*
Y221996D01*
Y275336D02*
Y276098D01*
Y329438D02*
Y329946D01*
X389890Y167640D02*
Y167894D01*
Y221234D02*
Y221996D01*
Y275336D02*
Y276098D01*
Y329438D02*
Y329946D01*
X389636Y167640D02*
Y167894D01*
Y221234D02*
Y221996D01*
Y275336D02*
Y276098D01*
Y329438D02*
Y329946D01*
X389382Y167640D02*
Y167894D01*
Y221234D02*
Y221996D01*
Y275336D02*
Y276098D01*
Y329438D02*
Y329946D01*
X389128Y167640D02*
Y167894D01*
Y221234D02*
Y221996D01*
Y275336D02*
Y276098D01*
Y329438D02*
Y329946D01*
X388874Y167640D02*
Y167894D01*
Y221234D02*
Y221996D01*
Y275336D02*
Y276098D01*
Y329438D02*
Y329946D01*
X388620Y167640D02*
Y167894D01*
Y221234D02*
Y221996D01*
Y275336D02*
Y276098D01*
Y329438D02*
Y329946D01*
X388366Y167640D02*
Y167894D01*
Y221234D02*
Y221996D01*
Y275336D02*
Y276098D01*
Y329438D02*
Y329946D01*
X388112Y167640D02*
Y167894D01*
Y221234D02*
Y221996D01*
Y275336D02*
Y276098D01*
Y329438D02*
Y329946D01*
X387858Y167640D02*
Y167894D01*
Y221234D02*
Y221996D01*
Y275336D02*
Y276098D01*
Y329438D02*
Y329946D01*
X387604Y167640D02*
Y167894D01*
Y221234D02*
Y221996D01*
Y275336D02*
Y276098D01*
Y329438D02*
Y329946D01*
X387350Y167640D02*
Y167894D01*
Y221234D02*
Y221996D01*
Y275336D02*
Y276098D01*
Y329438D02*
Y329946D01*
X387096Y167640D02*
Y167894D01*
Y221234D02*
Y221996D01*
Y275336D02*
Y276098D01*
Y329438D02*
Y329946D01*
X386842Y167640D02*
Y167894D01*
Y221234D02*
Y221996D01*
Y275336D02*
Y276098D01*
Y329438D02*
Y329946D01*
X386588Y167640D02*
Y167894D01*
Y221234D02*
Y221996D01*
Y275336D02*
Y276098D01*
Y329438D02*
Y329946D01*
X386334Y167640D02*
Y167894D01*
Y221234D02*
Y221996D01*
Y275336D02*
Y276098D01*
Y329438D02*
Y329946D01*
X386080Y167640D02*
Y167894D01*
Y221234D02*
Y221996D01*
Y275336D02*
Y276098D01*
Y329438D02*
Y329946D01*
X385826Y167640D02*
Y167894D01*
Y221234D02*
Y221996D01*
Y275336D02*
Y276098D01*
Y329438D02*
Y329946D01*
X385572Y167640D02*
Y167894D01*
Y221234D02*
Y221996D01*
Y275336D02*
Y276098D01*
Y329438D02*
Y329946D01*
X385318Y167640D02*
Y167894D01*
Y221234D02*
Y221996D01*
Y275336D02*
Y276098D01*
Y329438D02*
Y329946D01*
X385064Y167640D02*
Y167894D01*
Y221234D02*
Y221996D01*
Y275336D02*
Y276098D01*
Y329438D02*
Y329946D01*
X384810Y167640D02*
Y167894D01*
Y221234D02*
Y221996D01*
Y275336D02*
Y276098D01*
Y329438D02*
Y329946D01*
X384556Y167640D02*
Y167894D01*
Y221234D02*
Y221996D01*
Y275336D02*
Y276098D01*
Y329438D02*
Y329946D01*
X384302Y167640D02*
Y167894D01*
Y221234D02*
Y221996D01*
Y275336D02*
Y276098D01*
Y329438D02*
Y329946D01*
X384048Y167640D02*
Y167894D01*
Y221234D02*
Y221996D01*
Y275336D02*
Y276098D01*
Y329438D02*
Y329946D01*
X383794Y167640D02*
Y167894D01*
Y212598D02*
Y213360D01*
Y221234D02*
Y221996D01*
Y275336D02*
Y276098D01*
Y329438D02*
Y329946D01*
X383540Y167640D02*
Y167894D01*
Y211074D02*
Y215138D01*
Y221234D02*
Y221996D01*
Y275336D02*
Y276098D01*
Y329438D02*
Y329946D01*
X383286Y167640D02*
Y167894D01*
Y210312D02*
Y216154D01*
Y221234D02*
Y221996D01*
Y275336D02*
Y276098D01*
Y329438D02*
Y329946D01*
X383032Y167640D02*
Y167894D01*
Y209804D02*
Y211836D01*
Y214630D02*
Y216662D01*
Y221234D02*
Y221996D01*
Y275336D02*
Y276098D01*
Y282702D02*
Y285496D01*
Y329438D02*
Y329946D01*
X382778Y167640D02*
Y167894D01*
Y209296D02*
Y210566D01*
Y215646D02*
Y217170D01*
Y221234D02*
Y221996D01*
Y275336D02*
Y276098D01*
Y281940D02*
Y286512D01*
Y329438D02*
Y329946D01*
X382524Y167640D02*
Y167894D01*
Y208788D02*
Y210058D01*
Y216154D02*
Y217678D01*
Y221234D02*
Y221996D01*
Y275336D02*
Y276098D01*
Y281178D02*
Y283464D01*
Y284480D02*
Y287274D01*
Y329438D02*
Y329946D01*
X382270Y167640D02*
Y167894D01*
Y208534D02*
Y209550D01*
Y216662D02*
Y217932D01*
Y221234D02*
Y221996D01*
Y275336D02*
Y276098D01*
Y280416D02*
Y282194D01*
Y286004D02*
Y287782D01*
Y329438D02*
Y329946D01*
X382016Y167640D02*
Y167894D01*
Y208026D02*
Y209296D01*
Y217170D02*
Y218440D01*
Y221234D02*
Y221996D01*
Y275336D02*
Y276098D01*
Y279908D02*
Y281432D01*
Y286766D02*
Y288290D01*
Y329438D02*
Y329946D01*
X381762Y167640D02*
Y167894D01*
Y207772D02*
Y208788D01*
Y217678D02*
Y218694D01*
Y221234D02*
Y221996D01*
Y275336D02*
Y276098D01*
Y279400D02*
Y281178D01*
Y287274D02*
Y288798D01*
Y329438D02*
Y329946D01*
X381508Y167640D02*
Y167894D01*
Y207518D02*
Y208534D01*
Y218186D02*
Y219202D01*
Y221234D02*
Y221996D01*
Y275336D02*
Y276098D01*
Y279146D02*
Y280416D01*
Y287782D02*
Y289052D01*
Y329438D02*
Y329946D01*
X381254Y167640D02*
Y167894D01*
Y207264D02*
Y208280D01*
Y218440D02*
Y219456D01*
Y221234D02*
Y221996D01*
Y275336D02*
Y276098D01*
Y278638D02*
Y279908D01*
Y287782D02*
Y289306D01*
Y329438D02*
Y329946D01*
X381000Y167640D02*
Y167894D01*
Y207010D02*
Y208026D01*
Y218694D02*
Y219710D01*
Y221234D02*
Y221996D01*
Y275336D02*
Y276098D01*
Y278384D02*
Y279400D01*
Y288290D02*
Y289560D01*
Y329438D02*
Y329946D01*
X380746Y167640D02*
Y167894D01*
Y207010D02*
Y207772D01*
Y218948D02*
Y219964D01*
Y221234D02*
Y221996D01*
Y275336D02*
Y276098D01*
Y278130D02*
Y279146D01*
Y288544D02*
Y289814D01*
Y329438D02*
Y329946D01*
X380492Y167640D02*
Y167894D01*
Y206756D02*
Y207518D01*
Y219456D02*
Y220218D01*
Y221234D02*
Y221996D01*
Y275336D02*
Y276098D01*
Y277876D02*
Y278638D01*
Y288798D02*
Y290068D01*
Y329438D02*
Y329946D01*
X380238Y167640D02*
Y167894D01*
Y206502D02*
Y207264D01*
Y219710D02*
Y220472D01*
Y221234D02*
Y221996D01*
Y275336D02*
Y276098D01*
Y277622D02*
Y278384D01*
Y289052D02*
Y290322D01*
Y329438D02*
Y329946D01*
X379984Y167640D02*
Y167894D01*
Y206248D02*
Y207010D01*
Y219964D02*
Y220726D01*
Y221234D02*
Y221996D01*
Y275336D02*
Y276098D01*
Y277368D02*
Y278130D01*
Y289306D02*
Y290576D01*
Y329438D02*
Y329946D01*
X379730Y167640D02*
Y167894D01*
Y206248D02*
Y207010D01*
Y220218D02*
Y220980D01*
Y221234D02*
Y221996D01*
Y275336D02*
Y276098D01*
Y276860D02*
Y277876D01*
Y289560D02*
Y290830D01*
Y329438D02*
Y329946D01*
X379476Y167640D02*
Y167894D01*
Y205994D02*
Y206756D01*
Y220472D02*
Y221996D01*
Y275336D02*
Y276098D01*
Y276606D02*
Y277622D01*
Y289814D02*
Y290830D01*
Y329438D02*
Y329946D01*
X379222Y167640D02*
Y167894D01*
Y205740D02*
Y206502D01*
Y220726D02*
Y221996D01*
Y275336D02*
Y276098D01*
Y276352D02*
Y277368D01*
Y290068D02*
Y291084D01*
Y329438D02*
Y329946D01*
X378968Y167640D02*
Y167894D01*
Y205740D02*
Y206502D01*
Y220980D02*
Y221996D01*
Y275336D02*
Y276098D01*
Y276352D02*
Y277368D01*
Y290068D02*
Y291338D01*
Y329438D02*
Y329946D01*
X378714Y167640D02*
Y167894D01*
Y205486D02*
Y206248D01*
Y220980D02*
Y221996D01*
Y275336D02*
Y276860D01*
Y290322D02*
Y291338D01*
Y329438D02*
Y329946D01*
X378460Y167640D02*
Y167894D01*
Y205486D02*
Y205994D01*
Y221234D02*
Y221996D01*
Y275336D02*
Y276606D01*
Y290576D02*
Y291592D01*
Y329438D02*
Y329946D01*
X378206Y167640D02*
Y167894D01*
Y205232D02*
Y205994D01*
Y221234D02*
Y221996D01*
Y275336D02*
Y276352D01*
Y290576D02*
Y291846D01*
Y329438D02*
Y329946D01*
X377952Y167640D02*
Y167894D01*
Y205232D02*
Y205740D01*
Y221234D02*
Y221996D01*
Y275336D02*
Y276098D01*
Y290830D02*
Y291846D01*
Y329438D02*
Y329946D01*
X377698Y167640D02*
Y167894D01*
Y204978D02*
Y205740D01*
Y275590D02*
Y275844D01*
Y291084D02*
Y292100D01*
Y329438D02*
Y329946D01*
X377444Y167640D02*
Y167894D01*
Y204978D02*
Y205486D01*
Y291338D02*
Y292100D01*
Y329438D02*
Y329946D01*
X377190Y167640D02*
Y167894D01*
Y204724D02*
Y205486D01*
Y291338D02*
Y292354D01*
Y329438D02*
Y329946D01*
X376936Y167640D02*
Y167894D01*
Y204724D02*
Y205232D01*
Y291592D02*
Y292354D01*
Y329438D02*
Y329946D01*
X376682Y167640D02*
Y167894D01*
Y204724D02*
Y205232D01*
Y291846D02*
Y292354D01*
Y329438D02*
Y329946D01*
X376428Y167640D02*
Y167894D01*
Y204470D02*
Y205232D01*
Y292100D02*
Y292608D01*
Y329438D02*
Y329946D01*
X376174Y167640D02*
Y167894D01*
Y204470D02*
Y204978D01*
Y292100D02*
Y292608D01*
Y329438D02*
Y329946D01*
X375920Y167640D02*
Y167894D01*
Y204470D02*
Y204978D01*
Y292354D02*
Y292862D01*
Y329438D02*
Y329946D01*
X375666Y167640D02*
Y167894D01*
Y204216D02*
Y204978D01*
Y292354D02*
Y292862D01*
Y329438D02*
Y329946D01*
X375412Y167640D02*
Y167894D01*
Y204216D02*
Y204724D01*
Y292354D02*
Y293116D01*
Y329438D02*
Y329946D01*
X375158Y167640D02*
Y167894D01*
Y203962D02*
Y204724D01*
Y292354D02*
Y293116D01*
Y329438D02*
Y329946D01*
X374904Y167640D02*
Y167894D01*
Y203962D02*
Y204724D01*
Y292608D02*
Y293116D01*
Y329438D02*
Y329946D01*
X374650Y167640D02*
Y167894D01*
Y203962D02*
Y204724D01*
Y292608D02*
Y293116D01*
Y329438D02*
Y329946D01*
X374396Y167640D02*
Y167894D01*
Y203962D02*
Y204470D01*
Y292608D02*
Y293370D01*
Y329438D02*
Y329946D01*
X374142Y167640D02*
Y167894D01*
Y203962D02*
Y204470D01*
Y292608D02*
Y293370D01*
Y329438D02*
Y329946D01*
X373888Y167640D02*
Y167894D01*
Y203708D02*
Y204470D01*
Y292608D02*
Y293370D01*
Y329438D02*
Y329946D01*
X373634Y167640D02*
Y167894D01*
Y203708D02*
Y204470D01*
Y292608D02*
Y293370D01*
Y329438D02*
Y329946D01*
X373380Y167640D02*
Y167894D01*
Y203708D02*
Y204470D01*
Y292608D02*
Y293624D01*
Y329438D02*
Y329946D01*
X373126Y167640D02*
Y167894D01*
Y203708D02*
Y204216D01*
Y292862D02*
Y293624D01*
Y329438D02*
Y329946D01*
X372872Y167640D02*
Y167894D01*
Y203708D02*
Y204216D01*
Y292862D02*
Y293624D01*
Y329438D02*
Y329946D01*
X372618Y167640D02*
Y167894D01*
Y203708D02*
Y204216D01*
Y293116D02*
Y293624D01*
Y329438D02*
Y329946D01*
X372364Y167640D02*
Y167894D01*
Y203708D02*
Y204216D01*
Y293116D02*
Y293624D01*
Y329438D02*
Y329946D01*
X372110Y167640D02*
Y167894D01*
Y203454D02*
Y204216D01*
Y293116D02*
Y293624D01*
Y329438D02*
Y329946D01*
X371856Y167640D02*
Y167894D01*
Y203454D02*
Y204216D01*
Y293116D02*
Y293624D01*
Y329438D02*
Y329946D01*
X371602Y167640D02*
Y167894D01*
Y203454D02*
Y203962D01*
Y293116D02*
Y293624D01*
Y329438D02*
Y329946D01*
X371348Y167640D02*
Y167894D01*
Y203454D02*
Y203962D01*
Y293116D02*
Y293878D01*
Y329438D02*
Y329946D01*
X371094Y167640D02*
Y167894D01*
Y203454D02*
Y203962D01*
Y293370D02*
Y293878D01*
Y329438D02*
Y329946D01*
X370840Y167640D02*
Y167894D01*
Y203454D02*
Y203962D01*
Y293370D02*
Y293878D01*
Y329438D02*
Y329946D01*
X370586Y167640D02*
Y167894D01*
Y203454D02*
Y203962D01*
Y293370D02*
Y293878D01*
Y329438D02*
Y329946D01*
X370332Y167640D02*
Y167894D01*
Y203454D02*
Y203962D01*
Y293370D02*
Y293878D01*
Y329438D02*
Y329946D01*
X370078Y167640D02*
Y167894D01*
Y203454D02*
Y203962D01*
Y293370D02*
Y293878D01*
Y329438D02*
Y329946D01*
X369824Y167640D02*
Y167894D01*
Y203454D02*
Y203962D01*
Y293370D02*
Y293878D01*
Y329438D02*
Y329946D01*
X369570Y167640D02*
Y167894D01*
Y203454D02*
Y203962D01*
Y293370D02*
Y293878D01*
Y329438D02*
Y329946D01*
X369316Y167640D02*
Y167894D01*
Y203454D02*
Y203962D01*
Y293370D02*
Y293878D01*
Y329438D02*
Y329946D01*
X369062Y167640D02*
Y167894D01*
Y203200D02*
Y203962D01*
Y293370D02*
Y293878D01*
Y329438D02*
Y329946D01*
X368808Y167640D02*
Y167894D01*
Y203200D02*
Y203962D01*
Y293370D02*
Y293878D01*
Y329438D02*
Y329946D01*
X368554Y167640D02*
Y167894D01*
Y203200D02*
Y203962D01*
Y293370D02*
Y293878D01*
Y329438D02*
Y329946D01*
X368300Y167640D02*
Y167894D01*
Y203200D02*
Y203962D01*
Y293370D02*
Y294132D01*
Y329438D02*
Y329946D01*
X368046Y167640D02*
Y167894D01*
Y203200D02*
Y203962D01*
Y293370D02*
Y294132D01*
Y329438D02*
Y329946D01*
X367792Y167640D02*
Y167894D01*
Y203200D02*
Y203962D01*
Y293370D02*
Y294132D01*
Y329438D02*
Y329946D01*
X367538Y167640D02*
Y167894D01*
Y203454D02*
Y203962D01*
Y293370D02*
Y294132D01*
Y329438D02*
Y329946D01*
X367284Y167640D02*
Y167894D01*
Y203454D02*
Y203962D01*
Y293370D02*
Y294132D01*
Y329438D02*
Y329946D01*
X367030Y167640D02*
Y167894D01*
Y203454D02*
Y203962D01*
Y293370D02*
Y294132D01*
Y329438D02*
Y329946D01*
X366776Y167640D02*
Y167894D01*
Y203454D02*
Y203962D01*
Y293370D02*
Y293878D01*
Y329438D02*
Y329946D01*
X366522Y167640D02*
Y167894D01*
Y203454D02*
Y203962D01*
Y293370D02*
Y293878D01*
Y329438D02*
Y329946D01*
X366268Y167640D02*
Y167894D01*
Y203454D02*
Y203962D01*
Y293370D02*
Y293878D01*
Y329438D02*
Y329946D01*
X366014Y167640D02*
Y167894D01*
Y203454D02*
Y203962D01*
Y293370D02*
Y293878D01*
Y329438D02*
Y329946D01*
X365760Y167640D02*
Y167894D01*
Y203454D02*
Y203962D01*
Y293370D02*
Y293878D01*
Y329438D02*
Y329946D01*
X365506Y167640D02*
Y167894D01*
Y203454D02*
Y203962D01*
Y293370D02*
Y293878D01*
Y329438D02*
Y329946D01*
X365252Y167640D02*
Y167894D01*
Y203454D02*
Y203962D01*
Y293370D02*
Y293878D01*
Y329438D02*
Y329946D01*
X364998Y167640D02*
Y167894D01*
Y203454D02*
Y203962D01*
Y293370D02*
Y293878D01*
Y329438D02*
Y329946D01*
X364744Y167640D02*
Y167894D01*
Y203454D02*
Y204216D01*
Y293370D02*
Y293878D01*
Y329438D02*
Y329946D01*
X364490Y167640D02*
Y167894D01*
Y203454D02*
Y204216D01*
Y293370D02*
Y293878D01*
Y329438D02*
Y329946D01*
X364236Y167640D02*
Y167894D01*
Y203708D02*
Y204216D01*
Y293116D02*
Y293878D01*
Y329438D02*
Y329946D01*
X363982Y167640D02*
Y167894D01*
Y203708D02*
Y204216D01*
Y260858D02*
Y261112D01*
Y293116D02*
Y293878D01*
Y329438D02*
Y329946D01*
X363728Y167640D02*
Y167894D01*
Y203708D02*
Y204216D01*
Y261112D02*
Y261366D01*
Y293116D02*
Y293878D01*
Y329438D02*
Y329946D01*
X363474Y167640D02*
Y167894D01*
Y203708D02*
Y204216D01*
Y260604D02*
Y263398D01*
Y293116D02*
Y293624D01*
Y329438D02*
Y329946D01*
X363220Y167640D02*
Y167894D01*
Y203708D02*
Y204470D01*
Y258826D02*
Y265176D01*
Y293116D02*
Y293624D01*
Y329438D02*
Y329946D01*
X362966Y167640D02*
Y167894D01*
Y203708D02*
Y204470D01*
Y257810D02*
Y266446D01*
Y293116D02*
Y293624D01*
Y329438D02*
Y329946D01*
X362712Y167640D02*
Y167894D01*
Y174752D02*
Y181610D01*
Y201676D02*
Y209296D01*
Y214376D02*
Y221742D01*
Y235712D02*
Y243078D01*
Y256794D02*
Y267208D01*
Y284734D02*
Y292100D01*
Y293116D02*
Y293624D01*
Y296164D02*
Y322072D01*
Y329438D02*
Y329946D01*
X362458Y167640D02*
Y167894D01*
Y174752D02*
Y181610D01*
Y201676D02*
Y209296D01*
Y214376D02*
Y221488D01*
Y235712D02*
Y243078D01*
Y256286D02*
Y267970D01*
Y284734D02*
Y291846D01*
Y292862D02*
Y293624D01*
Y296164D02*
Y322072D01*
Y329438D02*
Y329946D01*
X362204Y167640D02*
Y167894D01*
Y174752D02*
Y181610D01*
Y201422D02*
Y209042D01*
Y214122D02*
Y221488D01*
Y235712D02*
Y243078D01*
Y255778D02*
Y268478D01*
Y268732D02*
Y268986D01*
Y284480D02*
Y291846D01*
Y292862D02*
Y293624D01*
Y296164D02*
Y322072D01*
Y329438D02*
Y329946D01*
X361950Y167640D02*
Y167894D01*
Y174752D02*
Y181610D01*
Y201422D02*
Y209042D01*
Y214122D02*
Y221488D01*
Y235712D02*
Y243078D01*
Y255270D02*
Y268986D01*
Y284480D02*
Y291846D01*
Y292862D02*
Y293624D01*
Y295910D02*
Y322072D01*
Y329438D02*
Y329946D01*
X361696Y167640D02*
Y167894D01*
Y175006D02*
Y181610D01*
Y201422D02*
Y208788D01*
Y214122D02*
Y221488D01*
Y235712D02*
Y243078D01*
Y254762D02*
Y269494D01*
Y284480D02*
Y291846D01*
Y292862D02*
Y293370D01*
Y295910D02*
Y322072D01*
Y329438D02*
Y329946D01*
X361442Y167640D02*
Y167894D01*
Y175006D02*
Y181737D01*
Y201168D02*
Y208788D01*
Y214122D02*
Y221488D01*
Y235712D02*
Y242824D01*
Y254254D02*
Y269748D01*
Y284480D02*
Y291846D01*
Y292608D02*
Y293370D01*
Y295910D02*
Y321818D01*
Y329438D02*
Y329946D01*
X361188Y167640D02*
Y167894D01*
Y175006D02*
Y181737D01*
Y201168D02*
Y208788D01*
Y214122D02*
Y221488D01*
Y235458D02*
Y242824D01*
Y254000D02*
Y270256D01*
Y284480D02*
Y291846D01*
Y292608D02*
Y293370D01*
Y295910D02*
Y321818D01*
Y329438D02*
Y329946D01*
X360934Y167640D02*
Y167894D01*
Y175006D02*
Y181737D01*
Y200914D02*
Y208534D01*
Y214122D02*
Y221488D01*
Y235458D02*
Y242824D01*
Y253492D02*
Y270510D01*
Y284480D02*
Y291846D01*
Y292608D02*
Y293370D01*
Y295910D02*
Y321818D01*
Y329438D02*
Y329946D01*
X360680Y167640D02*
Y167894D01*
Y175006D02*
Y181864D01*
Y200914D02*
Y208534D01*
Y214122D02*
Y221234D01*
Y235458D02*
Y242824D01*
Y253238D02*
Y271018D01*
Y284226D02*
Y291592D01*
Y292608D02*
Y293116D01*
Y295910D02*
Y321818D01*
Y329438D02*
Y329946D01*
X360426Y167640D02*
Y167894D01*
Y175006D02*
Y181864D01*
Y200914D02*
Y208280D01*
Y213868D02*
Y221234D01*
Y235458D02*
Y242824D01*
Y252984D02*
Y271272D01*
Y284226D02*
Y291592D01*
Y292354D02*
Y293116D01*
Y295910D02*
Y321818D01*
Y329438D02*
Y329946D01*
X360172Y167640D02*
Y167894D01*
Y175006D02*
Y181864D01*
Y200660D02*
Y208280D01*
Y213868D02*
Y221234D01*
Y235458D02*
Y242824D01*
Y252730D02*
Y271526D01*
Y284226D02*
Y291592D01*
Y292354D02*
Y293116D01*
Y295656D02*
Y321818D01*
Y329438D02*
Y329946D01*
X359918Y167640D02*
Y167894D01*
Y175006D02*
Y181864D01*
Y200660D02*
Y208280D01*
Y213868D02*
Y221234D01*
Y235458D02*
Y242570D01*
Y252476D02*
Y271780D01*
Y284226D02*
Y291592D01*
Y292354D02*
Y292862D01*
Y295656D02*
Y321564D01*
Y329438D02*
Y329946D01*
X359664Y167640D02*
Y167894D01*
Y175006D02*
Y181864D01*
Y200406D02*
Y208026D01*
Y213868D02*
Y221234D01*
Y235204D02*
Y242570D01*
Y252222D02*
Y272034D01*
Y284226D02*
Y291592D01*
Y292100D02*
Y292862D01*
Y295656D02*
Y321564D01*
Y329438D02*
Y329946D01*
X359410Y167640D02*
Y167894D01*
Y175260D02*
Y181991D01*
Y200406D02*
Y208026D01*
Y213868D02*
Y221234D01*
Y235204D02*
Y242570D01*
Y251968D02*
Y272288D01*
Y284226D02*
Y291592D01*
Y292100D02*
Y292608D01*
Y295656D02*
Y321564D01*
Y329438D02*
Y329946D01*
X359156Y167640D02*
Y167894D01*
Y175260D02*
Y181991D01*
Y200406D02*
Y207772D01*
Y213868D02*
Y220980D01*
Y235204D02*
Y242570D01*
Y251714D02*
Y272542D01*
Y284226D02*
Y291338D01*
Y292100D02*
Y292608D01*
Y295656D02*
Y321564D01*
Y329438D02*
Y329946D01*
X358902Y167640D02*
Y167894D01*
Y175260D02*
Y181991D01*
Y200152D02*
Y207772D01*
Y213614D02*
Y220980D01*
Y235204D02*
Y242570D01*
Y251460D02*
Y272796D01*
Y283972D02*
Y291338D01*
Y291846D02*
Y292608D01*
Y295656D02*
Y321564D01*
Y329438D02*
Y329946D01*
X358648Y167640D02*
Y167894D01*
Y175260D02*
Y182118D01*
Y200152D02*
Y207772D01*
Y213614D02*
Y220980D01*
Y235204D02*
Y242570D01*
Y251206D02*
Y273050D01*
Y283972D02*
Y291338D01*
Y291846D02*
Y292354D01*
Y295656D02*
Y321564D01*
Y329438D02*
Y329946D01*
X358394Y167640D02*
Y167894D01*
Y175260D02*
Y182118D01*
Y199898D02*
Y207518D01*
Y213614D02*
Y220980D01*
Y221488D02*
Y221742D01*
Y235204D02*
Y242570D01*
Y250952D02*
Y273050D01*
Y283972D02*
Y291338D01*
Y291846D02*
Y292354D01*
Y295402D02*
Y321564D01*
Y329438D02*
Y329946D01*
X358140Y167640D02*
Y167894D01*
Y175260D02*
Y182118D01*
Y199898D02*
Y207518D01*
Y213614D02*
Y220980D01*
Y221234D02*
Y221996D01*
Y235204D02*
Y242316D01*
Y250698D02*
Y273304D01*
Y283972D02*
Y292354D01*
Y295402D02*
Y321310D01*
Y329438D02*
Y329946D01*
X357886Y167640D02*
Y167894D01*
Y175260D02*
Y182118D01*
Y199898D02*
Y207264D01*
Y213614D02*
Y221742D01*
Y234950D02*
Y242316D01*
Y246634D02*
Y250444D01*
Y250698D02*
Y273558D01*
Y283972D02*
Y292100D01*
Y295402D02*
Y321310D01*
Y329438D02*
Y329946D01*
X357632Y167640D02*
Y167894D01*
Y175260D02*
Y182118D01*
Y199644D02*
Y207264D01*
Y213614D02*
Y221996D01*
Y234950D02*
Y242316D01*
Y244602D02*
Y273812D01*
Y275336D02*
Y276098D01*
Y283972D02*
Y291084D01*
Y291338D02*
Y292100D01*
Y295402D02*
Y321310D01*
Y329438D02*
Y329946D01*
X357378Y167640D02*
Y167894D01*
Y175514D02*
Y182118D01*
Y199644D02*
Y207264D01*
Y213614D02*
Y221996D01*
Y234950D02*
Y242316D01*
Y243586D02*
Y248158D01*
Y249174D02*
Y273812D01*
Y275336D02*
Y276098D01*
Y283718D02*
Y291084D01*
Y291338D02*
Y291846D01*
Y295402D02*
Y321310D01*
Y329438D02*
Y329946D01*
X357124Y167640D02*
Y167894D01*
Y175514D02*
Y182245D01*
Y199390D02*
Y207010D01*
Y213360D02*
Y221996D01*
Y234950D02*
Y242316D01*
Y242570D02*
Y245364D01*
Y250190D02*
Y274066D01*
Y275336D02*
Y276352D01*
Y283718D02*
Y291846D01*
Y295402D02*
Y321310D01*
Y329438D02*
Y329946D01*
X356870Y167640D02*
Y167894D01*
Y175514D02*
Y182245D01*
Y199390D02*
Y206756D01*
Y213360D02*
Y220726D01*
Y221234D02*
Y221996D01*
Y234950D02*
Y244348D01*
Y249936D02*
Y274066D01*
Y275336D02*
Y276606D01*
Y283718D02*
Y291592D01*
Y295148D02*
Y321310D01*
Y329438D02*
Y329946D01*
X356616Y167640D02*
Y167894D01*
Y175514D02*
Y182372D01*
Y199390D02*
Y207010D01*
Y213360D02*
Y220726D01*
Y221234D02*
Y221996D01*
Y234950D02*
Y243332D01*
Y249682D02*
Y274320D01*
Y275336D02*
Y276860D01*
Y283718D02*
Y291338D01*
Y295148D02*
Y321056D01*
Y329438D02*
Y329946D01*
X356362Y167640D02*
Y167894D01*
Y175514D02*
Y182372D01*
Y199136D02*
Y207264D01*
Y213360D02*
Y220726D01*
Y221234D02*
Y221996D01*
Y234696D02*
Y242570D01*
Y249682D02*
Y274320D01*
Y275336D02*
Y277114D01*
Y283718D02*
Y291338D01*
Y295148D02*
Y321056D01*
Y329438D02*
Y329946D01*
X356108Y167640D02*
Y167894D01*
Y175514D02*
Y182372D01*
Y199136D02*
Y206502D01*
Y206756D02*
Y207518D01*
Y213360D02*
Y220726D01*
Y221234D02*
Y221996D01*
Y234696D02*
Y242062D01*
Y249428D02*
Y274574D01*
Y275336D02*
Y276098D01*
Y276352D02*
Y277368D01*
Y283718D02*
Y291084D01*
Y295148D02*
Y321056D01*
Y329438D02*
Y329946D01*
X355854Y167640D02*
Y167894D01*
Y175514D02*
Y182372D01*
Y198882D02*
Y206502D01*
Y207010D02*
Y207772D01*
Y213360D02*
Y220726D01*
Y221234D02*
Y221996D01*
Y234696D02*
Y242062D01*
Y249428D02*
Y274574D01*
Y275336D02*
Y276098D01*
Y276606D02*
Y277622D01*
Y283464D02*
Y290830D01*
Y295148D02*
Y321056D01*
Y329438D02*
Y329946D01*
X355600Y167640D02*
Y167894D01*
Y175514D02*
Y182372D01*
Y198882D02*
Y206502D01*
Y207010D02*
Y208026D01*
Y213360D02*
Y220472D01*
Y221234D02*
Y221996D01*
Y234696D02*
Y242062D01*
Y249174D02*
Y274828D01*
Y275336D02*
Y276098D01*
Y276860D02*
Y277876D01*
Y283464D02*
Y290830D01*
Y295148D02*
Y321056D01*
Y329438D02*
Y329946D01*
X355346Y167640D02*
Y167894D01*
Y175514D02*
Y182372D01*
Y198882D02*
Y206248D01*
Y207264D02*
Y208280D01*
Y213106D02*
Y220472D01*
Y221234D02*
Y221996D01*
Y234696D02*
Y242062D01*
Y249174D02*
Y274828D01*
Y275336D02*
Y276098D01*
Y277114D02*
Y278130D01*
Y283464D02*
Y290830D01*
Y295148D02*
Y321056D01*
Y329438D02*
Y329946D01*
X355092Y167640D02*
Y167894D01*
Y175768D02*
Y182499D01*
Y198628D02*
Y206248D01*
Y207518D02*
Y208534D01*
Y213106D02*
Y220472D01*
Y221234D02*
Y221996D01*
Y234696D02*
Y242062D01*
Y248920D02*
Y274828D01*
Y275082D02*
Y276098D01*
Y277368D02*
Y278384D01*
Y283464D02*
Y290830D01*
Y294894D02*
Y321056D01*
Y329438D02*
Y329946D01*
X354838Y167640D02*
Y167894D01*
Y175768D02*
Y182499D01*
Y198628D02*
Y205994D01*
Y207772D02*
Y209042D01*
Y213106D02*
Y220472D01*
Y221234D02*
Y221996D01*
Y234696D02*
Y241808D01*
Y248920D02*
Y259588D01*
Y264160D02*
Y276098D01*
Y277622D02*
Y278638D01*
Y283464D02*
Y290830D01*
Y294894D02*
Y320802D01*
Y329438D02*
Y329946D01*
X354584Y167640D02*
Y167894D01*
Y175768D02*
Y182626D01*
Y198374D02*
Y205994D01*
Y208026D02*
Y209296D01*
Y213106D02*
Y220472D01*
Y221234D02*
Y221996D01*
Y234442D02*
Y241808D01*
Y248920D02*
Y258064D01*
Y258318D02*
Y259080D01*
Y265176D02*
Y275082D01*
Y275336D02*
Y276098D01*
Y278130D02*
Y279146D01*
Y283464D02*
Y290830D01*
Y294894D02*
Y320802D01*
Y329438D02*
Y329946D01*
X354330Y167640D02*
Y167894D01*
Y175768D02*
Y182626D01*
Y198374D02*
Y205994D01*
Y208534D02*
Y209804D01*
Y213106D02*
Y220472D01*
Y221234D02*
Y221996D01*
Y234442D02*
Y241808D01*
Y248666D02*
Y258064D01*
Y258572D02*
Y259588D01*
Y265684D02*
Y275082D01*
Y275336D02*
Y276098D01*
Y278384D02*
Y279400D01*
Y283464D02*
Y290576D01*
Y313436D02*
Y320802D01*
Y329438D02*
Y329946D01*
X354076Y167640D02*
Y167894D01*
Y175768D02*
Y182626D01*
Y198374D02*
Y205740D01*
Y208788D02*
Y210312D01*
Y213106D02*
Y220218D01*
Y221234D02*
Y221996D01*
Y234442D02*
Y241808D01*
Y248666D02*
Y257556D01*
Y258826D02*
Y259842D01*
Y266192D02*
Y276098D01*
Y278638D02*
Y279654D01*
Y283210D02*
Y290576D01*
Y313436D02*
Y320802D01*
Y329438D02*
Y329946D01*
X353822Y167640D02*
Y167894D01*
Y175768D02*
Y182626D01*
Y198120D02*
Y205740D01*
Y209296D02*
Y210820D01*
Y212852D02*
Y220218D01*
Y221234D02*
Y221996D01*
Y234442D02*
Y241808D01*
Y248412D02*
Y257048D01*
Y259080D02*
Y259842D01*
Y266700D02*
Y276098D01*
Y279146D02*
Y280670D01*
Y283210D02*
Y290576D01*
Y313436D02*
Y320802D01*
Y329438D02*
Y329946D01*
X353568Y167640D02*
Y167894D01*
Y175768D02*
Y182626D01*
Y198120D02*
Y205486D01*
Y209804D02*
Y211836D01*
Y212852D02*
Y220218D01*
Y221234D02*
Y221996D01*
Y234442D02*
Y241808D01*
Y248412D02*
Y256794D01*
Y259334D02*
Y260096D01*
Y266954D02*
Y276098D01*
Y279400D02*
Y280924D01*
Y283210D02*
Y290576D01*
Y313436D02*
Y320802D01*
Y329438D02*
Y329946D01*
X353314Y167640D02*
Y167894D01*
Y175768D02*
Y182626D01*
Y197866D02*
Y205486D01*
Y210312D02*
Y220218D01*
Y221234D02*
Y221996D01*
Y234442D02*
Y241554D01*
Y248412D02*
Y256540D01*
Y259588D02*
Y260350D01*
Y267208D02*
Y276098D01*
Y279908D02*
Y281432D01*
Y283210D02*
Y290576D01*
Y313436D02*
Y320548D01*
Y329438D02*
Y329946D01*
X353060Y167640D02*
Y167894D01*
Y176022D02*
Y182626D01*
Y197866D02*
Y205486D01*
Y211074D02*
Y220218D01*
Y221234D02*
Y221996D01*
Y234188D02*
Y241554D01*
Y248412D02*
Y256286D01*
Y259842D02*
Y260604D01*
Y267462D02*
Y276098D01*
Y280416D02*
Y282194D01*
Y283210D02*
Y290576D01*
Y313182D02*
Y320548D01*
Y329438D02*
Y329946D01*
X352806Y167640D02*
Y167894D01*
Y176022D02*
Y182626D01*
Y197866D02*
Y205232D01*
Y212852D02*
Y220218D01*
Y221234D02*
Y221996D01*
Y234188D02*
Y241554D01*
Y248158D02*
Y256032D01*
Y260096D02*
Y260604D01*
Y267716D02*
Y276098D01*
Y280924D02*
Y290322D01*
Y313182D02*
Y320548D01*
Y329438D02*
Y329946D01*
X352552Y167640D02*
Y167894D01*
Y176022D02*
Y182880D01*
Y197612D02*
Y205232D01*
Y212852D02*
Y220218D01*
Y221234D02*
Y221996D01*
Y234188D02*
Y241554D01*
Y248158D02*
Y255778D01*
Y260096D02*
Y260858D01*
Y267970D02*
Y276098D01*
Y281686D02*
Y290322D01*
Y313182D02*
Y320548D01*
Y329438D02*
Y329946D01*
X352298Y167640D02*
Y167894D01*
Y176022D02*
Y182880D01*
Y197612D02*
Y204978D01*
Y212852D02*
Y219964D01*
Y221234D02*
Y221996D01*
Y234188D02*
Y241554D01*
Y248158D02*
Y255778D01*
Y260350D02*
Y261112D01*
Y267970D02*
Y276098D01*
Y281940D02*
Y290322D01*
Y313182D02*
Y320548D01*
Y329438D02*
Y329946D01*
X352044Y167640D02*
Y167894D01*
Y176022D02*
Y182880D01*
Y197358D02*
Y204978D01*
Y212598D02*
Y219964D01*
Y221234D02*
Y221996D01*
Y234188D02*
Y241554D01*
Y248158D02*
Y255524D01*
Y260604D02*
Y261366D01*
Y268224D02*
Y276098D01*
Y282194D02*
Y290322D01*
Y313182D02*
Y320548D01*
Y329438D02*
Y329946D01*
X351790Y167640D02*
Y167894D01*
Y176022D02*
Y182880D01*
Y197358D02*
Y204978D01*
Y212598D02*
Y219964D01*
Y221234D02*
Y221996D01*
Y234188D02*
Y241554D01*
Y247904D02*
Y255524D01*
Y260604D02*
Y261366D01*
Y268224D02*
Y276098D01*
Y282956D02*
Y290322D01*
Y313182D02*
Y320548D01*
Y329438D02*
Y329946D01*
X351536Y167640D02*
Y167894D01*
Y176022D02*
Y204724D01*
Y212598D02*
Y219964D01*
Y221234D02*
Y221996D01*
Y234188D02*
Y241300D01*
Y247904D02*
Y255270D01*
Y260858D02*
Y261620D01*
Y268478D02*
Y276098D01*
Y282956D02*
Y290322D01*
Y313182D02*
Y320294D01*
Y329438D02*
Y329946D01*
X351282Y167640D02*
Y167894D01*
Y176022D02*
Y204724D01*
Y212598D02*
Y219964D01*
Y221234D02*
Y221996D01*
Y233934D02*
Y241300D01*
Y247904D02*
Y255270D01*
Y260858D02*
Y261620D01*
Y268478D02*
Y276098D01*
Y282956D02*
Y290322D01*
Y312928D02*
Y320294D01*
Y329438D02*
Y329946D01*
X351028Y167640D02*
Y167894D01*
Y176276D02*
Y204470D01*
Y212598D02*
Y219964D01*
Y221234D02*
Y221996D01*
Y233934D02*
Y241300D01*
Y247904D02*
Y255016D01*
Y261112D02*
Y261874D01*
Y268478D02*
Y276098D01*
Y282702D02*
Y290068D01*
Y312928D02*
Y320294D01*
Y329438D02*
Y329946D01*
X350774Y167640D02*
Y167894D01*
Y176276D02*
Y204470D01*
Y212598D02*
Y219710D01*
Y221234D02*
Y221996D01*
Y233934D02*
Y241300D01*
Y247904D02*
Y255016D01*
Y261112D02*
Y261874D01*
Y268732D02*
Y276098D01*
Y282702D02*
Y290068D01*
Y312928D02*
Y320294D01*
Y329438D02*
Y329946D01*
X350520Y167640D02*
Y167894D01*
Y176276D02*
Y204216D01*
Y212344D02*
Y219710D01*
Y221234D02*
Y221996D01*
Y233934D02*
Y241300D01*
Y247904D02*
Y255016D01*
Y261366D02*
Y261874D01*
Y268732D02*
Y276098D01*
Y282702D02*
Y290068D01*
Y312928D02*
Y320294D01*
Y329438D02*
Y329946D01*
X350266Y167640D02*
Y167894D01*
Y176276D02*
Y204216D01*
Y212344D02*
Y219710D01*
Y221234D02*
Y221996D01*
Y233934D02*
Y241300D01*
Y247650D02*
Y255016D01*
Y261366D02*
Y262128D01*
Y268732D02*
Y276098D01*
Y282702D02*
Y290068D01*
Y312928D02*
Y320294D01*
Y329438D02*
Y329946D01*
X350012Y167640D02*
Y167894D01*
Y176276D02*
Y204216D01*
Y212344D02*
Y219710D01*
Y221234D02*
Y221996D01*
Y233934D02*
Y241300D01*
Y247650D02*
Y255016D01*
Y261366D02*
Y262128D01*
Y268732D02*
Y276098D01*
Y282702D02*
Y290068D01*
Y312928D02*
Y320040D01*
Y329438D02*
Y329946D01*
X349758Y167640D02*
Y167894D01*
Y176276D02*
Y203962D01*
Y212344D02*
Y219710D01*
Y221234D02*
Y221996D01*
Y233680D02*
Y241046D01*
Y247650D02*
Y254762D01*
Y261620D02*
Y262128D01*
Y268732D02*
Y276098D01*
Y282702D02*
Y290068D01*
Y312674D02*
Y320040D01*
Y329438D02*
Y329946D01*
X349504Y167640D02*
Y167894D01*
Y176276D02*
Y203962D01*
Y212344D02*
Y219710D01*
Y221234D02*
Y221996D01*
Y233680D02*
Y241046D01*
Y247650D02*
Y254762D01*
Y261620D02*
Y262128D01*
Y268986D02*
Y276098D01*
Y282702D02*
Y289814D01*
Y312674D02*
Y320040D01*
Y329438D02*
Y329946D01*
X349250Y167640D02*
Y167894D01*
Y176276D02*
Y203708D01*
Y212344D02*
Y219710D01*
Y221234D02*
Y221996D01*
Y233680D02*
Y241046D01*
Y247650D02*
Y254762D01*
Y261620D02*
Y262382D01*
Y268986D02*
Y276098D01*
Y282448D02*
Y289814D01*
Y312674D02*
Y320040D01*
Y329438D02*
Y329946D01*
X348996Y167640D02*
Y167894D01*
Y176276D02*
Y203708D01*
Y212344D02*
Y219456D01*
Y221234D02*
Y221996D01*
Y233680D02*
Y241046D01*
Y247650D02*
Y254762D01*
Y261620D02*
Y262382D01*
Y268986D02*
Y276098D01*
Y282448D02*
Y289814D01*
Y312674D02*
Y320040D01*
Y329438D02*
Y329946D01*
X348742Y167640D02*
Y167894D01*
Y176530D02*
Y203708D01*
Y212090D02*
Y219456D01*
Y221234D02*
Y221996D01*
Y233680D02*
Y241046D01*
Y247650D02*
Y254762D01*
Y261874D02*
Y262382D01*
Y268986D02*
Y276098D01*
Y282448D02*
Y289814D01*
Y312674D02*
Y320040D01*
Y329438D02*
Y329946D01*
X348488Y167640D02*
Y167894D01*
Y176530D02*
Y203454D01*
Y212090D02*
Y219456D01*
Y221234D02*
Y221996D01*
Y233680D02*
Y241046D01*
Y247650D02*
Y254762D01*
Y261874D02*
Y262382D01*
Y268986D02*
Y276098D01*
Y282448D02*
Y289814D01*
Y312674D02*
Y320040D01*
Y329438D02*
Y329946D01*
X348234Y167640D02*
Y167894D01*
Y176530D02*
Y203454D01*
Y212090D02*
Y219456D01*
Y221234D02*
Y221996D01*
Y233680D02*
Y240792D01*
Y247650D02*
Y254762D01*
Y261874D02*
Y262382D01*
Y268986D02*
Y276098D01*
Y282448D02*
Y289814D01*
Y312674D02*
Y319786D01*
Y329438D02*
Y329946D01*
X347980Y167640D02*
Y167894D01*
Y176530D02*
Y203200D01*
Y212090D02*
Y219456D01*
Y221234D02*
Y221996D01*
Y233426D02*
Y240792D01*
Y247650D02*
Y254762D01*
Y261874D02*
Y262382D01*
Y268986D02*
Y276098D01*
Y282448D02*
Y289560D01*
Y312420D02*
Y319786D01*
Y329438D02*
Y329946D01*
X347726Y167640D02*
Y167894D01*
Y176530D02*
Y203200D01*
Y212090D02*
Y219456D01*
Y221234D02*
Y221996D01*
Y233426D02*
Y240792D01*
Y247650D02*
Y255016D01*
Y261874D02*
Y262382D01*
Y268986D02*
Y276098D01*
Y282194D02*
Y289560D01*
Y312420D02*
Y319786D01*
Y329438D02*
Y329946D01*
X347472Y167640D02*
Y167894D01*
Y176530D02*
Y203200D01*
Y212090D02*
Y219202D01*
Y221234D02*
Y221996D01*
Y233426D02*
Y240792D01*
Y247650D02*
Y255016D01*
Y261874D02*
Y262382D01*
Y268986D02*
Y276098D01*
Y282194D02*
Y289560D01*
Y312420D02*
Y319786D01*
Y329438D02*
Y329946D01*
X347218Y167640D02*
Y167894D01*
Y176530D02*
Y202946D01*
Y211836D02*
Y219202D01*
Y221234D02*
Y221996D01*
Y233426D02*
Y240792D01*
Y247650D02*
Y255016D01*
Y261874D02*
Y262382D01*
Y269240D02*
Y276098D01*
Y282194D02*
Y289560D01*
Y312420D02*
Y319786D01*
Y329438D02*
Y329946D01*
X346964Y167640D02*
Y167894D01*
Y176530D02*
Y202946D01*
Y211836D02*
Y219202D01*
Y221234D02*
Y221996D01*
Y233426D02*
Y240792D01*
Y247650D02*
Y255016D01*
Y261874D02*
Y262382D01*
Y269240D02*
Y276098D01*
Y282194D02*
Y289560D01*
Y312420D02*
Y319786D01*
Y329438D02*
Y329946D01*
X346710Y167640D02*
Y167894D01*
Y176784D02*
Y202692D01*
Y211836D02*
Y219202D01*
Y221234D02*
Y221996D01*
Y233426D02*
Y240792D01*
Y247650D02*
Y255270D01*
Y261874D02*
Y262382D01*
Y269240D02*
Y276098D01*
Y282194D02*
Y289560D01*
Y312420D02*
Y319786D01*
Y329438D02*
Y329946D01*
X346456Y167640D02*
Y167894D01*
Y176784D02*
Y202692D01*
Y211836D02*
Y219202D01*
Y221234D02*
Y221996D01*
Y233426D02*
Y240538D01*
Y247650D02*
Y255270D01*
Y261874D02*
Y262382D01*
Y269240D02*
Y276098D01*
Y282194D02*
Y289560D01*
Y312420D02*
Y319532D01*
Y329438D02*
Y329946D01*
X346202Y167640D02*
Y167894D01*
Y176784D02*
Y202692D01*
Y211836D02*
Y219202D01*
Y221234D02*
Y221996D01*
Y233172D02*
Y240538D01*
Y247650D02*
Y255270D01*
Y261874D02*
Y262382D01*
Y269240D02*
Y272542D01*
Y275082D02*
Y276098D01*
Y281940D02*
Y289306D01*
Y312166D02*
Y319532D01*
Y329438D02*
Y329946D01*
X345948Y167640D02*
Y167894D01*
Y176784D02*
Y202438D01*
Y211836D02*
Y219202D01*
Y221234D02*
Y221996D01*
Y233172D02*
Y240538D01*
Y247650D02*
Y255524D01*
Y261874D02*
Y262382D01*
Y275082D02*
Y276098D01*
Y281940D02*
Y289306D01*
Y312166D02*
Y319532D01*
Y329438D02*
Y329946D01*
X345694Y167640D02*
Y167894D01*
Y176784D02*
Y202438D01*
Y211836D02*
Y218948D01*
Y221234D02*
Y221996D01*
Y233172D02*
Y240538D01*
Y247650D02*
Y255778D01*
Y261874D02*
Y262382D01*
Y275082D02*
Y276098D01*
Y281940D02*
Y289306D01*
Y312166D02*
Y319532D01*
Y329438D02*
Y329946D01*
X345440Y167640D02*
Y167894D01*
Y176784D02*
Y202184D01*
Y211582D02*
Y218948D01*
Y221234D02*
Y221996D01*
Y233172D02*
Y240538D01*
Y247650D02*
Y255778D01*
Y261874D02*
Y262382D01*
Y275336D02*
Y276098D01*
Y281940D02*
Y289306D01*
Y312166D02*
Y319532D01*
Y329438D02*
Y329946D01*
X345186Y167640D02*
Y167894D01*
Y176784D02*
Y202184D01*
Y211582D02*
Y218948D01*
Y221234D02*
Y221996D01*
Y233172D02*
Y240538D01*
Y247650D02*
Y256032D01*
Y261620D02*
Y262382D01*
Y275336D02*
Y276098D01*
Y281940D02*
Y289306D01*
Y312166D02*
Y319532D01*
Y329438D02*
Y329946D01*
X344932Y167640D02*
Y167894D01*
Y176784D02*
Y201930D01*
Y211582D02*
Y218948D01*
Y221234D02*
Y221996D01*
Y233172D02*
Y240284D01*
Y247650D02*
Y256286D01*
Y261620D02*
Y262382D01*
Y275336D02*
Y276098D01*
Y281940D02*
Y289306D01*
Y312166D02*
Y319278D01*
Y329438D02*
Y329946D01*
X344678Y167640D02*
Y167894D01*
Y176784D02*
Y201930D01*
Y211582D02*
Y218948D01*
Y221234D02*
Y221996D01*
Y232918D02*
Y240284D01*
Y247904D02*
Y256540D01*
Y261620D02*
Y262382D01*
Y275336D02*
Y276098D01*
Y281940D02*
Y289052D01*
Y311912D02*
Y319278D01*
Y329438D02*
Y329946D01*
X344424Y167640D02*
Y167894D01*
Y177038D02*
Y201930D01*
Y211582D02*
Y218948D01*
Y221234D02*
Y221996D01*
Y232918D02*
Y240284D01*
Y247904D02*
Y256794D01*
Y261620D02*
Y262382D01*
Y275336D02*
Y276098D01*
Y281686D02*
Y289052D01*
Y311912D02*
Y319278D01*
Y329438D02*
Y329946D01*
X344170Y167640D02*
Y167894D01*
Y177038D02*
Y201676D01*
Y211582D02*
Y218694D01*
Y221234D02*
Y221996D01*
Y232918D02*
Y240284D01*
Y247904D02*
Y257302D01*
Y261366D02*
Y262128D01*
Y275336D02*
Y276098D01*
Y281686D02*
Y289052D01*
Y311912D02*
Y319278D01*
Y329438D02*
Y329946D01*
X343916Y167640D02*
Y167894D01*
Y177038D02*
Y201676D01*
Y211328D02*
Y218694D01*
Y221234D02*
Y221996D01*
Y232918D02*
Y240284D01*
Y247904D02*
Y257556D01*
Y261366D02*
Y262128D01*
Y275336D02*
Y276098D01*
Y281686D02*
Y289052D01*
Y311912D02*
Y319278D01*
Y329438D02*
Y329946D01*
X343662Y167640D02*
Y167894D01*
Y177038D02*
Y201422D01*
Y211328D02*
Y218694D01*
Y221234D02*
Y221996D01*
Y232918D02*
Y240284D01*
Y247904D02*
Y257810D01*
Y261366D02*
Y262128D01*
Y275336D02*
Y276098D01*
Y281686D02*
Y289052D01*
Y311912D02*
Y319278D01*
Y329438D02*
Y329946D01*
X343408Y167640D02*
Y167894D01*
Y177038D02*
Y183642D01*
Y194056D02*
Y201422D01*
Y211328D02*
Y218694D01*
Y221234D02*
Y221996D01*
Y232918D02*
Y240284D01*
Y248158D02*
Y258318D01*
Y261366D02*
Y261874D01*
Y275336D02*
Y276098D01*
Y281432D02*
Y289052D01*
Y311912D02*
Y319278D01*
Y329438D02*
Y329946D01*
X343154Y167640D02*
Y167894D01*
Y177038D02*
Y183896D01*
Y193802D02*
Y201422D01*
Y211328D02*
Y218694D01*
Y221234D02*
Y221996D01*
Y232918D02*
Y240030D01*
Y248158D02*
Y258572D01*
Y261112D02*
Y261874D01*
Y275336D02*
Y276098D01*
Y281432D02*
Y288798D01*
Y311912D02*
Y319024D01*
Y329438D02*
Y329946D01*
X342900Y167640D02*
Y167894D01*
Y177038D02*
Y183896D01*
Y193802D02*
Y201168D01*
Y211328D02*
Y218694D01*
Y221234D02*
Y221996D01*
Y232664D02*
Y240030D01*
Y248158D02*
Y259080D01*
Y261112D02*
Y261874D01*
Y275336D02*
Y276098D01*
Y281432D02*
Y288798D01*
Y311658D02*
Y319024D01*
Y329438D02*
Y329946D01*
X342646Y167640D02*
Y167894D01*
Y177038D02*
Y183896D01*
Y193802D02*
Y201168D01*
Y211328D02*
Y218694D01*
Y221234D02*
Y221996D01*
Y232664D02*
Y240030D01*
Y248158D02*
Y259334D01*
Y261112D02*
Y261620D01*
Y275336D02*
Y276098D01*
Y281432D02*
Y288798D01*
Y311658D02*
Y319024D01*
Y329438D02*
Y329946D01*
X342392Y167640D02*
Y167894D01*
Y177292D02*
Y183896D01*
Y193548D02*
Y200914D01*
Y211328D02*
Y218440D01*
Y221234D02*
Y221996D01*
Y232664D02*
Y240030D01*
Y248412D02*
Y259842D01*
Y260858D02*
Y261620D01*
Y275336D02*
Y276098D01*
Y281432D02*
Y288798D01*
Y311658D02*
Y319024D01*
Y329438D02*
Y329946D01*
X342138Y167640D02*
Y167894D01*
Y177292D02*
Y183896D01*
Y193548D02*
Y200914D01*
Y211074D02*
Y218440D01*
Y221234D02*
Y221996D01*
Y232664D02*
Y240030D01*
Y248412D02*
Y260096D01*
Y260858D02*
Y261366D01*
Y275336D02*
Y276098D01*
Y281432D02*
Y288798D01*
Y311658D02*
Y319024D01*
Y329438D02*
Y329946D01*
X341884Y167640D02*
Y167894D01*
Y177292D02*
Y183896D01*
Y193294D02*
Y200914D01*
Y211074D02*
Y218440D01*
Y221234D02*
Y221996D01*
Y232664D02*
Y240030D01*
Y248412D02*
Y260604D01*
Y260858D02*
Y261366D01*
Y275336D02*
Y276098D01*
Y281432D02*
Y288798D01*
Y311658D02*
Y319024D01*
Y329438D02*
Y329946D01*
X341630Y167640D02*
Y167894D01*
Y177292D02*
Y183896D01*
Y193294D02*
Y200660D01*
Y211074D02*
Y218440D01*
Y221234D02*
Y221996D01*
Y232664D02*
Y239776D01*
Y248666D02*
Y261112D01*
Y275336D02*
Y276098D01*
Y281432D02*
Y288798D01*
Y311658D02*
Y318770D01*
Y329438D02*
Y329946D01*
X341376Y167640D02*
Y167894D01*
Y177292D02*
Y183896D01*
Y193294D02*
Y200660D01*
Y211074D02*
Y218440D01*
Y221234D02*
Y221996D01*
Y232410D02*
Y239776D01*
Y248666D02*
Y261366D01*
Y275336D02*
Y276098D01*
Y281432D02*
Y288544D01*
Y311404D02*
Y318770D01*
Y329438D02*
Y329946D01*
X341122Y167640D02*
Y167894D01*
Y177292D02*
Y183896D01*
Y193040D02*
Y200406D01*
Y211074D02*
Y218440D01*
Y221234D02*
Y221996D01*
Y232410D02*
Y239776D01*
Y248920D02*
Y261874D01*
Y275336D02*
Y276098D01*
Y281432D02*
Y288544D01*
Y311404D02*
Y318770D01*
Y329438D02*
Y329946D01*
X340868Y167640D02*
Y167894D01*
Y177292D02*
Y184150D01*
Y193040D02*
Y200406D01*
Y211074D02*
Y218440D01*
Y221234D02*
Y221996D01*
Y232410D02*
Y239776D01*
Y248920D02*
Y262382D01*
Y275336D02*
Y276098D01*
Y281432D02*
Y288544D01*
Y311404D02*
Y318770D01*
Y329438D02*
Y329946D01*
X340614Y167640D02*
Y167894D01*
Y177292D02*
Y184150D01*
Y192786D02*
Y200406D01*
Y211074D02*
Y218186D01*
Y221234D02*
Y221996D01*
Y232410D02*
Y239776D01*
Y249174D02*
Y262636D01*
Y275336D02*
Y276098D01*
Y281432D02*
Y288544D01*
Y311404D02*
Y318770D01*
Y329438D02*
Y329946D01*
X340360Y167640D02*
Y167894D01*
Y177292D02*
Y184150D01*
Y192786D02*
Y200152D01*
Y210820D02*
Y239776D01*
Y249174D02*
Y263144D01*
Y275336D02*
Y276098D01*
Y281178D02*
Y288544D01*
Y311404D02*
Y318770D01*
Y329438D02*
Y329946D01*
X340106Y167640D02*
Y167894D01*
Y177546D02*
Y184150D01*
Y192786D02*
Y200152D01*
Y210820D02*
Y239776D01*
Y249428D02*
Y263652D01*
Y275336D02*
Y276098D01*
Y281178D02*
Y288544D01*
Y311404D02*
Y318770D01*
Y329438D02*
Y329946D01*
X339852Y167640D02*
Y167894D01*
Y177546D02*
Y184150D01*
Y192532D02*
Y199898D01*
Y210820D02*
Y239522D01*
Y249428D02*
Y263906D01*
Y275336D02*
Y276098D01*
Y281178D02*
Y288290D01*
Y311404D02*
Y318516D01*
Y329438D02*
Y329946D01*
X339598Y167640D02*
Y167894D01*
Y177546D02*
Y184150D01*
Y192532D02*
Y199898D01*
Y210820D02*
Y239522D01*
Y249682D02*
Y264414D01*
Y275336D02*
Y276098D01*
Y280924D02*
Y288290D01*
Y311150D02*
Y318516D01*
Y329438D02*
Y329946D01*
X339344Y167640D02*
Y167894D01*
Y177546D02*
Y184150D01*
Y192532D02*
Y199644D01*
Y210820D02*
Y239522D01*
Y249936D02*
Y264668D01*
Y275336D02*
Y276098D01*
Y280924D02*
Y288290D01*
Y311150D02*
Y318516D01*
Y329438D02*
Y329946D01*
X339090Y167640D02*
Y167894D01*
Y177546D02*
Y184150D01*
Y192278D02*
Y199644D01*
Y210820D02*
Y239522D01*
Y249936D02*
Y265176D01*
Y275336D02*
Y276098D01*
Y280924D02*
Y288290D01*
Y311150D02*
Y318516D01*
Y329438D02*
Y329946D01*
X338836Y167640D02*
Y167894D01*
Y177546D02*
Y184150D01*
Y192278D02*
Y199644D01*
Y210566D02*
Y239522D01*
Y250190D02*
Y265430D01*
Y275336D02*
Y276098D01*
Y280924D02*
Y288290D01*
Y311150D02*
Y318516D01*
Y329438D02*
Y329946D01*
X338582Y167640D02*
Y167894D01*
Y177546D02*
Y184404D01*
Y192024D02*
Y199390D01*
Y210566D02*
Y239522D01*
Y250444D02*
Y265938D01*
Y275336D02*
Y276098D01*
Y280924D02*
Y288290D01*
Y311150D02*
Y318516D01*
Y329438D02*
Y329946D01*
X338328Y167640D02*
Y167894D01*
Y177546D02*
Y184404D01*
Y192024D02*
Y199390D01*
Y210566D02*
Y239268D01*
Y250698D02*
Y266192D01*
Y275336D02*
Y276098D01*
Y280924D02*
Y288036D01*
Y311150D02*
Y318262D01*
Y329438D02*
Y329946D01*
X338074Y167640D02*
Y167894D01*
Y177800D02*
Y184404D01*
Y192024D02*
Y199136D01*
Y210566D02*
Y239268D01*
Y250698D02*
Y266446D01*
Y275336D02*
Y276098D01*
Y280670D02*
Y288036D01*
Y310896D02*
Y318262D01*
Y329438D02*
Y329946D01*
X337820Y167640D02*
Y167894D01*
Y177800D02*
Y184404D01*
Y191770D02*
Y199136D01*
Y210566D02*
Y239268D01*
Y250952D02*
Y266954D01*
Y275336D02*
Y276098D01*
Y280670D02*
Y288036D01*
Y288290D02*
Y288544D01*
Y310896D02*
Y318262D01*
Y329438D02*
Y329946D01*
X337566Y167640D02*
Y185674D01*
Y191770D02*
Y199136D01*
Y203200D02*
Y239268D01*
Y251206D02*
Y294132D01*
Y310896D02*
Y329946D01*
X337312Y167640D02*
Y185674D01*
Y191516D02*
Y198882D01*
Y203200D02*
Y239268D01*
Y251714D02*
Y294132D01*
Y310896D02*
Y329946D01*
X337058Y167640D02*
Y167894D01*
Y177800D02*
Y184404D01*
Y184658D02*
Y185166D01*
Y191516D02*
Y198882D01*
Y203454D02*
Y203962D01*
Y210312D02*
Y239268D01*
Y251968D02*
Y267716D01*
Y275336D02*
Y276098D01*
Y280670D02*
Y288036D01*
Y293116D02*
Y293878D01*
Y310896D02*
Y318262D01*
Y329438D02*
Y329946D01*
X336804Y167640D02*
Y167894D01*
Y177800D02*
Y184912D01*
Y191516D02*
Y198628D01*
Y203708D02*
Y204216D01*
Y210312D02*
Y239268D01*
Y252222D02*
Y267970D01*
Y275336D02*
Y276098D01*
Y280670D02*
Y288036D01*
Y292862D02*
Y293624D01*
Y310896D02*
Y318262D01*
Y329438D02*
Y329946D01*
X336550Y167640D02*
Y167894D01*
Y177800D02*
Y184658D01*
Y191262D02*
Y198628D01*
Y203962D02*
Y204470D01*
Y210312D02*
Y239014D01*
Y252476D02*
Y268224D01*
Y275336D02*
Y276098D01*
Y280416D02*
Y287782D01*
Y292608D02*
Y293370D01*
Y310896D02*
Y318008D01*
Y329438D02*
Y329946D01*
X336296Y167640D02*
Y167894D01*
Y177800D02*
Y184404D01*
Y191262D02*
Y198628D01*
Y204216D02*
Y204724D01*
Y210312D02*
Y239014D01*
Y252984D02*
Y268478D01*
Y275336D02*
Y276098D01*
Y280416D02*
Y287782D01*
Y292354D02*
Y293116D01*
Y310642D02*
Y318008D01*
Y329438D02*
Y329946D01*
X336042Y167640D02*
Y167894D01*
Y177800D02*
Y184658D01*
Y191008D02*
Y198374D01*
Y204470D02*
Y204978D01*
Y210312D02*
Y239014D01*
Y253238D02*
Y268732D01*
Y275336D02*
Y276098D01*
Y280416D02*
Y287782D01*
Y292100D02*
Y293116D01*
Y310642D02*
Y318008D01*
Y329438D02*
Y329946D01*
X335788Y167640D02*
Y167894D01*
Y178054D02*
Y184658D01*
Y191008D02*
Y198374D01*
Y204724D02*
Y204978D01*
Y210312D02*
Y239014D01*
Y253492D02*
Y268986D01*
Y275336D02*
Y276098D01*
Y280416D02*
Y287782D01*
Y292100D02*
Y292862D01*
Y310642D02*
Y318008D01*
Y329438D02*
Y329946D01*
X335534Y167640D02*
Y167894D01*
Y178054D02*
Y184658D01*
Y191008D02*
Y198120D01*
Y204724D02*
Y205232D01*
Y210058D02*
Y239014D01*
Y254000D02*
Y269240D01*
Y275336D02*
Y276098D01*
Y280416D02*
Y287782D01*
Y291846D02*
Y292608D01*
Y310642D02*
Y318008D01*
Y329438D02*
Y329946D01*
X335280Y167640D02*
Y167894D01*
Y178054D02*
Y184658D01*
Y190754D02*
Y198120D01*
Y204978D02*
Y205486D01*
Y210058D02*
Y239014D01*
Y254254D02*
Y269240D01*
Y275336D02*
Y276098D01*
Y280416D02*
Y287655D01*
Y291592D02*
Y292354D01*
Y310642D02*
Y318008D01*
Y329438D02*
Y329946D01*
X335026Y167640D02*
Y167894D01*
Y178054D02*
Y184658D01*
Y190754D02*
Y198120D01*
Y205232D02*
Y205740D01*
Y210058D02*
Y238760D01*
Y254762D02*
Y269494D01*
Y275336D02*
Y276098D01*
Y280416D02*
Y287528D01*
Y291592D02*
Y292100D01*
Y310642D02*
Y317754D01*
Y329438D02*
Y329946D01*
X334772Y167640D02*
Y167894D01*
Y178054D02*
Y184658D01*
Y190500D02*
Y197866D01*
Y205232D02*
Y205994D01*
Y210058D02*
Y238760D01*
Y255016D02*
Y269748D01*
Y275336D02*
Y276098D01*
Y280162D02*
Y287528D01*
Y291084D02*
Y292100D01*
Y310388D02*
Y317754D01*
Y329438D02*
Y329946D01*
X334518Y167640D02*
Y167894D01*
Y178054D02*
Y184658D01*
Y190500D02*
Y197866D01*
Y205486D02*
Y205994D01*
Y210058D02*
Y238760D01*
Y255524D02*
Y269748D01*
Y275336D02*
Y276098D01*
Y280162D02*
Y287528D01*
Y291084D02*
Y291846D01*
Y310388D02*
Y317754D01*
Y329438D02*
Y329946D01*
X334264Y167640D02*
Y167894D01*
Y178054D02*
Y184658D01*
Y190500D02*
Y197612D01*
Y205740D02*
Y206248D01*
Y210058D02*
Y238760D01*
Y256032D02*
Y270002D01*
Y275336D02*
Y276098D01*
Y280162D02*
Y287528D01*
Y291084D02*
Y291846D01*
Y310388D02*
Y317754D01*
Y329438D02*
Y329946D01*
X334010Y167640D02*
Y167894D01*
Y178054D02*
Y184658D01*
Y190246D02*
Y197612D01*
Y205740D02*
Y206248D01*
Y210058D02*
Y238760D01*
Y256286D02*
Y270002D01*
Y275336D02*
Y276098D01*
Y280162D02*
Y287528D01*
Y290830D02*
Y291592D01*
Y310388D02*
Y317754D01*
Y329438D02*
Y329946D01*
X333756Y167640D02*
Y167894D01*
Y178308D02*
Y184912D01*
Y190246D02*
Y197358D01*
Y205994D02*
Y206502D01*
Y209804D02*
Y238760D01*
Y256794D02*
Y270256D01*
Y275336D02*
Y276098D01*
Y280162D02*
Y287528D01*
Y290830D02*
Y291338D01*
Y310388D02*
Y317754D01*
Y329438D02*
Y329946D01*
X333502Y167640D02*
Y167894D01*
Y178308D02*
Y184912D01*
Y189992D02*
Y197358D01*
Y205994D02*
Y206502D01*
Y209804D02*
Y238760D01*
Y257048D02*
Y270256D01*
Y275336D02*
Y276098D01*
Y280162D02*
Y287274D01*
Y290576D02*
Y291338D01*
Y310388D02*
Y317754D01*
Y329438D02*
Y329946D01*
X333248Y167640D02*
Y167894D01*
Y178308D02*
Y184912D01*
Y189992D02*
Y197358D01*
Y206248D02*
Y206756D01*
Y209804D02*
Y238506D01*
Y257556D02*
Y270510D01*
Y275336D02*
Y276098D01*
Y279908D02*
Y287274D01*
Y290322D02*
Y291084D01*
Y310388D02*
Y317500D01*
Y329438D02*
Y329946D01*
X332994Y167640D02*
Y167894D01*
Y178308D02*
Y184912D01*
Y189992D02*
Y197104D01*
Y206248D02*
Y207010D01*
Y209804D02*
Y238506D01*
Y258064D02*
Y270510D01*
Y275336D02*
Y276098D01*
Y279908D02*
Y287274D01*
Y290322D02*
Y291084D01*
Y310261D02*
Y317500D01*
Y329438D02*
Y329946D01*
X332740Y167640D02*
Y167894D01*
Y178308D02*
Y184912D01*
Y189738D02*
Y197104D01*
Y206502D02*
Y207010D01*
Y209804D02*
Y238506D01*
Y258318D02*
Y270764D01*
Y275336D02*
Y276098D01*
Y279908D02*
Y287274D01*
Y290322D02*
Y290830D01*
Y310134D02*
Y317500D01*
Y329438D02*
Y329946D01*
X332486Y167640D02*
Y167894D01*
Y178308D02*
Y184912D01*
Y189738D02*
Y196850D01*
Y206502D02*
Y207264D01*
Y209804D02*
Y238506D01*
Y258826D02*
Y270764D01*
Y275336D02*
Y276098D01*
Y279908D02*
Y287274D01*
Y290068D02*
Y290830D01*
Y310134D02*
Y317500D01*
Y329438D02*
Y329946D01*
X332232Y167640D02*
Y167894D01*
Y178308D02*
Y184912D01*
Y189484D02*
Y196850D01*
Y206756D02*
Y207264D01*
Y209550D02*
Y238506D01*
Y259334D02*
Y270764D01*
Y275336D02*
Y276098D01*
Y279908D02*
Y287274D01*
Y290068D02*
Y290576D01*
Y310134D02*
Y317500D01*
Y329438D02*
Y329946D01*
X331978Y167640D02*
Y167894D01*
Y178308D02*
Y184912D01*
Y189484D02*
Y196850D01*
Y206756D02*
Y207264D01*
Y209550D02*
Y216916D01*
Y221234D02*
Y221996D01*
Y231140D02*
Y238506D01*
Y259588D02*
Y271018D01*
Y275336D02*
Y276098D01*
Y279908D02*
Y287020D01*
Y289814D02*
Y290576D01*
Y310007D02*
Y317500D01*
Y329438D02*
Y329946D01*
X331724Y167640D02*
Y167894D01*
Y178308D02*
Y184912D01*
Y189484D02*
Y196596D01*
Y206756D02*
Y207264D01*
Y209550D02*
Y216916D01*
Y221234D02*
Y221996D01*
Y231140D02*
Y238506D01*
Y260096D02*
Y271018D01*
Y275336D02*
Y276098D01*
Y279654D02*
Y287020D01*
Y289814D02*
Y290576D01*
Y310134D02*
Y317246D01*
Y329438D02*
Y329946D01*
X331470Y167640D02*
Y167894D01*
Y178562D02*
Y185166D01*
Y189230D02*
Y196596D01*
Y207010D02*
Y207518D01*
Y209550D02*
Y216916D01*
Y221234D02*
Y221996D01*
Y231140D02*
Y238252D01*
Y260350D02*
Y271018D01*
Y275336D02*
Y276098D01*
Y279654D02*
Y287020D01*
Y289814D02*
Y290322D01*
Y310134D02*
Y317246D01*
Y329438D02*
Y329946D01*
X331216Y167640D02*
Y167894D01*
Y178562D02*
Y185166D01*
Y189230D02*
Y196342D01*
Y207010D02*
Y207518D01*
Y209550D02*
Y216916D01*
Y221234D02*
Y221996D01*
Y230886D02*
Y238252D01*
Y260858D02*
Y271272D01*
Y275336D02*
Y276098D01*
Y279654D02*
Y287020D01*
Y289560D02*
Y290322D01*
Y309880D02*
Y317246D01*
Y329438D02*
Y329946D01*
X330962Y167640D02*
Y167894D01*
Y178562D02*
Y185166D01*
Y188976D02*
Y196342D01*
Y207010D02*
Y207772D01*
Y209550D02*
Y216916D01*
Y221234D02*
Y221996D01*
Y230886D02*
Y238252D01*
Y261112D02*
Y271272D01*
Y275336D02*
Y276098D01*
Y279654D02*
Y287020D01*
Y289560D02*
Y290322D01*
Y309880D02*
Y317246D01*
Y329438D02*
Y329946D01*
X330708Y167640D02*
Y167894D01*
Y178562D02*
Y185166D01*
Y188976D02*
Y196342D01*
Y207264D02*
Y207772D01*
Y209550D02*
Y216662D01*
Y221234D02*
Y221996D01*
Y230886D02*
Y238252D01*
Y261620D02*
Y271272D01*
Y275336D02*
Y276098D01*
Y279654D02*
Y287020D01*
Y289560D02*
Y290322D01*
Y309880D02*
Y317246D01*
Y329438D02*
Y329946D01*
X330454Y167640D02*
Y167894D01*
Y178562D02*
Y185166D01*
Y188976D02*
Y196088D01*
Y207264D02*
Y207772D01*
Y209296D02*
Y216662D01*
Y221234D02*
Y221996D01*
Y230886D02*
Y238252D01*
Y261874D02*
Y271272D01*
Y275336D02*
Y276098D01*
Y279654D02*
Y287020D01*
Y289306D02*
Y290068D01*
Y309880D02*
Y317246D01*
Y329438D02*
Y329946D01*
X330200Y167640D02*
Y167894D01*
Y178562D02*
Y185166D01*
Y188722D02*
Y196088D01*
Y207264D02*
Y207772D01*
Y209296D02*
Y216662D01*
Y221234D02*
Y221996D01*
Y230886D02*
Y238252D01*
Y262128D02*
Y271272D01*
Y275336D02*
Y276098D01*
Y279654D02*
Y286766D01*
Y289306D02*
Y290068D01*
Y309880D02*
Y317246D01*
Y329438D02*
Y329946D01*
X329946Y167640D02*
Y167894D01*
Y178562D02*
Y185166D01*
Y188722D02*
Y195834D01*
Y207264D02*
Y207772D01*
Y209296D02*
Y216662D01*
Y221234D02*
Y221996D01*
Y230886D02*
Y237998D01*
Y262636D02*
Y271526D01*
Y275336D02*
Y276098D01*
Y279400D02*
Y286766D01*
Y289306D02*
Y290068D01*
Y309880D02*
Y316992D01*
Y329438D02*
Y329946D01*
X329692Y167640D02*
Y167894D01*
Y178562D02*
Y185166D01*
Y188468D02*
Y195834D01*
Y207518D02*
Y208026D01*
Y209296D02*
Y216662D01*
Y221234D02*
Y221996D01*
Y230632D02*
Y237998D01*
Y262890D02*
Y271526D01*
Y275336D02*
Y276098D01*
Y279400D02*
Y286766D01*
Y289306D02*
Y290068D01*
Y309626D02*
Y316992D01*
Y329438D02*
Y329946D01*
X329438Y167640D02*
Y167894D01*
Y178816D02*
Y185166D01*
Y188468D02*
Y195834D01*
Y207518D02*
Y208026D01*
Y209296D02*
Y216662D01*
Y221234D02*
Y221996D01*
Y230632D02*
Y237998D01*
Y263144D02*
Y271526D01*
Y275336D02*
Y276098D01*
Y279400D02*
Y286766D01*
Y289306D02*
Y289814D01*
Y309626D02*
Y316992D01*
Y329438D02*
Y329946D01*
X329184Y167640D02*
Y167894D01*
Y178816D02*
Y185420D01*
Y188468D02*
Y195580D01*
Y207518D02*
Y208026D01*
Y209296D02*
Y216408D01*
Y221234D02*
Y221996D01*
Y230632D02*
Y237998D01*
Y263398D02*
Y271526D01*
Y275336D02*
Y276098D01*
Y279400D02*
Y286766D01*
Y289306D02*
Y289814D01*
Y309626D02*
Y316992D01*
Y329438D02*
Y329946D01*
X328930Y167640D02*
Y167894D01*
Y178816D02*
Y185420D01*
Y188214D02*
Y195580D01*
Y207518D02*
Y208026D01*
Y209042D02*
Y216408D01*
Y221234D02*
Y221996D01*
Y230632D02*
Y237998D01*
Y263652D02*
Y271526D01*
Y275336D02*
Y276098D01*
Y279400D02*
Y286766D01*
Y289306D02*
Y289814D01*
Y309626D02*
Y316992D01*
Y329438D02*
Y329946D01*
X328676Y167640D02*
Y167894D01*
Y178816D02*
Y185420D01*
Y188214D02*
Y195326D01*
Y207518D02*
Y208026D01*
Y209042D02*
Y216408D01*
Y221234D02*
Y221996D01*
Y230632D02*
Y237998D01*
Y263906D02*
Y271526D01*
Y275336D02*
Y276098D01*
Y279400D02*
Y286512D01*
Y289306D02*
Y289814D01*
Y309626D02*
Y316992D01*
Y329438D02*
Y329946D01*
X328422Y167640D02*
Y167894D01*
Y178816D02*
Y185420D01*
Y187960D02*
Y195326D01*
Y207518D02*
Y208026D01*
Y209042D02*
Y216408D01*
Y221234D02*
Y221996D01*
Y230632D02*
Y237998D01*
Y263906D02*
Y271526D01*
Y275336D02*
Y276098D01*
Y279146D02*
Y286512D01*
Y289306D02*
Y289814D01*
Y309626D02*
Y316992D01*
Y329438D02*
Y329946D01*
X328168Y167640D02*
Y167894D01*
Y178816D02*
Y185420D01*
Y187960D02*
Y195072D01*
Y207518D02*
Y208026D01*
Y209042D02*
Y216408D01*
Y221234D02*
Y221996D01*
Y230632D02*
Y237744D01*
Y264160D02*
Y271780D01*
Y275336D02*
Y276098D01*
Y279146D02*
Y286512D01*
Y289306D02*
Y289814D01*
Y309626D02*
Y316738D01*
Y329438D02*
Y329946D01*
X327914Y167640D02*
Y167894D01*
Y178816D02*
Y185420D01*
Y187960D02*
Y195072D01*
Y207518D02*
Y208026D01*
Y209042D02*
Y216408D01*
Y221234D02*
Y221996D01*
Y230378D02*
Y237744D01*
Y264160D02*
Y271780D01*
Y275336D02*
Y276098D01*
Y279146D02*
Y286512D01*
Y289306D02*
Y289814D01*
Y309372D02*
Y316738D01*
Y329438D02*
Y329946D01*
X327660Y167640D02*
Y167894D01*
Y178816D02*
Y185420D01*
Y187706D02*
Y195072D01*
Y207518D02*
Y208026D01*
Y209042D02*
Y216408D01*
Y221234D02*
Y221996D01*
Y230378D02*
Y237744D01*
Y264414D02*
Y271780D01*
Y275336D02*
Y276098D01*
Y279146D02*
Y286512D01*
Y289306D02*
Y289814D01*
Y309372D02*
Y316738D01*
Y329438D02*
Y329946D01*
X327406Y167640D02*
Y167894D01*
Y179070D02*
Y185420D01*
Y187706D02*
Y194818D01*
Y207518D02*
Y208026D01*
Y209042D02*
Y216154D01*
Y221234D02*
Y221996D01*
Y230378D02*
Y237744D01*
Y248666D02*
Y252222D01*
Y264414D02*
Y271780D01*
Y275336D02*
Y276098D01*
Y279146D02*
Y286512D01*
Y289306D02*
Y289814D01*
Y309372D02*
Y316738D01*
Y329438D02*
Y329946D01*
X327152Y167640D02*
Y167894D01*
Y179070D02*
Y185420D01*
Y187452D02*
Y194818D01*
Y207518D02*
Y208026D01*
Y208788D02*
Y216154D01*
Y221234D02*
Y221996D01*
Y230378D02*
Y237744D01*
Y245110D02*
Y252222D01*
Y264414D02*
Y271780D01*
Y275336D02*
Y276098D01*
Y279146D02*
Y286258D01*
Y289306D02*
Y289814D01*
Y309372D02*
Y316738D01*
Y329438D02*
Y329946D01*
X326898Y167640D02*
Y167894D01*
Y179070D02*
Y185674D01*
Y187452D02*
Y194564D01*
Y207518D02*
Y208026D01*
Y208788D02*
Y216154D01*
Y221234D02*
Y221996D01*
Y230378D02*
Y237744D01*
Y245110D02*
Y252222D01*
Y264668D02*
Y271780D01*
Y275336D02*
Y276098D01*
Y278892D02*
Y286258D01*
Y289306D02*
Y289814D01*
Y309372D02*
Y316738D01*
Y329438D02*
Y329946D01*
X326644Y167640D02*
Y167894D01*
Y179070D02*
Y185674D01*
Y187452D02*
Y194564D01*
Y207518D02*
Y208026D01*
Y208788D02*
Y216154D01*
Y221234D02*
Y221996D01*
Y230378D02*
Y237490D01*
Y245110D02*
Y252222D01*
Y264668D02*
Y271780D01*
Y275336D02*
Y276098D01*
Y278892D02*
Y286258D01*
Y289306D02*
Y289814D01*
Y309245D02*
Y316611D01*
Y329438D02*
Y329946D01*
X326390Y167640D02*
Y167894D01*
Y179070D02*
Y185674D01*
Y187198D02*
Y194564D01*
Y207264D02*
Y208026D01*
Y208788D02*
Y216154D01*
Y221234D02*
Y221996D01*
Y230124D02*
Y237490D01*
Y245364D02*
Y252222D01*
Y264668D02*
Y271780D01*
Y275336D02*
Y276098D01*
Y278892D02*
Y286258D01*
Y289306D02*
Y289814D01*
Y309372D02*
Y316484D01*
Y329438D02*
Y329946D01*
X326136Y167640D02*
Y167894D01*
Y179070D02*
Y185674D01*
Y187198D02*
Y194310D01*
Y207264D02*
Y208026D01*
Y208788D02*
Y216154D01*
Y221234D02*
Y221996D01*
Y230124D02*
Y237490D01*
Y245364D02*
Y252222D01*
Y264668D02*
Y271780D01*
Y275336D02*
Y276098D01*
Y278892D02*
Y286258D01*
Y289306D02*
Y289814D01*
Y309118D02*
Y316484D01*
Y329438D02*
Y329946D01*
X325882Y167640D02*
Y167894D01*
Y179070D02*
Y185674D01*
Y186944D02*
Y194310D01*
Y207264D02*
Y208026D01*
Y208788D02*
Y215900D01*
Y221234D02*
Y221996D01*
Y230124D02*
Y237490D01*
Y245364D02*
Y252476D01*
Y264668D02*
Y271780D01*
Y275336D02*
Y276098D01*
Y278892D02*
Y286258D01*
Y289306D02*
Y290068D01*
Y309118D02*
Y316357D01*
Y329438D02*
Y329946D01*
X325628Y167640D02*
Y167894D01*
Y179070D02*
Y185674D01*
Y186944D02*
Y194056D01*
Y207264D02*
Y207772D01*
Y208534D02*
Y215900D01*
Y221234D02*
Y221996D01*
Y230124D02*
Y237490D01*
Y245364D02*
Y252476D01*
Y264668D02*
Y271780D01*
Y275336D02*
Y276098D01*
Y278892D02*
Y286258D01*
Y289306D02*
Y290068D01*
Y309118D02*
Y316484D01*
Y329438D02*
Y329946D01*
X325374Y167640D02*
Y167894D01*
Y179070D02*
Y185674D01*
Y186944D02*
Y194056D01*
Y207264D02*
Y207772D01*
Y208534D02*
Y215900D01*
Y221234D02*
Y221996D01*
Y230124D02*
Y237490D01*
Y245364D02*
Y252476D01*
Y264668D02*
Y271780D01*
Y275336D02*
Y276098D01*
Y278892D02*
Y286004D01*
Y289560D02*
Y290068D01*
Y309118D02*
Y316484D01*
Y329438D02*
Y329946D01*
X325120Y167640D02*
Y167894D01*
Y179324D02*
Y185674D01*
Y186690D02*
Y194056D01*
Y207264D02*
Y207772D01*
Y208534D02*
Y215900D01*
Y221234D02*
Y221996D01*
Y230124D02*
Y237490D01*
Y245364D02*
Y252476D01*
Y264668D02*
Y271780D01*
Y275336D02*
Y276098D01*
Y278638D02*
Y286004D01*
Y289560D02*
Y290068D01*
Y309118D02*
Y316357D01*
Y329438D02*
Y329946D01*
X324866Y167640D02*
Y167894D01*
Y179324D02*
Y185674D01*
Y186690D02*
Y193802D01*
Y207010D02*
Y207518D01*
Y208534D02*
Y215900D01*
Y221234D02*
Y221996D01*
Y230124D02*
Y237236D01*
Y245364D02*
Y252730D01*
Y264668D02*
Y271526D01*
Y275336D02*
Y276098D01*
Y278638D02*
Y286004D01*
Y289560D02*
Y290322D01*
Y309118D02*
Y316230D01*
Y329438D02*
Y329946D01*
X324612Y167640D02*
Y167894D01*
Y179324D02*
Y185674D01*
Y186436D02*
Y193802D01*
Y207010D02*
Y207518D01*
Y208534D02*
Y215900D01*
Y221234D02*
Y221996D01*
Y229870D02*
Y237236D01*
Y245364D02*
Y252730D01*
Y264668D02*
Y271526D01*
Y275336D02*
Y276098D01*
Y278638D02*
Y286004D01*
Y289560D02*
Y290322D01*
Y308864D02*
Y316230D01*
Y329438D02*
Y329946D01*
X324358Y167640D02*
Y167894D01*
Y179324D02*
Y185928D01*
Y186436D02*
Y193548D01*
Y207010D02*
Y207518D01*
Y208534D02*
Y215900D01*
Y221234D02*
Y221996D01*
Y229870D02*
Y237236D01*
Y245364D02*
Y252730D01*
Y264668D02*
Y271526D01*
Y275336D02*
Y276098D01*
Y278638D02*
Y286004D01*
Y289814D02*
Y290322D01*
Y308864D02*
Y316230D01*
Y329438D02*
Y329946D01*
X324104Y167640D02*
Y167894D01*
Y179324D02*
Y185928D01*
Y186436D02*
Y193548D01*
Y206756D02*
Y207264D01*
Y208534D02*
Y215646D01*
Y221234D02*
Y221996D01*
Y229870D02*
Y237236D01*
Y245618D02*
Y252984D01*
Y264668D02*
Y271526D01*
Y275336D02*
Y276098D01*
Y278638D02*
Y286004D01*
Y289814D02*
Y290576D01*
Y308864D02*
Y315976D01*
Y329438D02*
Y329946D01*
X323850Y167640D02*
Y167894D01*
Y179324D02*
Y185928D01*
Y186182D02*
Y193294D01*
Y206756D02*
Y207264D01*
Y208280D02*
Y215646D01*
Y221234D02*
Y221996D01*
Y229870D02*
Y237236D01*
Y245618D02*
Y252984D01*
Y264668D02*
Y271526D01*
Y275336D02*
Y276098D01*
Y278638D02*
Y285750D01*
Y290068D02*
Y290576D01*
Y308864D02*
Y315976D01*
Y329438D02*
Y329946D01*
X323596Y167640D02*
Y167894D01*
Y179324D02*
Y185928D01*
Y186182D02*
Y193294D01*
Y206502D02*
Y207264D01*
Y208280D02*
Y215646D01*
Y221234D02*
Y221996D01*
Y229870D02*
Y237236D01*
Y245618D02*
Y252984D01*
Y264414D02*
Y271526D01*
Y275336D02*
Y276098D01*
Y278384D02*
Y285750D01*
Y290068D02*
Y290830D01*
Y308864D02*
Y315976D01*
Y329438D02*
Y329946D01*
X323342Y167640D02*
Y167894D01*
Y179324D02*
Y193294D01*
Y206502D02*
Y207010D01*
Y208280D02*
Y215646D01*
Y221234D02*
Y221996D01*
Y229870D02*
Y236982D01*
Y245618D02*
Y253238D01*
Y264414D02*
Y271526D01*
Y275336D02*
Y276098D01*
Y278384D02*
Y285750D01*
Y290322D02*
Y290830D01*
Y308864D02*
Y315976D01*
Y329438D02*
Y329946D01*
X323088Y167640D02*
Y167894D01*
Y179578D02*
Y193040D01*
Y206248D02*
Y207010D01*
Y208280D02*
Y215646D01*
Y221234D02*
Y221996D01*
Y229616D02*
Y236982D01*
Y245618D02*
Y253238D01*
Y264414D02*
Y271526D01*
Y275336D02*
Y276098D01*
Y278384D02*
Y285750D01*
Y290322D02*
Y291084D01*
Y308610D02*
Y315976D01*
Y329438D02*
Y329946D01*
X322834Y167640D02*
Y167894D01*
Y179578D02*
Y193040D01*
Y206248D02*
Y206756D01*
Y208280D02*
Y215646D01*
Y221234D02*
Y221996D01*
Y229616D02*
Y236982D01*
Y245872D02*
Y253492D01*
Y264160D02*
Y271272D01*
Y275336D02*
Y276098D01*
Y278384D02*
Y285750D01*
Y290576D02*
Y291338D01*
Y308610D02*
Y315976D01*
Y329438D02*
Y329946D01*
X322580Y167640D02*
Y167894D01*
Y179578D02*
Y192786D01*
Y205994D02*
Y206502D01*
Y208280D02*
Y215646D01*
Y221234D02*
Y221996D01*
Y229616D02*
Y236982D01*
Y245872D02*
Y253746D01*
Y264160D02*
Y271272D01*
Y275336D02*
Y276098D01*
Y278384D02*
Y285750D01*
Y290576D02*
Y291338D01*
Y308610D02*
Y315976D01*
Y329438D02*
Y329946D01*
X322326Y167640D02*
Y167894D01*
Y179578D02*
Y192786D01*
Y205740D02*
Y206502D01*
Y208280D02*
Y215392D01*
Y221234D02*
Y221996D01*
Y228346D02*
Y236982D01*
Y245872D02*
Y254000D01*
Y263906D02*
Y271272D01*
Y275336D02*
Y276098D01*
Y278384D02*
Y285496D01*
Y290830D02*
Y291592D01*
Y308610D02*
Y315976D01*
Y329438D02*
Y329946D01*
X322072Y167640D02*
Y167894D01*
Y179578D02*
Y192786D01*
Y205740D02*
Y206248D01*
Y208026D02*
Y215392D01*
Y221234D02*
Y221996D01*
Y227330D02*
Y236982D01*
Y245872D02*
Y254000D01*
Y263652D02*
Y271272D01*
Y275336D02*
Y276098D01*
Y278130D02*
Y285496D01*
Y291084D02*
Y291846D01*
Y308610D02*
Y315976D01*
Y329438D02*
Y329946D01*
X321818Y167640D02*
Y167894D01*
Y179578D02*
Y192532D01*
Y205486D02*
Y205994D01*
Y208026D02*
Y215392D01*
Y221234D02*
Y221996D01*
Y226568D02*
Y228854D01*
Y229616D02*
Y236982D01*
Y246126D02*
Y254254D01*
Y263398D02*
Y271018D01*
Y275336D02*
Y276098D01*
Y278130D02*
Y285496D01*
Y291084D02*
Y291846D01*
Y308610D02*
Y315976D01*
Y329438D02*
Y329946D01*
X321564Y167640D02*
Y167894D01*
Y179578D02*
Y192532D01*
Y205232D02*
Y205994D01*
Y208026D02*
Y215392D01*
Y221234D02*
Y221996D01*
Y226060D02*
Y227838D01*
Y229616D02*
Y236728D01*
Y246126D02*
Y254508D01*
Y263398D02*
Y271018D01*
Y275336D02*
Y276098D01*
Y278130D02*
Y285496D01*
Y291338D02*
Y292100D01*
Y308610D02*
Y315722D01*
Y329438D02*
Y329946D01*
X321310Y167640D02*
Y167894D01*
Y179578D02*
Y192278D01*
Y204978D02*
Y205740D01*
Y208026D02*
Y215392D01*
Y221234D02*
Y221996D01*
Y225552D02*
Y227076D01*
Y229362D02*
Y236728D01*
Y246126D02*
Y255016D01*
Y262890D02*
Y271780D01*
Y275336D02*
Y276098D01*
Y278130D02*
Y285496D01*
Y291592D02*
Y292354D01*
Y308356D02*
Y315722D01*
Y329438D02*
Y329946D01*
X321056Y167640D02*
Y167894D01*
Y179578D02*
Y192278D01*
Y204978D02*
Y205486D01*
Y208026D02*
Y215392D01*
Y221234D02*
Y221996D01*
Y225298D02*
Y226568D01*
Y229362D02*
Y236728D01*
Y246380D02*
Y255270D01*
Y262636D02*
Y272288D01*
Y275336D02*
Y276098D01*
Y278130D02*
Y285496D01*
Y291846D02*
Y292608D01*
Y308356D02*
Y315722D01*
Y329438D02*
Y329946D01*
X320802Y167640D02*
Y167894D01*
Y179832D02*
Y192278D01*
Y204470D02*
Y205232D01*
Y208026D02*
Y215138D01*
Y221234D02*
Y221996D01*
Y225044D02*
Y226060D01*
Y229362D02*
Y236728D01*
Y246380D02*
Y255778D01*
Y262128D02*
Y270764D01*
Y271526D02*
Y272542D01*
Y275336D02*
Y276098D01*
Y278130D02*
Y285496D01*
Y291846D02*
Y292862D01*
Y308356D02*
Y315722D01*
Y329438D02*
Y329946D01*
X320548Y167640D02*
Y167894D01*
Y179832D02*
Y192024D01*
Y204216D02*
Y204978D01*
Y207772D02*
Y215138D01*
Y221234D02*
Y221996D01*
Y224536D02*
Y225552D01*
Y229362D02*
Y236728D01*
Y246634D02*
Y256540D01*
Y261366D02*
Y270764D01*
Y271780D02*
Y272796D01*
Y275336D02*
Y276098D01*
Y278130D02*
Y285242D01*
Y292100D02*
Y293116D01*
Y308356D02*
Y315722D01*
Y329438D02*
Y329946D01*
X320294Y167640D02*
Y167894D01*
Y179832D02*
Y192024D01*
Y203962D02*
Y204470D01*
Y207772D02*
Y215138D01*
Y221234D02*
Y221996D01*
Y224282D02*
Y225044D01*
Y229362D02*
Y236728D01*
Y246634D02*
Y257810D01*
Y260096D02*
Y270764D01*
Y272034D02*
Y273050D01*
Y275336D02*
Y276098D01*
Y277876D02*
Y285242D01*
Y292608D02*
Y293624D01*
Y308356D02*
Y315722D01*
Y329438D02*
Y329946D01*
X320040Y167640D02*
Y167894D01*
Y179832D02*
Y191770D01*
Y203454D02*
Y204216D01*
Y207772D02*
Y215138D01*
Y221234D02*
Y221996D01*
Y224028D02*
Y224790D01*
Y229362D02*
Y236474D01*
Y246634D02*
Y270510D01*
Y272542D02*
Y273304D01*
Y275336D02*
Y276098D01*
Y277876D02*
Y285242D01*
Y292862D02*
Y293878D01*
Y308356D02*
Y315468D01*
Y329438D02*
Y329946D01*
X319786Y167640D02*
Y167894D01*
Y179832D02*
Y191770D01*
Y203200D02*
Y203962D01*
Y207772D02*
Y215138D01*
Y221234D02*
Y221996D01*
Y223774D02*
Y224536D01*
Y229108D02*
Y236474D01*
Y246888D02*
Y270510D01*
Y272796D02*
Y273812D01*
Y275336D02*
Y276098D01*
Y277876D02*
Y285242D01*
Y293116D02*
Y294132D01*
Y308102D02*
Y315468D01*
Y329438D02*
Y329946D01*
X319532Y167640D02*
Y167894D01*
Y179832D02*
Y191770D01*
Y202692D02*
Y203708D01*
Y207772D02*
Y215138D01*
Y221234D02*
Y221996D01*
Y223520D02*
Y224028D01*
Y229108D02*
Y236474D01*
Y246888D02*
Y270256D01*
Y273050D02*
Y274066D01*
Y275336D02*
Y276098D01*
Y277876D02*
Y285242D01*
Y293370D02*
Y294640D01*
Y308102D02*
Y315468D01*
Y329438D02*
Y329946D01*
X319278Y167640D02*
Y167894D01*
Y179832D02*
Y191516D01*
Y202438D02*
Y203454D01*
Y207772D02*
Y215138D01*
Y221234D02*
Y221996D01*
Y223012D02*
Y223774D01*
Y229108D02*
Y236474D01*
Y247142D02*
Y270256D01*
Y273558D02*
Y274320D01*
Y275336D02*
Y276098D01*
Y277876D02*
Y285242D01*
Y293878D02*
Y295148D01*
Y308102D02*
Y315468D01*
Y329438D02*
Y329946D01*
X319024Y167640D02*
Y167894D01*
Y179832D02*
Y191516D01*
Y201930D02*
Y202946D01*
Y207772D02*
Y214884D01*
Y221234D02*
Y221996D01*
Y222758D02*
Y223520D01*
Y229108D02*
Y236728D01*
Y247142D02*
Y270002D01*
Y273812D02*
Y274574D01*
Y275336D02*
Y276098D01*
Y277876D02*
Y284988D01*
Y294132D02*
Y295656D01*
Y308102D02*
Y315468D01*
Y329438D02*
Y329946D01*
X318770Y167640D02*
Y167894D01*
Y180086D02*
Y191262D01*
Y201422D02*
Y202438D01*
Y207518D02*
Y214884D01*
Y221234D02*
Y221996D01*
Y222504D02*
Y223266D01*
Y229108D02*
Y236982D01*
Y247396D02*
Y270002D01*
Y274066D02*
Y274828D01*
Y275336D02*
Y276098D01*
Y277622D02*
Y284988D01*
Y294640D02*
Y296164D01*
Y308102D02*
Y315468D01*
Y329438D02*
Y329946D01*
X318516Y167640D02*
Y167894D01*
Y180086D02*
Y191262D01*
Y200660D02*
Y202184D01*
Y207518D02*
Y214884D01*
Y221234D02*
Y221996D01*
Y222250D02*
Y223012D01*
Y229108D02*
Y237236D01*
Y247396D02*
Y269748D01*
Y274320D02*
Y275082D01*
Y275336D02*
Y276098D01*
Y277622D02*
Y284988D01*
Y295148D02*
Y296672D01*
Y308102D02*
Y315468D01*
Y329438D02*
Y329946D01*
X318262Y167640D02*
Y167894D01*
Y180086D02*
Y191008D01*
Y199898D02*
Y201676D01*
Y207518D02*
Y214884D01*
Y221234D02*
Y221996D01*
Y222250D02*
Y222758D01*
Y229108D02*
Y236220D01*
Y236474D02*
Y237236D01*
Y247650D02*
Y269748D01*
Y274574D02*
Y275844D01*
Y277622D02*
Y284988D01*
Y295656D02*
Y297434D01*
Y308102D02*
Y315214D01*
Y329438D02*
Y329946D01*
X318008Y167640D02*
Y167894D01*
Y180086D02*
Y191008D01*
Y198882D02*
Y200914D01*
Y207518D02*
Y214884D01*
Y221234D02*
Y222504D01*
Y228854D02*
Y236220D01*
Y236728D02*
Y237490D01*
Y247904D02*
Y269494D01*
Y274574D02*
Y275844D01*
Y277622D02*
Y284988D01*
Y296164D02*
Y298450D01*
Y307340D02*
Y315214D01*
Y329438D02*
Y329946D01*
X317754Y167640D02*
Y167894D01*
Y180086D02*
Y191008D01*
Y197612D02*
Y200406D01*
Y207518D02*
Y214884D01*
Y221234D02*
Y222504D01*
Y228854D02*
Y236220D01*
Y236982D02*
Y237490D01*
Y247904D02*
Y269494D01*
Y274828D02*
Y275844D01*
Y277622D02*
Y284861D01*
Y296926D02*
Y299720D01*
Y306324D02*
Y315214D01*
Y329438D02*
Y329946D01*
X317500Y167640D02*
Y167894D01*
Y180086D02*
Y193548D01*
Y195072D02*
Y199390D01*
Y207518D02*
Y214630D01*
Y221234D02*
Y222250D01*
Y228854D02*
Y236220D01*
Y236982D02*
Y237744D01*
Y248158D02*
Y269240D01*
Y275082D02*
Y275844D01*
Y277622D02*
Y284734D01*
Y297688D02*
Y302260D01*
Y303530D02*
Y315214D01*
Y329438D02*
Y329946D01*
X317246Y167640D02*
Y167894D01*
Y180086D02*
Y198374D01*
Y207264D02*
Y214630D01*
Y221234D02*
Y221996D01*
Y228854D02*
Y236220D01*
Y237236D02*
Y237744D01*
Y248412D02*
Y268986D01*
Y275336D02*
Y275844D01*
Y277368D02*
Y284734D01*
Y298958D02*
Y307594D01*
Y307848D02*
Y315214D01*
Y329438D02*
Y329946D01*
X316992Y167640D02*
Y167894D01*
Y180086D02*
Y190500D01*
Y192278D02*
Y196342D01*
Y207264D02*
Y214630D01*
Y228854D02*
Y236220D01*
Y237236D02*
Y237998D01*
Y248412D02*
Y268986D01*
Y277368D02*
Y284734D01*
Y300736D02*
Y305054D01*
Y307848D02*
Y315214D01*
Y329438D02*
Y329946D01*
X316738Y167640D02*
Y167894D01*
Y180086D02*
Y190500D01*
Y207264D02*
Y214630D01*
Y228854D02*
Y236220D01*
Y237490D02*
Y237998D01*
Y248666D02*
Y268732D01*
Y277368D02*
Y284734D01*
Y307848D02*
Y314960D01*
Y329438D02*
Y329946D01*
X316484Y167640D02*
Y167894D01*
Y180340D02*
Y190500D01*
Y207264D02*
Y214630D01*
Y228600D02*
Y235966D01*
Y237490D02*
Y238252D01*
Y248920D02*
Y268478D01*
Y277368D02*
Y284734D01*
Y307594D02*
Y314960D01*
Y329438D02*
Y329946D01*
X316230Y167640D02*
Y167894D01*
Y180340D02*
Y190246D01*
Y207264D02*
Y214630D01*
Y228600D02*
Y235966D01*
Y237744D02*
Y238252D01*
Y249174D02*
Y268224D01*
Y277368D02*
Y284607D01*
Y307594D02*
Y314960D01*
Y329438D02*
Y329946D01*
X315976Y167640D02*
Y167894D01*
Y180340D02*
Y190246D01*
Y207264D02*
Y214630D01*
Y228600D02*
Y235966D01*
Y237744D02*
Y238506D01*
Y249428D02*
Y267970D01*
Y277368D02*
Y284607D01*
Y307594D02*
Y314960D01*
Y329438D02*
Y329946D01*
X315722Y167640D02*
Y167894D01*
Y180340D02*
Y189992D01*
Y207264D02*
Y214376D01*
Y228600D02*
Y235966D01*
Y237998D02*
Y238506D01*
Y249682D02*
Y267716D01*
Y277368D02*
Y284480D01*
Y307594D02*
Y314960D01*
Y329438D02*
Y329946D01*
X315468Y167640D02*
Y167894D01*
Y180340D02*
Y189992D01*
Y207010D02*
Y214376D01*
Y228600D02*
Y235966D01*
Y237998D02*
Y238506D01*
Y249936D02*
Y267462D01*
Y277114D02*
Y284480D01*
Y307594D02*
Y314960D01*
Y329438D02*
Y329946D01*
X315214Y167640D02*
Y167894D01*
Y180340D02*
Y189992D01*
Y207010D02*
Y214376D01*
Y228600D02*
Y235966D01*
Y237998D02*
Y238760D01*
Y250190D02*
Y267208D01*
Y277114D02*
Y284480D01*
Y307594D02*
Y314960D01*
Y329438D02*
Y329946D01*
X314960Y167640D02*
Y167894D01*
Y180340D02*
Y189738D01*
Y207010D02*
Y214376D01*
Y228600D02*
Y235712D01*
Y238252D02*
Y238760D01*
Y250444D02*
Y266954D01*
Y277114D02*
Y284480D01*
Y307594D02*
Y314706D01*
Y329438D02*
Y329946D01*
X314706Y167640D02*
Y167894D01*
Y180340D02*
Y189738D01*
Y207010D02*
Y214376D01*
Y228346D02*
Y235712D01*
Y238252D02*
Y238760D01*
Y250698D02*
Y266700D01*
Y277114D02*
Y284480D01*
Y307594D02*
Y314706D01*
Y329438D02*
Y329946D01*
X314452Y167640D02*
Y167894D01*
Y180594D02*
Y189484D01*
Y207010D02*
Y214376D01*
Y228346D02*
Y235712D01*
Y238252D02*
Y239014D01*
Y251206D02*
Y266446D01*
Y307340D02*
Y314706D01*
Y329438D02*
Y329946D01*
X314198Y167640D02*
Y167894D01*
Y180594D02*
Y189484D01*
Y207010D02*
Y214122D01*
Y228346D02*
Y235712D01*
Y238506D02*
Y239014D01*
Y251460D02*
Y265938D01*
Y277114D02*
Y284226D01*
Y307340D02*
Y314706D01*
Y329438D02*
Y329946D01*
X313944Y167640D02*
Y167894D01*
Y180594D02*
Y189484D01*
Y206756D02*
Y214122D01*
Y228346D02*
Y235712D01*
Y238506D02*
Y239014D01*
Y251968D02*
Y265684D01*
Y276860D02*
Y284226D01*
Y307340D02*
Y314706D01*
Y329438D02*
Y329946D01*
X313690Y167640D02*
Y167894D01*
Y180594D02*
Y189230D01*
Y206756D02*
Y214122D01*
Y228346D02*
Y235712D01*
Y238506D02*
Y239268D01*
Y252476D02*
Y265176D01*
Y276860D02*
Y284226D01*
Y307340D02*
Y314706D01*
Y329438D02*
Y329946D01*
X313436Y167640D02*
Y167894D01*
Y180594D02*
Y189230D01*
Y206756D02*
Y214122D01*
Y228346D02*
Y235712D01*
Y238506D02*
Y239268D01*
Y252984D02*
Y264668D01*
Y276860D02*
Y284226D01*
Y307340D02*
Y314452D01*
Y329438D02*
Y329946D01*
X313182Y167640D02*
Y167894D01*
Y180594D02*
Y188976D01*
Y206756D02*
Y214122D01*
Y228346D02*
Y235458D01*
Y238760D02*
Y239268D01*
Y253492D02*
Y264160D01*
Y276860D02*
Y284226D01*
Y307086D02*
Y314452D01*
Y329438D02*
Y329946D01*
X312928Y167640D02*
Y167894D01*
Y238760D02*
Y239268D01*
Y254254D02*
Y263398D01*
Y329438D02*
Y329946D01*
X312674Y167640D02*
Y167894D01*
Y238760D02*
Y239522D01*
Y255016D02*
Y262382D01*
Y329438D02*
Y329946D01*
X312420Y167640D02*
Y167894D01*
Y238760D02*
Y239522D01*
Y256286D02*
Y261366D01*
Y329438D02*
Y329946D01*
X312166Y167640D02*
Y167894D01*
Y238760D02*
Y239522D01*
Y257810D02*
Y258318D01*
Y329438D02*
Y329946D01*
X311912Y167640D02*
Y167894D01*
Y239014D02*
Y239522D01*
Y257810D02*
Y258318D01*
Y329438D02*
Y329946D01*
X311658Y167640D02*
Y167894D01*
Y239014D02*
Y239522D01*
Y257556D02*
Y258318D01*
Y329438D02*
Y329946D01*
X311404Y167640D02*
Y167894D01*
Y239014D02*
Y239776D01*
Y257556D02*
Y258318D01*
Y329438D02*
Y329946D01*
X311150Y167640D02*
Y167894D01*
Y239014D02*
Y239776D01*
Y257556D02*
Y258318D01*
Y329438D02*
Y329946D01*
X310896Y167640D02*
Y167894D01*
Y239014D02*
Y239776D01*
Y257556D02*
Y258318D01*
Y329438D02*
Y329946D01*
X310642Y167640D02*
Y167894D01*
Y239014D02*
Y239776D01*
Y257556D02*
Y258318D01*
Y329438D02*
Y329946D01*
X310388Y167640D02*
Y167894D01*
Y239268D02*
Y239776D01*
Y257556D02*
Y258064D01*
Y329438D02*
Y329946D01*
X310134Y167640D02*
Y167894D01*
Y239268D02*
Y239776D01*
Y257556D02*
Y258064D01*
Y329438D02*
Y329946D01*
X309880Y167640D02*
Y167894D01*
Y239268D02*
Y239776D01*
Y257556D02*
Y258064D01*
Y329438D02*
Y329946D01*
X309626Y167640D02*
Y167894D01*
Y239268D02*
Y239776D01*
Y257556D02*
Y258064D01*
Y329438D02*
Y329946D01*
X309372Y167640D02*
Y167894D01*
Y239268D02*
Y239776D01*
Y257556D02*
Y258064D01*
Y329438D02*
Y329946D01*
X309118Y167640D02*
Y167894D01*
Y239268D02*
Y240030D01*
Y257302D02*
Y258064D01*
Y329438D02*
Y329946D01*
X308864Y167640D02*
Y167894D01*
Y239268D02*
Y240030D01*
Y257302D02*
Y258064D01*
Y329438D02*
Y329946D01*
X308610Y167640D02*
Y167894D01*
Y239268D02*
Y240030D01*
Y257302D02*
Y258064D01*
Y329438D02*
Y329946D01*
X308356Y167640D02*
Y167894D01*
Y239268D02*
Y240030D01*
Y257302D02*
Y258064D01*
Y329438D02*
Y329946D01*
X308102Y167640D02*
Y167894D01*
Y239268D02*
Y240030D01*
Y257302D02*
Y258064D01*
Y329438D02*
Y329946D01*
X307848Y167640D02*
Y167894D01*
Y239268D02*
Y240030D01*
Y257302D02*
Y258064D01*
Y329438D02*
Y329946D01*
X307594Y167640D02*
Y167894D01*
Y239268D02*
Y240030D01*
Y257302D02*
Y258064D01*
Y329438D02*
Y329946D01*
X307340Y167640D02*
Y167894D01*
Y239268D02*
Y240030D01*
Y257302D02*
Y258064D01*
Y329438D02*
Y329946D01*
X307086Y167640D02*
Y167894D01*
Y239268D02*
Y240030D01*
Y257302D02*
Y258064D01*
Y329438D02*
Y329946D01*
X306832Y167640D02*
Y167894D01*
Y239268D02*
Y240030D01*
Y257302D02*
Y258064D01*
Y329438D02*
Y329946D01*
X306578Y167640D02*
Y167894D01*
Y239268D02*
Y240030D01*
Y257302D02*
Y258064D01*
Y329438D02*
Y329946D01*
X306324Y167640D02*
Y167894D01*
Y239268D02*
Y240030D01*
Y257302D02*
Y258064D01*
Y329438D02*
Y329946D01*
X306070Y167640D02*
Y167894D01*
Y239268D02*
Y240030D01*
Y257302D02*
Y258064D01*
Y329438D02*
Y329946D01*
X305816Y167640D02*
Y167894D01*
Y239268D02*
Y240030D01*
Y257302D02*
Y258064D01*
Y329438D02*
Y329946D01*
X305562Y167640D02*
Y167894D01*
Y239268D02*
Y240030D01*
Y257302D02*
Y258064D01*
Y329438D02*
Y329946D01*
X305308Y167640D02*
Y167894D01*
Y239268D02*
Y240030D01*
Y257302D02*
Y258064D01*
Y329438D02*
Y329946D01*
X305054Y167640D02*
Y167894D01*
Y239268D02*
Y240030D01*
Y257302D02*
Y258064D01*
Y329438D02*
Y329946D01*
X304800Y167640D02*
Y167894D01*
Y239268D02*
Y239776D01*
Y257556D02*
Y258064D01*
Y329438D02*
Y329946D01*
X304546Y167640D02*
Y167894D01*
Y239268D02*
Y239776D01*
Y257556D02*
Y258064D01*
Y329438D02*
Y329946D01*
X304292Y167640D02*
Y167894D01*
Y239268D02*
Y239776D01*
Y257556D02*
Y258064D01*
Y329438D02*
Y329946D01*
X304038Y167640D02*
Y167894D01*
Y239268D02*
Y239776D01*
Y257556D02*
Y258064D01*
Y329438D02*
Y329946D01*
X303784Y167640D02*
Y167894D01*
Y239268D02*
Y239776D01*
Y257556D02*
Y258064D01*
Y329438D02*
Y329946D01*
X303530Y167640D02*
Y167894D01*
Y239014D02*
Y239776D01*
Y257556D02*
Y258318D01*
Y329438D02*
Y329946D01*
X303276Y167640D02*
Y167894D01*
Y239014D02*
Y239776D01*
Y257556D02*
Y258318D01*
Y329438D02*
Y329946D01*
X303022Y167640D02*
Y167894D01*
Y239014D02*
Y239776D01*
Y257556D02*
Y258318D01*
Y329438D02*
Y329946D01*
X302768Y167640D02*
Y167894D01*
Y239014D02*
Y239776D01*
Y257556D02*
Y258318D01*
Y329438D02*
Y329946D01*
X302514Y167640D02*
Y167894D01*
Y239014D02*
Y239522D01*
Y257810D02*
Y258318D01*
Y329438D02*
Y329946D01*
X302260Y167640D02*
Y167894D01*
Y239014D02*
Y239522D01*
Y257810D02*
Y258318D01*
Y329438D02*
Y329946D01*
X302006Y167640D02*
Y167894D01*
Y239014D02*
Y239522D01*
Y257810D02*
Y258572D01*
Y329438D02*
Y329946D01*
X301752Y167640D02*
Y167894D01*
Y238760D02*
Y239522D01*
Y257810D02*
Y258572D01*
Y329438D02*
Y329946D01*
X301498Y167640D02*
Y167894D01*
Y238760D02*
Y239522D01*
Y257810D02*
Y258572D01*
Y329438D02*
Y329946D01*
X301244Y167640D02*
Y167894D01*
Y238760D02*
Y239268D01*
Y258064D02*
Y258572D01*
Y329438D02*
Y329946D01*
X300990Y167640D02*
Y167894D01*
Y238760D02*
Y239268D01*
Y258064D02*
Y258572D01*
Y329438D02*
Y329946D01*
X300736Y167640D02*
Y167894D01*
Y238506D02*
Y239268D01*
Y258064D02*
Y258826D01*
Y329438D02*
Y329946D01*
X300482Y167640D02*
Y167894D01*
Y238506D02*
Y239268D01*
Y258064D02*
Y258826D01*
Y329438D02*
Y329946D01*
X300228Y167640D02*
Y167894D01*
Y238506D02*
Y239014D01*
Y258318D02*
Y258826D01*
Y329438D02*
Y329946D01*
X299974Y167640D02*
Y167894D01*
Y238506D02*
Y239014D01*
Y258318D02*
Y258826D01*
Y329438D02*
Y329946D01*
X299720Y167640D02*
Y167894D01*
Y238506D02*
Y239014D01*
Y258318D02*
Y259080D01*
Y329438D02*
Y329946D01*
X299466Y167640D02*
Y167894D01*
Y238252D02*
Y238760D01*
Y258572D02*
Y259080D01*
Y329438D02*
Y329946D01*
X299212Y167640D02*
Y167894D01*
Y238252D02*
Y238760D01*
Y258572D02*
Y259080D01*
Y329438D02*
Y329946D01*
X298958Y167640D02*
Y167894D01*
Y238252D02*
Y238760D01*
Y258572D02*
Y259334D01*
Y329438D02*
Y329946D01*
X298704Y167640D02*
Y167894D01*
Y237998D02*
Y238506D01*
Y258826D02*
Y259334D01*
Y329438D02*
Y329946D01*
X298450Y167640D02*
Y167894D01*
Y237998D02*
Y238506D01*
Y258826D02*
Y259334D01*
Y329438D02*
Y329946D01*
X298196Y167640D02*
Y167894D01*
Y237744D02*
Y238506D01*
Y258826D02*
Y259588D01*
Y329438D02*
Y329946D01*
X297942Y167640D02*
Y167894D01*
Y237744D02*
Y238252D01*
Y259080D02*
Y259588D01*
Y329438D02*
Y329946D01*
X297688Y167640D02*
Y167894D01*
Y237744D02*
Y238252D01*
Y259080D02*
Y259842D01*
Y329438D02*
Y329946D01*
X297434Y167640D02*
Y167894D01*
Y237490D02*
Y237998D01*
Y259334D02*
Y259842D01*
Y329438D02*
Y329946D01*
X297180Y167640D02*
Y167894D01*
Y237490D02*
Y237998D01*
Y259334D02*
Y260096D01*
Y275336D02*
Y275590D01*
Y329438D02*
Y329946D01*
X296926Y167640D02*
Y167894D01*
Y221488D02*
Y221996D01*
Y237236D02*
Y237744D01*
Y259588D02*
Y260096D01*
Y275082D02*
Y276098D01*
Y329438D02*
Y329946D01*
X296672Y167640D02*
Y167894D01*
Y221234D02*
Y222250D01*
Y237236D02*
Y237744D01*
Y259588D02*
Y260350D01*
Y275082D02*
Y276098D01*
Y329438D02*
Y329946D01*
X296418Y167640D02*
Y167894D01*
Y221234D02*
Y222250D01*
Y236982D02*
Y237490D01*
Y259842D02*
Y260604D01*
Y274828D02*
Y276098D01*
Y329438D02*
Y329946D01*
X296164Y167640D02*
Y167894D01*
Y221234D02*
Y222504D01*
Y236728D02*
Y237236D01*
Y259842D02*
Y260604D01*
Y274574D02*
Y276098D01*
Y329438D02*
Y329946D01*
X295910Y167640D02*
Y167894D01*
Y221234D02*
Y221996D01*
Y222250D02*
Y222758D01*
Y236728D02*
Y237236D01*
Y260096D02*
Y260858D01*
Y274320D02*
Y275082D01*
Y275336D02*
Y276098D01*
Y329438D02*
Y329946D01*
X295656Y167640D02*
Y167894D01*
Y221234D02*
Y221996D01*
Y222504D02*
Y223012D01*
Y236474D02*
Y236982D01*
Y260096D02*
Y261112D01*
Y274066D02*
Y274828D01*
Y275336D02*
Y276098D01*
Y329438D02*
Y329946D01*
X295402Y167640D02*
Y167894D01*
Y221234D02*
Y221996D01*
Y222504D02*
Y223266D01*
Y236220D02*
Y236728D01*
Y260350D02*
Y261112D01*
Y273812D02*
Y274828D01*
Y275336D02*
Y276098D01*
Y329438D02*
Y329946D01*
X295148Y167640D02*
Y167894D01*
Y221234D02*
Y221996D01*
Y222758D02*
Y223520D01*
Y235966D02*
Y236728D01*
Y260604D02*
Y261366D01*
Y273812D02*
Y274574D01*
Y275336D02*
Y276098D01*
Y329438D02*
Y329946D01*
X294894Y167640D02*
Y167894D01*
Y221234D02*
Y221996D01*
Y223012D02*
Y223774D01*
Y235712D02*
Y236474D01*
Y260858D02*
Y261620D01*
Y273558D02*
Y274320D01*
Y275336D02*
Y276098D01*
Y329438D02*
Y329946D01*
X294640Y167640D02*
Y167894D01*
Y221234D02*
Y221996D01*
Y223520D02*
Y224028D01*
Y235712D02*
Y236220D01*
Y261112D02*
Y261874D01*
Y273050D02*
Y274066D01*
Y275336D02*
Y276098D01*
Y329438D02*
Y329946D01*
X294386Y167640D02*
Y167894D01*
Y221234D02*
Y221996D01*
Y223774D02*
Y224282D01*
Y235458D02*
Y235966D01*
Y261112D02*
Y262128D01*
Y272796D02*
Y273812D01*
Y275336D02*
Y276098D01*
Y329438D02*
Y329946D01*
X294132Y167640D02*
Y167894D01*
Y221234D02*
Y221996D01*
Y224028D02*
Y224790D01*
Y235204D02*
Y235712D01*
Y261366D02*
Y262382D01*
Y272542D02*
Y273558D01*
Y275336D02*
Y276098D01*
Y329438D02*
Y329946D01*
X293878Y167640D02*
Y167894D01*
Y221234D02*
Y221996D01*
Y224282D02*
Y225044D01*
Y234950D02*
Y235458D01*
Y261620D02*
Y262636D01*
Y272034D02*
Y273050D01*
Y275336D02*
Y276098D01*
Y329438D02*
Y329946D01*
X293624Y167640D02*
Y167894D01*
Y221234D02*
Y221996D01*
Y224536D02*
Y225298D01*
Y234696D02*
Y235204D01*
Y261874D02*
Y262890D01*
Y271780D02*
Y272796D01*
Y275336D02*
Y276098D01*
Y329438D02*
Y329946D01*
X293370Y167640D02*
Y167894D01*
Y221234D02*
Y221996D01*
Y225044D02*
Y225806D01*
Y234188D02*
Y234950D01*
Y262128D02*
Y263398D01*
Y271272D02*
Y272542D01*
Y275336D02*
Y276098D01*
Y329438D02*
Y329946D01*
X293116Y167640D02*
Y167894D01*
Y221234D02*
Y221996D01*
Y225298D02*
Y226060D01*
Y233934D02*
Y234696D01*
Y262636D02*
Y263906D01*
Y270764D02*
Y272034D01*
Y275336D02*
Y276098D01*
Y329438D02*
Y329946D01*
X292862Y167640D02*
Y167894D01*
Y221234D02*
Y221996D01*
Y225806D02*
Y226822D01*
Y233426D02*
Y234442D01*
Y262890D02*
Y264414D01*
Y270002D02*
Y271780D01*
Y275336D02*
Y276098D01*
Y329438D02*
Y329946D01*
X292608Y167640D02*
Y167894D01*
Y221234D02*
Y221996D01*
Y226060D02*
Y227584D01*
Y232664D02*
Y233934D01*
Y263398D02*
Y265176D01*
Y269240D02*
Y271272D01*
Y275336D02*
Y276098D01*
Y329438D02*
Y329946D01*
X292354Y167640D02*
Y167894D01*
Y221234D02*
Y221996D01*
Y226568D02*
Y228346D01*
Y231648D02*
Y233426D01*
Y263906D02*
Y265938D01*
Y268478D02*
Y270764D01*
Y275336D02*
Y276098D01*
Y329438D02*
Y329946D01*
X292100Y167640D02*
Y167894D01*
Y221234D02*
Y221996D01*
Y227076D02*
Y232918D01*
Y264414D02*
Y270002D01*
Y275336D02*
Y276098D01*
Y329438D02*
Y329946D01*
X291846Y167640D02*
Y167894D01*
Y221234D02*
Y221996D01*
Y227838D02*
Y232156D01*
Y265176D02*
Y268986D01*
Y275336D02*
Y276098D01*
Y329438D02*
Y329946D01*
X291592Y167640D02*
Y167894D01*
Y221234D02*
Y221996D01*
Y229108D02*
Y230632D01*
Y275336D02*
Y276098D01*
Y329438D02*
Y329946D01*
X291338Y167640D02*
Y167894D01*
Y221234D02*
Y221996D01*
Y275336D02*
Y276098D01*
Y329438D02*
Y329946D01*
X291084Y167640D02*
Y167894D01*
Y221234D02*
Y221996D01*
Y275336D02*
Y276098D01*
Y329438D02*
Y329946D01*
X290830Y167640D02*
Y167894D01*
Y221234D02*
Y221996D01*
Y275336D02*
Y276098D01*
Y329438D02*
Y329946D01*
X290576Y167640D02*
Y167894D01*
Y221234D02*
Y221996D01*
Y275336D02*
Y276098D01*
Y329438D02*
Y329946D01*
X290322Y167640D02*
Y167894D01*
Y221234D02*
Y221996D01*
Y275336D02*
Y276098D01*
Y329438D02*
Y329946D01*
X290068Y167640D02*
Y167894D01*
Y221234D02*
Y221996D01*
Y275336D02*
Y276098D01*
Y329438D02*
Y329946D01*
X289814Y167640D02*
Y167894D01*
Y221234D02*
Y221996D01*
Y275336D02*
Y276098D01*
Y329438D02*
Y329946D01*
X289560Y167640D02*
Y167894D01*
Y221234D02*
Y221996D01*
Y275336D02*
Y276098D01*
Y329438D02*
Y329946D01*
X289306Y167640D02*
Y167894D01*
Y221234D02*
Y221996D01*
Y275336D02*
Y276098D01*
Y329438D02*
Y329946D01*
X289052Y167640D02*
Y167894D01*
Y221234D02*
Y221996D01*
Y275336D02*
Y276098D01*
Y329438D02*
Y329946D01*
X288798Y167640D02*
Y167894D01*
Y221234D02*
Y221996D01*
Y275336D02*
Y276098D01*
Y329438D02*
Y329946D01*
X288544Y167640D02*
Y167894D01*
Y221234D02*
Y221996D01*
Y275336D02*
Y276098D01*
Y329438D02*
Y329946D01*
X288290Y167640D02*
Y167894D01*
Y221234D02*
Y221996D01*
Y275336D02*
Y276098D01*
Y329438D02*
Y329946D01*
X288036Y167640D02*
Y167894D01*
Y221234D02*
Y221996D01*
Y275336D02*
Y276098D01*
Y329438D02*
Y329946D01*
X287782Y167640D02*
Y167894D01*
Y221234D02*
Y221996D01*
Y275336D02*
Y276098D01*
Y329438D02*
Y329946D01*
X287528Y167640D02*
Y167894D01*
Y221234D02*
Y221996D01*
Y275336D02*
Y276098D01*
Y329438D02*
Y329946D01*
X287274Y167640D02*
Y167894D01*
Y221234D02*
Y221996D01*
Y275336D02*
Y276098D01*
Y329438D02*
Y329946D01*
X287020Y167640D02*
Y167894D01*
Y221234D02*
Y221996D01*
Y275336D02*
Y276098D01*
Y329438D02*
Y329946D01*
X286766Y167640D02*
Y167894D01*
Y221234D02*
Y221996D01*
Y275336D02*
Y276098D01*
Y329438D02*
Y329946D01*
X286512Y167640D02*
Y167894D01*
Y221234D02*
Y221996D01*
Y275336D02*
Y276098D01*
Y329438D02*
Y329946D01*
X286258Y167640D02*
Y167894D01*
Y221234D02*
Y221996D01*
Y275336D02*
Y276098D01*
Y329438D02*
Y329946D01*
X286004Y167640D02*
Y167894D01*
Y221234D02*
Y221996D01*
Y275336D02*
Y276098D01*
Y329438D02*
Y329946D01*
X285750Y167640D02*
Y167894D01*
Y221234D02*
Y221996D01*
Y275336D02*
Y276098D01*
Y329438D02*
Y329946D01*
X285496Y167640D02*
Y167894D01*
Y221234D02*
Y221996D01*
Y275336D02*
Y276098D01*
Y329438D02*
Y329946D01*
X285242Y167640D02*
Y167894D01*
Y221234D02*
Y221996D01*
Y275336D02*
Y276098D01*
Y329438D02*
Y329946D01*
X284988Y167640D02*
Y167894D01*
Y221234D02*
Y221996D01*
Y275336D02*
Y276098D01*
Y329438D02*
Y329946D01*
X284734Y167640D02*
Y167894D01*
Y221234D02*
Y221996D01*
Y275336D02*
Y276098D01*
Y329438D02*
Y329946D01*
X284480Y167640D02*
Y167894D01*
Y221234D02*
Y221996D01*
Y275336D02*
Y276098D01*
Y329438D02*
Y329946D01*
X284226Y167640D02*
Y167894D01*
Y221234D02*
Y221996D01*
Y275336D02*
Y276098D01*
Y329438D02*
Y329946D01*
X283972Y167640D02*
Y167894D01*
Y221234D02*
Y221996D01*
Y275336D02*
Y276098D01*
Y329438D02*
Y329946D01*
X283718Y167640D02*
Y167894D01*
Y221234D02*
Y221996D01*
Y275336D02*
Y276098D01*
Y329438D02*
Y329946D01*
X283464Y167640D02*
Y167894D01*
Y221234D02*
Y221996D01*
Y275336D02*
Y276098D01*
Y329438D02*
Y329946D01*
X283210Y167640D02*
Y167894D01*
Y221234D02*
Y221996D01*
Y275336D02*
Y276098D01*
Y329438D02*
Y329946D01*
X282956Y167640D02*
Y167894D01*
Y221234D02*
Y221996D01*
Y275336D02*
Y276098D01*
Y329438D02*
Y329946D01*
X282702Y167640D02*
Y167894D01*
Y221234D02*
Y221996D01*
Y275336D02*
Y276098D01*
Y329438D02*
Y329946D01*
X282448Y167640D02*
Y167894D01*
Y221234D02*
Y221996D01*
Y275336D02*
Y276098D01*
Y329438D02*
Y329946D01*
X282194Y167640D02*
Y167894D01*
Y221234D02*
Y221996D01*
Y275336D02*
Y276098D01*
Y329438D02*
Y329946D01*
X281940Y167640D02*
Y167894D01*
Y221234D02*
Y221996D01*
Y275336D02*
Y276098D01*
Y329438D02*
Y329946D01*
X281686Y167640D02*
Y167894D01*
Y221234D02*
Y221996D01*
Y275336D02*
Y276098D01*
Y329438D02*
Y329946D01*
X281432Y167640D02*
Y167894D01*
Y221234D02*
Y221996D01*
Y275336D02*
Y276098D01*
Y329438D02*
Y329946D01*
X281178Y167640D02*
Y167894D01*
Y221234D02*
Y221996D01*
Y275336D02*
Y276098D01*
Y329438D02*
Y329946D01*
X280924Y167640D02*
Y167894D01*
Y221234D02*
Y221996D01*
Y275336D02*
Y276098D01*
Y329438D02*
Y329946D01*
X280670Y167640D02*
Y167894D01*
Y221234D02*
Y221996D01*
Y275336D02*
Y276098D01*
Y329438D02*
Y329946D01*
X280416Y167640D02*
Y167894D01*
Y221234D02*
Y221996D01*
Y275336D02*
Y276098D01*
Y329438D02*
Y329946D01*
X280162Y167640D02*
Y167894D01*
Y221234D02*
Y221996D01*
Y275336D02*
Y276098D01*
Y329438D02*
Y329946D01*
X279908Y167640D02*
Y167894D01*
Y221234D02*
Y221996D01*
Y275336D02*
Y276098D01*
Y329438D02*
Y329946D01*
X279654Y167640D02*
Y167894D01*
Y221234D02*
Y221996D01*
Y275336D02*
Y276098D01*
Y329438D02*
Y329946D01*
X279400Y167640D02*
Y167894D01*
Y221234D02*
Y221996D01*
Y275336D02*
Y276098D01*
Y329438D02*
Y329946D01*
X279146Y167640D02*
Y167894D01*
Y221234D02*
Y221996D01*
Y275336D02*
Y276098D01*
Y329438D02*
Y329946D01*
X278892Y167640D02*
Y167894D01*
Y221234D02*
Y221996D01*
Y275336D02*
Y276098D01*
Y329438D02*
Y329946D01*
X278638Y167640D02*
Y167894D01*
Y221234D02*
Y221996D01*
Y275336D02*
Y276098D01*
Y329438D02*
Y329946D01*
X278384Y167640D02*
Y167894D01*
Y221234D02*
Y221996D01*
Y275336D02*
Y276098D01*
Y329438D02*
Y329946D01*
X278130Y167640D02*
Y167894D01*
Y221234D02*
Y221996D01*
Y275336D02*
Y276098D01*
Y329438D02*
Y329946D01*
X277876Y167640D02*
Y167894D01*
Y221234D02*
Y221996D01*
Y275336D02*
Y276098D01*
Y329438D02*
Y329946D01*
X277622Y167640D02*
Y167894D01*
Y221234D02*
Y221996D01*
Y275336D02*
Y276098D01*
Y329438D02*
Y329946D01*
X277368Y167640D02*
Y167894D01*
Y221234D02*
Y221996D01*
Y275336D02*
Y276098D01*
Y329438D02*
Y329946D01*
X277114Y167640D02*
Y167894D01*
Y221234D02*
Y221996D01*
Y275336D02*
Y276098D01*
Y329438D02*
Y329946D01*
X276860Y167640D02*
Y329946D01*
X276606Y167640D02*
Y329946D01*
D88*
X36380Y-188581D02*
X46537D01*
Y-203816D01*
X36380D01*
X46537Y-196199D02*
X41459D01*
X31302Y-203816D02*
Y-188581D01*
X23684D01*
X21145Y-191120D01*
Y-196199D01*
X23684Y-198738D01*
X31302D01*
X8449Y-188581D02*
X13528D01*
X16067Y-191120D01*
Y-201277D01*
X13528Y-203816D01*
X8449D01*
X5910Y-201277D01*
Y-191120D01*
X8449Y-188581D01*
X-9325Y-191120D02*
X-6786Y-188581D01*
X-1707D01*
X832Y-191120D01*
Y-193659D01*
X-1707Y-196199D01*
X-6786D01*
X-9325Y-198738D01*
Y-201277D01*
X-6786Y-203816D01*
X-1707D01*
X832Y-201277D01*
X-14403Y-203816D02*
Y-188581D01*
X-19482Y-193659D01*
X-24560Y-188581D01*
Y-203816D01*
X-32178D02*
X-37256D01*
X-39795Y-201277D01*
Y-196199D01*
X-37256Y-193659D01*
X-32178D01*
X-29638Y-196199D01*
Y-201277D01*
X-32178Y-203816D01*
X-47413Y-191120D02*
Y-193659D01*
X-44873D01*
X-49952D01*
X-47413D01*
Y-201277D01*
X-49952Y-203816D01*
X-65187D02*
X-60108D01*
X-57569Y-201277D01*
Y-196199D01*
X-60108Y-193659D01*
X-65187D01*
X-67726Y-196199D01*
Y-198738D01*
X-57569D01*
X-88039Y-188581D02*
X-93118D01*
X-90579D01*
Y-203816D01*
X-88039D01*
X-93118D01*
X-100735Y-188581D02*
X-105814D01*
X-103274D01*
Y-203816D01*
X-100735D01*
X-105814D01*
X325632Y135385D02*
X323093Y137924D01*
Y143003D01*
X325632Y145542D01*
X335789D01*
X338328Y143003D01*
Y137924D01*
X335789Y135385D01*
X330710D01*
Y140464D01*
X325632Y120150D02*
X323093Y122689D01*
Y127768D01*
X325632Y130307D01*
X328171D01*
X330710Y127768D01*
Y122689D01*
X333250Y120150D01*
X335789D01*
X338328Y122689D01*
Y127768D01*
X335789Y130307D01*
X338328Y115072D02*
X323093D01*
X328171Y109993D01*
X323093Y104915D01*
X338328D01*
X330710Y99837D02*
Y89680D01*
X325632Y94758D02*
X335789D01*
X325632Y74445D02*
X323093Y76984D01*
Y82063D01*
X325632Y84602D01*
X335789D01*
X338328Y82063D01*
Y76984D01*
X335789Y74445D01*
X330710D01*
Y79523D01*
X338328Y69367D02*
X323093D01*
Y61749D01*
X325632Y59210D01*
X330710D01*
X333250Y61749D01*
Y69367D01*
X325632Y43975D02*
X323093Y46514D01*
Y51592D01*
X325632Y54132D01*
X328171D01*
X330710Y51592D01*
Y46514D01*
X333250Y43975D01*
X335789D01*
X338328Y46514D01*
Y51592D01*
X335789Y54132D01*
X346461Y134366D02*
X361696D01*
Y126749D01*
X359157Y124209D01*
X356618D01*
X354078Y126749D01*
Y134366D01*
Y126749D01*
X351539Y124209D01*
X349000D01*
X346461Y126749D01*
Y134366D01*
X361696Y116592D02*
Y111513D01*
X359157Y108974D01*
X354078D01*
X351539Y111513D01*
Y116592D01*
X354078Y119131D01*
X359157D01*
X361696Y116592D01*
X351539Y101357D02*
Y96278D01*
X354078Y93739D01*
X361696D01*
Y101357D01*
X359157Y103896D01*
X356618Y101357D01*
Y93739D01*
X351539Y88661D02*
X361696D01*
X356618D01*
X354078Y86122D01*
X351539Y83582D01*
Y81043D01*
X346461Y63269D02*
X361696D01*
Y70887D01*
X359157Y73426D01*
X354078D01*
X351539Y70887D01*
Y63269D01*
M02*
