<?xml version="1.0" encoding="UTF-8" standalone="no"?>
<!-- Created with Inkscape (http://www.inkscape.org/) -->

<svg
   xmlns:dc="http://purl.org/dc/elements/1.1/"
   xmlns:cc="http://creativecommons.org/ns#"
   xmlns:rdf="http://www.w3.org/1999/02/22-rdf-syntax-ns#"
   xmlns:svg="http://www.w3.org/2000/svg"
   xmlns="http://www.w3.org/2000/svg"
   xmlns:sodipodi="http://sodipodi.sourceforge.net/DTD/sodipodi-0.dtd"
   xmlns:inkscape="http://www.inkscape.org/namespaces/inkscape"
   width="190.16486mm"
   height="153.48715mm"
   viewBox="0 0 673.81248 543.85211"
   id="svg2"
   version="1.1"
   inkscape:version="0.91 r13725"
   sodipodi:docname="method-darkbg.svg">
  <defs
     id="defs4" />
  <sodipodi:namedview
     id="base"
     pagecolor="#ffffff"
     bordercolor="#666666"
     borderopacity="1.0"
     inkscape:pageopacity="0.0"
     inkscape:pageshadow="2"
     inkscape:zoom="0.7"
     inkscape:cx="-170.80023"
     inkscape:cy="285.519"
     inkscape:document-units="px"
     inkscape:current-layer="layer1"
     showgrid="false"
     inkscape:snap-global="true"
     inkscape:object-nodes="true"
     inkscape:window-width="1920"
     inkscape:window-height="1017"
     inkscape:window-x="0"
     inkscape:window-y="34"
     inkscape:window-maximized="1"
     fit-margin-top="0"
     fit-margin-left="0"
     fit-margin-right="0"
     fit-margin-bottom="0" />
  <metadata
     id="metadata7">
    <rdf:RDF>
      <cc:Work
         rdf:about="">
        <dc:format>image/svg+xml</dc:format>
        <dc:type
           rdf:resource="http://purl.org/dc/dcmitype/StillImage" />
        <dc:title></dc:title>
      </cc:Work>
    </rdf:RDF>
  </metadata>
  <g
     inkscape:label="Layer 1"
     inkscape:groupmode="layer"
     id="layer1"
     transform="translate(-28.757759,-202.96346)">
    <path
       style="fill:#ffffff;fill-rule:evenodd;stroke:#000000;stroke-width:1px;stroke-linecap:butt;stroke-linejoin:miter;stroke-opacity:1"
       d="m 310.20034,346.09152 c 0,0 -17.13165,13.13255 -20.16211,156.57421 -3.03046,143.44166 6.12304,170.7168 6.12304,170.7168 l 11.85743,0 4.36523,0 11.85742,0 c 0,0 9.15156,-27.27514 6.1211,-170.7168 -3.03046,-143.44166 -20.16211,-156.57421 -20.16211,-156.57421 z"
       id="path4136"
       inkscape:connector-curvature="0" />
    <path
       id="path4143"
       d="m 484.95673,346.09152 c 0,0 -17.13165,13.13255 -20.16211,156.57421 -3.03046,143.44166 6.12304,170.7168 6.12304,170.7168 l 11.85743,0 4.36523,0 11.85742,0 c 0,0 9.15156,-27.27514 6.1211,-170.7168 -3.03046,-143.44166 -20.16211,-156.57421 -20.16211,-156.57421 z"
       style="fill:#ffffff;fill-rule:evenodd;stroke:#000000;stroke-width:1px;stroke-linecap:butt;stroke-linejoin:miter;stroke-opacity:1"
       inkscape:connector-curvature="0" />
    <rect
       style="opacity:1;fill:#ffffff;fill-opacity:1;stroke:#000000;stroke-width:1;stroke-miterlimit:4;stroke-dasharray:none;stroke-dashoffset:0"
       id="rect4145"
       width="146.22426"
       height="137.08223"
       x="324.97205"
       y="471.50043" />
    <path
       style="opacity:1;fill:#ffffff;fill-opacity:1;stroke:#000000;stroke-width:0.99999994;stroke-miterlimit:4;stroke-dasharray:none;stroke-dashoffset:0"
       d="m 300.94071,691.04474 0,30.30675 -4.98306,0 14.24359,24.47015 14.24194,-24.47015 -4.9814,0 0,-30.30675 -18.52107,0 z"
       id="path4147"
       inkscape:connector-curvature="0" />
    <path
       inkscape:connector-curvature="0"
       id="path4154"
       d="m 478.75477,691.04477 0,20.2991 -3.3376,0 9.54019,16.38982 9.53908,-16.38982 -3.33648,0 0,-20.2991 -12.40519,0 z"
       style="opacity:1;fill:#ffffff;fill-opacity:1;stroke:#000000;stroke-width:1;stroke-miterlimit:4;stroke-dasharray:none;stroke-dashoffset:0" />
    <text
       xml:space="preserve"
       style="font-style:normal;font-weight:normal;font-size:40px;line-height:0%;font-family:sans-serif;letter-spacing:0px;word-spacing:0px;fill:#000000;fill-opacity:1;stroke:none;stroke-width:1px;stroke-linecap:butt;stroke-linejoin:miter;stroke-opacity:1"
       x="341.44354"
       y="554.1236"
       id="text4156"
       sodipodi:linespacing="0%"><tspan
         sodipodi:role="line"
         id="tspan4158"
         x="341.44354"
         y="554.1236"
         style="font-style:normal;font-variant:normal;font-weight:normal;font-stretch:normal;font-family:'Droid Sans';-inkscape-font-specification:'Droid Sans'">Drone</tspan></text>
    <text
       sodipodi:linespacing="100%"
       id="text4160"
       y="496.54315"
       x="521.44354"
       style="font-style:normal;font-weight:normal;font-size:25.58583832px;line-height:100%;font-family:sans-serif;letter-spacing:0px;word-spacing:0px;fill:#ffffff;fill-opacity:1;stroke:none;stroke-width:1px;stroke-linecap:butt;stroke-linejoin:miter;stroke-opacity:1;"
       xml:space="preserve"><tspan
         style="font-style:normal;font-variant:normal;font-weight:normal;font-stretch:normal;font-size:27.5px;line-height:100%;font-family:'Droid Sans';-inkscape-font-specification:'Droid Sans';fill:#ffffff;"
         y="496.54315"
         x="521.44354"
         id="tspan4162"
         sodipodi:role="line" /><tspan
         style="font-style:normal;font-variant:normal;font-weight:normal;font-stretch:normal;font-size:27.5px;line-height:100%;font-family:'Droid Sans';-inkscape-font-specification:'Droid Sans';fill:#ffffff;"
         y="524.04315"
         x="521.44354"
         sodipodi:role="line"
         id="tspan4166"> - Water PH </tspan><tspan
         style="font-style:normal;font-variant:normal;font-weight:normal;font-stretch:normal;font-size:27.5px;line-height:100%;font-family:'Droid Sans';-inkscape-font-specification:'Droid Sans';fill:#ffffff;"
         y="551.54315"
         x="521.44354"
         sodipodi:role="line"
         id="tspan4168"> - Temperature</tspan><tspan
         style="font-style:normal;font-variant:normal;font-weight:normal;font-stretch:normal;font-size:27.5px;line-height:100%;font-family:'Droid Sans';-inkscape-font-specification:'Droid Sans';fill:#ffffff;"
         y="579.04315"
         x="521.44354"
         sodipodi:role="line"
         id="tspan4180"> - Turbidity</tspan></text>
    <rect
       y="560.0719"
       x="29.257759"
       height="108.5108"
       width="159.08139"
       id="rect4153"
       style="opacity:1;fill:#ffffff;fill-opacity:1;stroke:#000000;stroke-width:1;stroke-miterlimit:4;stroke-dasharray:none;stroke-dashoffset:0" />
    <text
       sodipodi:linespacing="100%"
       id="text4155"
       y="610.32422"
       x="109.21471"
       style="font-style:normal;font-weight:normal;font-size:40px;line-height:100%;font-family:sans-serif;letter-spacing:0px;word-spacing:0px;fill:#000000;fill-opacity:1;stroke:none;stroke-width:1px;stroke-linecap:butt;stroke-linejoin:miter;stroke-opacity:1"
       xml:space="preserve"><tspan
         style="font-style:normal;font-variant:normal;font-weight:normal;font-stretch:normal;font-size:27.5px;line-height:100%;font-family:'Droid Sans';-inkscape-font-specification:'Droid Sans';text-align:center;text-anchor:middle"
         y="610.32422"
         x="109.21471"
         sodipodi:role="line"
         id="tspan4173">Base</tspan><tspan
         style="font-style:normal;font-variant:normal;font-weight:normal;font-stretch:normal;font-size:27.5px;line-height:100%;font-family:'Droid Sans';-inkscape-font-specification:'Droid Sans';text-align:center;text-anchor:middle"
         y="637.82422"
         x="109.21471"
         sodipodi:role="line"
         id="tspan4175">Station</tspan></text>
    <path
       style="color:#000000;font-style:normal;font-variant:normal;font-weight:normal;font-stretch:normal;font-size:medium;line-height:normal;font-family:sans-serif;text-indent:0;text-align:start;text-decoration:none;text-decoration-line:none;text-decoration-style:solid;text-decoration-color:#000000;letter-spacing:normal;word-spacing:normal;text-transform:none;direction:ltr;block-progression:tb;writing-mode:lr-tb;baseline-shift:baseline;text-anchor:start;white-space:normal;clip-rule:nonzero;display:inline;overflow:visible;visibility:visible;opacity:1;isolation:auto;mix-blend-mode:normal;color-interpolation:sRGB;color-interpolation-filters:linearRGB;solid-color:#000000;solid-opacity:1;fill:#ffffff;fill-opacity:1;fill-rule:nonzero;stroke:none;stroke-width:4;stroke-linecap:butt;stroke-linejoin:miter;stroke-miterlimit:4;stroke-dasharray:none;stroke-dashoffset:0;stroke-opacity:1;color-rendering:auto;image-rendering:auto;shape-rendering:auto;text-rendering:auto;enable-background:accumulate"
       d="m 217.22813,552.92365 c 5.54582,6.9396 8.8711,15.72851 8.8711,25.28906 0,11.49326 -4.80188,21.87284 -12.49805,29.25977 l -2.74414,-2.875 c 6.92805,-6.65219 11.24219,-16.0048 11.24219,-26.38477 0,-8.65731 -3.00346,-16.60032 -8.01758,-22.85937 l 3.14648,-2.42969 z m -10.09179,7.79297 c 3.88015,4.78283 6.21093,10.87116 6.21093,17.49609 1e-5,7.86384 -3.28391,14.97093 -8.54687,20.03516 l -2.74414,-2.875 c 4.4948,-4.32951 7.29102,-10.40969 7.29101,-17.16016 0,-5.72241 -2.00825,-10.96453 -5.35742,-15.0664 l 3.14649,-2.42969 z m -10.73243,8.28711 c 2.11197,2.48965 3.39454,5.70282 3.39454,9.20898 0,4.00911 -1.67493,7.63518 -4.35352,10.23243 l -2.74024,-2.87305 c 1.90976,-1.86249 3.09375,-4.46436 3.09376,-7.35938 0,-2.60467 -0.96419,-4.96775 -2.54688,-6.77343 l 3.15234,-2.43555 z"
       id="path4159"
       inkscape:connector-curvature="0" />
    <path
       inkscape:connector-curvature="0"
       id="path4178"
       d="m 260.18206,551.89319 c -5.54582,6.9396 -8.8711,15.72851 -8.8711,25.28906 0,11.49326 4.80188,21.87284 12.49805,29.25977 l 2.74414,-2.875 c -6.92805,-6.65219 -11.24219,-16.0048 -11.24219,-26.38477 0,-8.65731 3.00346,-16.60032 8.01758,-22.85937 l -3.14648,-2.42969 z m 10.09179,7.79297 c -3.88015,4.78283 -6.21093,10.87116 -6.21093,17.49609 -1e-5,7.86384 3.28391,14.97093 8.54687,20.03516 l 2.74414,-2.875 c -4.4948,-4.32951 -7.29102,-10.40969 -7.29101,-17.16016 0,-5.72241 2.00825,-10.96453 5.35742,-15.0664 l -3.14649,-2.42969 z m 10.73243,8.28711 c -2.11197,2.48965 -3.39454,5.70282 -3.39454,9.20898 0,4.00911 1.67493,7.63518 4.35352,10.23243 l 2.74024,-2.87305 c -1.90976,-1.86249 -3.09375,-4.46436 -3.09376,-7.35938 0,-2.60467 0.96419,-4.96775 2.54688,-6.77343 l -3.15234,-2.43555 z"
       style="color:#000000;font-style:normal;font-variant:normal;font-weight:normal;font-stretch:normal;font-size:medium;line-height:normal;font-family:sans-serif;text-indent:0;text-align:start;text-decoration:none;text-decoration-line:none;text-decoration-style:solid;text-decoration-color:#000000;letter-spacing:normal;word-spacing:normal;text-transform:none;direction:ltr;block-progression:tb;writing-mode:lr-tb;baseline-shift:baseline;text-anchor:start;white-space:normal;clip-rule:nonzero;display:inline;overflow:visible;visibility:visible;opacity:1;isolation:auto;mix-blend-mode:normal;color-interpolation:sRGB;color-interpolation-filters:linearRGB;solid-color:#000000;solid-opacity:1;fill:#ffffff;fill-opacity:1;fill-rule:nonzero;stroke:none;stroke-width:4;stroke-linecap:butt;stroke-linejoin:miter;stroke-miterlimit:4;stroke-dasharray:none;stroke-dashoffset:0;stroke-opacity:1;color-rendering:auto;image-rendering:auto;shape-rendering:auto;text-rendering:auto;enable-background:accumulate" />
    <text
       xml:space="preserve"
       style="font-style:normal;font-weight:normal;font-size:40px;line-height:0%;font-family:sans-serif;letter-spacing:0px;word-spacing:0px;fill:#ffffff;fill-opacity:1;stroke:none;stroke-width:1px;stroke-linecap:butt;stroke-linejoin:miter;stroke-opacity:1;"
       x="237.50409"
       y="541.4917"
       id="text4180"
       sodipodi:linespacing="0%"><tspan
         sodipodi:role="line"
         id="tspan4182"
         x="237.50409"
         y="541.4917"
         style="font-style:normal;font-variant:normal;font-weight:normal;font-stretch:normal;font-size:27.5px;font-family:'Droid Sans';-inkscape-font-specification:'Droid Sans';text-align:center;text-anchor:middle;fill:#ffffff;">WiFi</tspan></text>
    <path
       style="color:#000000;font-style:normal;font-variant:normal;font-weight:normal;font-stretch:normal;font-size:medium;line-height:normal;font-family:sans-serif;text-indent:0;text-align:start;text-decoration:none;text-decoration-line:none;text-decoration-style:solid;text-decoration-color:#000000;letter-spacing:normal;word-spacing:normal;text-transform:none;direction:ltr;block-progression:tb;writing-mode:lr-tb;baseline-shift:baseline;text-anchor:start;white-space:normal;clip-rule:nonzero;display:inline;overflow:visible;visibility:visible;opacity:1;isolation:auto;mix-blend-mode:normal;color-interpolation:sRGB;color-interpolation-filters:linearRGB;solid-color:#000000;solid-opacity:1;fill:#ffffff;fill-opacity:1;fill-rule:nonzero;stroke:none;stroke-width:4;stroke-linecap:butt;stroke-linejoin:miter;stroke-miterlimit:4;stroke-dasharray:none;stroke-dashoffset:0;stroke-opacity:1;color-rendering:auto;image-rendering:auto;shape-rendering:auto;text-rendering:auto;enable-background:accumulate"
       d="m 165.03602,349.70858 c 8.78279,1.33301 18.05687,-0.18164 26.33653,-4.96193 9.95344,-5.74662 16.54151,-15.09497 19.09067,-25.45351 l -3.86187,-0.93903 c -2.29693,9.32596 -8.23947,17.7384 -17.22879,22.9284 -7.49743,4.32866 -15.87802,5.69908 -23.80556,4.48627 l -0.53094,3.93979 z m 1.70303,-12.63623 c 6.08213,0.96889 12.52016,-0.0568 18.25753,-3.36925 6.81031,-3.93188 11.32326,-10.32937 13.07753,-17.41933 l -3.86188,-0.93903 c -1.50208,6.05737 -5.36957,11.51902 -11.21563,14.89428 -4.95577,2.8612 -10.4997,3.74306 -15.72659,2.89354 l -0.53094,3.93977 z m 1.81064,-13.43812 c 3.2121,0.58422 6.63604,0.0883 9.67247,-1.66471 3.472,-2.00458 5.77479,-5.2681 6.68479,-8.88648 l -3.85825,-0.9366 c -0.65811,2.58515 -2.31938,4.91145 -4.82653,6.35896 -2.25572,1.30235 -4.78429,1.64887 -7.13942,1.18105 l -0.53305,3.9478 z"
       id="path4184"
       inkscape:connector-curvature="0" />
    <text
       sodipodi:linespacing="0%"
       id="text4186"
       y="349.20599"
       x="116.07552"
       style="font-style:normal;font-weight:normal;font-size:40px;line-height:0%;font-family:sans-serif;letter-spacing:0px;word-spacing:0px;fill:#ffffff;fill-opacity:1;stroke:none;stroke-width:1px;stroke-linecap:butt;stroke-linejoin:miter;stroke-opacity:1"
       xml:space="preserve"><tspan
         style="font-style:normal;font-variant:normal;font-weight:normal;font-stretch:normal;font-size:27.5px;font-family:'Droid Sans';-inkscape-font-specification:'Droid Sans';text-align:center;text-anchor:middle;fill:#ffffff"
         y="349.20599"
         x="116.07552"
         id="tspan4188"
         sodipodi:role="line">GPS</tspan></text>
    <g
       id="g4215"
       transform="matrix(0.58295953,0,0,0.58201769,36.405288,125.85063)"
       style="fill:#ffffff">
      <path
         inkscape:connector-curvature="0"
         id="path4193"
         d="M 156.76316,308.13535 C 151.95454,302.66374 96.048883,202.97512 96.048883,202.97512 l 106.397397,-61.42856 60.71429,105.16022"
         style="fill:#ffffff;fill-rule:evenodd;stroke:#000000;stroke-width:1.71677232px;stroke-linecap:butt;stroke-linejoin:miter;stroke-opacity:1" />
      <path
         inkscape:connector-curvature="0"
         id="path4190"
         d="m 263.16057,246.70678 a 17.142857,61.363972 60 0 1 -44.57134,45.52814 17.142857,61.363972 60 0 1 -61.71419,15.83584 17.142857,61.363972 60 0 1 44.57133,-45.52814 17.142857,61.363972 60 0 1 61.7142,-15.83584 z"
         style="opacity:1;fill:#ffffff;fill-opacity:1;stroke:#000000;stroke-width:1.71677232;stroke-miterlimit:4;stroke-dasharray:none;stroke-dashoffset:0" />
      <rect
         transform="matrix(0.8660254,-0.5,0.5,0.8660254,0,0)"
         y="256.39102"
         x="115.01876"
         height="50.426506"
         width="61.733868"
         id="rect4195"
         style="opacity:1;fill:#ffffff;fill-opacity:1;stroke:#000000;stroke-width:1.71677232;stroke-miterlimit:4;stroke-dasharray:none;stroke-dashoffset:0" />
      <rect
         style="opacity:1;fill:#ffffff;fill-opacity:1;stroke:#000000;stroke-width:1.71677232;stroke-miterlimit:4;stroke-dasharray:none;stroke-dashoffset:0"
         id="rect4197"
         width="61.733868"
         height="50.426506"
         x="-90.855553"
         y="250.69009"
         transform="matrix(0.8660254,-0.5,0.5,0.8660254,0,0)" />
    </g>
    <text
       xml:space="preserve"
       style="font-style:normal;font-weight:normal;font-size:40px;line-height:0%;font-family:sans-serif;letter-spacing:0px;word-spacing:0px;fill:#ffffff;fill-opacity:1;stroke:none;stroke-width:1px;stroke-linecap:butt;stroke-linejoin:miter;stroke-opacity:1;"
       x="580.64697"
       y="485.77744"
       id="text4221"
       sodipodi:linespacing="0%"><tspan
         sodipodi:role="line"
         id="tspan4223"
         x="580.64697"
         y="485.77744"
         style="font-style:normal;font-variant:normal;font-weight:bold;font-stretch:normal;font-size:27.5px;font-family:'Droid Sans';-inkscape-font-specification:'Droid Sans';text-align:center;text-anchor:middle;fill:#ffffff;">Sensors:</tspan></text>
    <text
       xml:space="preserve"
       style="font-style:normal;font-weight:normal;font-size:40px;line-height:100%;font-family:sans-serif;letter-spacing:0px;word-spacing:0px;fill:#ffffff;fill-opacity:1;stroke:none;stroke-width:1px;stroke-linecap:butt;stroke-linejoin:miter;stroke-opacity:1;"
       x="394.64694"
       y="691.4917"
       id="text4225"
       sodipodi:linespacing="100%"><tspan
         sodipodi:role="line"
         id="tspan4227"
         x="394.64694"
         y="691.4917"
         style="font-style:normal;font-variant:normal;font-weight:normal;font-stretch:normal;font-size:27.5px;line-height:100%;font-family:'Droid Sans';-inkscape-font-specification:'Droid Sans';text-align:center;text-anchor:middle;fill:#ffffff;">Thrust</tspan><tspan
         sodipodi:role="line"
         x="394.64694"
         y="718.9917"
         style="font-style:normal;font-variant:normal;font-weight:normal;font-stretch:normal;font-size:27.5px;line-height:100%;font-family:'Droid Sans';-inkscape-font-specification:'Droid Sans';text-align:center;text-anchor:middle;fill:#ffffff;"
         id="tspan4229">Vectoring</tspan></text>
  </g>
</svg>
