<?xml version="1.0" standalone="no"?>
 <!DOCTYPE svg PUBLIC "-//W3C//DTD SVG 1.1//EN" 
 "http://www.w3.org/Graphics/SVG/1.1/DTD/svg11.dtd"> 
<svg xmlns="http://www.w3.org/2000/svg" version="1.1" 
    width="29.7002cm" height="21.0007cm" viewBox="0 0 116930 82680 ">
<title>SVG Picture created as drone-hw-shield-F.SilkS.svg date 2016/08/29 18:46:24 </title>
  <desc>Picture generated by PCBNEW </desc>
<g style="fill:#000000; fill-opacity:1;stroke:#000000; stroke-opacity:1;
stroke-linecap:round; stroke-linejoin:round; "
 transform="translate(0 0) scale(1 1)">
</g>
<g style="fill:#000000; fill-opacity:0.0; 
stroke:#000000; stroke-width:-0.000393701; stroke-opacity:1; 
stroke-linecap:round; stroke-linejoin:round;">
</g>
<g style="fill:#000000; fill-opacity:0.0; 
stroke:#000000; stroke-width:39.3701; stroke-opacity:1; 
stroke-linecap:round; stroke-linejoin:round;">
</g>
<g style="fill:#000000; fill-opacity:0.0; 
stroke:#000000; stroke-width:59.0551; stroke-opacity:1; 
stroke-linecap:round; stroke-linejoin:round;">
<rect x="69685.9" y="65357.2" width="42519.7" height="12598.4" rx="0" />
</g>
<g style="fill:#000000; fill-opacity:0.0; 
stroke:#000000; stroke-width:39.3701; stroke-opacity:1; 
stroke-linecap:round; stroke-linejoin:round;">
</g>
<g style="fill:#000000; fill-opacity:0.0; 
stroke:#000000; stroke-width:59.0551; stroke-opacity:1; 
stroke-linecap:round; stroke-linejoin:round;">
<rect x="3937.01" y="3937.01" width="109056" height="74806" rx="0" />
</g>
<g style="fill:#000000; fill-opacity:0.0; 
stroke:#000000; stroke-width:39.3701; stroke-opacity:1; 
stroke-linecap:round; stroke-linejoin:round;">
</g>
<g style="fill:#000000; fill-opacity:0.0; 
stroke:#000000; stroke-width:59.0551; stroke-opacity:1; 
stroke-linecap:round; stroke-linejoin:round;">
<rect x="4724.41" y="4724.41" width="107481" height="73231.2" rx="0" />
</g>
<g style="fill:#000000; fill-opacity:0.0; 
stroke:#000000; stroke-width:39.3701; stroke-opacity:1; 
stroke-linecap:round; stroke-linejoin:round;">
</g>
<g style="fill:#000000; fill-opacity:0.0; 
stroke:#000000; stroke-width:59.0551; stroke-opacity:1; 
stroke-linecap:round; stroke-linejoin:round;">
<path d="M23622 4724
L23622 3937
" />
</g>
<g style="fill:#000000; fill-opacity:0.0; 
stroke:#000000; stroke-width:39.3701; stroke-opacity:1; 
stroke-linecap:round; stroke-linejoin:round;">
</g>
<g style="fill:#000000; fill-opacity:0.0; 
stroke:#000000; stroke-width:59.0551; stroke-opacity:1; 
stroke-linecap:round; stroke-linejoin:round;">
<path d="M43307 4724
L43307 3937
" />
</g>
<g style="fill:#000000; fill-opacity:0.0; 
stroke:#000000; stroke-width:39.3701; stroke-opacity:1; 
stroke-linecap:round; stroke-linejoin:round;">
</g>
<g style="fill:#000000; fill-opacity:0.0; 
stroke:#000000; stroke-width:59.0551; stroke-opacity:1; 
stroke-linecap:round; stroke-linejoin:round;">
<path d="M62992 4724
L62992 3937
" />
</g>
<g style="fill:#000000; fill-opacity:0.0; 
stroke:#000000; stroke-width:39.3701; stroke-opacity:1; 
stroke-linecap:round; stroke-linejoin:round;">
</g>
<g style="fill:#000000; fill-opacity:0.0; 
stroke:#000000; stroke-width:59.0551; stroke-opacity:1; 
stroke-linecap:round; stroke-linejoin:round;">
<path d="M82677 4724
L82677 3937
" />
</g>
<g style="fill:#000000; fill-opacity:0.0; 
stroke:#000000; stroke-width:39.3701; stroke-opacity:1; 
stroke-linecap:round; stroke-linejoin:round;">
</g>
<g style="fill:#000000; fill-opacity:0.0; 
stroke:#000000; stroke-width:59.0551; stroke-opacity:1; 
stroke-linecap:round; stroke-linejoin:round;">
<path d="M102362 4724
L102362 3937
" />
</g>
<g style="fill:#000000; fill-opacity:0.0; 
stroke:#000000; stroke-width:39.3701; stroke-opacity:1; 
stroke-linecap:round; stroke-linejoin:round;">
</g>
<g style="fill:#000000; fill-opacity:0.0; 
stroke:#000000; stroke-width:59.0551; stroke-opacity:1; 
stroke-linecap:round; stroke-linejoin:round;">
<path d="M14169 4562
L13877 4562
" />
<path d="M14023 4562
L14023 4050
L13974 4123
L13925 4172
L13877 4196
" />
</g>
<g style="fill:#000000; fill-opacity:0.0; 
stroke:#000000; stroke-width:39.3701; stroke-opacity:1; 
stroke-linecap:round; stroke-linejoin:round;">
</g>
<g style="fill:#000000; fill-opacity:0.0; 
stroke:#000000; stroke-width:59.0551; stroke-opacity:1; 
stroke-linecap:round; stroke-linejoin:round;">
<path d="M33562 4099
L33586 4074
L33635 4050
L33757 4050
L33805 4074
L33830 4099
L33854 4147
L33854 4196
L33830 4269
L33537 4562
L33854 4562
" />
</g>
<g style="fill:#000000; fill-opacity:0.0; 
stroke:#000000; stroke-width:39.3701; stroke-opacity:1; 
stroke-linecap:round; stroke-linejoin:round;">
</g>
<g style="fill:#000000; fill-opacity:0.0; 
stroke:#000000; stroke-width:59.0551; stroke-opacity:1; 
stroke-linecap:round; stroke-linejoin:round;">
<path d="M53222 4050
L53539 4050
L53368 4245
L53442 4245
L53490 4269
L53515 4294
L53539 4342
L53539 4464
L53515 4513
L53490 4537
L53442 4562
L53295 4562
L53247 4537
L53222 4513
" />
</g>
<g style="fill:#000000; fill-opacity:0.0; 
stroke:#000000; stroke-width:39.3701; stroke-opacity:1; 
stroke-linecap:round; stroke-linejoin:round;">
</g>
<g style="fill:#000000; fill-opacity:0.0; 
stroke:#000000; stroke-width:59.0551; stroke-opacity:1; 
stroke-linecap:round; stroke-linejoin:round;">
<path d="M73175 4221
L73175 4562
" />
<path d="M73053 4026
L72932 4391
L73248 4391
" />
</g>
<g style="fill:#000000; fill-opacity:0.0; 
stroke:#000000; stroke-width:39.3701; stroke-opacity:1; 
stroke-linecap:round; stroke-linejoin:round;">
</g>
<g style="fill:#000000; fill-opacity:0.0; 
stroke:#000000; stroke-width:59.0551; stroke-opacity:1; 
stroke-linecap:round; stroke-linejoin:round;">
<path d="M92885 4050
L92641 4050
L92617 4294
L92641 4269
L92690 4245
L92812 4245
L92860 4269
L92885 4294
L92909 4342
L92909 4464
L92885 4513
L92860 4537
L92812 4562
L92690 4562
L92641 4537
L92617 4513
" />
</g>
<g style="fill:#000000; fill-opacity:0.0; 
stroke:#000000; stroke-width:39.3701; stroke-opacity:1; 
stroke-linecap:round; stroke-linejoin:round;">
</g>
<g style="fill:#000000; fill-opacity:0.0; 
stroke:#000000; stroke-width:59.0551; stroke-opacity:1; 
stroke-linecap:round; stroke-linejoin:round;">
<path d="M112545 4050
L112448 4050
L112399 4074
L112375 4099
L112326 4172
L112302 4269
L112302 4464
L112326 4513
L112350 4537
L112399 4562
L112497 4562
L112545 4537
L112570 4513
L112594 4464
L112594 4342
L112570 4294
L112545 4269
L112497 4245
L112399 4245
L112350 4269
L112326 4294
L112302 4342
" />
</g>
<g style="fill:#000000; fill-opacity:0.0; 
stroke:#000000; stroke-width:39.3701; stroke-opacity:1; 
stroke-linecap:round; stroke-linejoin:round;">
</g>
<g style="fill:#000000; fill-opacity:0.0; 
stroke:#000000; stroke-width:59.0551; stroke-opacity:1; 
stroke-linecap:round; stroke-linejoin:round;">
<path d="M23622 77955
L23622 78742
" />
</g>
<g style="fill:#000000; fill-opacity:0.0; 
stroke:#000000; stroke-width:39.3701; stroke-opacity:1; 
stroke-linecap:round; stroke-linejoin:round;">
</g>
<g style="fill:#000000; fill-opacity:0.0; 
stroke:#000000; stroke-width:59.0551; stroke-opacity:1; 
stroke-linecap:round; stroke-linejoin:round;">
<path d="M43307 77955
L43307 78742
" />
</g>
<g style="fill:#000000; fill-opacity:0.0; 
stroke:#000000; stroke-width:39.3701; stroke-opacity:1; 
stroke-linecap:round; stroke-linejoin:round;">
</g>
<g style="fill:#000000; fill-opacity:0.0; 
stroke:#000000; stroke-width:59.0551; stroke-opacity:1; 
stroke-linecap:round; stroke-linejoin:round;">
<path d="M62992 77955
L62992 78742
" />
</g>
<g style="fill:#000000; fill-opacity:0.0; 
stroke:#000000; stroke-width:39.3701; stroke-opacity:1; 
stroke-linecap:round; stroke-linejoin:round;">
</g>
<g style="fill:#000000; fill-opacity:0.0; 
stroke:#000000; stroke-width:59.0551; stroke-opacity:1; 
stroke-linecap:round; stroke-linejoin:round;">
<path d="M82677 77955
L82677 78742
" />
</g>
<g style="fill:#000000; fill-opacity:0.0; 
stroke:#000000; stroke-width:39.3701; stroke-opacity:1; 
stroke-linecap:round; stroke-linejoin:round;">
</g>
<g style="fill:#000000; fill-opacity:0.0; 
stroke:#000000; stroke-width:59.0551; stroke-opacity:1; 
stroke-linecap:round; stroke-linejoin:round;">
<path d="M102362 77955
L102362 78742
" />
</g>
<g style="fill:#000000; fill-opacity:0.0; 
stroke:#000000; stroke-width:39.3701; stroke-opacity:1; 
stroke-linecap:round; stroke-linejoin:round;">
</g>
<g style="fill:#000000; fill-opacity:0.0; 
stroke:#000000; stroke-width:59.0551; stroke-opacity:1; 
stroke-linecap:round; stroke-linejoin:round;">
<path d="M14169 78580
L13877 78580
" />
<path d="M14023 78580
L14023 78069
L13974 78142
L13925 78190
L13877 78215
" />
</g>
<g style="fill:#000000; fill-opacity:0.0; 
stroke:#000000; stroke-width:39.3701; stroke-opacity:1; 
stroke-linecap:round; stroke-linejoin:round;">
</g>
<g style="fill:#000000; fill-opacity:0.0; 
stroke:#000000; stroke-width:59.0551; stroke-opacity:1; 
stroke-linecap:round; stroke-linejoin:round;">
<path d="M33562 78117
L33586 78093
L33635 78069
L33757 78069
L33805 78093
L33830 78117
L33854 78166
L33854 78215
L33830 78288
L33537 78580
L33854 78580
" />
</g>
<g style="fill:#000000; fill-opacity:0.0; 
stroke:#000000; stroke-width:39.3701; stroke-opacity:1; 
stroke-linecap:round; stroke-linejoin:round;">
</g>
<g style="fill:#000000; fill-opacity:0.0; 
stroke:#000000; stroke-width:59.0551; stroke-opacity:1; 
stroke-linecap:round; stroke-linejoin:round;">
<path d="M53222 78069
L53539 78069
L53368 78263
L53442 78263
L53490 78288
L53515 78312
L53539 78361
L53539 78483
L53515 78532
L53490 78556
L53442 78580
L53295 78580
L53247 78556
L53222 78532
" />
</g>
<g style="fill:#000000; fill-opacity:0.0; 
stroke:#000000; stroke-width:39.3701; stroke-opacity:1; 
stroke-linecap:round; stroke-linejoin:round;">
</g>
<g style="fill:#000000; fill-opacity:0.0; 
stroke:#000000; stroke-width:59.0551; stroke-opacity:1; 
stroke-linecap:round; stroke-linejoin:round;">
<path d="M73175 78239
L73175 78580
" />
<path d="M73053 78044
L72932 78410
L73248 78410
" />
</g>
<g style="fill:#000000; fill-opacity:0.0; 
stroke:#000000; stroke-width:39.3701; stroke-opacity:1; 
stroke-linecap:round; stroke-linejoin:round;">
</g>
<g style="fill:#000000; fill-opacity:0.0; 
stroke:#000000; stroke-width:59.0551; stroke-opacity:1; 
stroke-linecap:round; stroke-linejoin:round;">
<path d="M92885 78069
L92641 78069
L92617 78312
L92641 78288
L92690 78263
L92812 78263
L92860 78288
L92885 78312
L92909 78361
L92909 78483
L92885 78532
L92860 78556
L92812 78580
L92690 78580
L92641 78556
L92617 78532
" />
</g>
<g style="fill:#000000; fill-opacity:0.0; 
stroke:#000000; stroke-width:39.3701; stroke-opacity:1; 
stroke-linecap:round; stroke-linejoin:round;">
</g>
<g style="fill:#000000; fill-opacity:0.0; 
stroke:#000000; stroke-width:59.0551; stroke-opacity:1; 
stroke-linecap:round; stroke-linejoin:round;">
<path d="M112545 78069
L112448 78069
L112399 78093
L112375 78117
L112326 78190
L112302 78288
L112302 78483
L112326 78532
L112350 78556
L112399 78580
L112497 78580
L112545 78556
L112570 78532
L112594 78483
L112594 78361
L112570 78312
L112545 78288
L112497 78263
L112399 78263
L112350 78288
L112326 78312
L112302 78361
" />
</g>
<g style="fill:#000000; fill-opacity:0.0; 
stroke:#000000; stroke-width:39.3701; stroke-opacity:1; 
stroke-linecap:round; stroke-linejoin:round;">
</g>
<g style="fill:#000000; fill-opacity:0.0; 
stroke:#000000; stroke-width:59.0551; stroke-opacity:1; 
stroke-linecap:round; stroke-linejoin:round;">
<path d="M3937 23622
L4724 23622
" />
</g>
<g style="fill:#000000; fill-opacity:0.0; 
stroke:#000000; stroke-width:39.3701; stroke-opacity:1; 
stroke-linecap:round; stroke-linejoin:round;">
</g>
<g style="fill:#000000; fill-opacity:0.0; 
stroke:#000000; stroke-width:59.0551; stroke-opacity:1; 
stroke-linecap:round; stroke-linejoin:round;">
<path d="M3937 43307
L4724 43307
" />
</g>
<g style="fill:#000000; fill-opacity:0.0; 
stroke:#000000; stroke-width:39.3701; stroke-opacity:1; 
stroke-linecap:round; stroke-linejoin:round;">
</g>
<g style="fill:#000000; fill-opacity:0.0; 
stroke:#000000; stroke-width:59.0551; stroke-opacity:1; 
stroke-linecap:round; stroke-linejoin:round;">
<path d="M3937 62992
L4724 62992
" />
</g>
<g style="fill:#000000; fill-opacity:0.0; 
stroke:#000000; stroke-width:39.3701; stroke-opacity:1; 
stroke-linecap:round; stroke-linejoin:round;">
</g>
<g style="fill:#000000; fill-opacity:0.0; 
stroke:#000000; stroke-width:59.0551; stroke-opacity:1; 
stroke-linecap:round; stroke-linejoin:round;">
<path d="M4208 13864
L4452 13864
" />
<path d="M4160 14011
L4330 13499
L4501 14011
" />
</g>
<g style="fill:#000000; fill-opacity:0.0; 
stroke:#000000; stroke-width:39.3701; stroke-opacity:1; 
stroke-linecap:round; stroke-linejoin:round;">
</g>
<g style="fill:#000000; fill-opacity:0.0; 
stroke:#000000; stroke-width:59.0551; stroke-opacity:1; 
stroke-linecap:round; stroke-linejoin:round;">
<path d="M4367 33428
L4440 33452
L4464 33476
L4489 33525
L4489 33598
L4464 33647
L4440 33671
L4391 33696
L4196 33696
L4196 33184
L4367 33184
L4416 33208
L4440 33233
L4464 33281
L4464 33330
L4440 33379
L4416 33403
L4367 33428
L4196 33428
" />
</g>
<g style="fill:#000000; fill-opacity:0.0; 
stroke:#000000; stroke-width:39.3701; stroke-opacity:1; 
stroke-linecap:round; stroke-linejoin:round;">
</g>
<g style="fill:#000000; fill-opacity:0.0; 
stroke:#000000; stroke-width:59.0551; stroke-opacity:1; 
stroke-linecap:round; stroke-linejoin:round;">
<path d="M4489 53332
L4464 53356
L4391 53381
L4342 53381
L4269 53356
L4221 53308
L4196 53259
L4172 53161
L4172 53088
L4196 52991
L4221 52942
L4269 52893
L4342 52869
L4391 52869
L4464 52893
L4489 52918
" />
</g>
<g style="fill:#000000; fill-opacity:0.0; 
stroke:#000000; stroke-width:39.3701; stroke-opacity:1; 
stroke-linecap:round; stroke-linejoin:round;">
</g>
<g style="fill:#000000; fill-opacity:0.0; 
stroke:#000000; stroke-width:59.0551; stroke-opacity:1; 
stroke-linecap:round; stroke-linejoin:round;">
<path d="M4196 73066
L4196 72554
L4318 72554
L4391 72578
L4440 72627
L4464 72676
L4489 72773
L4489 72846
L4464 72944
L4440 72993
L4391 73041
L4318 73066
L4196 73066
" />
</g>
<g style="fill:#000000; fill-opacity:0.0; 
stroke:#000000; stroke-width:39.3701; stroke-opacity:1; 
stroke-linecap:round; stroke-linejoin:round;">
</g>
<g style="fill:#000000; fill-opacity:0.0; 
stroke:#000000; stroke-width:59.0551; stroke-opacity:1; 
stroke-linecap:round; stroke-linejoin:round;">
<path d="M112992 23622
L112205 23622
" />
</g>
<g style="fill:#000000; fill-opacity:0.0; 
stroke:#000000; stroke-width:39.3701; stroke-opacity:1; 
stroke-linecap:round; stroke-linejoin:round;">
</g>
<g style="fill:#000000; fill-opacity:0.0; 
stroke:#000000; stroke-width:59.0551; stroke-opacity:1; 
stroke-linecap:round; stroke-linejoin:round;">
<path d="M112992 43307
L112205 43307
" />
</g>
<g style="fill:#000000; fill-opacity:0.0; 
stroke:#000000; stroke-width:39.3701; stroke-opacity:1; 
stroke-linecap:round; stroke-linejoin:round;">
</g>
<g style="fill:#000000; fill-opacity:0.0; 
stroke:#000000; stroke-width:59.0551; stroke-opacity:1; 
stroke-linecap:round; stroke-linejoin:round;">
<path d="M112992 62992
L112205 62992
" />
</g>
<g style="fill:#000000; fill-opacity:0.0; 
stroke:#000000; stroke-width:39.3701; stroke-opacity:1; 
stroke-linecap:round; stroke-linejoin:round;">
</g>
<g style="fill:#000000; fill-opacity:0.0; 
stroke:#000000; stroke-width:59.0551; stroke-opacity:1; 
stroke-linecap:round; stroke-linejoin:round;">
<path d="M112477 13864
L112721 13864
" />
<path d="M112428 14011
L112599 13499
L112769 14011
" />
</g>
<g style="fill:#000000; fill-opacity:0.0; 
stroke:#000000; stroke-width:39.3701; stroke-opacity:1; 
stroke-linecap:round; stroke-linejoin:round;">
</g>
<g style="fill:#000000; fill-opacity:0.0; 
stroke:#000000; stroke-width:59.0551; stroke-opacity:1; 
stroke-linecap:round; stroke-linejoin:round;">
<path d="M112635 33428
L112708 33452
L112733 33476
L112757 33525
L112757 33598
L112733 33647
L112708 33671
L112660 33696
L112465 33696
L112465 33184
L112635 33184
L112684 33208
L112708 33233
L112733 33281
L112733 33330
L112708 33379
L112684 33403
L112635 33428
L112465 33428
" />
</g>
<g style="fill:#000000; fill-opacity:0.0; 
stroke:#000000; stroke-width:39.3701; stroke-opacity:1; 
stroke-linecap:round; stroke-linejoin:round;">
</g>
<g style="fill:#000000; fill-opacity:0.0; 
stroke:#000000; stroke-width:59.0551; stroke-opacity:1; 
stroke-linecap:round; stroke-linejoin:round;">
<path d="M112757 53332
L112733 53356
L112660 53381
L112611 53381
L112538 53356
L112489 53308
L112465 53259
L112440 53161
L112440 53088
L112465 52991
L112489 52942
L112538 52893
L112611 52869
L112660 52869
L112733 52893
L112757 52918
" />
</g>
<g style="fill:#000000; fill-opacity:0.0; 
stroke:#000000; stroke-width:39.3701; stroke-opacity:1; 
stroke-linecap:round; stroke-linejoin:round;">
</g>
<g style="fill:#000000; fill-opacity:0.0; 
stroke:#000000; stroke-width:59.0551; stroke-opacity:1; 
stroke-linecap:round; stroke-linejoin:round;">
<path d="M112465 73066
L112465 72554
L112587 72554
L112660 72578
L112708 72627
L112733 72676
L112757 72773
L112757 72846
L112733 72944
L112708 72993
L112660 73041
L112587 73066
L112465 73066
" />
</g>
<g style="fill:#000000; fill-opacity:0.0; 
stroke:#000000; stroke-width:39.3701; stroke-opacity:1; 
stroke-linecap:round; stroke-linejoin:round;">
</g>
<g style="fill:#000000; fill-opacity:0.0; 
stroke:#000000; stroke-width:59.0551; stroke-opacity:1; 
stroke-linecap:round; stroke-linejoin:round;">
<path d="M78881 76293
L78881 75703
L79022 75703
L79106 75731
L79162 75787
L79190 75843
L79219 75956
L79219 76040
L79190 76153
L79162 76209
L79106 76265
L79022 76293
L78881 76293
" />
<path d="M79725 76293
L79725 75984
L79697 75928
L79640 75899
L79528 75899
L79472 75928
" />
<path d="M79725 76265
L79669 76293
L79528 76293
L79472 76265
L79444 76209
L79444 76153
L79472 76096
L79528 76068
L79669 76068
L79725 76040
" />
<path d="M79922 75899
L80147 75899
" />
<path d="M80006 75703
L80006 76209
L80034 76265
L80090 76293
L80147 76293
" />
<path d="M80568 76265
L80512 76293
L80400 76293
L80343 76265
L80315 76209
L80315 75984
L80343 75928
L80400 75899
L80512 75899
L80568 75928
L80597 75984
L80597 76040
L80315 76096
" />
<path d="M80850 76237
L80878 76265
L80850 76293
L80822 76265
L80850 76237
L80850 76293
" />
<path d="M80850 75928
L80878 75956
L80850 75984
L80822 75956
L80850 75928
L80850 75984
" />
<path d="M81665 76293
L81609 76265
L81581 76209
L81581 75703
" />
<path d="M82143 75899
L82143 76293
" />
<path d="M81890 75899
L81890 76209
L81918 76265
L81974 76293
L82059 76293
L82115 76265
L82143 76237
" />
<path d="M82424 75899
L82424 76293
" />
<path d="M82424 75956
L82453 75928
L82509 75899
L82593 75899
L82649 75928
L82678 75984
L82678 76293
" />
<path d="M82959 76237
L82987 76265
L82959 76293
L82931 76265
L82959 76237
L82959 76293
" />
<path d="M83634 75703
L83999 75703
L83802 75928
L83887 75928
L83943 75956
L83971 75984
L83999 76040
L83999 76181
L83971 76237
L83943 76265
L83887 76293
L83718 76293
L83662 76265
L83634 76237
" />
<path d="M84365 75703
L84421 75703
L84477 75731
L84505 75759
L84534 75815
L84562 75928
L84562 76068
L84534 76181
L84505 76237
L84477 76265
L84421 76293
L84365 76293
L84309 76265
L84280 76237
L84252 76181
L84224 76068
L84224 75928
L84252 75815
L84280 75759
L84309 75731
L84365 75703
" />
<path d="M85265 76293
L85265 75899
" />
<path d="M85265 75956
L85293 75928
L85349 75899
L85433 75899
L85490 75928
L85518 75984
L85518 76293
" />
<path d="M85518 75984
L85546 75928
L85602 75899
L85687 75899
L85743 75928
L85771 75984
L85771 76293
" />
<path d="M86305 76293
L86305 75984
L86277 75928
L86221 75899
L86108 75899
L86052 75928
" />
<path d="M86305 76265
L86249 76293
L86108 76293
L86052 76265
L86024 76209
L86024 76153
L86052 76096
L86108 76068
L86249 76068
L86305 76040
" />
<path d="M86586 76293
L86586 75899
" />
<path d="M86586 76012
L86615 75956
L86643 75928
L86699 75899
L86755 75899
" />
<path d="M86924 76265
L86980 76293
L87093 76293
L87149 76265
L87177 76209
L87177 76181
L87149 76124
L87093 76096
L87008 76096
L86952 76068
L86924 76012
L86924 75984
L86952 75928
L87008 75899
L87093 75899
L87149 75928
" />
<path d="M87852 75759
L87880 75731
L87936 75703
L88077 75703
L88133 75731
L88161 75759
L88189 75815
L88189 75871
L88161 75956
L87824 76293
L88189 76293
" />
<path d="M88555 75703
L88611 75703
L88667 75731
L88696 75759
L88724 75815
L88752 75928
L88752 76068
L88724 76181
L88696 76237
L88667 76265
L88611 76293
L88555 76293
L88499 76265
L88471 76237
L88442 76181
L88414 76068
L88414 75928
L88442 75815
L88471 75759
L88499 75731
L88555 75703
" />
<path d="M89314 76293
L88977 76293
" />
<path d="M89145 76293
L89145 75703
L89089 75787
L89033 75843
L88977 75871
" />
<path d="M89849 75703
L89567 75703
L89539 75984
L89567 75956
L89624 75928
L89764 75928
L89820 75956
L89849 75984
L89877 76040
L89877 76181
L89849 76237
L89820 76265
L89764 76293
L89624 76293
L89567 76265
L89539 76237
" />
</g>
<g style="fill:#000000; fill-opacity:0.0; 
stroke:#000000; stroke-width:39.3701; stroke-opacity:1; 
stroke-linecap:round; stroke-linejoin:round;">
</g>
<g style="fill:#000000; fill-opacity:0.0; 
stroke:#000000; stroke-width:59.0551; stroke-opacity:1; 
stroke-linecap:round; stroke-linejoin:round;">
<path d="M69685 76577
L112205 76577
" />
</g>
<g style="fill:#000000; fill-opacity:0.0; 
stroke:#000000; stroke-width:39.3701; stroke-opacity:1; 
stroke-linecap:round; stroke-linejoin:round;">
</g>
<g style="fill:#000000; fill-opacity:0.0; 
stroke:#000000; stroke-width:59.0551; stroke-opacity:1; 
stroke-linecap:round; stroke-linejoin:round;">
<path d="M70220 77395
L70220 76805
" />
<path d="M70557 77395
L70304 77058
" />
<path d="M70557 76805
L70220 77142
" />
<path d="M70810 77395
L70810 77002
" />
<path d="M70810 76805
L70782 76833
L70810 76861
L70838 76833
L70810 76805
L70810 76861
" />
<path d="M71429 77339
L71401 77367
L71316 77395
L71260 77395
L71176 77367
L71120 77311
L71091 77255
L71063 77142
L71063 77058
L71091 76946
L71120 76889
L71176 76833
L71260 76805
L71316 76805
L71401 76833
L71429 76861
" />
<path d="M71935 77395
L71935 77086
L71907 77030
L71851 77002
L71738 77002
L71682 77030
" />
<path d="M71935 77367
L71879 77395
L71738 77395
L71682 77367
L71654 77311
L71654 77255
L71682 77199
L71738 77171
L71879 77171
L71935 77142
" />
<path d="M72469 77395
L72469 76805
" />
<path d="M72469 77367
L72413 77395
L72301 77395
L72244 77367
L72216 77339
L72188 77283
L72188 77114
L72216 77058
L72244 77030
L72301 77002
L72413 77002
L72469 77030
" />
<path d="M73201 77086
L73397 77086
" />
<path d="M73482 77395
L73201 77395
L73201 76805
L73482 76805
" />
<path d="M73735 77339
L73763 77367
L73735 77395
L73707 77367
L73735 77339
L73735 77395
" />
<path d="M74016 77395
L74016 76805
L74157 76805
L74241 76833
L74297 76889
L74325 76946
L74354 77058
L74354 77142
L74325 77255
L74297 77311
L74241 77367
L74157 77395
L74016 77395
" />
<path d="M74607 77339
L74635 77367
L74607 77395
L74579 77367
L74607 77339
L74607 77395
" />
<path d="M74860 77227
L75141 77227
" />
<path d="M74804 77395
L75000 76805
L75197 77395
" />
<path d="M75394 77339
L75422 77367
L75394 77395
L75366 77367
L75394 77339
L75394 77395
" />
<path d="M76575 77395
L76575 76805
" />
<path d="M76631 77171
L76800 77395
" />
<path d="M76800 77002
L76575 77227
" />
<path d="M77053 77395
L77053 77002
" />
<path d="M77053 76805
L77025 76833
L77053 76861
L77081 76833
L77053 76805
L77053 76861
" />
<path d="M77588 77367
L77531 77395
L77419 77395
L77363 77367
L77334 77339
L77306 77283
L77306 77114
L77334 77058
L77363 77030
L77419 77002
L77531 77002
L77588 77030
" />
<path d="M78094 77395
L78094 77086
L78066 77030
L78009 77002
L77897 77002
L77841 77030
" />
<path d="M78094 77367
L78037 77395
L77897 77395
L77841 77367
L77813 77311
L77813 77255
L77841 77199
L77897 77171
L78037 77171
L78094 77142
" />
<path d="M78628 77395
L78628 76805
" />
<path d="M78628 77367
L78572 77395
L78459 77395
L78403 77367
L78375 77339
L78347 77283
L78347 77114
L78375 77058
L78403 77030
L78459 77002
L78572 77002
L78628 77030
" />
<path d="M79612 77002
L79612 77395
" />
<path d="M79472 76777
L79331 77199
L79697 77199
" />
<path d="M79922 77339
L79950 77367
L79922 77395
L79894 77367
L79922 77339
L79922 77395
" />
<path d="M80315 76805
L80372 76805
L80428 76833
L80456 76861
L80484 76917
L80512 77030
L80512 77171
L80484 77283
L80456 77339
L80428 77367
L80372 77395
L80315 77395
L80259 77367
L80231 77339
L80203 77283
L80175 77171
L80175 77030
L80203 76917
L80231 76861
L80259 76833
L80315 76805
" />
<path d="M80765 77339
L80793 77367
L80765 77395
L80737 77367
L80765 77339
L80765 77395
" />
<path d="M80990 76805
L81356 76805
L81159 77030
L81243 77030
L81300 77058
L81328 77086
L81356 77142
L81356 77283
L81328 77339
L81300 77367
L81243 77395
L81075 77395
L81018 77367
L80990 77339
" />
<path d="M81609 77171
L82059 77171
" />
<path d="M81834 77395
L81834 76946
" />
<path d="M82565 77367
L82509 77395
L82396 77395
L82340 77367
L82312 77311
L82312 77086
L82340 77030
L82396 77002
L82509 77002
L82565 77030
L82593 77086
L82593 77142
L82312 77199
" />
<path d="M83156 77395
L82818 77395
" />
<path d="M82987 77395
L82987 76805
L82931 76889
L82874 76946
L82818 76974
" />
<path d="M83409 77171
L83859 77171
" />
<path d="M84393 76805
L84280 76805
L84224 76833
L84196 76861
L84140 76946
L84112 77058
L84112 77283
L84140 77339
L84168 77367
L84224 77395
L84337 77395
L84393 77367
L84421 77339
L84449 77283
L84449 77142
L84421 77086
L84393 77058
L84337 77030
L84224 77030
L84168 77058
L84140 77086
L84112 77142
" />
<path d="M84646 76805
L85012 76805
L84815 77030
L84899 77030
L84955 77058
L84983 77086
L85012 77142
L85012 77283
L84983 77339
L84955 77367
L84899 77395
L84730 77395
L84674 77367
L84646 77339
" />
<path d="M85377 76805
L85433 76805
L85490 76833
L85518 76861
L85546 76917
L85574 77030
L85574 77171
L85546 77283
L85518 77339
L85490 77367
L85433 77395
L85377 77395
L85321 77367
L85293 77339
L85265 77283
L85237 77171
L85237 77030
L85265 76917
L85293 76861
L85321 76833
L85377 76805
" />
<path d="M85799 76861
L85827 76833
L85883 76805
L86024 76805
L86080 76833
L86108 76861
L86136 76917
L86136 76974
L86108 77058
L85771 77395
L86136 77395
" />
<path d="M86333 76805
L86699 76805
L86502 77030
L86586 77030
L86643 77058
L86671 77086
L86699 77142
L86699 77283
L86671 77339
L86643 77367
L86586 77395
L86418 77395
L86361 77367
L86333 77339
" />
<path d="M87036 77058
L86980 77030
L86952 77002
L86924 76946
L86924 76917
L86952 76861
L86980 76833
L87036 76805
L87149 76805
L87205 76833
L87233 76861
L87261 76917
L87261 76946
L87233 77002
L87205 77030
L87149 77058
L87036 77058
L86980 77086
L86952 77114
L86924 77171
L86924 77283
L86952 77339
L86980 77367
L87036 77395
L87149 77395
L87205 77367
L87233 77339
L87261 77283
L87261 77171
L87233 77114
L87205 77086
L87149 77058
" />
<path d="M86249 76703
L87374 76703
" />
<path d="M87768 77002
L87768 77395
" />
<path d="M87514 77002
L87514 77311
L87543 77367
L87599 77395
L87683 77395
L87739 77367
L87768 77339
" />
<path d="M88049 77395
L88049 76805
" />
<path d="M88049 77030
L88105 77002
L88217 77002
L88274 77030
L88302 77058
L88330 77114
L88330 77283
L88302 77339
L88274 77367
L88217 77395
L88105 77395
L88049 77367
" />
<path d="M88836 77002
L88836 77395
" />
<path d="M88583 77002
L88583 77311
L88611 77367
L88667 77395
L88752 77395
L88808 77367
L88836 77339
" />
<path d="M89117 77002
L89117 77395
" />
<path d="M89117 77058
L89145 77030
L89202 77002
L89286 77002
L89342 77030
L89370 77086
L89370 77395
" />
<path d="M89567 77002
L89792 77002
" />
<path d="M89652 76805
L89652 77311
L89680 77367
L89736 77395
L89792 77395
" />
<path d="M90242 77002
L90242 77395
" />
<path d="M89989 77002
L89989 77311
L90017 77367
L90073 77395
L90158 77395
L90214 77367
L90242 77339
" />
<path d="M90833 77395
L90495 77395
" />
<path d="M90664 77395
L90664 76805
L90608 76889
L90552 76946
L90495 76974
" />
<path d="M91367 76805
L91086 76805
L91058 77086
L91086 77058
L91142 77030
L91283 77030
L91339 77058
L91367 77086
L91395 77142
L91395 77283
L91367 77339
L91339 77367
L91283 77395
L91142 77395
L91086 77367
L91058 77339
" />
<path d="M91648 77339
L91676 77367
L91648 77395
L91620 77367
L91648 77339
L91648 77395
" />
<path d="M92239 77395
L91901 77395
" />
<path d="M92070 77395
L92070 76805
L92014 76889
L91958 76946
L91901 76974
" />
<path d="M92604 76805
L92661 76805
L92717 76833
L92745 76861
L92773 76917
L92801 77030
L92801 77171
L92773 77283
L92745 77339
L92717 77367
L92661 77395
L92604 77395
L92548 77367
L92520 77339
L92492 77283
L92464 77171
L92464 77030
L92492 76917
L92520 76861
L92548 76833
L92604 76805
" />
<path d="M93054 77339
L93082 77367
L93054 77395
L93026 77367
L93054 77339
L93054 77395
" />
<path d="M93645 77395
L93307 77395
" />
<path d="M93476 77395
L93476 76805
L93420 76889
L93364 76946
L93307 76974
" />
<path d="M93898 77171
L94348 77171
" />
<path d="M94601 77367
L94657 77395
L94770 77395
L94826 77367
L94854 77311
L94854 77283
L94826 77227
L94770 77199
L94685 77199
L94629 77171
L94601 77114
L94601 77086
L94629 77030
L94685 77002
L94770 77002
L94826 77030
" />
<path d="M95023 77002
L95248 77002
" />
<path d="M95107 76805
L95107 77311
L95135 77367
L95192 77395
L95248 77395
" />
<path d="M95698 77395
L95698 77086
L95670 77030
L95613 77002
L95501 77002
L95445 77030
" />
<path d="M95698 77367
L95642 77395
L95501 77395
L95445 77367
L95417 77311
L95417 77255
L95445 77199
L95501 77171
L95642 77171
L95698 77142
" />
<path d="M95979 77395
L95979 76805
" />
<path d="M95979 77030
L96035 77002
L96148 77002
L96204 77030
L96232 77058
L96260 77114
L96260 77283
L96232 77339
L96204 77367
L96148 77395
L96035 77395
L95979 77367
" />
<path d="M96598 77395
L96541 77367
L96513 77311
L96513 76805
" />
<path d="M97048 77367
L96991 77395
L96879 77395
L96823 77367
L96795 77311
L96795 77086
L96823 77030
L96879 77002
L96991 77002
L97048 77030
L97076 77086
L97076 77142
L96795 77199
" />
</g>
<g style="fill:#000000; fill-opacity:0.0; 
stroke:#000000; stroke-width:39.3701; stroke-opacity:1; 
stroke-linecap:round; stroke-linejoin:round;">
</g>
<g style="fill:#000000; fill-opacity:0.0; 
stroke:#000000; stroke-width:59.0551; stroke-opacity:1; 
stroke-linecap:round; stroke-linejoin:round;">
<path d="M69685 75396
L112205 75396
" />
</g>
<g style="fill:#000000; fill-opacity:0.0; 
stroke:#000000; stroke-width:39.3701; stroke-opacity:1; 
stroke-linecap:round; stroke-linejoin:round;">
</g>
<g style="fill:#000000; fill-opacity:0.0; 
stroke:#000000; stroke-width:118.11; stroke-opacity:1; 
stroke-linecap:round; stroke-linejoin:round;">
<path d="M104022 76293
L103825 76012
" />
<path d="M103684 76293
L103684 75703
L103909 75703
L103965 75731
L103994 75759
L104022 75815
L104022 75899
L103994 75956
L103965 75984
L103909 76012
L103684 76012
" />
<path d="M104500 76265
L104444 76293
L104331 76293
L104275 76265
L104247 76209
L104247 75984
L104275 75928
L104331 75899
L104444 75899
L104500 75928
L104528 75984
L104528 76040
L104247 76096
" />
<path d="M104725 75899
L104865 76293
L105006 75899
" />
<path d="M105231 76237
L105259 76265
L105231 76293
L105203 76265
L105231 76237
L105231 76293
" />
<path d="M105231 75928
L105259 75956
L105231 75984
L105203 75956
L105231 75928
L105231 75984
" />
</g>
<g style="fill:#000000; fill-opacity:0.0; 
stroke:#000000; stroke-width:39.3701; stroke-opacity:1; 
stroke-linecap:round; stroke-linejoin:round;">
</g>
<g style="fill:#000000; fill-opacity:0.0; 
stroke:#000000; stroke-width:59.0551; stroke-opacity:1; 
stroke-linecap:round; stroke-linejoin:round;">
<path d="M70192 76265
L70276 76293
L70417 76293
L70473 76265
L70501 76237
L70529 76181
L70529 76124
L70501 76068
L70473 76040
L70417 76012
L70304 75984
L70248 75956
L70220 75928
L70192 75871
L70192 75815
L70220 75759
L70248 75731
L70304 75703
L70445 75703
L70529 75731
" />
<path d="M70782 76293
L70782 75899
" />
<path d="M70782 75703
L70754 75731
L70782 75759
L70810 75731
L70782 75703
L70782 75759
" />
<path d="M71007 75899
L71316 75899
L71007 76293
L71316 76293
" />
<path d="M71766 76265
L71710 76293
L71598 76293
L71541 76265
L71513 76209
L71513 75984
L71541 75928
L71598 75899
L71710 75899
L71766 75928
L71795 75984
L71795 76040
L71513 76096
" />
<path d="M72048 76237
L72076 76265
L72048 76293
L72019 76265
L72048 76237
L72048 76293
" />
<path d="M72048 75928
L72076 75956
L72048 75984
L72019 75956
L72048 75928
L72048 75984
" />
<path d="M72751 76124
L73032 76124
" />
<path d="M72694 76293
L72891 75703
L73088 76293
" />
<path d="M73538 75899
L73538 76293
" />
<path d="M73397 75674
L73257 76096
L73622 76096
" />
</g>
<g style="fill:#000000; fill-opacity:0.0; 
stroke:#000000; stroke-width:39.3701; stroke-opacity:1; 
stroke-linecap:round; stroke-linejoin:round;">
</g>
<g style="fill:#000000; fill-opacity:0.0; 
stroke:#000000; stroke-width:59.0551; stroke-opacity:1; 
stroke-linecap:round; stroke-linejoin:round;">
<path d="M103684 77395
L103684 76805
" />
<path d="M104219 77395
L104219 76805
" />
<path d="M104219 77367
L104162 77395
L104050 77395
L103994 77367
L103965 77339
L103937 77283
L103937 77114
L103965 77058
L103994 77030
L104050 77002
L104162 77002
L104219 77030
" />
<path d="M104500 77339
L104528 77367
L104500 77395
L104472 77367
L104500 77339
L104500 77395
" />
<path d="M104500 77030
L104528 77058
L104500 77086
L104472 77058
L104500 77030
L104500 77086
" />
<path d="M105540 77395
L105203 77395
" />
<path d="M105372 77395
L105372 76805
L105315 76889
L105259 76946
L105203 76974
" />
<path d="M106215 76777
L105709 77536
" />
<path d="M106721 77395
L106384 77395
" />
<path d="M106553 77395
L106553 76805
L106496 76889
L106440 76946
L106384 76974
" />
</g>
<g style="fill:#000000; fill-opacity:0.0; 
stroke:#000000; stroke-width:39.3701; stroke-opacity:1; 
stroke-linecap:round; stroke-linejoin:round;">
</g>
<g style="fill:#000000; fill-opacity:0.0; 
stroke:#000000; stroke-width:59.0551; stroke-opacity:1; 
stroke-linecap:round; stroke-linejoin:round;">
<path d="M69685 73821
L112205 73821
" />
</g>
<g style="fill:#000000; fill-opacity:0.0; 
stroke:#000000; stroke-width:39.3701; stroke-opacity:1; 
stroke-linecap:round; stroke-linejoin:round;">
</g>
<g style="fill:#000000; fill-opacity:0.0; 
stroke:#000000; stroke-width:157.48; stroke-opacity:1; 
stroke-linecap:round; stroke-linejoin:round;">
<path d="M70257 74099
L70707 74099
" />
<path d="M70384 74886
L70482 74099
" />
<path d="M70871 74886
L70937 74361
" />
<path d="M70970 74099
L70927 74136
L70960 74174
L71002 74136
L70970 74099
L70960 74174
" />
<path d="M71199 74361
L71499 74361
" />
<path d="M71345 74099
L71260 74774
L71288 74849
L71359 74886
L71434 74886
" />
<path d="M71809 74886
L71738 74849
L71710 74774
L71795 74099
" />
<path d="M72413 74849
L72334 74886
L72184 74886
L72113 74849
L72085 74774
L72123 74474
L72169 74399
L72249 74361
L72399 74361
L72469 74399
L72498 74474
L72488 74549
L72104 74624
" />
<path d="M72793 74811
L72826 74849
L72783 74886
L72751 74849
L72793 74811
L72783 74886
" />
<path d="M72844 74399
L72877 74436
L72835 74474
L72802 74436
L72844 74399
L72835 74474
" />
</g>
<g style="fill:#000000; fill-opacity:0.0; 
stroke:#000000; stroke-width:39.3701; stroke-opacity:1; 
stroke-linecap:round; stroke-linejoin:round;">
</g>
<g style="fill:#000000; fill-opacity:0.0; 
stroke:#000000; stroke-width:59.0551; stroke-opacity:1; 
stroke-linecap:round; stroke-linejoin:round;">
<path d="M70417 73070
L70220 73070
" />
<path d="M70220 73380
L70220 72789
L70501 72789
" />
<path d="M70726 73380
L70726 72986
" />
<path d="M70726 72789
L70698 72817
L70726 72845
L70754 72817
L70726 72789
L70726 72845
" />
<path d="M71091 73380
L71035 73352
L71007 73295
L71007 72789
" />
<path d="M71541 73352
L71485 73380
L71373 73380
L71316 73352
L71288 73295
L71288 73070
L71316 73014
L71373 72986
L71485 72986
L71541 73014
L71570 73070
L71570 73127
L71288 73183
" />
<path d="M71823 73323
L71851 73352
L71823 73380
L71795 73352
L71823 73323
L71823 73380
" />
<path d="M71823 73014
L71851 73042
L71823 73070
L71795 73042
L71823 73014
L71823 73070
" />
<path d="M72807 73380
L72807 72789
" />
<path d="M72807 73352
L72751 73380
L72638 73380
L72582 73352
L72554 73323
L72526 73267
L72526 73099
L72554 73042
L72582 73014
L72638 72986
L72751 72986
L72807 73014
" />
<path d="M73088 73380
L73088 72986
" />
<path d="M73088 73099
L73116 73042
L73144 73014
L73201 72986
L73257 72986
" />
<path d="M73538 73380
L73482 73352
L73454 73323
L73426 73267
L73426 73099
L73454 73042
L73482 73014
L73538 72986
L73622 72986
L73679 73014
L73707 73042
L73735 73099
L73735 73267
L73707 73323
L73679 73352
L73622 73380
L73538 73380
" />
<path d="M73988 72986
L73988 73380
" />
<path d="M73988 73042
L74016 73014
L74072 72986
L74157 72986
L74213 73014
L74241 73070
L74241 73380
" />
<path d="M74747 73352
L74691 73380
L74579 73380
L74522 73352
L74494 73295
L74494 73070
L74522 73014
L74579 72986
L74691 72986
L74747 73014
L74775 73070
L74775 73127
L74494 73183
" />
<path d="M75028 73155
L75478 73155
" />
<path d="M75760 73380
L75760 72789
" />
<path d="M76013 73380
L76013 73070
L75985 73014
L75928 72986
L75844 72986
L75788 73014
L75760 73042
" />
<path d="M76238 72986
L76350 73380
L76463 73099
L76575 73380
L76688 72986
" />
<path d="M76913 73155
L77363 73155
" />
<path d="M77616 73352
L77672 73380
L77784 73380
L77841 73352
L77869 73295
L77869 73267
L77841 73211
L77784 73183
L77700 73183
L77644 73155
L77616 73099
L77616 73070
L77644 73014
L77700 72986
L77784 72986
L77841 73014
" />
<path d="M78122 73380
L78122 72789
" />
<path d="M78375 73380
L78375 73070
L78347 73014
L78291 72986
L78206 72986
L78150 73014
L78122 73042
" />
<path d="M78656 73380
L78656 72986
" />
<path d="M78656 72789
L78628 72817
L78656 72845
L78684 72817
L78656 72789
L78656 72845
" />
<path d="M79162 73352
L79106 73380
L78994 73380
L78937 73352
L78909 73295
L78909 73070
L78937 73014
L78994 72986
L79106 72986
L79162 73014
L79190 73070
L79190 73127
L78909 73183
" />
<path d="M79528 73380
L79472 73352
L79444 73295
L79444 72789
" />
<path d="M80006 73380
L80006 72789
" />
<path d="M80006 73352
L79950 73380
L79837 73380
L79781 73352
L79753 73323
L79725 73267
L79725 73099
L79753 73042
L79781 73014
L79837 72986
L79950 72986
L80006 73014
" />
<path d="M80287 73323
L80315 73352
L80287 73380
L80259 73352
L80287 73323
L80287 73380
" />
<path d="M80568 73380
L80568 72789
" />
<path d="M80625 73155
L80793 73380
" />
<path d="M80793 72986
L80568 73211
" />
<path d="M81046 73380
L81046 72986
" />
<path d="M81046 72789
L81018 72817
L81046 72845
L81075 72817
L81046 72789
L81046 72845
" />
<path d="M81581 73352
L81525 73380
L81412 73380
L81356 73352
L81328 73323
L81300 73267
L81300 73099
L81328 73042
L81356 73014
L81412 72986
L81525 72986
L81581 73014
" />
<path d="M82087 73380
L82087 73070
L82059 73014
L82003 72986
L81890 72986
L81834 73014
" />
<path d="M82087 73352
L82031 73380
L81890 73380
L81834 73352
L81806 73295
L81806 73239
L81834 73183
L81890 73155
L82031 73155
L82087 73127
" />
<path d="M82621 73380
L82621 72789
" />
<path d="M82621 73352
L82565 73380
L82453 73380
L82396 73352
L82368 73323
L82340 73267
L82340 73099
L82368 73042
L82396 73014
L82453 72986
L82565 72986
L82621 73014
" />
<path d="M82762 73436
L83212 73436
" />
<path d="M83352 72986
L83352 73577
" />
<path d="M83352 73014
L83409 72986
L83521 72986
L83577 73014
L83606 73042
L83634 73099
L83634 73267
L83606 73323
L83577 73352
L83521 73380
L83409 73380
L83352 73352
" />
<path d="M84140 73352
L84084 73380
L83971 73380
L83915 73352
L83887 73323
L83859 73267
L83859 73099
L83887 73042
L83915 73014
L83971 72986
L84084 72986
L84140 73014
" />
<path d="M84393 73380
L84393 72789
" />
<path d="M84393 73014
L84449 72986
L84562 72986
L84618 73014
L84646 73042
L84674 73099
L84674 73267
L84646 73323
L84618 73352
L84562 73380
L84449 73380
L84393 73352
" />
</g>
<g style="fill:#000000; fill-opacity:0.0; 
stroke:#000000; stroke-width:39.3701; stroke-opacity:1; 
stroke-linecap:round; stroke-linejoin:round;">
</g>
<g style="fill:#000000; fill-opacity:0.0; 
stroke:#000000; stroke-width:59.0551; stroke-opacity:1; 
stroke-linecap:round; stroke-linejoin:round;">
<path d="M69685 71459
L112205 71459
" />
</g>
<g style="fill:#000000; fill-opacity:0.0; 
stroke:#000000; stroke-width:39.3701; stroke-opacity:1; 
stroke-linecap:round; stroke-linejoin:round;">
</g>
<g style="fill:#000000; fill-opacity:0.0; 
stroke:#000000; stroke-width:59.0551; stroke-opacity:1; 
stroke-linecap:round; stroke-linejoin:round;">
<path d="M70192 72289
L70276 72317
L70417 72317
L70473 72289
L70501 72260
L70529 72204
L70529 72148
L70501 72092
L70473 72064
L70417 72036
L70304 72007
L70248 71979
L70220 71951
L70192 71895
L70192 71839
L70220 71782
L70248 71754
L70304 71726
L70445 71726
L70529 71754
" />
<path d="M70782 72317
L70782 71726
" />
<path d="M71035 72317
L71035 72007
L71007 71951
L70951 71923
L70867 71923
L70810 71951
L70782 71979
" />
<path d="M71541 72289
L71485 72317
L71373 72317
L71316 72289
L71288 72232
L71288 72007
L71316 71951
L71373 71923
L71485 71923
L71541 71951
L71570 72007
L71570 72064
L71288 72120
" />
<path d="M72048 72289
L71991 72317
L71879 72317
L71823 72289
L71795 72232
L71795 72007
L71823 71951
L71879 71923
L71991 71923
L72048 71951
L72076 72007
L72076 72064
L71795 72120
" />
<path d="M72244 71923
L72469 71923
" />
<path d="M72329 71726
L72329 72232
L72357 72289
L72413 72317
L72469 72317
" />
<path d="M72666 72260
L72694 72289
L72666 72317
L72638 72289
L72666 72260
L72666 72317
" />
<path d="M72666 71951
L72694 71979
L72666 72007
L72638 71979
L72666 71951
L72666 72007
" />
</g>
<g style="fill:#000000; fill-opacity:0.0; 
stroke:#000000; stroke-width:39.3701; stroke-opacity:1; 
stroke-linecap:round; stroke-linejoin:round;">
</g>
<g style="fill:#000000; fill-opacity:0.0; 
stroke:#000000; stroke-width:59.0551; stroke-opacity:1; 
stroke-linecap:round; stroke-linejoin:round;">
<path d="M77559 75396
L77559 76577
" />
</g>
<g style="fill:#000000; fill-opacity:0.0; 
stroke:#000000; stroke-width:39.3701; stroke-opacity:1; 
stroke-linecap:round; stroke-linejoin:round;">
</g>
<g style="fill:#000000; fill-opacity:0.0; 
stroke:#000000; stroke-width:59.0551; stroke-opacity:1; 
stroke-linecap:round; stroke-linejoin:round;">
<path d="M102756 75396
L102756 77955
" />
<path d="M33400 50450
L33400 24250
" />
<path d="M38100 50450
L33400 50450
" />
<path d="M71500 24250
L33400 24250
" />
<path d="M71500 50450
L71500 24250
" />
<path d="M38100 50450
L71500 50450
" />
<path d="M54878 47637
L54878 47862
" />
<path d="M54878 47750
L54484 47750
L54540 47787
L54578 47824
L54596 47862
" />
<path d="M57909 47928
L57909 47534
L58059 47534
L58096 47553
L58115 47571
L58134 47609
L58134 47665
L58115 47703
L58096 47721
L58059 47740
L57909 47740
" />
<path d="M58509 47928
L58284 47928
" />
<path d="M58396 47928
L58396 47534
L58359 47590
L58321 47628
L58284 47646
" />
<path d="M66009 47928
L66009 47534
L66159 47534
L66196 47553
L66215 47571
L66234 47609
L66234 47665
L66215 47703
L66196 47721
L66159 47740
L66009 47740
" />
<path d="M66384 47571
L66403 47553
L66440 47534
L66534 47534
L66571 47553
L66590 47571
L66609 47609
L66609 47646
L66590 47703
L66365 47928
L66609 47928
" />
<path d="M55309 31028
L55309 30634
L55459 30634
L55496 30653
L55515 30671
L55534 30709
L55534 30765
L55515 30803
L55496 30821
L55459 30840
L55309 30840
" />
<path d="M55665 30634
L55909 30634
L55778 30784
L55834 30784
L55871 30803
L55890 30821
L55909 30859
L55909 30953
L55890 30990
L55871 31009
L55834 31028
L55721 31028
L55684 31009
L55665 30990
" />
<path d="M64909 31028
L64909 30634
L65059 30634
L65096 30653
L65115 30671
L65134 30709
L65134 30765
L65115 30803
L65096 30821
L65059 30840
L64909 30840
" />
<path d="M65471 30765
L65471 31028
" />
<path d="M65378 30615
L65284 30896
L65528 30896
" />
<path d="M60821 25428
L60821 25034
L60971 25034
L61009 25053
L61028 25071
L61046 25109
L61046 25165
L61028 25203
L61009 25221
L60971 25240
L60821 25240
" />
<path d="M61421 25428
L61196 25428
" />
<path d="M61309 25428
L61309 25034
L61271 25090
L61234 25128
L61196 25146
" />
<path d="M61796 25428
L61571 25428
" />
<path d="M61684 25428
L61684 25034
L61646 25090
L61609 25128
L61571 25146
" />
<path d="M63721 29028
L63721 28634
L63871 28634
L63909 28653
L63928 28671
L63946 28709
L63946 28765
L63928 28803
L63909 28821
L63871 28840
L63721 28840
" />
<path d="M64321 29028
L64096 29028
" />
<path d="M64209 29028
L64209 28634
L64171 28690
L64134 28728
L64096 28746
" />
<path d="M64471 28671
L64490 28653
L64528 28634
L64621 28634
L64659 28653
L64678 28671
L64696 28709
L64696 28746
L64678 28803
L64453 29028
L64696 29028
" />
<path d="M69521 47528
L69521 47134
L69671 47134
L69709 47153
L69728 47171
L69746 47209
L69746 47265
L69728 47303
L69709 47321
L69671 47340
L69521 47340
" />
<path d="M70121 47528
L69896 47528
" />
<path d="M70009 47528
L70009 47134
L69971 47190
L69934 47228
L69896 47246
" />
<path d="M70459 47265
L70459 47528
" />
<path d="M70365 47115
L70271 47396
L70515 47396
" />
<path d="M47954 43065
L47767 43196
" />
<path d="M47954 43290
L47561 43290
L47561 43140
L47579 43103
L47598 43084
L47636 43065
L47692 43065
L47729 43084
L47748 43103
L47767 43140
L47767 43290
" />
<path d="M47954 42690
L47954 42915
" />
<path d="M47954 42803
L47561 42803
L47617 42840
L47654 42878
L47673 42915
" />
<path d="M38378 36915
L38190 37046
" />
<path d="M38378 37140
L37984 37140
L37984 36990
L38003 36953
L38021 36934
L38059 36915
L38115 36915
L38153 36934
L38171 36953
L38190 36990
L38190 37140
" />
<path d="M38115 36578
L38378 36578
" />
<path d="M37965 36671
L38246 36765
L38246 36521
" />
<path d="M42150 32234
L42150 32553
L42168 32590
L42187 32609
L42225 32628
L42300 32628
L42337 32609
L42356 32590
L42375 32553
L42375 32234
" />
<path d="M42768 32628
L42543 32628
" />
<path d="M42656 32628
L42656 32234
L42618 32290
L42581 32328
L42543 32346
" />
<path d="M47978 40740
L47584 40740
L47584 40646
L47603 40590
L47640 40553
L47678 40534
L47753 40515
L47809 40515
L47884 40534
L47921 40553
L47959 40590
L47978 40646
L47978 40740
" />
<path d="M47978 40140
L47978 40365
" />
<path d="M47978 40253
L47584 40253
L47640 40290
L47678 40328
L47696 40365
" />
<path d="M49578 28040
L49184 28040
L49184 27890
L49203 27853
L49221 27834
L49259 27815
L49315 27815
L49353 27834
L49371 27853
L49390 27890
L49390 28040
" />
<path d="M49578 27628
L49578 27553
L49559 27515
L49540 27496
L49484 27459
L49409 27440
L49259 27440
L49221 27459
L49203 27478
L49184 27515
L49184 27590
L49203 27628
L49221 27646
L49259 27665
L49353 27665
L49390 27646
L49409 27628
L49428 27590
L49428 27515
L49409 27478
L49390 27459
L49353 27440
" />
<path d="M60021 26828
L60021 26434
L60171 26434
L60209 26453
L60228 26471
L60246 26509
L60246 26565
L60228 26603
L60209 26621
L60171 26640
L60021 26640
" />
<path d="M60621 26828
L60396 26828
" />
<path d="M60509 26828
L60509 26434
L60471 26490
L60434 26528
L60396 26546
" />
<path d="M60865 26434
L60903 26434
L60940 26453
L60959 26471
L60978 26509
L60996 26584
L60996 26678
L60978 26753
L60959 26790
L60940 26809
L60903 26828
L60865 26828
L60828 26809
L60809 26790
L60790 26753
L60771 26678
L60771 26584
L60790 26509
L60809 26471
L60828 26453
L60865 26434
" />
<path d="M48178 36140
L47784 36140
L47784 36046
L47803 35990
L47840 35953
L47878 35934
L47953 35915
L48009 35915
L48084 35934
L48121 35953
L48159 35990
L48178 36046
L48178 36140
" />
<path d="M47821 35765
L47803 35746
L47784 35709
L47784 35615
L47803 35578
L47821 35559
L47859 35540
L47896 35540
L47953 35559
L48178 35784
L48178 35540
" />
<path d="M48204 38065
L48017 38196
" />
<path d="M48204 38290
L47811 38290
L47811 38140
L47829 38103
L47848 38084
L47886 38065
L47942 38065
L47979 38084
L47998 38103
L48017 38140
L48017 38290
" />
<path d="M47811 37709
L47811 37896
L47998 37915
L47979 37896
L47961 37859
L47961 37765
L47979 37728
L47998 37709
L48036 37690
L48129 37690
L48167 37709
L48186 37728
L48204 37765
L48204 37859
L48186 37896
L48167 37915
" />
</g>
<g style="fill:#000000; fill-opacity:0.0; 
stroke:#000000; stroke-width:120; stroke-opacity:1; 
stroke-linecap:round; stroke-linejoin:round;">
<path d="M63916 41116
L63916 41683
L63950 41750
L63983 41783
L64050 41816
L64183 41816
L64250 41783
L64283 41750
L64316 41683
L64316 41116
" />
<path d="M64616 41183
L64650 41150
L64716 41116
L64883 41116
L64950 41150
L64983 41183
L65016 41250
L65016 41316
L64983 41416
L64583 41816
L65016 41816
" />
<path d="M56316 39066
L56316 38700
L56283 38633
L56216 38600
L56083 38600
L56016 38633
" />
<path d="M56316 39033
L56249 39066
L56083 39066
L56016 39033
L55983 38966
L55983 38900
L56016 38833
L56083 38800
L56249 38800
L56316 38766
" />
<path d="M56649 39066
L56649 38600
" />
<path d="M56649 38733
L56683 38666
L56716 38633
L56783 38600
L56849 38600
" />
<path d="M57383 39066
L57383 38366
" />
<path d="M57383 39033
L57316 39066
L57183 39066
L57116 39033
L57083 39000
L57049 38933
L57049 38733
L57083 38666
L57116 38633
L57183 38600
L57316 38600
L57383 38633
" />
<path d="M58016 38600
L58016 39066
" />
<path d="M57716 38600
L57716 38966
L57749 39033
L57816 39066
L57916 39066
L57983 39033
L58016 39000
" />
<path d="M58349 39066
L58349 38600
" />
<path d="M58349 38366
L58316 38400
L58349 38433
L58383 38400
L58349 38366
L58349 38433
" />
<path d="M58683 38600
L58683 39066
" />
<path d="M58683 38666
L58716 38633
L58783 38600
L58883 38600
L58950 38633
L58983 38700
L58983 39066
" />
<path d="M59416 39066
L59350 39033
L59316 39000
L59283 38933
L59283 38733
L59316 38666
L59350 38633
L59416 38600
L59516 38600
L59583 38633
L59616 38666
L59650 38733
L59650 38933
L59616 39000
L59583 39033
L59516 39066
L59416 39066
" />
<path d="M59783 39133
L60316 39133
" />
<path d="M60483 39066
L60483 38600
" />
<path d="M60483 38666
L60516 38633
L60583 38600
L60683 38600
L60750 38633
L60783 38700
L60783 39066
" />
<path d="M60783 38700
L60816 38633
L60883 38600
L60983 38600
L61050 38633
L61083 38700
L61083 39066
" />
<path d="M61416 39066
L61416 38600
" />
<path d="M61416 38366
L61383 38400
L61416 38433
L61450 38400
L61416 38366
L61416 38433
" />
<path d="M61750 38600
L61750 39066
" />
<path d="M61750 38666
L61783 38633
L61850 38600
L61950 38600
L62016 38633
L62050 38700
L62050 39066
" />
<path d="M62383 39066
L62383 38600
" />
<path d="M62383 38366
L62350 38400
L62383 38433
L62416 38400
L62383 38366
L62383 38433
" />
</g>
<g style="fill:#000000; fill-opacity:0.0; 
stroke:#000000; stroke-width:59.0551; stroke-opacity:1; 
stroke-linecap:round; stroke-linejoin:round;">
<path d="M51409 47140
L51409 46747
L51503 46747
L51559 46765
L51596 46803
L51615 46840
L51634 46915
L51634 46971
L51615 47046
L51596 47084
L51559 47121
L51503 47140
L51409 47140
" />
<path d="M51765 46747
L52009 46747
L51878 46896
L51934 46896
L51971 46915
L51990 46934
L52009 46971
L52009 47065
L51990 47103
L51971 47121
L51934 47140
L51821 47140
L51784 47121
L51765 47103
" />
<path d="M49551 47315
L49363 47446
" />
<path d="M49551 47540
L49157 47540
L49157 47390
L49176 47353
L49195 47334
L49232 47315
L49288 47315
L49326 47334
L49345 47353
L49363 47390
L49363 47540
" />
<path d="M49157 46978
L49157 47053
L49176 47090
L49195 47109
L49251 47146
L49326 47165
L49476 47165
L49513 47146
L49532 47128
L49551 47090
L49551 47015
L49532 46978
L49513 46959
L49476 46940
L49382 46940
L49345 46959
L49326 46978
L49307 47015
L49307 47090
L49326 47128
L49345 47146
L49382 47165
" />
<path d="M55115 40440
L54722 40440
L54722 40290
L54740 40253
L54759 40234
L54797 40215
L54853 40215
L54890 40234
L54909 40253
L54928 40290
L54928 40440
" />
<path d="M54722 39859
L54722 40046
L54909 40065
L54890 40046
L54872 40009
L54872 39915
L54890 39878
L54909 39859
L54947 39840
L55040 39840
L55078 39859
L55097 39878
L55115 39915
L55115 40009
L55097 40046
L55078 40065
" />
<path d="M61004 40215
L60817 40346
" />
<path d="M61004 40440
L60611 40440
L60611 40290
L60629 40253
L60648 40234
L60686 40215
L60742 40215
L60779 40234
L60798 40253
L60817 40290
L60817 40440
" />
<path d="M60611 40084
L60611 39821
L61004 39990
" />
<path d="M50734 43528
L50603 43340
" />
<path d="M50509 43528
L50509 43134
L50659 43134
L50696 43153
L50715 43171
L50734 43209
L50734 43265
L50715 43303
L50696 43321
L50659 43340
L50509 43340
" />
<path d="M50884 43171
L50903 43153
L50940 43134
L51034 43134
L51071 43153
L51090 43171
L51109 43209
L51109 43246
L51090 43303
L50865 43528
L51109 43528
" />
<path d="M53234 45728
L53103 45540
" />
<path d="M53009 45728
L53009 45334
L53159 45334
L53196 45353
L53215 45371
L53234 45409
L53234 45465
L53215 45503
L53196 45521
L53159 45540
L53009 45540
" />
<path d="M53365 45334
L53609 45334
L53478 45484
L53534 45484
L53571 45503
L53590 45521
L53609 45559
L53609 45653
L53590 45690
L53571 45709
L53534 45728
L53421 45728
L53384 45709
L53365 45690
" />
<path d="M47518 45889
L47544 45942
L47611 46008
L47650 46021
L47677 46021
L47717 46008
L47743 45982
L47756 45942
L47756 45915
L47743 45876
L47703 45809
L47690 45769
L47690 45743
L47703 45703
L47730 45677
L47770 45663
L47796 45663
L47836 45677
L47902 45743
L47929 45796
" />
<path d="M48035 45876
L47823 46220
L48075 46074
L47929 46326
L48273 46114
" />
<path d="M48247 46644
L48088 46485
" />
<path d="M48167 46565
L48446 46286
L48380 46300
L48326 46300
L48287 46286
" />
<path d="M68809 37620
L68809 37226
L68959 37226
L68996 37245
L69015 37264
L69034 37301
L69034 37357
L69015 37395
L68996 37414
L68959 37432
L68809 37432
" />
<path d="M69371 37226
L69296 37226
L69259 37245
L69240 37264
L69203 37320
L69184 37395
L69184 37545
L69203 37582
L69221 37601
L69259 37620
L69334 37620
L69371 37601
L69390 37582
L69409 37545
L69409 37451
L69390 37414
L69371 37395
L69334 37376
L69259 37376
L69221 37395
L69203 37414
L69184 37451
" />
<path d="M67109 28228
L67109 27834
L67259 27834
L67296 27853
L67315 27871
L67334 27909
L67334 27965
L67315 28003
L67296 28021
L67259 28040
L67109 28040
" />
<path d="M67465 27834
L67728 27834
L67559 28228
" />
<path d="M69909 31820
L69909 31426
L70059 31426
L70096 31445
L70115 31464
L70134 31501
L70134 31557
L70115 31595
L70096 31614
L70059 31632
L69909 31632
" />
<path d="M70359 31595
L70321 31576
L70303 31557
L70284 31520
L70284 31501
L70303 31464
L70321 31445
L70359 31426
L70434 31426
L70471 31445
L70490 31464
L70509 31501
L70509 31520
L70490 31557
L70471 31576
L70434 31595
L70359 31595
L70321 31614
L70303 31632
L70284 31670
L70284 31745
L70303 31782
L70321 31801
L70359 31820
L70434 31820
L70471 31801
L70490 31782
L70509 31745
L70509 31670
L70490 31632
L70471 31614
L70434 31595
" />
<path d="M62134 37401
L62003 37213
" />
<path d="M61909 37401
L61909 37007
L62059 37007
L62096 37026
L62115 37045
L62134 37082
L62134 37138
L62115 37176
L62096 37195
L62059 37213
L61909 37213
" />
<path d="M62359 37176
L62321 37157
L62303 37138
L62284 37101
L62284 37082
L62303 37045
L62321 37026
L62359 37007
L62434 37007
L62471 37026
L62490 37045
L62509 37082
L62509 37101
L62490 37138
L62471 37157
L62434 37176
L62359 37176
L62321 37195
L62303 37213
L62284 37251
L62284 37326
L62303 37363
L62321 37382
L62359 37401
L62434 37401
L62471 37382
L62490 37363
L62509 37326
L62509 37251
L62490 37213
L62471 37195
L62434 37176
" />
<path d="M71204 37515
L71017 37646
" />
<path d="M71204 37740
L70811 37740
L70811 37590
L70829 37553
L70848 37534
L70886 37515
L70942 37515
L70979 37534
L70998 37553
L71017 37590
L71017 37740
" />
<path d="M71204 37328
L71204 37253
L71186 37215
L71167 37196
L71111 37159
L71036 37140
L70886 37140
L70848 37159
L70829 37178
L70811 37215
L70811 37290
L70829 37328
L70848 37346
L70886 37365
L70979 37365
L71017 37346
L71036 37328
L71054 37290
L71054 37215
L71036 37178
L71017 37159
L70979 37140
" />
<path d="M57570 35803
L57382 35934
" />
<path d="M57570 36028
L57176 36028
L57176 35878
L57195 35840
L57214 35821
L57251 35803
L57307 35803
L57345 35821
L57364 35840
L57382 35878
L57382 36028
" />
<path d="M57570 35428
L57570 35653
" />
<path d="M57570 35540
L57176 35540
L57232 35578
L57270 35615
L57289 35653
" />
<path d="M57176 35184
L57176 35146
L57195 35109
L57214 35090
L57251 35071
L57326 35053
L57420 35053
L57495 35071
L57532 35090
L57551 35109
L57570 35146
L57570 35184
L57551 35221
L57532 35240
L57495 35259
L57420 35278
L57326 35278
L57251 35259
L57214 35240
L57195 35221
L57176 35184
" />
<path d="M60046 39054
L59915 38867
" />
<path d="M59821 39054
L59821 38661
L59971 38661
L60009 38679
L60028 38698
L60046 38736
L60046 38792
L60028 38829
L60009 38848
L59971 38867
L59821 38867
" />
<path d="M60421 39054
L60196 39054
" />
<path d="M60309 39054
L60309 38661
L60271 38717
L60234 38754
L60196 38773
" />
<path d="M60796 39054
L60571 39054
" />
<path d="M60684 39054
L60684 38661
L60646 38717
L60609 38754
L60571 38773
" />
<path d="M55200 49250
L62200 49250
" />
<path d="M62200 49250
L62200 48250
" />
<path d="M62200 48250
L55200 48250
" />
<path d="M54089 49360
L54700 49360
" />
<path d="M55200 49250
L55200 48250
" />
<path d="M54700 48139
L54089 48139
" />
<path d="M54089 48139
L54089 49360
" />
<path d="M64200 49250
L69200 49250
" />
<path d="M69200 49250
L69200 48250
" />
<path d="M69200 48250
L64200 48250
" />
<path d="M63089 49360
L63700 49360
" />
<path d="M64200 49250
L64200 48250
" />
<path d="M63700 48139
L63089 48139
" />
<path d="M63089 48139
L63089 49360
" />
<path d="M51600 30250
L60600 30250
" />
<path d="M60600 30250
L60600 29250
" />
<path d="M60600 29250
L51600 29250
" />
<path d="M50489 30360
L51100 30360
" />
<path d="M51600 30250
L51600 29250
" />
<path d="M51100 29139
L50489 29139
" />
<path d="M50489 29139
L50489 30360
" />
<path d="M62200 30250
L69200 30250
" />
<path d="M69200 30250
L69200 29250
" />
<path d="M69200 29250
L62200 29250
" />
<path d="M61089 30360
L61700 30360
" />
<path d="M62200 30250
L62200 29250
" />
<path d="M61700 29139
L61089 29139
" />
<path d="M61089 29139
L61089 30360
" />
<path d="M63200 27250
L63200 25250
" />
<path d="M63200 25250
L62200 25250
" />
<path d="M62200 25250
L62200 27250
" />
<path d="M62089 28360
L62089 27750
" />
<path d="M62200 27250
L63200 27250
" />
<path d="M63310 27750
L63310 28360
" />
<path d="M63310 28360
L62089 28360
" />
<path d="M64700 27250
L64700 25250
" />
<path d="M64700 25250
L63700 25250
" />
<path d="M63700 25250
L63700 27250
" />
<path d="M63589 28360
L63589 27750
" />
<path d="M63700 27250
L64700 27250
" />
<path d="M64810 27750
L64810 28360
" />
<path d="M64810 28360
L63589 28360
" />
<path d="M69210 46639
L69210 47250
" />
<path d="M67989 47250
L67989 46639
" />
<path d="M67989 46639
L69210 46639
" />
<path d="M68100 47750
L69100 47750
" />
<path d="M46605 43236
L46605 42763
" />
<path d="M47294 42763
L47294 43236
" />
<path d="M37105 36736
L37105 36263
" />
<path d="M37794 36263
L37794 36736
" />
<path d="M38950 44200
L38950 40300
" />
<path d="M45950 38800
L45950 44250
" />
<path d="M38950 33000
L45950 33000
" />
<path d="M45950 45000
L38950 45000
" />
<path d="M47363 41346
L47363 39929
" />
<path d="M46536 41346
L46536 39929
" />
<path d="M46831 40539
L47068 40539
" />
<path d="M47068 40539
L46950 40657
" />
<path d="M46950 40657
L46871 40578
" />
<path d="M46871 40578
L46969 40578
" />
<path d="M46969 40578
L46950 40598
" />
<path d="M46753 40696
L47146 40696
" />
<path d="M46950 40500
L46950 40303
" />
<path d="M46950 40696
L46753 40500
" />
<path d="M46753 40500
L47146 40500
" />
<path d="M47146 40500
L46950 40696
" />
<path d="M51200 27250
L59200 27250
" />
<path d="M59200 27250
L59200 28250
" />
<path d="M59200 28250
L51200 28250
" />
<path d="M50089 27139
L50700 27139
" />
<path d="M51200 27250
L51200 28250
" />
<path d="M50700 28360
L50089 28360
" />
<path d="M50089 28360
L50089 27139
" />
<path d="M61060 27139
L61060 27750
" />
<path d="M59839 27750
L59839 27139
" />
<path d="M59839 27139
L61060 27139
" />
<path d="M59950 28250
L60950 28250
" />
<path d="M47613 36596
L47613 35179
" />
<path d="M46786 36596
L46786 35179
" />
<path d="M47081 35789
L47318 35789
" />
<path d="M47318 35789
L47200 35907
" />
<path d="M47200 35907
L47121 35828
" />
<path d="M47121 35828
L47219 35828
" />
<path d="M47219 35828
L47200 35848
" />
<path d="M47003 35946
L47396 35946
" />
<path d="M47200 35750
L47200 35553
" />
<path d="M47200 35946
L47003 35750
" />
<path d="M47003 35750
L47396 35750
" />
<path d="M47396 35750
L47200 35946
" />
<path d="M46855 38236
L46855 37763
" />
<path d="M47544 37763
L47544 38236
" />
</g>
<g style="fill:#000000; fill-opacity:0.0; 
stroke:#000000; stroke-width:150; stroke-opacity:1; 
stroke-linecap:round; stroke-linejoin:round;">
<path d="M67950 42500
L50950 42500
" />
<path d="M50950 42500
L50950 37500
" />
<path d="M50950 37500
L67950 37500
" />
<path d="M67950 37500
L67950 42500
" />
<path d="M67950 39500
L67450 39500
" />
<path d="M67450 39500
L67450 40500
" />
<path d="M67450 40500
L67950 40500
" />
</g>
<g style="fill:#000000; fill-opacity:0.0; 
stroke:#000000; stroke-width:59.0551; stroke-opacity:1; 
stroke-linecap:round; stroke-linejoin:round;">
<path d="M50853 48163
L52270 48163
" />
<path d="M50853 47336
L52270 47336
" />
<path d="M51660 47631
L51660 47868
" />
<path d="M51660 47868
L51542 47750
" />
<path d="M51542 47750
L51621 47671
" />
<path d="M51621 47671
L51621 47769
" />
<path d="M51621 47769
L51601 47750
" />
<path d="M51503 47553
L51503 47946
" />
<path d="M51700 47750
L51896 47750
" />
<path d="M51503 47750
L51700 47553
" />
<path d="M51700 47553
L51700 47946
" />
<path d="M51700 47946
L51503 47750
" />
<path d="M50544 47013
L50544 47486
" />
<path d="M49855 47486
L49855 47013
" />
<path d="M55301 40966
L55311 40966
" />
<path d="M55301 39333
L55343 39333
" />
<path d="M59298 39333
L59256 39333
" />
<path d="M59298 40966
L59256 40966
" />
<path d="M55301 40966
L55301 39333
" />
<path d="M59298 40966
L59298 39333
" />
<path d="M55311 40966
L55311 41508
" />
<path d="M59655 40386
L59655 39913
" />
<path d="M60344 39913
L60344 40386
" />
<path d="M52136 44394
L51663 44394
" />
<path d="M51663 43705
L52136 43705
" />
<path d="M52136 45394
L51663 45394
" />
<path d="M51663 44705
L52136 44705
" />
<circle cx="47000" cy="47150" r="393.701" /> 
<path d="M47167 46314
L47835 46982
" />
<path d="M46832 46314
L47167 46314
" />
<path d="M46164 46982
L46832 46314
" />
<path d="M46164 47317
L46164 46982
" />
<path d="M46832 47985
L46164 47317
" />
<path d="M47167 47985
L46832 47985
" />
<path d="M47835 47317
L47167 47985
" />
<path d="M47835 46982
L47835 47317
" />
<path d="M47347 45994
L48155 46802
" />
<path d="M47097 45994
L47347 45994
" />
<path d="M45969 46676
L46526 46119
" />
<path d="M45844 47497
L45844 47247
" />
<path d="M46652 48305
L45844 47497
" />
<path d="M46902 48305
L46652 48305
" />
<path d="M48030 47623
L47473 48180
" />
<path d="M48155 46802
L48155 47052
" />
<path d="M69600 39950
L69600 40950
" />
<path d="M69710 38839
L69710 39450
" />
<path d="M69600 39950
L68600 39950
" />
<path d="M68489 39450
L68489 38839
" />
<path d="M68489 38839
L69710 38839
" />
<path d="M68600 39950
L68600 40950
" />
<path d="M68600 40950
L69600 40950
" />
<path d="M66600 27250
L66600 25250
" />
<path d="M66600 25250
L65600 25250
" />
<path d="M65600 25250
L65600 27250
" />
<path d="M65489 28360
L65489 27750
" />
<path d="M65600 27250
L66600 27250
" />
<path d="M66710 27750
L66710 28360
" />
<path d="M66710 28360
L65489 28360
" />
<path d="M69700 34150
L69700 36150
" />
<path d="M69700 36150
L70700 36150
" />
<path d="M70700 36150
L70700 34150
" />
<path d="M70810 33039
L70810 33650
" />
<path d="M70700 34150
L69700 34150
" />
<path d="M69589 33650
L69589 33039
" />
<path d="M69589 33039
L70810 33039
" />
<path d="M62436 38394
L61963 38394
" />
<path d="M61963 37705
L62436 37705
" />
<path d="M69855 37686
L69855 37213
" />
<path d="M70544 37213
L70544 37686
" />
<path d="M59900 35050
L60900 35050
" />
<path d="M58789 34939
L59400 34939
" />
<path d="M59900 35050
L59900 36050
" />
<path d="M59400 36160
L58789 36160
" />
<path d="M58789 36160
L58789 34939
" />
<path d="M59900 36050
L60900 36050
" />
<path d="M60900 36050
L60900 35050
" />
<path d="M60063 37705
L60536 37705
" />
<path d="M60536 38394
L60063 38394
" />
</g>
<g style="fill:#000000; fill-opacity:0.0; 
stroke:#000000; stroke-width:680; stroke-opacity:1; 
stroke-linecap:round; stroke-linejoin:round;">
<path d="M54700 48690
L54700 48810
" />
<path d="M55700 48690
L55700 48810
" />
<path d="M56700 48690
L56700 48810
" />
<path d="M57700 48690
L57700 48810
" />
<path d="M58700 48690
L58700 48810
" />
<path d="M59700 48690
L59700 48810
" />
<path d="M60700 48690
L60700 48810
" />
<path d="M61700 48690
L61700 48810
" />
<path d="M63700 48690
L63700 48810
" />
<path d="M64700 48690
L64700 48810
" />
<path d="M65700 48690
L65700 48810
" />
<path d="M66700 48690
L66700 48810
" />
<path d="M67700 48690
L67700 48810
" />
<path d="M68700 48690
L68700 48810
" />
<path d="M51100 29690
L51100 29810
" />
<path d="M52100 29690
L52100 29810
" />
<path d="M53100 29690
L53100 29810
" />
<path d="M54100 29690
L54100 29810
" />
<path d="M55100 29690
L55100 29810
" />
<path d="M56100 29690
L56100 29810
" />
<path d="M57100 29690
L57100 29810
" />
<path d="M58100 29690
L58100 29810
" />
<path d="M59100 29690
L59100 29810
" />
<path d="M60100 29690
L60100 29810
" />
<path d="M61700 29690
L61700 29810
" />
<path d="M62700 29690
L62700 29810
" />
<path d="M63700 29690
L63700 29810
" />
<path d="M64700 29690
L64700 29810
" />
<path d="M65700 29690
L65700 29810
" />
<path d="M66700 29690
L66700 29810
" />
<path d="M67700 29690
L67700 29810
" />
<path d="M68700 29690
L68700 29810
" />
</g>
<g style="fill:#000000; fill-opacity:0.0; 
stroke:#000000; stroke-width:0; stroke-opacity:1; 
stroke-linecap:round; stroke-linejoin:round;">
</g>
<g style="fill:#000000; fill-opacity:1.0; 
stroke:#000000; stroke-width:0; stroke-opacity:1; 
stroke-linecap:round; stroke-linejoin:round;">
<polyline style="fill-rule:evenodd;"
points="63100,27410
63100,28090
62300,28090
62300,27410
63100,27410
" /> 
</g>
<g style="fill:#000000; fill-opacity:1.0; 
stroke:#000000; stroke-width:680; stroke-opacity:1; 
stroke-linecap:round; stroke-linejoin:round;">
</g>
<g style="fill:#000000; fill-opacity:0.0; 
stroke:#000000; stroke-width:680; stroke-opacity:1; 
stroke-linecap:round; stroke-linejoin:round;">
<path d="M62760 26750
L62640 26750
" />
<path d="M62760 25750
L62640 25750
" />
</g>
<g style="fill:#000000; fill-opacity:0.0; 
stroke:#000000; stroke-width:0; stroke-opacity:1; 
stroke-linecap:round; stroke-linejoin:round;">
</g>
<g style="fill:#000000; fill-opacity:1.0; 
stroke:#000000; stroke-width:0; stroke-opacity:1; 
stroke-linecap:round; stroke-linejoin:round;">
<polyline style="fill-rule:evenodd;"
points="64600,27410
64600,28090
63800,28090
63800,27410
64600,27410
" /> 
</g>
<g style="fill:#000000; fill-opacity:1.0; 
stroke:#000000; stroke-width:680; stroke-opacity:1; 
stroke-linecap:round; stroke-linejoin:round;">
</g>
<g style="fill:#000000; fill-opacity:0.0; 
stroke:#000000; stroke-width:680; stroke-opacity:1; 
stroke-linecap:round; stroke-linejoin:round;">
<path d="M64260 26750
L64140 26750
" />
<path d="M64260 25750
L64140 25750
" />
</g>
<g style="fill:#000000; fill-opacity:0.0; 
stroke:#000000; stroke-width:0; stroke-opacity:1; 
stroke-linecap:round; stroke-linejoin:round;">
</g>
<g style="fill:#000000; fill-opacity:1.0; 
stroke:#000000; stroke-width:0; stroke-opacity:1; 
stroke-linecap:round; stroke-linejoin:round;">
<polyline style="fill-rule:evenodd;"
points="68160,47690
68160,46810
69040,46810
69040,47690
68160,47690
" /> 
<polyline style="fill-rule:evenodd;"
points="51040,28150
50360,28150
50360,27350
51040,27350
51040,28150
" /> 
</g>
<g style="fill:#000000; fill-opacity:1.0; 
stroke:#000000; stroke-width:680; stroke-opacity:1; 
stroke-linecap:round; stroke-linejoin:round;">
</g>
<g style="fill:#000000; fill-opacity:0.0; 
stroke:#000000; stroke-width:680; stroke-opacity:1; 
stroke-linecap:round; stroke-linejoin:round;">
<path d="M51700 27810
L51700 27690
" />
<path d="M52700 27810
L52700 27690
" />
<path d="M53700 27810
L53700 27690
" />
<path d="M54700 27810
L54700 27690
" />
<path d="M55700 27810
L55700 27690
" />
<path d="M56700 27810
L56700 27690
" />
<path d="M57700 27810
L57700 27690
" />
<path d="M58700 27810
L58700 27690
" />
</g>
<g style="fill:#000000; fill-opacity:0.0; 
stroke:#000000; stroke-width:0; stroke-opacity:1; 
stroke-linecap:round; stroke-linejoin:round;">
</g>
<g style="fill:#000000; fill-opacity:1.0; 
stroke:#000000; stroke-width:0; stroke-opacity:1; 
stroke-linecap:round; stroke-linejoin:round;">
<polyline style="fill-rule:evenodd;"
points="60010,28190
60010,27310
60890,27310
60890,28190
60010,28190
" /> 
<polyline style="fill-rule:evenodd;"
points="66760,36550
66760,37450
66140,37450
66140,36550
66760,36550
" /> 
</g>
<g style="fill:#000000; fill-opacity:1.0; 
stroke:#000000; stroke-width:620; stroke-opacity:1; 
stroke-linecap:round; stroke-linejoin:round;">
</g>
<g style="fill:#000000; fill-opacity:0.0; 
stroke:#000000; stroke-width:620; stroke-opacity:1; 
stroke-linecap:round; stroke-linejoin:round;">
<path d="M65450 37140
L65450 36860
" />
<path d="M64450 37140
L64450 36860
" />
<path d="M63450 37140
L63450 36860
" />
<path d="M62450 37140
L62450 36860
" />
<path d="M61450 37140
L61450 36860
" />
<path d="M60450 37140
L60450 36860
" />
<path d="M59450 37140
L59450 36860
" />
<path d="M58450 37140
L58450 36860
" />
<path d="M57450 37140
L57450 36860
" />
<path d="M56450 37140
L56450 36860
" />
<path d="M55450 37140
L55450 36860
" />
<path d="M54450 37140
L54450 36860
" />
<path d="M53450 37140
L53450 36860
" />
<path d="M52450 37140
L52450 36860
" />
<path d="M52450 43140
L52450 42860
" />
<path d="M53450 43140
L53450 42860
" />
<path d="M54450 43140
L54450 42860
" />
<path d="M55450 43140
L55450 42860
" />
<path d="M56450 43140
L56450 42860
" />
<path d="M57450 43140
L57450 42860
" />
<path d="M58450 43140
L58450 42860
" />
<path d="M59450 43140
L59450 42860
" />
<path d="M60450 43140
L60450 42860
" />
<path d="M61450 43140
L61450 42860
" />
<path d="M62450 43140
L62450 42860
" />
<path d="M63450 43140
L63450 42860
" />
<path d="M64450 43140
L64450 42860
" />
<path d="M65450 43140
L65450 42860
" />
<path d="M66450 43140
L66450 42860
" />
</g>
<g style="fill:#000000; fill-opacity:0.0; 
stroke:#000000; stroke-width:0; stroke-opacity:1; 
stroke-linecap:round; stroke-linejoin:round;">
</g>
<g style="fill:#000000; fill-opacity:1.0; 
stroke:#000000; stroke-width:0; stroke-opacity:1; 
stroke-linecap:round; stroke-linejoin:round;">
<polyline style="fill-rule:evenodd;"
points="68700,39850
68700,39050
69500,39050
69500,39850
68700,39850
" /> 
</g>
<g style="fill:#000000; fill-opacity:1.0; 
stroke:#000000; stroke-width:800; stroke-opacity:1; 
stroke-linecap:round; stroke-linejoin:round;">
</g>
<g style="fill:#000000; fill-opacity:0.0; 
stroke:#000000; stroke-width:800; stroke-opacity:1; 
stroke-linecap:round; stroke-linejoin:round;">
<path d="M69100 40450
L69100 40450
" />
</g>
<g style="fill:#000000; fill-opacity:0.0; 
stroke:#000000; stroke-width:0; stroke-opacity:1; 
stroke-linecap:round; stroke-linejoin:round;">
</g>
<g style="fill:#000000; fill-opacity:1.0; 
stroke:#000000; stroke-width:0; stroke-opacity:1; 
stroke-linecap:round; stroke-linejoin:round;">
<polyline style="fill-rule:evenodd;"
points="66500,27410
66500,28090
65700,28090
65700,27410
66500,27410
" /> 
</g>
<g style="fill:#000000; fill-opacity:1.0; 
stroke:#000000; stroke-width:680; stroke-opacity:1; 
stroke-linecap:round; stroke-linejoin:round;">
</g>
<g style="fill:#000000; fill-opacity:0.0; 
stroke:#000000; stroke-width:680; stroke-opacity:1; 
stroke-linecap:round; stroke-linejoin:round;">
<path d="M66160 26750
L66040 26750
" />
<path d="M66160 25750
L66040 25750
" />
</g>
<g style="fill:#000000; fill-opacity:0.0; 
stroke:#000000; stroke-width:0; stroke-opacity:1; 
stroke-linecap:round; stroke-linejoin:round;">
</g>
<g style="fill:#000000; fill-opacity:1.0; 
stroke:#000000; stroke-width:0; stroke-opacity:1; 
stroke-linecap:round; stroke-linejoin:round;">
<polyline style="fill-rule:evenodd;"
points="69800,33990
69800,33310
70600,33310
70600,33990
69800,33990
" /> 
</g>
<g style="fill:#000000; fill-opacity:1.0; 
stroke:#000000; stroke-width:680; stroke-opacity:1; 
stroke-linecap:round; stroke-linejoin:round;">
</g>
<g style="fill:#000000; fill-opacity:0.0; 
stroke:#000000; stroke-width:680; stroke-opacity:1; 
stroke-linecap:round; stroke-linejoin:round;">
<path d="M70140 34650
L70260 34650
" />
<path d="M70140 35650
L70260 35650
" />
</g>
<g style="fill:#000000; fill-opacity:0.0; 
stroke:#000000; stroke-width:0; stroke-opacity:1; 
stroke-linecap:round; stroke-linejoin:round;">
</g>
<g style="fill:#000000; fill-opacity:1.0; 
stroke:#000000; stroke-width:0; stroke-opacity:1; 
stroke-linecap:round; stroke-linejoin:round;">
<polyline style="fill-rule:evenodd;"
points="59800,35950
59000,35950
59000,35150
59800,35150
59800,35950
" /> 
</g>
<g style="fill:#000000; fill-opacity:1.0; 
stroke:#000000; stroke-width:800; stroke-opacity:1; 
stroke-linecap:round; stroke-linejoin:round;">
</g>
<g style="fill:#000000; fill-opacity:0.0; 
stroke:#000000; stroke-width:800; stroke-opacity:1; 
stroke-linecap:round; stroke-linejoin:round;">
<path d="M60400 35550
L60400 35550
" />
</g> 
</svg>
