<?xml version="1.0" standalone="no"?>
 <!DOCTYPE svg PUBLIC "-//W3C//DTD SVG 1.1//EN" 
 "http://www.w3.org/Graphics/SVG/1.1/DTD/svg11.dtd"> 
<svg xmlns="http://www.w3.org/2000/svg" version="1.1" 
    width="11.1735cm" height="7.47014cm" viewBox="0 0 43990 29410 ">
<title>SVG Picture created as drone-hw-shield-brd.svg date 2016/10/07 16:50:09 </title>
  <desc>Picture generated by PCBNEW </desc>
<g style="fill:#000000; fill-opacity:1;stroke:#000000; stroke-opacity:1;
stroke-linecap:round; stroke-linejoin:round; "
 transform="translate(0 0) scale(1 1)">
</g>
<g style="fill:#000000; fill-opacity:0.0; 
stroke:#000000; stroke-width:-0.000393701; stroke-opacity:1; 
stroke-linecap:round; stroke-linejoin:round;">
</g>
<g style="fill:#000000; fill-opacity:0.0; 
stroke:#000000; stroke-width:118.11; stroke-opacity:1; 
stroke-linecap:round; stroke-linejoin:round;">
<path d="M8578 24767
L8521 24739
L8437 24739
L8353 24767
L8296 24823
L8268 24880
L8240 24992
L8240 25077
L8268 25189
L8296 25245
L8353 25302
L8437 25330
L8493 25330
L8578 25302
L8606 25273
L8606 25077
L8493 25077
" />
<path d="M8859 25330
L8859 24739
L9084 24739
L9140 24767
L9168 24795
L9196 24852
L9196 24936
L9168 24992
L9140 25020
L9084 25048
L8859 25048
" />
<path d="M9421 25302
L9506 25330
L9646 25330
L9703 25302
L9731 25273
L9759 25217
L9759 25161
L9731 25105
L9703 25077
L9646 25048
L9534 25020
L9478 24992
L9449 24964
L9421 24908
L9421 24852
L9449 24795
L9478 24767
L9534 24739
L9674 24739
L9759 24767
" />
<path d="M19953 4030
L19953 3439
" />
<path d="M20234 4030
L20234 3439
L20431 3861
L20628 3439
L20628 4030
" />
<path d="M20909 3439
L20909 3917
L20937 3973
L20965 4002
L21021 4030
L21134 4030
L21190 4002
L21218 3973
L21246 3917
L21246 3439
" />
<path d="M22989 5220
L22792 5220
" />
<path d="M22792 5530
L22792 4939
L23073 4939
" />
<path d="M23635 5530
L23439 5248
" />
<path d="M23298 5530
L23298 4939
L23523 4939
L23579 4967
L23607 4995
L23635 5052
L23635 5136
L23607 5192
L23579 5220
L23523 5248
L23298 5248
" />
<path d="M35526 11039
L35864 11039
" />
<path d="M35695 11630
L35695 11039
" />
<path d="M36060 11039
L36060 11517
L36089 11573
L36117 11602
L36173 11630
L36285 11630
L36342 11602
L36370 11573
L36398 11517
L36398 11039
" />
<path d="M37017 11630
L36820 11348
" />
<path d="M36679 11630
L36679 11039
L36904 11039
L36960 11067
L36988 11095
L37017 11152
L37017 11236
L36988 11292
L36960 11320
L36904 11348
L36679 11348
" />
<path d="M30884 13330
L30884 12739
" />
<path d="M30884 13020
L31221 13020
" />
<path d="M31221 13330
L31221 12739
" />
<path d="M31503 12739
L31503 13217
L31531 13273
L31559 13302
L31615 13330
L31728 13330
L31784 13302
L31812 13273
L31840 13217
L31840 12739
" />
<path d="M32121 13330
L32121 12739
L32318 13161
L32515 12739
L32515 13330
" />
<path d="M33028 23839
L33365 23839
" />
<path d="M33197 24430
L33197 23839
" />
<path d="M33562 24430
L33562 23839
L33759 24261
L33956 23839
L33956 24430
" />
<path d="M34237 24430
L34237 23839
L34462 23839
L34518 23867
L34546 23895
L34575 23952
L34575 24036
L34546 24092
L34518 24120
L34462 24148
L34237 24148
" />
<path d="M34828 24205
L35278 24205
" />
<path d="M35053 24430
L35053 23980
" />
<path d="M35559 24430
L35559 23839
L35784 23839
L35840 23867
L35868 23895
L35896 23952
L35896 24036
L35868 24092
L35840 24120
L35784 24148
L35559 24148
" />
<path d="M36149 24430
L36149 23839
" />
<path d="M36149 24120
L36487 24120
" />
<path d="M36487 24430
L36487 23839
" />
<path d="M25450 24339
L25450 24817
L25478 24873
L25506 24902
L25562 24930
L25675 24930
L25731 24902
L25759 24873
L25787 24817
L25787 24339
" />
<path d="M26040 24902
L26124 24930
L26265 24930
L26321 24902
L26349 24873
L26378 24817
L26378 24761
L26349 24705
L26321 24677
L26265 24648
L26153 24620
L26096 24592
L26068 24564
L26040 24508
L26040 24452
L26068 24395
L26096 24367
L26153 24339
L26293 24339
L26378 24367
" />
<path d="M3378 27128
L3181 26846
" />
<path d="M3040 27128
L3040 26537
L3265 26537
L3321 26565
L3349 26593
L3378 26650
L3378 26734
L3349 26790
L3321 26818
L3265 26846
L3040 26846
" />
<path d="M3856 27100
L3799 27128
L3687 27128
L3631 27100
L3603 27043
L3603 26818
L3631 26762
L3687 26734
L3799 26734
L3856 26762
L3884 26818
L3884 26875
L3603 26931
" />
<path d="M4081 26734
L4221 27128
L4362 26734
" />
<path d="M4587 27071
L4615 27100
L4587 27128
L4559 27100
L4587 27071
L4587 27128
" />
<path d="M5627 27128
L5290 27128
" />
<path d="M5459 27128
L5459 26537
L5402 26621
L5346 26678
L5290 26706
" />
<path d="M3378 28075
L3349 28103
L3265 28132
L3209 28132
L3124 28103
L3068 28047
L3040 27991
L3012 27879
L3012 27794
L3040 27682
L3068 27625
L3124 27569
L3209 27541
L3265 27541
L3349 27569
L3378 27597
" />
<path d="M3884 28132
L3884 27822
L3856 27766
L3799 27738
L3687 27738
L3631 27766
" />
<path d="M3884 28103
L3828 28132
L3687 28132
L3631 28103
L3603 28047
L3603 27991
L3631 27935
L3687 27907
L3828 27907
L3884 27879
" />
<path d="M4165 28132
L4165 27738
" />
<path d="M4165 27794
L4193 27766
L4249 27738
L4334 27738
L4390 27766
L4418 27822
L4418 28132
" />
<path d="M4418 27822
L4446 27766
L4502 27738
L4587 27738
L4643 27766
L4671 27822
L4671 28132
" />
<path d="M5205 28132
L5205 27822
L5177 27766
L5121 27738
L5009 27738
L4952 27766
" />
<path d="M5205 28103
L5149 28132
L5009 28132
L4952 28103
L4924 28047
L4924 27991
L4952 27935
L5009 27907
L5149 27907
L5205 27879
" />
<path d="M5487 28132
L5487 27738
" />
<path d="M5487 27850
L5515 27794
L5543 27766
L5599 27738
L5655 27738
" />
<path d="M6105 27738
L6105 28216
L6077 28272
L6049 28300
L5993 28328
L5908 28328
L5852 28300
" />
<path d="M6105 28103
L6049 28132
L5937 28132
L5880 28103
L5852 28075
L5824 28019
L5824 27850
L5852 27794
L5880 27766
L5937 27738
L6049 27738
L6105 27766
" />
<path d="M6471 28132
L6415 28103
L6387 28075
L6358 28019
L6358 27850
L6387 27794
L6415 27766
L6471 27738
L6555 27738
L6612 27766
L6640 27794
L6668 27850
L6668 28019
L6640 28075
L6612 28103
L6555 28132
L6471 28132
" />
<path d="M10768 27130
L10571 26848
" />
<path d="M10431 27130
L10431 26539
L10656 26539
L10712 26567
L10740 26595
L10768 26652
L10768 26736
L10740 26792
L10712 26820
L10656 26848
L10431 26848
" />
<path d="M11246 27102
L11190 27130
L11078 27130
L11021 27102
L10993 27045
L10993 26820
L11021 26764
L11078 26736
L11190 26736
L11246 26764
L11275 26820
L11275 26877
L10993 26933
" />
<path d="M11500 27102
L11556 27130
L11668 27130
L11724 27102
L11753 27045
L11753 27017
L11724 26961
L11668 26933
L11584 26933
L11528 26905
L11500 26848
L11500 26820
L11528 26764
L11584 26736
L11668 26736
L11724 26764
" />
<path d="M12231 27102
L12174 27130
L12062 27130
L12006 27102
L11978 27045
L11978 26820
L12006 26764
L12062 26736
L12174 26736
L12231 26764
L12259 26820
L12259 26877
L11978 26933
" />
<path d="M12428 26736
L12652 26736
" />
<path d="M12512 26539
L12512 27045
L12540 27102
L12596 27130
L12652 27130
" />
</g>
<g style="fill:#000000; fill-opacity:1.0; 
stroke:#000000; stroke-width:3.93701; stroke-opacity:1; 
stroke-linecap:round; stroke-linejoin:round;">
<polyline style="fill-rule:evenodd;"
points="6163,8358
6161,8488
6159,8588
6156,8664
6153,8720
6148,8760
6141,8789
6133,8811
6125,8825
6088,8869
6042,8903
6039,8904
5993,8919
5939,8927
5887,8929
5851,8922
5844,8918
5837,8895
5833,8854
5833,8846
5835,8806
5846,8791
5875,8791
5881,8792
5934,8786
5965,8764
5976,8752
5984,8736
5990,8714
5995,8680
5997,8630
5999,8560
5999,8465
5999,8341
6000,8337
6000,7946
6168,7946
6163,8358
" /> 
<polyline style="fill-rule:evenodd;"
points="3216,8222
3216,8323
3217,8397
3220,8449
3224,8484
3232,8507
3243,8524
3257,8538
3310,8571
3371,8579
3430,8564
3477,8529
3499,8491
3505,8457
3510,8396
3514,8318
3516,8228
3516,8193
3516,7946
3683,7946
3682,8183
3681,8309
3675,8407
3665,8483
3649,8540
3627,8586
3597,8624
3595,8625
3526,8675
3437,8704
3338,8713
3237,8698
3226,8695
3179,8673
3137,8643
3107,8612
3085,8581
3069,8543
3059,8495
3053,8429
3050,8342
3050,8230
3050,7946
3216,7946
3216,8222
" /> 
<polyline style="fill-rule:evenodd;"
points="4775,7942
4838,7958
4854,7965
4880,7981
4888,8000
4878,8032
4872,8048
4848,8108
4786,8086
4704,8066
4638,8069
4593,8094
4592,8095
4571,8131
4578,8167
4615,8204
4682,8245
4698,8254
4792,8308
4855,8364
4890,8423
4900,8481
4886,8567
4846,8633
4778,8680
4778,8680
4698,8703
4604,8711
4512,8702
4466,8691
4429,8674
4411,8652
4403,8610
4403,8600
4401,8557
4409,8536
4433,8534
4480,8547
4500,8554
4586,8576
4657,8577
4708,8558
4724,8540
4740,8502
4740,8474
4721,8454
4681,8424
4626,8390
4606,8379
4520,8327
4463,8277
4431,8224
4420,8163
4421,8124
4441,8044
4487,7984
4559,7945
4563,7944
4623,7934
4699,7933
4775,7942
" /> 
<polyline style="fill-rule:evenodd;"
points="5452,7939
5513,7951
5559,7968
5576,7982
5578,8006
5568,8042
5552,8079
5535,8102
5525,8105
5425,8073
5342,8068
5274,8092
5221,8144
5220,8146
5200,8179
5189,8212
5184,8255
5185,8319
5186,8343
5189,8412
5195,8457
5206,8487
5225,8511
5248,8533
5284,8562
5315,8575
5355,8577
5398,8574
5457,8566
5508,8558
5529,8553
5553,8549
5563,8561
5566,8597
5566,8610
5564,8654
5551,8677
5518,8691
5504,8695
5412,8710
5315,8709
5226,8694
5188,8680
5113,8628
5058,8551
5025,8451
5020,8420
5014,8287
5032,8172
5074,8077
5139,8005
5225,7956
5322,7934
5385,7933
5452,7939
" /> 
<polyline style="fill-rule:evenodd;"
points="6716,8136
6791,8179
6842,8246
6869,8337
6875,8412
6864,8514
6831,8595
6774,8659
6762,8668
6709,8692
6637,8706
6561,8708
6493,8697
6474,8690
6411,8647
6358,8585
6326,8516
6323,8503
6318,8451
6318,8401
6479,8401
6487,8487
6510,8544
6551,8574
6587,8579
6631,8575
6661,8566
6661,8566
6692,8530
6709,8477
6714,8415
6707,8352
6690,8297
6662,8258
6628,8244
6559,8248
6514,8272
6488,8320
6479,8394
6479,8401
6318,8401
6318,8386
6319,8356
6341,8261
6386,8189
6454,8140
6543,8117
6619,8116
6716,8136
" /> 
<polyline style="fill-rule:evenodd;"
points="9971,8126
10047,8165
10100,8227
10128,8311
10133,8366
10133,8446
9950,8446
9869,8446
9817,8448
9786,8452
9771,8460
9766,8473
9766,8480
9777,8514
9805,8553
9809,8557
9839,8583
9869,8593
9913,8593
9938,8590
9996,8582
10045,8574
10062,8569
10087,8566
10097,8580
10100,8617
10095,8659
10076,8682
10047,8694
9984,8707
9907,8711
9830,8706
9768,8693
9758,8689
9682,8639
9630,8566
9604,8472
9600,8407
9610,8328
9769,8328
9795,8341
9849,8346
9875,8346
9934,8344
9967,8339
9981,8328
9983,8318
9969,8275
9933,8244
9886,8230
9837,8234
9797,8260
9792,8266
9770,8304
9769,8328
9610,8328
9613,8304
9651,8220
9712,8159
9793,8122
9875,8112
9971,8126
" /> 
<polyline style="fill-rule:evenodd;"
points="4300,8079
4016,8079
4016,8262
4283,8262
4283,8394
4025,8404
4020,8550
4015,8696
3866,8696
3866,7946
4300,7946
4300,8079
" /> 
<polyline style="fill-rule:evenodd;"
points="7166,8696
7016,8696
7016,8112
7166,8112
7166,8696
" /> 
<polyline style="fill-rule:evenodd;"
points="7710,8117
7768,8129
7812,8152
7843,8190
7865,8247
7877,8328
7882,8436
7883,8500
7883,8696
7716,8696
7716,8496
7716,8410
7713,8350
7709,8311
7700,8286
7687,8267
7681,8261
7642,8236
7602,8237
7565,8249
7539,8267
7522,8296
7511,8343
7505,8413
7502,8496
7497,8696
7332,8696
7341,8121
7395,8116
7436,8117
7457,8135
7466,8153
7479,8183
7493,8184
7515,8163
7569,8128
7640,8114
7710,8117
" /> 
<polyline style="fill-rule:evenodd;"
points="8534,8114
8557,8120
8561,8135
8559,8142
8550,8167
8532,8217
8506,8286
8474,8369
8451,8429
8353,8687
8269,8692
8220,8693
8186,8689
8178,8684
8168,8663
8150,8618
8126,8555
8097,8479
8066,8398
8036,8317
8008,8243
7986,8182
7971,8140
7966,8123
7981,8117
8019,8115
8045,8116
8125,8121
8171,8254
8197,8328
8220,8402
8237,8461
8239,8468
8260,8548
8331,8330
8401,8112
8485,8112
8534,8114
" /> 
<polyline style="fill-rule:evenodd;"
points="8817,8696
8649,8696
8658,8121
8808,8121
8817,8696
" /> 
<polyline style="fill-rule:evenodd;"
points="9133,8696
8983,8696
8983,7896
9133,7896
9133,8696
" /> 
<polyline style="fill-rule:evenodd;"
points="9466,8696
9300,8696
9300,7896
9466,7896
9466,8696
" /> 
<polyline style="fill-rule:evenodd;"
points="7144,7909
7176,7943
7183,7977
7169,8007
7135,8034
7094,8046
7091,8046
7049,8035
7026,8020
7002,7979
7007,7939
7037,7909
7087,7896
7091,7896
7144,7909
" /> 
<polyline style="fill-rule:evenodd;"
points="8778,7899
8800,7913
8810,7940
8813,7983
8804,8011
8774,8033
8729,8042
8686,8037
8670,8027
8651,7985
8657,7931
8660,7922
8684,7902
8734,7896
8778,7899
" /> 
<polyline style="fill-rule:evenodd;"
points="4131,6781
4138,6792
4137,6814
4127,6851
4109,6905
4080,6982
4042,7084
4006,7178
3956,7309
3914,7409
3880,7482
3853,7530
3838,7548
3780,7587
3706,7612
3633,7617
3620,7616
3595,7606
3585,7581
3583,7547
3585,7506
3595,7490
3620,7491
3623,7491
3680,7487
3731,7452
3757,7414
3765,7396
3769,7377
3766,7351
3757,7315
3739,7263
3711,7191
3672,7093
3666,7078
3629,6987
3597,6907
3572,6843
3556,6800
3550,6783
3550,6783
3564,6781
3603,6781
3636,6782
3722,6787
3788,6984
3854,7180
3919,6979
3985,6779
4068,6779
4096,6778
4117,6778
4131,6781
" /> 
<polyline style="fill-rule:evenodd;"
points="3348,6598
3411,6610
3439,6619
3499,6644
3475,6699
3450,6739
3422,6749
3421,6749
3388,6744
3336,6738
3297,6734
3242,6731
3210,6734
3192,6747
3184,6761
3174,6796
3186,6830
3223,6866
3288,6907
3319,6923
3403,6974
3458,7026
3489,7084
3499,7152
3499,7158
3484,7231
3442,7293
3379,7340
3299,7369
3209,7377
3141,7368
3073,7351
3031,7335
3009,7315
3001,7284
3000,7251
3001,7205
3008,7186
3024,7186
3029,7188
3092,7210
3162,7228
3225,7237
3270,7237
3270,7236
3317,7214
3340,7177
3335,7133
3333,7129
3309,7104
3265,7073
3218,7047
3122,6987
3056,6922
3021,6852
3016,6811
3029,6726
3069,6662
3133,6619
3223,6597
3282,6594
3348,6598
" /> 
<polyline style="fill-rule:evenodd;"
points="4533,6779
4533,6779
4582,6793
4616,6806
4624,6812
4625,6835
4615,6874
4614,6878
4596,6914
4575,6922
4568,6920
4508,6901
4448,6890
4401,6891
4398,6891
4371,6907
4374,6932
4406,6963
4466,6998
4477,7004
4548,7040
4594,7069
4621,7097
4636,7129
4643,7156
4642,7227
4617,7290
4571,7335
4565,7338
4504,7358
4425,7369
4341,7370
4270,7361
4226,7348
4206,7332
4200,7301
4200,7276
4202,7234
4211,7218
4227,7220
4289,7238
4356,7251
4414,7255
4443,7252
4478,7235
4482,7208
4457,7175
4403,7136
4360,7112
4280,7065
4230,7018
4206,6967
4206,6907
4207,6902
4234,6846
4285,6803
4356,6777
4441,6768
4533,6779
" /> 
<polyline style="fill-rule:evenodd;"
points="4932,6649
4946,6663
4949,6700
4950,6712
4950,6779
5116,6779
5116,6896
4950,6896
4950,7052
4951,7138
4959,7195
4975,7229
5002,7243
5043,7243
5058,7241
5097,7236
5113,7246
5116,7278
5116,7288
5112,7328
5102,7352
5101,7353
5059,7367
5000,7372
4938,7368
4889,7356
4888,7356
4851,7334
4824,7303
4806,7259
4794,7194
4787,7104
4786,7075
4782,6995
4778,6944
4772,6913
4762,6899
4749,6896
4747,6896
4722,6885
4717,6859
4733,6827
4758,6805
4792,6772
4821,6724
4827,6712
4848,6669
4871,6650
4901,6646
4932,6649
" /> 
<polyline style="fill-rule:evenodd;"
points="5583,6784
5654,6828
5707,6897
5733,6973
5744,7030
5746,7069
5734,7093
5703,7106
5649,7112
5567,7112
5550,7112
5466,7113
5411,7116
5379,7122
5367,7131
5366,7135
5380,7173
5412,7212
5453,7242
5475,7250
5522,7252
5585,7245
5650,7232
5687,7220
5706,7218
5715,7236
5716,7269
5712,7313
5693,7337
5673,7346
5609,7362
5530,7370
5453,7369
5400,7361
5332,7327
5271,7273
5227,7209
5216,7180
5200,7075
5209,6991
5372,6991
5373,6994
5395,7004
5439,7011
5484,7012
5539,7012
5569,7007
5581,6994
5583,6972
5583,6971
5568,6930
5531,6897
5484,6881
5465,6882
5431,6897
5399,6928
5376,6962
5372,6991
5209,6991
5211,6978
5246,6894
5303,6828
5380,6785
5399,6779
5496,6767
5583,6784
" /> 
<polyline style="fill-rule:evenodd;"
points="8235,6776
8314,6806
8380,6854
8426,6920
8433,6939
8447,7007
8451,7085
8445,7160
8430,7218
8427,7225
8370,7300
8292,7349
8258,7361
8200,7374
8156,7376
8110,7366
8078,7355
7995,7313
7939,7253
7906,7173
7897,7079
8053,7079
8065,7149
8094,7204
8137,7238
8175,7246
8218,7234
8249,7213
8281,7162
8295,7098
8292,7031
8274,6969
8241,6923
8211,6905
8153,6900
8104,6924
8069,6974
8061,7001
8053,7079
7897,7079
7896,7070
7905,6974
7933,6900
7983,6838
7998,6824
8070,6784
8151,6768
8235,6776
" /> 
<polyline style="fill-rule:evenodd;"
points="8947,6787
9020,6832
9027,6838
9042,6855
9053,6874
9060,6901
9064,6941
9066,7001
9066,7086
9066,7120
9066,7362
9017,7362
8969,7350
8949,7329
8931,7295
8884,7328
8825,7356
8752,7371
8682,7370
8672,7368
8621,7342
8582,7293
8557,7231
8554,7188
8716,7188
8729,7228
8762,7251
8807,7255
8853,7238
8887,7210
8910,7169
8916,7136
8912,7109
8893,7098
8853,7096
8788,7106
8741,7134
8717,7174
8716,7188
8554,7188
8552,7166
8570,7108
8573,7105
8617,7059
8681,7027
8771,7007
8806,7003
8866,6995
8900,6986
8914,6972
8916,6961
8903,6930
8874,6902
8846,6887
8818,6883
8779,6889
8741,6899
8651,6924
8631,6876
8621,6840
8627,6815
8655,6798
8710,6783
8746,6776
8855,6768
8947,6787
" /> 
<polyline style="fill-rule:evenodd;"
points="10225,6554
10229,6958
10233,7362
10166,7362
10125,7360
10101,7353
10099,7350
10091,7326
10083,7313
10069,7299
10049,7307
10030,7324
9966,7362
9893,7371
9821,7352
9817,7351
9761,7315
9723,7272
9702,7215
9692,7137
9692,7107
9848,7107
9859,7169
9882,7212
9883,7212
9929,7239
9981,7244
10027,7226
10037,7217
10065,7165
10077,7095
10072,7019
10067,6999
10039,6939
9998,6904
9949,6896
9900,6917
9883,6932
9860,6977
9848,7039
9848,7107
9692,7107
9691,7082
9695,6985
9708,6914
9733,6861
9773,6818
9788,6806
9852,6777
9927,6771
9998,6789
10027,6806
10075,6841
10069,6692
10064,6544
10225,6554
" /> 
<polyline style="fill-rule:evenodd;"
points="6290,6786
6331,6809
6383,6847
6434,6809
6496,6781
6570,6772
6644,6781
6689,6801
6718,6828
6740,6870
6754,6929
6762,7011
6766,7121
6766,7158
6766,7362
6600,7362
6600,7155
6598,7056
6593,6985
6582,6938
6565,6911
6538,6898
6511,6896
6469,6903
6438,6925
6418,6965
6405,7030
6400,7121
6400,7178
6400,7362
6233,7362
6233,7155
6231,7056
6226,6985
6216,6938
6198,6911
6172,6898
6143,6896
6104,6902
6076,6923
6057,6963
6044,7026
6037,7116
6036,7164
6030,7362
5866,7362
5866,6779
5931,6779
5976,6783
5998,6798
6005,6814
6012,6835
6024,6838
6049,6822
6066,6810
6135,6778
6214,6770
6290,6786
" /> 
<polyline style="fill-rule:evenodd;"
points="7488,6599
7582,6611
7653,6632
7704,6662
7726,6684
7754,6724
7764,6763
7761,6811
7744,6879
7713,6920
7673,6954
7728,7006
7765,7048
7780,7089
7783,7128
7774,7206
7747,7267
7699,7311
7626,7341
7527,7357
7404,7362
7216,7362
7216,7029
7383,7029
7383,7229
7462,7229
7521,7223
7569,7209
7579,7203
7611,7162
7616,7129
7602,7079
7560,7046
7491,7030
7462,7029
7383,7029
7216,7029
7216,6729
7383,6729
7383,6896
7459,6896
7513,6892
7557,6883
7567,6879
7594,6848
7597,6807
7577,6768
7562,6755
7522,6739
7468,6730
7454,6729
7383,6729
7216,6729
7216,6596
7365,6596
7488,6599
" /> 
<polyline style="fill-rule:evenodd;"
points="9605,6767
9614,6785
9613,6826
9613,6833
9607,6877
9593,6900
9561,6912
9542,6916
9488,6935
9443,6961
9438,6966
9421,6984
9410,7006
9403,7039
9400,7089
9400,7165
9400,7182
9400,7362
9233,7362
9233,6779
9297,6779
9340,6782
9361,6795
9372,6828
9373,6833
9383,6886
9410,6847
9451,6810
9510,6779
9570,6763
9583,6762
9605,6767
" /> 
<polyline style="fill-rule:evenodd;"
points="4191,3422
4402,3435
4595,3473
4772,3539
4939,3634
5099,3760
5137,3795
5283,3955
5401,4130
5489,4316
5548,4512
5577,4713
5575,4917
5543,5121
5480,5323
5385,5518
5380,5525
5336,5589
5272,5666
5195,5749
5112,5830
5030,5904
4957,5964
4912,5993
4737,6082
4561,6143
4374,6178
4233,6189
4121,6190
4028,6185
3941,6173
3898,6164
3743,6119
3585,6052
3434,5969
3339,5903
3183,5764
3054,5609
2952,5442
2877,5264
2828,5079
2826,5069
2843,5069
2853,5108
2875,5173
2903,5246
2993,5431
3111,5601
3254,5752
3419,5881
3602,5985
3649,6007
3763,6051
3870,6081
3980,6099
4104,6107
4233,6106
4330,6103
4404,6098
4465,6090
4524,6076
4590,6056
4621,6046
4823,5961
5005,5851
5165,5715
5302,5556
5416,5374
5432,5341
5457,5285
5484,5217
5510,5144
5533,5074
5550,5013
5560,4970
5559,4951
5544,4954
5506,4968
5457,4988
5345,5019
5221,5029
5097,5018
5040,5005
4993,4987
4926,4956
4848,4917
4775,4878
4664,4817
4572,4773
4493,4742
4417,4721
4337,4708
4245,4701
4228,4700
4049,4692
4111,4822
4161,4952
4181,5069
4170,5171
4129,5260
4059,5334
3958,5393
3891,5419
3812,5439
3712,5456
3602,5469
3496,5476
3405,5476
3391,5475
3258,5448
3135,5390
3025,5304
2930,5191
2887,5120
2859,5074
2845,5057
2843,5069
2826,5069
2804,4891
2806,4701
2827,4560
3325,4560
3362,4561
3390,4570
3400,4599
3400,4608
3402,4639
3409,4639
3421,4620
3451,4594
3474,4593
3496,4595
3491,4581
3484,4573
3471,4547
3482,4522
3552,4522
3553,4526
3567,4526
3597,4521
3645,4509
3717,4491
3815,4466
3889,4447
3988,4420
4075,4395
4147,4373
4198,4356
4222,4345
4223,4345
4231,4330
4215,4333
4192,4340
4141,4353
4069,4372
3982,4395
3884,4420
3882,4420
3785,4446
3699,4469
3629,4489
3580,4505
3559,4514
3559,4514
3552,4522
3482,4522
3483,4520
3485,4518
3499,4498
3487,4497
3476,4501
3436,4500
3415,4486
3394,4469
3390,4477
3394,4494
3392,4525
3364,4545
3325,4560
2827,4560
2834,4513
2859,4424
3489,4424
3491,4429
3495,4429
3507,4415
3533,4377
3569,4318
3611,4247
4303,4247
4305,4256
4320,4272
4339,4297
4334,4318
4323,4331
4306,4352
4316,4355
4333,4351
4371,4353
4386,4368
4405,4393
4413,4389
4408,4362
4408,4333
4435,4315
4472,4301
4434,4291
4407,4277
4406,4248
4407,4243
4413,4216
4406,4220
4393,4235
4360,4257
4330,4254
4303,4247
3611,4247
3613,4244
3662,4159
3663,4157
3711,4071
3753,3994
3786,3933
3808,3891
3816,3873
3816,3873
3812,3864
3798,3876
3774,3911
3737,3971
3687,4057
3654,4116
3596,4219
3553,4297
3523,4352
3503,4390
3493,4412
3489,4424
2859,4424
2886,4331
2963,4156
3064,3992
3185,3847
3966,3847
3977,3867
4006,3904
4047,3953
4095,4007
4145,4061
4191,4109
4228,4144
4250,4162
4253,4162
4253,4151
4234,4123
4215,4100
4149,4025
4087,3958
4035,3904
3996,3866
3972,3847
3966,3847
3185,3847
3190,3842
3246,3792
3801,3792
3812,3794
3830,3788
3861,3785
3877,3807
3880,3815
3888,3841
3893,3836
3896,3808
3908,3773
3937,3761
3938,3761
3975,3760
3938,3746
3912,3725
3911,3693
3916,3666
3909,3670
3896,3685
3872,3707
3844,3702
3835,3697
3809,3685
3809,3693
3819,3710
3830,3742
3816,3771
3815,3772
3801,3792
3246,3792
3338,3709
3511,3596
3589,3555
3712,3500
3822,3462
3931,3438
4049,3425
4189,3422
4191,3422
" /> 
<polyline style="fill-rule:evenodd;"
points="7866,4585
7858,4616
7827,4633
7817,4635
7784,4645
7764,4664
7756,4694
7761,4740
7779,4806
7811,4895
7846,4985
7882,5076
7915,5163
7943,5237
7962,5291
7968,5310
7989,5383
8095,5068
8136,4944
8165,4847
8184,4774
8192,4721
8190,4685
8178,4660
8156,4645
8137,4638
8097,4620
8083,4592
8083,4584
8084,4568
8091,4557
8111,4550
8148,4547
8208,4546
8275,4546
8357,4546
8411,4548
8444,4552
8460,4559
8466,4571
8466,4580
8450,4613
8418,4631
8401,4638
8386,4647
8371,4661
8356,4685
8338,4720
8316,4771
8289,4841
8255,4933
8213,5050
8166,5179
8122,5299
8079,5415
8039,5521
8004,5612
7976,5682
7959,5721
7899,5827
7830,5902
7746,5951
7644,5975
7570,5979
7519,5978
7493,5972
7484,5956
7483,5940
7487,5915
7505,5901
7545,5892
7564,5889
7664,5860
7750,5801
7822,5712
7876,5602
7902,5534
7726,5119
7678,5007
7633,4904
7593,4813
7560,4741
7536,4690
7524,4666
7488,4637
7457,4629
7426,4622
7416,4594
7416,4587
7416,4546
7866,4546
7866,4585
" /> 
<polyline style="fill-rule:evenodd;"
points="9400,4762
9400,4924
9400,5056
9401,5162
9402,5244
9404,5305
9407,5350
9411,5381
9416,5402
9422,5416
9430,5426
9433,5429
9475,5454
9516,5462
9552,5467
9565,5486
9566,5504
9565,5524
9558,5536
9537,5542
9498,5545
9434,5546
9409,5546
9253,5546
9241,5462
9230,5378
9166,5451
9089,5517
9003,5553
8905,5558
8840,5547
8746,5509
8671,5445
8617,5355
8582,5239
8567,5096
8566,5051
8568,5004
8751,5004
8752,5087
8759,5196
8773,5278
8796,5338
8831,5382
8879,5415
8883,5417
8955,5438
9034,5434
9106,5407
9112,5403
9148,5374
9174,5337
9192,5287
9202,5218
9207,5126
9208,5046
9207,4952
9205,4884
9200,4836
9192,4801
9180,4773
9174,4762
9123,4702
9056,4664
8983,4649
8911,4658
8847,4694
8830,4710
8794,4761
8770,4823
8756,4902
8751,5004
8568,5004
8572,4919
8590,4812
8622,4723
8648,4675
8711,4605
8792,4558
8883,4534
8978,4534
9069,4559
9150,4608
9183,4640
9235,4699
9224,4485
9217,4383
9207,4310
9193,4260
9171,4231
9140,4216
9098,4212
9096,4212
9062,4208
9051,4191
9053,4175
9057,4158
9068,4147
9092,4140
9136,4136
9204,4133
9229,4133
9400,4128
9400,4762
" /> 
<polyline style="fill-rule:evenodd;"
points="10853,4945
10858,5345
10903,5390
10959,5425
11029,5438
11102,5431
11161,5403
11197,5373
11223,5340
11243,5299
11255,5243
11262,5169
11266,5071
11266,4975
11266,4872
11265,4796
11262,4743
11257,4708
11250,4685
11239,4669
11233,4662
11193,4637
11158,4629
11126,4622
11116,4595
11116,4587
11117,4569
11124,4556
11144,4550
11181,4547
11243,4546
11283,4546
11450,4546
11450,4978
11450,5109
11450,5211
11451,5288
11453,5343
11457,5381
11462,5405
11469,5420
11478,5430
11487,5437
11529,5457
11562,5462
11591,5470
11599,5499
11600,5505
11600,5547
11454,5542
11383,5539
11340,5535
11316,5527
11306,5514
11303,5504
11296,5461
11289,5430
11281,5389
11239,5443
11199,5485
11155,5518
11149,5521
11079,5544
10995,5555
10911,5551
10860,5539
10802,5513
10757,5479
10722,5435
10697,5375
10681,5296
10671,5193
10667,5064
10666,4984
10666,4879
10665,4802
10662,4748
10658,4711
10651,4687
10640,4671
10633,4662
10593,4637
10558,4629
10526,4622
10516,4595
10516,4587
10517,4569
10524,4556
10544,4550
10581,4547
10643,4546
10682,4546
10848,4546
10853,4945
" /> 
<polyline style="fill-rule:evenodd;"
points="12198,4546
12270,4575
12326,4619
12357,4677
12359,4682
12360,4722
12337,4759
12327,4770
12282,4805
12249,4809
12227,4782
12225,4775
12194,4693
12154,4642
12102,4617
12034,4618
12024,4620
11956,4645
11915,4690
11900,4755
11900,4761
11903,4802
11915,4835
11943,4865
11989,4895
12059,4931
12108,4955
12212,5006
12287,5053
12340,5099
12373,5147
12384,5173
12396,5247
12391,5326
12371,5397
12354,5427
12292,5485
12208,5527
12108,5552
12002,5557
11897,5540
11892,5539
11810,5504
11758,5453
11734,5386
11733,5363
11740,5310
11765,5274
11776,5264
11812,5241
11834,5242
11848,5273
11855,5310
11876,5370
11910,5418
11942,5445
11977,5458
12029,5462
12050,5462
12135,5453
12196,5423
12232,5371
12243,5335
12247,5292
12241,5256
12221,5224
12181,5190
12120,5151
12032,5104
12018,5097
11919,5043
11846,4997
11797,4954
11766,4907
11751,4853
11747,4786
11748,4742
11760,4702
11788,4655
11801,4638
11864,4586
11941,4552
12027,4534
12114,4532
12198,4546
" /> 
<polyline style="fill-rule:evenodd;"
points="7070,4216
7171,4218
7243,4220
7291,4223
7321,4228
7337,4235
7344,4246
7346,4258
7345,4285
7325,4295
7300,4296
7241,4312
7207,4337
7166,4378
7166,4884
7167,5037
7168,5160
7170,5255
7173,5326
7177,5375
7182,5406
7188,5419
7217,5440
7265,5455
7280,5458
7325,5466
7344,5479
7346,5502
7346,5502
7343,5515
7334,5525
7315,5531
7280,5536
7226,5539
7147,5541
7070,5542
6800,5547
6800,5505
6805,5475
6827,5464
6850,5462
6907,5447
6942,5422
6958,5404
6969,5386
6976,5360
6980,5320
6982,5262
6983,5179
6983,5138
6983,4896
6383,4896
6383,5146
6383,5243
6385,5313
6388,5361
6394,5392
6403,5413
6416,5429
6416,5429
6458,5454
6500,5462
6535,5467
6548,5486
6550,5504
6550,5546
6016,5546
6016,5504
6022,5474
6047,5463
6062,5462
6112,5453
6146,5437
6156,5429
6164,5419
6170,5404
6175,5379
6179,5342
6181,5288
6182,5215
6183,5118
6183,4994
6183,4879
6183,4732
6183,4615
6182,4524
6180,4456
6178,4406
6174,4372
6169,4350
6162,4337
6154,4328
6146,4322
6100,4302
6062,4296
6028,4290
6017,4268
6016,4254
6016,4212
6550,4212
6550,4254
6544,4284
6521,4295
6500,4296
6451,4307
6416,4329
6402,4346
6393,4368
6387,4402
6384,4454
6383,4529
6383,4579
6383,4796
6983,4796
6983,4587
6982,4499
6981,4439
6977,4399
6969,4372
6956,4352
6942,4337
6889,4303
6850,4296
6814,4292
6801,4273
6800,4254
6800,4212
7070,4216
" /> 
<polyline style="fill-rule:evenodd;"
points="10312,4535
10379,4562
10415,4590
10430,4623
10433,4661
10426,4713
10402,4750
10389,4761
10340,4790
10299,4796
10273,4780
10266,4754
10256,4715
10230,4677
10200,4650
10184,4646
10127,4662
10079,4708
10039,4782
10010,4881
9992,5004
9984,5148
9986,5235
9989,5311
9994,5362
10002,5394
10014,5416
10031,5431
10082,5455
10136,5462
10178,5465
10196,5475
10197,5498
10196,5500
10193,5514
10185,5524
10167,5531
10135,5536
10082,5539
10004,5541
9932,5542
9842,5543
9764,5542
9704,5540
9668,5537
9661,5535
9651,5510
9650,5493
9661,5469
9692,5462
9733,5451
9774,5423
9775,5422
9789,5407
9799,5392
9807,5370
9811,5339
9814,5292
9816,5225
9816,5134
9816,5041
9816,4918
9814,4823
9810,4753
9802,4704
9790,4672
9773,4651
9749,4640
9717,4632
9715,4631
9673,4617
9658,4593
9658,4587
9661,4571
9674,4561
9704,4555
9758,4551
9802,4549
9946,4545
9957,4624
9968,4684
9978,4712
9991,4710
10011,4681
10022,4660
10075,4594
10146,4549
10228,4529
10312,4535
" /> 
</g>
<g style="fill:#000000; fill-opacity:1.0; 
stroke:#000000; stroke-width:0; stroke-opacity:1; 
stroke-linecap:round; stroke-linejoin:round;">
<polyline style="fill-rule:evenodd;"
points="33360,15062
33360,15962
32740,15962
32740,15062
33360,15062
" /> 
</g>
<g style="fill:#000000; fill-opacity:1.0; 
stroke:#000000; stroke-width:620; stroke-opacity:1; 
stroke-linecap:round; stroke-linejoin:round;">
</g>
<g style="fill:#000000; fill-opacity:0.0; 
stroke:#000000; stroke-width:620; stroke-opacity:1; 
stroke-linecap:round; stroke-linejoin:round;">
<path d="M32050 15652
L32050 15372
" />
<path d="M31050 15652
L31050 15372
" />
<path d="M30050 15652
L30050 15372
" />
<path d="M29050 15652
L29050 15372
" />
<path d="M28050 15652
L28050 15372
" />
<path d="M27050 15652
L27050 15372
" />
<path d="M26050 15652
L26050 15372
" />
<path d="M25050 15652
L25050 15372
" />
<path d="M24050 15652
L24050 15372
" />
<path d="M23050 15652
L23050 15372
" />
<path d="M22050 15652
L22050 15372
" />
<path d="M21050 15652
L21050 15372
" />
<path d="M20050 15652
L20050 15372
" />
<path d="M19050 15652
L19050 15372
" />
<path d="M19050 21652
L19050 21372
" />
<path d="M20050 21652
L20050 21372
" />
<path d="M21050 21652
L21050 21372
" />
<path d="M22050 21652
L22050 21372
" />
<path d="M23050 21652
L23050 21372
" />
<path d="M24050 21652
L24050 21372
" />
<path d="M25050 21652
L25050 21372
" />
<path d="M26050 21652
L26050 21372
" />
<path d="M27050 21652
L27050 21372
" />
<path d="M28050 21652
L28050 21372
" />
<path d="M29050 21652
L29050 21372
" />
<path d="M30050 21652
L30050 21372
" />
<path d="M31050 21652
L31050 21372
" />
<path d="M32050 21652
L32050 21372
" />
<path d="M33050 21652
L33050 21372
" />
</g>
<g style="fill:#000000; fill-opacity:0.0; 
stroke:#000000; stroke-width:680; stroke-opacity:1; 
stroke-linecap:round; stroke-linejoin:round;">
<path d="M21300 27202
L21300 27322
" />
<path d="M22300 27202
L22300 27322
" />
<path d="M23300 27202
L23300 27322
" />
<path d="M24300 27202
L24300 27322
" />
<path d="M25300 27202
L25300 27322
" />
<path d="M26300 27202
L26300 27322
" />
<path d="M27300 27202
L27300 27322
" />
<path d="M28300 27202
L28300 27322
" />
<path d="M30300 27202
L30300 27322
" />
<path d="M31300 27202
L31300 27322
" />
<path d="M32300 27202
L32300 27322
" />
<path d="M33300 27202
L33300 27322
" />
<path d="M34300 27202
L34300 27322
" />
<path d="M35300 27202
L35300 27322
" />
<path d="M17700 8202
L17700 8322
" />
<path d="M18700 8202
L18700 8322
" />
<path d="M19700 8202
L19700 8322
" />
<path d="M20700 8202
L20700 8322
" />
<path d="M21700 8202
L21700 8322
" />
<path d="M22700 8202
L22700 8322
" />
<path d="M23700 8202
L23700 8322
" />
<path d="M24700 8202
L24700 8322
" />
<path d="M25700 8202
L25700 8322
" />
<path d="M26700 8202
L26700 8322
" />
<path d="M28300 8202
L28300 8322
" />
<path d="M29300 8202
L29300 8322
" />
<path d="M30300 8202
L30300 8322
" />
<path d="M31300 8202
L31300 8322
" />
<path d="M32300 8202
L32300 8322
" />
<path d="M33300 8202
L33300 8322
" />
<path d="M34300 8202
L34300 8322
" />
<path d="M35300 8202
L35300 8322
" />
</g>
<g style="fill:#000000; fill-opacity:0.0; 
stroke:#000000; stroke-width:0; stroke-opacity:1; 
stroke-linecap:round; stroke-linejoin:round;">
</g>
<g style="fill:#000000; fill-opacity:1.0; 
stroke:#000000; stroke-width:0; stroke-opacity:1; 
stroke-linecap:round; stroke-linejoin:round;">
<polyline style="fill-rule:evenodd;"
points="29700,5922
29700,6602
28900,6602
28900,5922
29700,5922
" /> 
</g>
<g style="fill:#000000; fill-opacity:1.0; 
stroke:#000000; stroke-width:680; stroke-opacity:1; 
stroke-linecap:round; stroke-linejoin:round;">
</g>
<g style="fill:#000000; fill-opacity:0.0; 
stroke:#000000; stroke-width:680; stroke-opacity:1; 
stroke-linecap:round; stroke-linejoin:round;">
<path d="M29360 5262
L29240 5262
" />
<path d="M29360 4262
L29240 4262
" />
</g>
<g style="fill:#000000; fill-opacity:0.0; 
stroke:#000000; stroke-width:0; stroke-opacity:1; 
stroke-linecap:round; stroke-linejoin:round;">
</g>
<g style="fill:#000000; fill-opacity:1.0; 
stroke:#000000; stroke-width:0; stroke-opacity:1; 
stroke-linecap:round; stroke-linejoin:round;">
<polyline style="fill-rule:evenodd;"
points="31200,5922
31200,6602
30400,6602
30400,5922
31200,5922
" /> 
</g>
<g style="fill:#000000; fill-opacity:1.0; 
stroke:#000000; stroke-width:680; stroke-opacity:1; 
stroke-linecap:round; stroke-linejoin:round;">
</g>
<g style="fill:#000000; fill-opacity:0.0; 
stroke:#000000; stroke-width:680; stroke-opacity:1; 
stroke-linecap:round; stroke-linejoin:round;">
<path d="M30860 5262
L30740 5262
" />
<path d="M30860 4262
L30740 4262
" />
</g>
<g style="fill:#000000; fill-opacity:0.0; 
stroke:#000000; stroke-width:0; stroke-opacity:1; 
stroke-linecap:round; stroke-linejoin:round;">
</g>
<g style="fill:#000000; fill-opacity:1.0; 
stroke:#000000; stroke-width:0; stroke-opacity:1; 
stroke-linecap:round; stroke-linejoin:round;">
<polyline style="fill-rule:evenodd;"
points="13294,20686
13805,20686
13805,21276
13294,21276
13294,20686
" /> 
<polyline style="fill-rule:evenodd;"
points="13294,21749
13805,21749
13805,22339
13294,22339
13294,21749
" /> 
<polyline style="fill-rule:evenodd;"
points="3794,14186
4305,14186
4305,14776
3794,14776
3794,14186
" /> 
<polyline style="fill-rule:evenodd;"
points="3794,15249
4305,15249
4305,15839
3794,15839
3794,15249
" /> 
<polyline style="fill-rule:evenodd;"
points="5175,12187
5175,11837
5925,11837
5925,12187
5175,12187
" /> 
<polyline style="fill-rule:evenodd;"
points="5175,12687
5175,12337
5925,12337
5925,12687
5175,12687
" /> 
<polyline style="fill-rule:evenodd;"
points="5175,13187
5175,12837
5925,12837
5925,13187
5175,13187
" /> 
<polyline style="fill-rule:evenodd;"
points="5175,13687
5175,13337
5925,13337
5925,13687
5175,13687
" /> 
<polyline style="fill-rule:evenodd;"
points="5175,14187
5175,13837
5925,13837
5925,14187
5175,14187
" /> 
<polyline style="fill-rule:evenodd;"
points="5175,14687
5175,14337
5925,14337
5925,14687
5175,14687
" /> 
<polyline style="fill-rule:evenodd;"
points="5175,17187
5175,16837
5925,16837
5925,17187
5175,17187
" /> 
<polyline style="fill-rule:evenodd;"
points="5175,17687
5175,17337
5925,17337
5925,17687
5175,17687
" /> 
<polyline style="fill-rule:evenodd;"
points="5175,18187
5175,17837
5925,17837
5925,18187
5175,18187
" /> 
<polyline style="fill-rule:evenodd;"
points="5175,23437
5175,23087
5925,23087
5925,23437
5175,23437
" /> 
<polyline style="fill-rule:evenodd;"
points="12175,23437
12175,23087
12925,23087
12925,23437
12175,23437
" /> 
<polyline style="fill-rule:evenodd;"
points="12175,16687
12175,16337
12925,16337
12925,16687
12175,16687
" /> 
<polyline style="fill-rule:evenodd;"
points="12175,16187
12175,15837
12925,15837
12925,16187
12175,16187
" /> 
<polyline style="fill-rule:evenodd;"
points="12175,15687
12175,15337
12925,15337
12925,15687
12175,15687
" /> 
<polyline style="fill-rule:evenodd;"
points="12175,15187
12175,14837
12925,14837
12925,15187
12175,15187
" /> 
<polyline style="fill-rule:evenodd;"
points="12175,14687
12175,14337
12925,14337
12925,14687
12175,14687
" /> 
<polyline style="fill-rule:evenodd;"
points="12175,14187
12175,13837
12925,13837
12925,14187
12175,14187
" /> 
<polyline style="fill-rule:evenodd;"
points="12175,13687
12175,13337
12925,13337
12925,13687
12175,13687
" /> 
<polyline style="fill-rule:evenodd;"
points="12175,13187
12175,12837
12925,12837
12925,13187
12175,13187
" /> 
<polyline style="fill-rule:evenodd;"
points="12175,12687
12175,12337
12925,12337
12925,12687
12175,12687
" /> 
<polyline style="fill-rule:evenodd;"
points="12175,12187
12175,11837
12925,11837
12925,12187
12175,12187
" /> 
<polyline style="fill-rule:evenodd;"
points="7300,22512
7300,12512
10800,12512
10800,22512
7300,22512
" /> 
<polyline style="fill-rule:evenodd;"
points="13195,18139
13904,18139
13904,18768
13195,18768
13195,18139
" /> 
<polyline style="fill-rule:evenodd;"
points="13195,19257
13904,19257
13904,19886
13195,19886
13195,19257
" /> 
<polyline style="fill-rule:evenodd;"
points="17640,6662
16960,6662
16960,5862
17640,5862
17640,6662
" /> 
</g>
<g style="fill:#000000; fill-opacity:1.0; 
stroke:#000000; stroke-width:680; stroke-opacity:1; 
stroke-linecap:round; stroke-linejoin:round;">
</g>
<g style="fill:#000000; fill-opacity:0.0; 
stroke:#000000; stroke-width:680; stroke-opacity:1; 
stroke-linecap:round; stroke-linejoin:round;">
<path d="M18300 6322
L18300 6202
" />
<path d="M19300 6322
L19300 6202
" />
<path d="M20300 6322
L20300 6202
" />
<path d="M21300 6322
L21300 6202
" />
<path d="M22300 6322
L22300 6202
" />
<path d="M23300 6322
L23300 6202
" />
<path d="M24300 6322
L24300 6202
" />
<path d="M25300 6322
L25300 6202
" />
</g>
<g style="fill:#000000; fill-opacity:0.0; 
stroke:#000000; stroke-width:0; stroke-opacity:1; 
stroke-linecap:round; stroke-linejoin:round;">
</g>
<g style="fill:#000000; fill-opacity:1.0; 
stroke:#000000; stroke-width:0; stroke-opacity:1; 
stroke-linecap:round; stroke-linejoin:round;">
<polyline style="fill-rule:evenodd;"
points="26610,6702
26610,5822
27490,5822
27490,6702
26610,6702
" /> 
<polyline style="fill-rule:evenodd;"
points="13445,13389
14154,13389
14154,14018
13445,14018
13445,13389
" /> 
<polyline style="fill-rule:evenodd;"
points="13445,14507
14154,14507
14154,15136
13445,15136
13445,14507
" /> 
<polyline style="fill-rule:evenodd;"
points="13544,15686
14055,15686
14055,16276
13544,16276
13544,15686
" /> 
<polyline style="fill-rule:evenodd;"
points="13544,16749
14055,16749
14055,17339
13544,17339
13544,16749
" /> 
<polyline style="fill-rule:evenodd;"
points="19173,25908
19173,26617
18544,26617
18544,25908
19173,25908
" /> 
<polyline style="fill-rule:evenodd;"
points="18055,25908
18055,26617
17426,26617
17426,25908
18055,25908
" /> 
<polyline style="fill-rule:evenodd;"
points="17055,26589
16544,26589
16544,25999
17055,25999
17055,26589
" /> 
<polyline style="fill-rule:evenodd;"
points="17055,25526
16544,25526
16544,24936
17055,24936
17055,25526
" /> 
<polyline style="fill-rule:evenodd;"
points="17673,22818
17673,22307
18263,22307
18263,22818
17673,22818
" /> 
<polyline style="fill-rule:evenodd;"
points="18736,22818
18736,22307
19326,22307
19326,22818
18736,22818
" /> 
<polyline style="fill-rule:evenodd;"
points="17673,23818
17673,23307
18263,23307
18263,23818
17673,23818
" /> 
<polyline style="fill-rule:evenodd;"
points="18736,23818
18736,23307
19326,23307
19326,23818
18736,23818
" /> 
<polyline style="fill-rule:evenodd;"
points="12848,24187
13154,23881
13655,24382
13349,24688
12848,24187
" /> 
<polyline style="fill-rule:evenodd;"
points="14574,25913
14880,25607
15381,26108
15075,26414
14574,25913
" /> 
<polyline style="fill-rule:evenodd;"
points="11818,25217
12124,24911
12625,25412
12319,25718
11818,25217
" /> 
<polyline style="fill-rule:evenodd;"
points="13544,26943
13850,26637
14351,27138
14045,27444
13544,26943
" /> 
<polyline style="fill-rule:evenodd;"
points="33100,5922
33100,6602
32300,6602
32300,5922
33100,5922
" /> 
</g>
<g style="fill:#000000; fill-opacity:1.0; 
stroke:#000000; stroke-width:680; stroke-opacity:1; 
stroke-linecap:round; stroke-linejoin:round;">
</g>
<g style="fill:#000000; fill-opacity:0.0; 
stroke:#000000; stroke-width:680; stroke-opacity:1; 
stroke-linecap:round; stroke-linejoin:round;">
<path d="M32760 5262
L32640 5262
" />
<path d="M32760 4262
L32640 4262
" />
</g>
<g style="fill:#000000; fill-opacity:0.0; 
stroke:#000000; stroke-width:0; stroke-opacity:1; 
stroke-linecap:round; stroke-linejoin:round;">
</g>
<g style="fill:#000000; fill-opacity:1.0; 
stroke:#000000; stroke-width:0; stroke-opacity:1; 
stroke-linecap:round; stroke-linejoin:round;">
<polyline style="fill-rule:evenodd;"
points="34740,12862
34060,12862
34060,12062
34740,12062
34740,12862
" /> 
</g>
<g style="fill:#000000; fill-opacity:1.0; 
stroke:#000000; stroke-width:680; stroke-opacity:1; 
stroke-linecap:round; stroke-linejoin:round;">
</g>
<g style="fill:#000000; fill-opacity:0.0; 
stroke:#000000; stroke-width:680; stroke-opacity:1; 
stroke-linecap:round; stroke-linejoin:round;">
<path d="M35400 12522
L35400 12402
" />
<path d="M36400 12522
L36400 12402
" />
</g>
<g style="fill:#000000; fill-opacity:0.0; 
stroke:#000000; stroke-width:0; stroke-opacity:1; 
stroke-linecap:round; stroke-linejoin:round;">
</g>
<g style="fill:#000000; fill-opacity:1.0; 
stroke:#000000; stroke-width:0; stroke-opacity:1; 
stroke-linecap:round; stroke-linejoin:round;">
<polyline style="fill-rule:evenodd;"
points="36073,14818
36073,14307
36663,14307
36663,14818
36073,14818
" /> 
<polyline style="fill-rule:evenodd;"
points="37136,14818
37136,14307
37726,14307
37726,14818
37136,14818
" /> 
<polyline style="fill-rule:evenodd;"
points="36073,13818
36073,13307
36663,13307
36663,13818
36073,13818
" /> 
<polyline style="fill-rule:evenodd;"
points="37136,13818
37136,13307
37726,13307
37726,13818
37136,13818
" /> 
<polyline style="fill-rule:evenodd;"
points="26500,14262
25700,14262
25700,13462
26500,13462
26500,14262
" /> 
</g>
<g style="fill:#000000; fill-opacity:1.0; 
stroke:#000000; stroke-width:800; stroke-opacity:1; 
stroke-linecap:round; stroke-linejoin:round;">
</g>
<g style="fill:#000000; fill-opacity:0.0; 
stroke:#000000; stroke-width:800; stroke-opacity:1; 
stroke-linecap:round; stroke-linejoin:round;">
<path d="M27100 13862
L27100 13862
" />
</g>
<g style="fill:#000000; fill-opacity:0.0; 
stroke:#000000; stroke-width:0; stroke-opacity:1; 
stroke-linecap:round; stroke-linejoin:round;">
</g>
<g style="fill:#000000; fill-opacity:1.0; 
stroke:#000000; stroke-width:0; stroke-opacity:1; 
stroke-linecap:round; stroke-linejoin:round;">
<polyline style="fill-rule:evenodd;"
points="23373,14768
23373,14257
23963,14257
23963,14768
23373,14768
" /> 
<polyline style="fill-rule:evenodd;"
points="24436,14768
24436,14257
25026,14257
25026,14768
24436,14768
" /> 
<polyline style="fill-rule:evenodd;"
points="28760,23162
29440,23162
29440,23962
28760,23962
28760,23162
" /> 
</g>
<g style="fill:#000000; fill-opacity:1.0; 
stroke:#000000; stroke-width:680; stroke-opacity:1; 
stroke-linecap:round; stroke-linejoin:round;">
</g>
<g style="fill:#000000; fill-opacity:0.0; 
stroke:#000000; stroke-width:680; stroke-opacity:1; 
stroke-linecap:round; stroke-linejoin:round;">
<path d="M28100 23502
L28100 23622
" />
<path d="M27100 23502
L27100 23622
" />
<path d="M26100 23502
L26100 23622
" />
<path d="M25100 23502
L25100 23622
" />
<path d="M24100 23502
L24100 23622
" />
<path d="M23100 23502
L23100 23622
" />
<path d="M22100 23502
L22100 23622
" />
<path d="M21100 23502
L21100 23622
" />
<path d="M20100 23502
L20100 23622
" />
</g>
<g style="fill:#000000; fill-opacity:0.0; 
stroke:#000000; stroke-width:0; stroke-opacity:1; 
stroke-linecap:round; stroke-linejoin:round;">
</g>
<g style="fill:#000000; fill-opacity:1.0; 
stroke:#000000; stroke-width:0; stroke-opacity:1; 
stroke-linecap:round; stroke-linejoin:round;">
<polyline style="fill-rule:evenodd;"
points="29440,14462
28760,14462
28760,13662
29440,13662
29440,14462
" /> 
</g>
<g style="fill:#000000; fill-opacity:1.0; 
stroke:#000000; stroke-width:680; stroke-opacity:1; 
stroke-linecap:round; stroke-linejoin:round;">
</g>
<g style="fill:#000000; fill-opacity:0.0; 
stroke:#000000; stroke-width:680; stroke-opacity:1; 
stroke-linecap:round; stroke-linejoin:round;">
<path d="M30100 14122
L30100 14002
" />
<path d="M31100 14122
L31100 14002
" />
<path d="M32100 14122
L32100 14002
" />
</g>
<g style="fill:#000000; fill-opacity:0.0; 
stroke:#000000; stroke-width:0; stroke-opacity:1; 
stroke-linecap:round; stroke-linejoin:round;">
</g>
<g style="fill:#000000; fill-opacity:1.0; 
stroke:#000000; stroke-width:0; stroke-opacity:1; 
stroke-linecap:round; stroke-linejoin:round;">
<polyline style="fill-rule:evenodd;"
points="15640,4962
14960,4962
14960,4162
15640,4162
15640,4962
" /> 
</g>
<g style="fill:#000000; fill-opacity:1.0; 
stroke:#000000; stroke-width:680; stroke-opacity:1; 
stroke-linecap:round; stroke-linejoin:round;">
</g>
<g style="fill:#000000; fill-opacity:0.0; 
stroke:#000000; stroke-width:680; stroke-opacity:1; 
stroke-linecap:round; stroke-linejoin:round;">
<path d="M16300 4622
L16300 4502
" />
<path d="M17300 4622
L17300 4502
" />
<path d="M18300 4622
L18300 4502
" />
</g>
<g style="fill:#000000; fill-opacity:0.0; 
stroke:#000000; stroke-width:0; stroke-opacity:1; 
stroke-linecap:round; stroke-linejoin:round;">
</g>
<g style="fill:#000000; fill-opacity:1.0; 
stroke:#000000; stroke-width:0; stroke-opacity:1; 
stroke-linecap:round; stroke-linejoin:round;">
<polyline style="fill-rule:evenodd;"
points="31012,24409
31012,23916
31603,23916
31603,24409
31012,24409
" /> 
<polyline style="fill-rule:evenodd;"
points="31996,24409
31996,23916
32587,23916
32587,24409
31996,24409
" /> 
<polyline style="fill-rule:evenodd;"
points="29788,28418
29788,27907
30063,27907
30063,28418
29788,28418
" /> 
<polyline style="fill-rule:evenodd;"
points="30536,28418
30536,27907
30811,27907
30811,28418
30536,28418
" /> 
<polyline style="fill-rule:evenodd;"
points="28225,28362
28225,27962
28425,27962
28425,28362
28225,28362
" /> 
<polyline style="fill-rule:evenodd;"
points="28974,28362
28974,27962
29174,27962
29174,28362
28974,28362
" /> 
<polyline style="fill-rule:evenodd;"
points="31640,25762
30960,25762
30960,24962
31640,24962
31640,25762
" /> 
</g>
<g style="fill:#000000; fill-opacity:1.0; 
stroke:#000000; stroke-width:680; stroke-opacity:1; 
stroke-linecap:round; stroke-linejoin:round;">
</g>
<g style="fill:#000000; fill-opacity:0.0; 
stroke:#000000; stroke-width:680; stroke-opacity:1; 
stroke-linecap:round; stroke-linejoin:round;">
<path d="M32300 25422
L32300 25302
" />
<path d="M33300 25422
L33300 25302
" />
<path d="M34300 25422
L34300 25302
" />
</g>
<g style="fill:#000000; fill-opacity:0.0; 
stroke:#000000; stroke-width:216.535; stroke-opacity:1; 
stroke-linecap:round; stroke-linejoin:round;">
<path d="M13947 27041
L12221 25315
" />
<path d="M22400 28162
L15069 28162
" />
<path d="M15069 28162
L13947 27041
" />
<path d="M23300 27262
L22400 28162
" />
</g>
<g style="fill:#000000; fill-opacity:0.0; 
stroke:#000000; stroke-width:290; stroke-opacity:1; 
stroke-linecap:round; stroke-linejoin:round;">
<path d="M27300 27262
L27300 26562
" />
<path d="M28500 25362
L31300 25362
" />
<path d="M27300 26562
L28500 25362
" />
<path d="M31300 25362
L31307 25355
" />
<path d="M31307 25355
L31307 24162
" />
<path d="M24550 17062
L24550 18112
" />
<path d="M22500 18662
L21475 19687
" />
<path d="M24000 18662
L22500 18662
" />
<path d="M24550 18112
L24000 18662
" />
<path d="M24050 15512
L24050 16012
" />
<path d="M24550 16512
L24550 17062
" />
<path d="M24050 16012
L24550 16512
" />
<path d="M23050 15512
L24050 15512
" />
<path d="M23668 14512
L23668 14531
" />
<path d="M23668 14531
L24050 14912
" />
<path d="M24050 14912
L24050 15512
" />
<path d="M24550 17062
L25200 16412
" />
<path d="M33250 14062
L32100 14062
" />
<path d="M34150 14962
L33250 14062
" />
<path d="M34150 15862
L34150 14962
" />
<path d="M33600 16412
L34150 15862
" />
<path d="M25200 16412
L33600 16412
" />
<path d="M20050 15512
L20050 18262
" />
<path d="M20050 18262
L21475 19687
" />
<path d="M21475 19687
L21750 19962
" />
<path d="M22050 21012
L21750 20712
" />
<path d="M21750 20712
L21750 19962
" />
<path d="M22050 21512
L22050 21012
" />
<path d="M30674 28162
L31000 28162
" />
<path d="M31000 28162
L31600 28762
" />
</g>
<g style="fill:#000000; fill-opacity:0.0; 
stroke:#000000; stroke-width:314.961; stroke-opacity:1; 
stroke-linecap:round; stroke-linejoin:round;">
<path d="M28000 28762
L27300 28062
" />
<path d="M27300 28062
L27300 27262
" />
<path d="M31800 28562
L31600 28762
" />
<path d="M31600 28762
L28000 28762
" />
<path d="M20700 8262
L20700 8462
" />
<path d="M20700 8462
L20100 9062
" />
<path d="M16300 8162
L16300 4562
" />
<path d="M17200 9062
L16300 8162
" />
<path d="M20100 9062
L17200 9062
" />
<path d="M20100 23562
L22050 21612
" />
<path d="M22050 21512
L22050 21612
" />
<path d="M37431 14562
L37431 13562
" />
<path d="M20100 23562
L20100 25012
" />
<path d="M20000 24962
L20000 25012
" />
<path d="M20050 24962
L20000 24962
" />
<path d="M20100 25012
L20050 24962
" />
<path d="M19031 23562
L20100 23562
" />
<path d="M22050 21512
L22050 21812
" />
<path d="M22050 21512
L22050 21312
" />
<path d="M37431 14562
L37431 14694
" />
<path d="M37431 14694
L37600 14862
" />
<path d="M37600 14862
L37600 27162
" />
<path d="M36200 28562
L31800 28562
" />
<path d="M37600 27162
L36200 28562
" />
<path d="M32700 4262
L34900 4262
" />
<path d="M34900 4262
L37600 6962
" />
<path d="M37600 6962
L37600 14862
" />
<path d="M32700 4262
L30800 4262
" />
<path d="M26300 27262
L27300 27262
" />
<path d="M26300 27262
L26300 26762
" />
<path d="M24550 25012
L20000 25012
" />
<path d="M26300 26762
L24550 25012
" />
<path d="M20000 25012
L15800 25012
" />
<path d="M14978 26010
L13252 24284
" />
<path d="M13252 24284
L13252 24210
" />
<path d="M13252 24210
L14125 23337
" />
<path d="M20300 6262
L20300 7062
" />
<path d="M20700 7462
L20700 8262
" />
<path d="M20300 7062
L20700 7462
" />
<path d="M29300 4262
L22300 4262
" />
<path d="M22300 4262
L20300 6262
" />
<path d="M16800 25231
L16018 25231
" />
<path d="M16018 25231
L15800 25012
" />
<path d="M13550 22762
L13550 22044
" />
<path d="M15800 25012
L14125 23337
" />
<path d="M14125 23337
L13550 22762
" />
<path d="M22050 21212
L22050 21512
" />
<path d="M5550 14512
L6050 14512
" />
<path d="M6050 14512
L9050 17512
" />
<path d="M5550 18012
L8550 18012
" />
<path d="M8550 18012
L9050 17512
" />
<path d="M13550 22044
L13081 22044
" />
<path d="M13081 22044
L9050 18012
" />
<path d="M9050 18012
L9050 17512
" />
<path d="M13800 17044
L13518 17044
" />
<path d="M13518 17044
L13050 17512
" />
<path d="M13050 17512
L9050 17512
" />
<path d="M13081 22044
L9050 18012
" />
<path d="M9050 18012
L9050 17512
" />
<path d="M5550 14512
L5300 14512
" />
<path d="M29300 4262
L30800 4262
" />
<path d="M9050 17512
L8550 17512
" />
<path d="M9050 19012
L9050 17512
" />
<path d="M13550 22044
L13581 22044
" />
<path d="M8550 18012
L9050 17512
" />
</g>
<g style="fill:#000000; fill-opacity:0.0; 
stroke:#000000; stroke-width:216.535; stroke-opacity:1; 
stroke-linecap:round; stroke-linejoin:round;">
<path d="M28300 27262
L28300 28137
" />
<path d="M28300 28137
L28325 28162
" />
<path d="M29300 6262
L29300 8262
" />
<path d="M30800 6262
L30800 6762
" />
<path d="M30300 7262
L30300 8262
" />
<path d="M30800 6762
L30300 7262
" />
<path d="M31300 8262
L31300 7662
" />
<path d="M31300 7662
L32700 6262
" />
<path d="M29100 10362
L27300 12162
" />
<path d="M36000 8762
L34400 10362
" />
<path d="M34400 10362
L29100 10362
" />
<path d="M36000 8662
L36000 8762
" />
<path d="M16300 12162
L15800 12662
" />
<path d="M27300 12162
L16300 12162
" />
<path d="M17400 23562
L15800 21962
" />
<path d="M15800 12662
L15800 21962
" />
<path d="M17400 23562
L17968 23562
" />
<path d="M36000 7962
L36000 8562
" />
<path d="M36000 8562
L36000 8662
" />
<path d="M36000 8662
L36000 8562
" />
<path d="M33800 7512
L35550 7512
" />
<path d="M35550 7512
L36000 7962
" />
<path d="M33800 7512
L33300 8012
" />
<path d="M17968 22562
L17968 23562
" />
<path d="M33300 8262
L33300 8012
" />
<path d="M21300 6262
L21300 6762
" />
<path d="M21700 7162
L21700 8262
" />
<path d="M21300 6762
L21700 7162
" />
<path d="M25300 6262
L25300 7012
" />
<path d="M24700 7612
L24700 8262
" />
<path d="M25300 7012
L24700 7612
" />
</g>
<g style="fill:#000000; fill-opacity:0.0; 
stroke:#000000; stroke-width:314.961; stroke-opacity:1; 
stroke-linecap:round; stroke-linejoin:round;">
<path d="M15300 4562
L15300 8562
" />
<path d="M11300 9062
L10000 10362
" />
<path d="M14800 9062
L11300 9062
" />
<path d="M15300 8562
L14800 9062
" />
<path d="M15300 4562
L15300 3962
" />
<path d="M19300 3962
L19300 6262
" />
<path d="M18900 3562
L19300 3962
" />
<path d="M15700 3562
L18900 3562
" />
<path d="M15300 3962
L15700 3562
" />
<path d="M3050 12512
L3050 14262
" />
<path d="M10000 10362
L5200 10362
" />
<path d="M5200 10362
L3050 12512
" />
<path d="M19925 26637
L20800 25762
" />
<path d="M20800 25762
L23800 25762
" />
<path d="M18859 26262
L19550 26262
" />
<path d="M19550 26262
L19925 26637
" />
<path d="M15300 27262
L12300 24262
" />
<path d="M19300 27262
L15300 27262
" />
<path d="M19925 26637
L19300 27262
" />
<path d="M24300 27262
L24300 26262
" />
<path d="M24300 26262
L23800 25762
" />
<path d="M5550 13012
L4300 13012
" />
<path d="M4300 13012
L3050 14262
" />
<path d="M3050 14262
L3050 16012
" />
<path d="M3050 16012
L4300 17262
" />
<path d="M4300 17262
L4300 23762
" />
<path d="M4300 23762
L4800 24262
" />
<path d="M4800 24262
L12300 24262
" />
</g>
<g style="fill:#000000; fill-opacity:0.0; 
stroke:#000000; stroke-width:216.535; stroke-opacity:1; 
stroke-linecap:round; stroke-linejoin:round;">
<path d="M22300 6262
L22300 7012
" />
<path d="M22700 7412
L22700 8262
" />
<path d="M22300 7012
L22700 7412
" />
<path d="M23300 6262
L23300 7012
" />
<path d="M23700 7412
L23700 8262
" />
<path d="M23300 7012
L23700 7412
" />
<path d="M26000 10562
L12500 10562
" />
<path d="M28300 8262
L26000 10562
" />
<path d="M12050 13512
L12550 13512
" />
<path d="M11700 13162
L12050 13512
" />
<path d="M11700 11362
L11700 13162
" />
<path d="M12500 10562
L11700 11362
" />
<path d="M13800 13703
L13491 13703
" />
<path d="M13491 13703
L13300 13512
" />
<path d="M13300 13512
L12550 13512
" />
<path d="M10200 11262
L11875 9587
" />
<path d="M24725 9587
L11875 9587
" />
<path d="M25700 8612
L24725 9587
" />
<path d="M6050 12012
L6800 11262
" />
<path d="M6800 11262
L10200 11262
" />
<path d="M6050 12012
L5550 12012
" />
<path d="M25700 8262
L25700 8612
" />
<path d="M24900 10062
L12200 10062
" />
<path d="M26700 8262
L24900 10062
" />
<path d="M5550 13512
L6350 13512
" />
<path d="M6500 13362
L6350 13512
" />
<path d="M6500 12362
L6500 13362
" />
<path d="M7100 11762
L6500 12362
" />
<path d="M10500 11762
L7100 11762
" />
<path d="M12200 10062
L10500 11762
" />
<path d="M27050 6262
L26300 5512
" />
<path d="M24800 5512
L24300 6012
" />
<path d="M26300 5512
L24800 5512
" />
<path d="M24300 6012
L24300 6262
" />
<path d="M34300 8262
L33300 9262
" />
<path d="M13500 11062
L12550 12012
" />
<path d="M26300 11062
L13500 11062
" />
<path d="M28100 9262
L26300 11062
" />
<path d="M33300 9262
L28100 9262
" />
<path d="M28600 9862
L26900 11562
" />
<path d="M35300 8262
L33700 9862
" />
<path d="M28600 9862
L33700 9862
" />
<path d="M14650 12412
L14650 12512
" />
<path d="M15500 11562
L14650 12412
" />
<path d="M26900 11562
L15500 11562
" />
<path d="M13550 18453
L13809 18453
" />
<path d="M13809 18453
L15200 17062
" />
<path d="M15200 17062
L15200 13062
" />
<path d="M15200 13062
L14650 12512
" />
<path d="M14650 12512
L12550 12512
" />
<path d="M13550 19571
L13550 20981
" />
<path d="M17300 4562
L17300 6262
" />
<path d="M17300 6262
L17300 7862
" />
<path d="M17300 7862
L17700 8262
" />
<path d="M18300 4562
L18300 6262
" />
<path d="M18300 6262
L18300 6762
" />
<path d="M18700 7162
L18700 8262
" />
<path d="M18300 6762
L18700 7162
" />
<path d="M4050 14481
L4081 14481
" />
<path d="M4081 14481
L4550 14012
" />
<path d="M4550 14012
L5550 14012
" />
<path d="M4050 15544
L4081 15544
" />
<path d="M4081 15544
L5550 17012
" />
<path d="M13800 15981
L13800 14821
" />
<path d="M16400 18862
L16400 12962
" />
<path d="M33550 7012
L35550 7012
" />
<path d="M35550 7012
L36550 8012
" />
<path d="M36550 8012
L36550 8762
" />
<path d="M36550 8762
L34475 10837
" />
<path d="M32300 8262
L33550 7012
" />
<path d="M29475 10837
L27650 12662
" />
<path d="M34475 10837
L29475 10837
" />
<path d="M18100 20562
L19100 20562
" />
<path d="M16400 18862
L18100 20562
" />
<path d="M19100 20562
L20050 21512
" />
<path d="M16700 12662
L27650 12662
" />
<path d="M16400 12962
L16700 12662
" />
<path d="M19031 22562
L19031 21531
" />
<path d="M19031 21531
L19050 21512
" />
<path d="M17741 26262
L16831 26262
" />
<path d="M16831 26262
L16800 26294
" />
<path d="M36368 13562
L36368 12494
" />
<path d="M36368 12494
L36400 12462
" />
<path d="M31300 27262
L31300 27462
" />
<path d="M31300 27462
L31900 28062
" />
<path d="M36368 15131
L37000 15762
" />
<path d="M37000 26962
L35900 28062
" />
<path d="M37000 15762
L37000 26962
" />
<path d="M36368 14562
L36368 15131
" />
<path d="M31900 28062
L35900 28062
" />
<path d="M35400 12462
L35400 13594
" />
<path d="M35400 13594
L36368 14562
" />
<path d="M31300 27262
L31300 27062
" />
<path d="M33300 27262
L33300 26862
" />
<path d="M34300 25862
L34300 25362
" />
<path d="M33300 26862
L34300 25862
" />
<path d="M33300 27262
L33300 26962
" />
</g>
<g style="fill:#000000; fill-opacity:0.0; 
stroke:#000000; stroke-width:290; stroke-opacity:1; 
stroke-linecap:round; stroke-linejoin:round;">
<path d="M34400 12462
L34400 14162
" />
<path d="M33292 23162
L32292 24162
" />
<path d="M35700 23162
L33292 23162
" />
<path d="M36200 22662
L35700 23162
" />
<path d="M36200 16762
L36200 22662
" />
<path d="M35500 16062
L36200 16762
" />
<path d="M35500 15262
L35500 16062
" />
<path d="M34400 14162
L35500 15262
" />
<path d="M29100 23562
L30100 23562
" />
<path d="M30100 23562
L30500 23162
" />
<path d="M30500 23162
L31800 23162
" />
<path d="M31800 23162
L32292 23655
" />
<path d="M32292 23655
L32292 24162
" />
<path d="M32300 25362
L32300 24170
" />
<path d="M32300 24170
L32292 24162
" />
<path d="M22050 15512
L22050 14612
" />
<path d="M22900 13762
L26000 13762
" />
<path d="M22050 14612
L22900 13762
" />
<path d="M26000 13762
L26100 13862
" />
<path d="M26100 13862
L26100 13412
" />
<path d="M28300 13062
L28500 13262
" />
<path d="M26450 13062
L28300 13062
" />
<path d="M26100 13412
L26450 13062
" />
</g>
<g style="fill:#000000; fill-opacity:0.0; 
stroke:#000000; stroke-width:314.961; stroke-opacity:1; 
stroke-linecap:round; stroke-linejoin:round;">
<path d="M29100 14062
L29100 13862
" />
<path d="M29100 13862
L28500 13262
" />
<path d="M28500 13262
L30350 11412
" />
<path d="M22050 15512
L22050 15212
" />
<path d="M34400 11412
L34400 12462
" />
<path d="M30800 5262
L32700 5262
" />
<path d="M34650 11412
L34400 11412
" />
<path d="M34400 11412
L30350 11412
" />
<path d="M29300 5262
L30800 5262
" />
<path d="M30800 5262
L34550 5262
" />
<path d="M37050 9012
L34650 11412
" />
<path d="M37050 7762
L37050 9012
" />
<path d="M34550 5262
L37050 7762
" />
</g>
<g style="fill:#000000; fill-opacity:0.0; 
stroke:#000000; stroke-width:216.535; stroke-opacity:1; 
stroke-linecap:round; stroke-linejoin:round;">
<path d="M24731 14512
L25300 14512
" />
<path d="M25450 14662
L27000 14662
" />
<path d="M25300 14512
L25450 14662
" />
<path d="M27000 14062
L27000 14662
" />
<path d="M27000 14662
L27000 15462
" />
<path d="M27000 15462
L27050 15512
" />
<path d="M28031 15531
L28050 15512
" />
<path d="M28100 23562
L28100 23462
" />
<path d="M28100 23462
L30050 21512
" />
<path d="M27100 23562
L27100 23462
" />
<path d="M27100 23462
L29050 21512
" />
<path d="M26100 23562
L26100 23462
" />
<path d="M26100 23462
L28050 21512
" />
<path d="M25100 23562
L25100 23462
" />
<path d="M25100 23462
L27050 21512
" />
<path d="M24100 23562
L24100 23462
" />
<path d="M24100 23462
L26050 21512
" />
<path d="M23100 23562
L23100 23462
" />
<path d="M23100 23462
L25050 21512
" />
<path d="M22100 23562
L22100 23462
" />
<path d="M22100 23462
L24050 21512
" />
<path d="M21100 23562
L21100 23462
" />
<path d="M21100 23462
L23050 21512
" />
<path d="M33300 25362
L33300 25762
" />
<path d="M33300 25762
L32300 26762
" />
<path d="M32300 26762
L32300 27262
" />
<path d="M32300 27262
L32300 26962
" />
<path d="M30050 15512
L30050 14112
" />
<path d="M30050 14112
L30100 14062
" />
<path d="M29500 28162
L29500 27562
" />
<path d="M29800 27262
L30300 27262
" />
<path d="M29500 27562
L29800 27262
" />
<path d="M29925 28162
L29500 28162
" />
<path d="M29500 28162
L29074 28162
" />
</g>
<g style="fill:#FFFFFF; fill-opacity:0.0; 
stroke:#FFFFFF; stroke-width:216.535; stroke-opacity:1; 
stroke-linecap:round; stroke-linejoin:round;">
</g>
<g style="fill:#FFFFFF; fill-opacity:1.0; 
stroke:#FFFFFF; stroke-width:0; stroke-opacity:1; 
stroke-linecap:round; stroke-linejoin:round;">
<circle cx="33050" cy="15513" r="160" /> 
</g>
<g style="fill:#FFFFFF; fill-opacity:1.0; 
stroke:#FFFFFF; stroke-width:39.3701; stroke-opacity:1; 
stroke-linecap:round; stroke-linejoin:round;">
</g>
<g style="fill:#FFFFFF; fill-opacity:1.0; 
stroke:#FFFFFF; stroke-width:0; stroke-opacity:1; 
stroke-linecap:round; stroke-linejoin:round;">
<circle cx="32050" cy="15513" r="160" /> 
</g>
<g style="fill:#FFFFFF; fill-opacity:1.0; 
stroke:#FFFFFF; stroke-width:39.3701; stroke-opacity:1; 
stroke-linecap:round; stroke-linejoin:round;">
</g>
<g style="fill:#FFFFFF; fill-opacity:1.0; 
stroke:#FFFFFF; stroke-width:0; stroke-opacity:1; 
stroke-linecap:round; stroke-linejoin:round;">
<circle cx="31050" cy="15513" r="160" /> 
</g>
<g style="fill:#FFFFFF; fill-opacity:1.0; 
stroke:#FFFFFF; stroke-width:39.3701; stroke-opacity:1; 
stroke-linecap:round; stroke-linejoin:round;">
</g>
<g style="fill:#FFFFFF; fill-opacity:1.0; 
stroke:#FFFFFF; stroke-width:0; stroke-opacity:1; 
stroke-linecap:round; stroke-linejoin:round;">
<circle cx="30050" cy="15513" r="160" /> 
</g>
<g style="fill:#FFFFFF; fill-opacity:1.0; 
stroke:#FFFFFF; stroke-width:39.3701; stroke-opacity:1; 
stroke-linecap:round; stroke-linejoin:round;">
</g>
<g style="fill:#FFFFFF; fill-opacity:1.0; 
stroke:#FFFFFF; stroke-width:0; stroke-opacity:1; 
stroke-linecap:round; stroke-linejoin:round;">
<circle cx="29050" cy="15513" r="160" /> 
</g>
<g style="fill:#FFFFFF; fill-opacity:1.0; 
stroke:#FFFFFF; stroke-width:39.3701; stroke-opacity:1; 
stroke-linecap:round; stroke-linejoin:round;">
</g>
<g style="fill:#FFFFFF; fill-opacity:1.0; 
stroke:#FFFFFF; stroke-width:0; stroke-opacity:1; 
stroke-linecap:round; stroke-linejoin:round;">
<circle cx="28050" cy="15513" r="160" /> 
</g>
<g style="fill:#FFFFFF; fill-opacity:1.0; 
stroke:#FFFFFF; stroke-width:39.3701; stroke-opacity:1; 
stroke-linecap:round; stroke-linejoin:round;">
</g>
<g style="fill:#FFFFFF; fill-opacity:1.0; 
stroke:#FFFFFF; stroke-width:0; stroke-opacity:1; 
stroke-linecap:round; stroke-linejoin:round;">
<circle cx="27050" cy="15513" r="160" /> 
</g>
<g style="fill:#FFFFFF; fill-opacity:1.0; 
stroke:#FFFFFF; stroke-width:39.3701; stroke-opacity:1; 
stroke-linecap:round; stroke-linejoin:round;">
</g>
<g style="fill:#FFFFFF; fill-opacity:1.0; 
stroke:#FFFFFF; stroke-width:0; stroke-opacity:1; 
stroke-linecap:round; stroke-linejoin:round;">
<circle cx="26050" cy="15513" r="160" /> 
</g>
<g style="fill:#FFFFFF; fill-opacity:1.0; 
stroke:#FFFFFF; stroke-width:39.3701; stroke-opacity:1; 
stroke-linecap:round; stroke-linejoin:round;">
</g>
<g style="fill:#FFFFFF; fill-opacity:1.0; 
stroke:#FFFFFF; stroke-width:0; stroke-opacity:1; 
stroke-linecap:round; stroke-linejoin:round;">
<circle cx="25050" cy="15513" r="160" /> 
</g>
<g style="fill:#FFFFFF; fill-opacity:1.0; 
stroke:#FFFFFF; stroke-width:39.3701; stroke-opacity:1; 
stroke-linecap:round; stroke-linejoin:round;">
</g>
<g style="fill:#FFFFFF; fill-opacity:1.0; 
stroke:#FFFFFF; stroke-width:0; stroke-opacity:1; 
stroke-linecap:round; stroke-linejoin:round;">
<circle cx="24050" cy="15513" r="160" /> 
</g>
<g style="fill:#FFFFFF; fill-opacity:1.0; 
stroke:#FFFFFF; stroke-width:39.3701; stroke-opacity:1; 
stroke-linecap:round; stroke-linejoin:round;">
</g>
<g style="fill:#FFFFFF; fill-opacity:1.0; 
stroke:#FFFFFF; stroke-width:0; stroke-opacity:1; 
stroke-linecap:round; stroke-linejoin:round;">
<circle cx="23050" cy="15513" r="160" /> 
</g>
<g style="fill:#FFFFFF; fill-opacity:1.0; 
stroke:#FFFFFF; stroke-width:39.3701; stroke-opacity:1; 
stroke-linecap:round; stroke-linejoin:round;">
</g>
<g style="fill:#FFFFFF; fill-opacity:1.0; 
stroke:#FFFFFF; stroke-width:0; stroke-opacity:1; 
stroke-linecap:round; stroke-linejoin:round;">
<circle cx="22050" cy="15513" r="160" /> 
</g>
<g style="fill:#FFFFFF; fill-opacity:1.0; 
stroke:#FFFFFF; stroke-width:39.3701; stroke-opacity:1; 
stroke-linecap:round; stroke-linejoin:round;">
</g>
<g style="fill:#FFFFFF; fill-opacity:1.0; 
stroke:#FFFFFF; stroke-width:0; stroke-opacity:1; 
stroke-linecap:round; stroke-linejoin:round;">
<circle cx="21050" cy="15513" r="160" /> 
</g>
<g style="fill:#FFFFFF; fill-opacity:1.0; 
stroke:#FFFFFF; stroke-width:39.3701; stroke-opacity:1; 
stroke-linecap:round; stroke-linejoin:round;">
</g>
<g style="fill:#FFFFFF; fill-opacity:1.0; 
stroke:#FFFFFF; stroke-width:0; stroke-opacity:1; 
stroke-linecap:round; stroke-linejoin:round;">
<circle cx="20050" cy="15513" r="160" /> 
</g>
<g style="fill:#FFFFFF; fill-opacity:1.0; 
stroke:#FFFFFF; stroke-width:39.3701; stroke-opacity:1; 
stroke-linecap:round; stroke-linejoin:round;">
</g>
<g style="fill:#FFFFFF; fill-opacity:1.0; 
stroke:#FFFFFF; stroke-width:0; stroke-opacity:1; 
stroke-linecap:round; stroke-linejoin:round;">
<circle cx="19050" cy="15513" r="160" /> 
</g>
<g style="fill:#FFFFFF; fill-opacity:1.0; 
stroke:#FFFFFF; stroke-width:39.3701; stroke-opacity:1; 
stroke-linecap:round; stroke-linejoin:round;">
</g>
<g style="fill:#FFFFFF; fill-opacity:1.0; 
stroke:#FFFFFF; stroke-width:0; stroke-opacity:1; 
stroke-linecap:round; stroke-linejoin:round;">
<circle cx="19050" cy="21513" r="160" /> 
</g>
<g style="fill:#FFFFFF; fill-opacity:1.0; 
stroke:#FFFFFF; stroke-width:39.3701; stroke-opacity:1; 
stroke-linecap:round; stroke-linejoin:round;">
</g>
<g style="fill:#FFFFFF; fill-opacity:1.0; 
stroke:#FFFFFF; stroke-width:0; stroke-opacity:1; 
stroke-linecap:round; stroke-linejoin:round;">
<circle cx="20050" cy="21513" r="160" /> 
</g>
<g style="fill:#FFFFFF; fill-opacity:1.0; 
stroke:#FFFFFF; stroke-width:39.3701; stroke-opacity:1; 
stroke-linecap:round; stroke-linejoin:round;">
</g>
<g style="fill:#FFFFFF; fill-opacity:1.0; 
stroke:#FFFFFF; stroke-width:0; stroke-opacity:1; 
stroke-linecap:round; stroke-linejoin:round;">
<circle cx="21050" cy="21513" r="160" /> 
</g>
<g style="fill:#FFFFFF; fill-opacity:1.0; 
stroke:#FFFFFF; stroke-width:39.3701; stroke-opacity:1; 
stroke-linecap:round; stroke-linejoin:round;">
</g>
<g style="fill:#FFFFFF; fill-opacity:1.0; 
stroke:#FFFFFF; stroke-width:0; stroke-opacity:1; 
stroke-linecap:round; stroke-linejoin:round;">
<circle cx="22050" cy="21513" r="160" /> 
</g>
<g style="fill:#FFFFFF; fill-opacity:1.0; 
stroke:#FFFFFF; stroke-width:39.3701; stroke-opacity:1; 
stroke-linecap:round; stroke-linejoin:round;">
</g>
<g style="fill:#FFFFFF; fill-opacity:1.0; 
stroke:#FFFFFF; stroke-width:0; stroke-opacity:1; 
stroke-linecap:round; stroke-linejoin:round;">
<circle cx="23050" cy="21513" r="160" /> 
</g>
<g style="fill:#FFFFFF; fill-opacity:1.0; 
stroke:#FFFFFF; stroke-width:39.3701; stroke-opacity:1; 
stroke-linecap:round; stroke-linejoin:round;">
</g>
<g style="fill:#FFFFFF; fill-opacity:1.0; 
stroke:#FFFFFF; stroke-width:0; stroke-opacity:1; 
stroke-linecap:round; stroke-linejoin:round;">
<circle cx="24050" cy="21513" r="160" /> 
</g>
<g style="fill:#FFFFFF; fill-opacity:1.0; 
stroke:#FFFFFF; stroke-width:39.3701; stroke-opacity:1; 
stroke-linecap:round; stroke-linejoin:round;">
</g>
<g style="fill:#FFFFFF; fill-opacity:1.0; 
stroke:#FFFFFF; stroke-width:0; stroke-opacity:1; 
stroke-linecap:round; stroke-linejoin:round;">
<circle cx="25050" cy="21513" r="160" /> 
</g>
<g style="fill:#FFFFFF; fill-opacity:1.0; 
stroke:#FFFFFF; stroke-width:39.3701; stroke-opacity:1; 
stroke-linecap:round; stroke-linejoin:round;">
</g>
<g style="fill:#FFFFFF; fill-opacity:1.0; 
stroke:#FFFFFF; stroke-width:0; stroke-opacity:1; 
stroke-linecap:round; stroke-linejoin:round;">
<circle cx="26050" cy="21513" r="160" /> 
</g>
<g style="fill:#FFFFFF; fill-opacity:1.0; 
stroke:#FFFFFF; stroke-width:39.3701; stroke-opacity:1; 
stroke-linecap:round; stroke-linejoin:round;">
</g>
<g style="fill:#FFFFFF; fill-opacity:1.0; 
stroke:#FFFFFF; stroke-width:0; stroke-opacity:1; 
stroke-linecap:round; stroke-linejoin:round;">
<circle cx="27050" cy="21513" r="160" /> 
</g>
<g style="fill:#FFFFFF; fill-opacity:1.0; 
stroke:#FFFFFF; stroke-width:39.3701; stroke-opacity:1; 
stroke-linecap:round; stroke-linejoin:round;">
</g>
<g style="fill:#FFFFFF; fill-opacity:1.0; 
stroke:#FFFFFF; stroke-width:0; stroke-opacity:1; 
stroke-linecap:round; stroke-linejoin:round;">
<circle cx="28050" cy="21513" r="160" /> 
</g>
<g style="fill:#FFFFFF; fill-opacity:1.0; 
stroke:#FFFFFF; stroke-width:39.3701; stroke-opacity:1; 
stroke-linecap:round; stroke-linejoin:round;">
</g>
<g style="fill:#FFFFFF; fill-opacity:1.0; 
stroke:#FFFFFF; stroke-width:0; stroke-opacity:1; 
stroke-linecap:round; stroke-linejoin:round;">
<circle cx="29050" cy="21513" r="160" /> 
</g>
<g style="fill:#FFFFFF; fill-opacity:1.0; 
stroke:#FFFFFF; stroke-width:39.3701; stroke-opacity:1; 
stroke-linecap:round; stroke-linejoin:round;">
</g>
<g style="fill:#FFFFFF; fill-opacity:1.0; 
stroke:#FFFFFF; stroke-width:0; stroke-opacity:1; 
stroke-linecap:round; stroke-linejoin:round;">
<circle cx="30050" cy="21513" r="160" /> 
</g>
<g style="fill:#FFFFFF; fill-opacity:1.0; 
stroke:#FFFFFF; stroke-width:39.3701; stroke-opacity:1; 
stroke-linecap:round; stroke-linejoin:round;">
</g>
<g style="fill:#FFFFFF; fill-opacity:1.0; 
stroke:#FFFFFF; stroke-width:0; stroke-opacity:1; 
stroke-linecap:round; stroke-linejoin:round;">
<circle cx="31050" cy="21513" r="160" /> 
</g>
<g style="fill:#FFFFFF; fill-opacity:1.0; 
stroke:#FFFFFF; stroke-width:39.3701; stroke-opacity:1; 
stroke-linecap:round; stroke-linejoin:round;">
</g>
<g style="fill:#FFFFFF; fill-opacity:1.0; 
stroke:#FFFFFF; stroke-width:0; stroke-opacity:1; 
stroke-linecap:round; stroke-linejoin:round;">
<circle cx="32050" cy="21513" r="160" /> 
</g>
<g style="fill:#FFFFFF; fill-opacity:1.0; 
stroke:#FFFFFF; stroke-width:39.3701; stroke-opacity:1; 
stroke-linecap:round; stroke-linejoin:round;">
</g>
<g style="fill:#FFFFFF; fill-opacity:1.0; 
stroke:#FFFFFF; stroke-width:0; stroke-opacity:1; 
stroke-linecap:round; stroke-linejoin:round;">
<circle cx="33050" cy="21513" r="160" /> 
</g>
<g style="fill:#FFFFFF; fill-opacity:1.0; 
stroke:#FFFFFF; stroke-width:39.3701; stroke-opacity:1; 
stroke-linecap:round; stroke-linejoin:round;">
</g>
<g style="fill:#FFFFFF; fill-opacity:1.0; 
stroke:#FFFFFF; stroke-width:0; stroke-opacity:1; 
stroke-linecap:round; stroke-linejoin:round;">
<circle cx="21300" cy="27263" r="200" /> 
</g>
<g style="fill:#FFFFFF; fill-opacity:1.0; 
stroke:#FFFFFF; stroke-width:39.3701; stroke-opacity:1; 
stroke-linecap:round; stroke-linejoin:round;">
</g>
<g style="fill:#FFFFFF; fill-opacity:1.0; 
stroke:#FFFFFF; stroke-width:0; stroke-opacity:1; 
stroke-linecap:round; stroke-linejoin:round;">
<circle cx="22300" cy="27263" r="200" /> 
</g>
<g style="fill:#FFFFFF; fill-opacity:1.0; 
stroke:#FFFFFF; stroke-width:39.3701; stroke-opacity:1; 
stroke-linecap:round; stroke-linejoin:round;">
</g>
<g style="fill:#FFFFFF; fill-opacity:1.0; 
stroke:#FFFFFF; stroke-width:0; stroke-opacity:1; 
stroke-linecap:round; stroke-linejoin:round;">
<circle cx="23300" cy="27263" r="200" /> 
</g>
<g style="fill:#FFFFFF; fill-opacity:1.0; 
stroke:#FFFFFF; stroke-width:39.3701; stroke-opacity:1; 
stroke-linecap:round; stroke-linejoin:round;">
</g>
<g style="fill:#FFFFFF; fill-opacity:1.0; 
stroke:#FFFFFF; stroke-width:0; stroke-opacity:1; 
stroke-linecap:round; stroke-linejoin:round;">
<circle cx="24300" cy="27263" r="200" /> 
</g>
<g style="fill:#FFFFFF; fill-opacity:1.0; 
stroke:#FFFFFF; stroke-width:39.3701; stroke-opacity:1; 
stroke-linecap:round; stroke-linejoin:round;">
</g>
<g style="fill:#FFFFFF; fill-opacity:1.0; 
stroke:#FFFFFF; stroke-width:0; stroke-opacity:1; 
stroke-linecap:round; stroke-linejoin:round;">
<circle cx="25300" cy="27263" r="200" /> 
</g>
<g style="fill:#FFFFFF; fill-opacity:1.0; 
stroke:#FFFFFF; stroke-width:39.3701; stroke-opacity:1; 
stroke-linecap:round; stroke-linejoin:round;">
</g>
<g style="fill:#FFFFFF; fill-opacity:1.0; 
stroke:#FFFFFF; stroke-width:0; stroke-opacity:1; 
stroke-linecap:round; stroke-linejoin:round;">
<circle cx="26300" cy="27263" r="200" /> 
</g>
<g style="fill:#FFFFFF; fill-opacity:1.0; 
stroke:#FFFFFF; stroke-width:39.3701; stroke-opacity:1; 
stroke-linecap:round; stroke-linejoin:round;">
</g>
<g style="fill:#FFFFFF; fill-opacity:1.0; 
stroke:#FFFFFF; stroke-width:0; stroke-opacity:1; 
stroke-linecap:round; stroke-linejoin:round;">
<circle cx="27300" cy="27263" r="200" /> 
</g>
<g style="fill:#FFFFFF; fill-opacity:1.0; 
stroke:#FFFFFF; stroke-width:39.3701; stroke-opacity:1; 
stroke-linecap:round; stroke-linejoin:round;">
</g>
<g style="fill:#FFFFFF; fill-opacity:1.0; 
stroke:#FFFFFF; stroke-width:0; stroke-opacity:1; 
stroke-linecap:round; stroke-linejoin:round;">
<circle cx="28300" cy="27263" r="200" /> 
</g>
<g style="fill:#FFFFFF; fill-opacity:1.0; 
stroke:#FFFFFF; stroke-width:39.3701; stroke-opacity:1; 
stroke-linecap:round; stroke-linejoin:round;">
</g>
<g style="fill:#FFFFFF; fill-opacity:1.0; 
stroke:#FFFFFF; stroke-width:0; stroke-opacity:1; 
stroke-linecap:round; stroke-linejoin:round;">
<circle cx="30300" cy="27263" r="200" /> 
</g>
<g style="fill:#FFFFFF; fill-opacity:1.0; 
stroke:#FFFFFF; stroke-width:39.3701; stroke-opacity:1; 
stroke-linecap:round; stroke-linejoin:round;">
</g>
<g style="fill:#FFFFFF; fill-opacity:1.0; 
stroke:#FFFFFF; stroke-width:0; stroke-opacity:1; 
stroke-linecap:round; stroke-linejoin:round;">
<circle cx="31300" cy="27263" r="200" /> 
</g>
<g style="fill:#FFFFFF; fill-opacity:1.0; 
stroke:#FFFFFF; stroke-width:39.3701; stroke-opacity:1; 
stroke-linecap:round; stroke-linejoin:round;">
</g>
<g style="fill:#FFFFFF; fill-opacity:1.0; 
stroke:#FFFFFF; stroke-width:0; stroke-opacity:1; 
stroke-linecap:round; stroke-linejoin:round;">
<circle cx="32300" cy="27263" r="200" /> 
</g>
<g style="fill:#FFFFFF; fill-opacity:1.0; 
stroke:#FFFFFF; stroke-width:39.3701; stroke-opacity:1; 
stroke-linecap:round; stroke-linejoin:round;">
</g>
<g style="fill:#FFFFFF; fill-opacity:1.0; 
stroke:#FFFFFF; stroke-width:0; stroke-opacity:1; 
stroke-linecap:round; stroke-linejoin:round;">
<circle cx="33300" cy="27263" r="200" /> 
</g>
<g style="fill:#FFFFFF; fill-opacity:1.0; 
stroke:#FFFFFF; stroke-width:39.3701; stroke-opacity:1; 
stroke-linecap:round; stroke-linejoin:round;">
</g>
<g style="fill:#FFFFFF; fill-opacity:1.0; 
stroke:#FFFFFF; stroke-width:0; stroke-opacity:1; 
stroke-linecap:round; stroke-linejoin:round;">
<circle cx="34300" cy="27263" r="200" /> 
</g>
<g style="fill:#FFFFFF; fill-opacity:1.0; 
stroke:#FFFFFF; stroke-width:39.3701; stroke-opacity:1; 
stroke-linecap:round; stroke-linejoin:round;">
</g>
<g style="fill:#FFFFFF; fill-opacity:1.0; 
stroke:#FFFFFF; stroke-width:0; stroke-opacity:1; 
stroke-linecap:round; stroke-linejoin:round;">
<circle cx="35300" cy="27263" r="200" /> 
</g>
<g style="fill:#FFFFFF; fill-opacity:1.0; 
stroke:#FFFFFF; stroke-width:39.3701; stroke-opacity:1; 
stroke-linecap:round; stroke-linejoin:round;">
</g>
<g style="fill:#FFFFFF; fill-opacity:1.0; 
stroke:#FFFFFF; stroke-width:0; stroke-opacity:1; 
stroke-linecap:round; stroke-linejoin:round;">
<circle cx="17700" cy="8262.99" r="200" /> 
</g>
<g style="fill:#FFFFFF; fill-opacity:1.0; 
stroke:#FFFFFF; stroke-width:39.3701; stroke-opacity:1; 
stroke-linecap:round; stroke-linejoin:round;">
</g>
<g style="fill:#FFFFFF; fill-opacity:1.0; 
stroke:#FFFFFF; stroke-width:0; stroke-opacity:1; 
stroke-linecap:round; stroke-linejoin:round;">
<circle cx="18700" cy="8262.99" r="200" /> 
</g>
<g style="fill:#FFFFFF; fill-opacity:1.0; 
stroke:#FFFFFF; stroke-width:39.3701; stroke-opacity:1; 
stroke-linecap:round; stroke-linejoin:round;">
</g>
<g style="fill:#FFFFFF; fill-opacity:1.0; 
stroke:#FFFFFF; stroke-width:0; stroke-opacity:1; 
stroke-linecap:round; stroke-linejoin:round;">
<circle cx="19700" cy="8262.99" r="200" /> 
</g>
<g style="fill:#FFFFFF; fill-opacity:1.0; 
stroke:#FFFFFF; stroke-width:39.3701; stroke-opacity:1; 
stroke-linecap:round; stroke-linejoin:round;">
</g>
<g style="fill:#FFFFFF; fill-opacity:1.0; 
stroke:#FFFFFF; stroke-width:0; stroke-opacity:1; 
stroke-linecap:round; stroke-linejoin:round;">
<circle cx="20700" cy="8262.99" r="200" /> 
</g>
<g style="fill:#FFFFFF; fill-opacity:1.0; 
stroke:#FFFFFF; stroke-width:39.3701; stroke-opacity:1; 
stroke-linecap:round; stroke-linejoin:round;">
</g>
<g style="fill:#FFFFFF; fill-opacity:1.0; 
stroke:#FFFFFF; stroke-width:0; stroke-opacity:1; 
stroke-linecap:round; stroke-linejoin:round;">
<circle cx="21700" cy="8262.99" r="200" /> 
</g>
<g style="fill:#FFFFFF; fill-opacity:1.0; 
stroke:#FFFFFF; stroke-width:39.3701; stroke-opacity:1; 
stroke-linecap:round; stroke-linejoin:round;">
</g>
<g style="fill:#FFFFFF; fill-opacity:1.0; 
stroke:#FFFFFF; stroke-width:0; stroke-opacity:1; 
stroke-linecap:round; stroke-linejoin:round;">
<circle cx="22700" cy="8262.99" r="200" /> 
</g>
<g style="fill:#FFFFFF; fill-opacity:1.0; 
stroke:#FFFFFF; stroke-width:39.3701; stroke-opacity:1; 
stroke-linecap:round; stroke-linejoin:round;">
</g>
<g style="fill:#FFFFFF; fill-opacity:1.0; 
stroke:#FFFFFF; stroke-width:0; stroke-opacity:1; 
stroke-linecap:round; stroke-linejoin:round;">
<circle cx="23700" cy="8262.99" r="200" /> 
</g>
<g style="fill:#FFFFFF; fill-opacity:1.0; 
stroke:#FFFFFF; stroke-width:39.3701; stroke-opacity:1; 
stroke-linecap:round; stroke-linejoin:round;">
</g>
<g style="fill:#FFFFFF; fill-opacity:1.0; 
stroke:#FFFFFF; stroke-width:0; stroke-opacity:1; 
stroke-linecap:round; stroke-linejoin:round;">
<circle cx="24700" cy="8262.99" r="200" /> 
</g>
<g style="fill:#FFFFFF; fill-opacity:1.0; 
stroke:#FFFFFF; stroke-width:39.3701; stroke-opacity:1; 
stroke-linecap:round; stroke-linejoin:round;">
</g>
<g style="fill:#FFFFFF; fill-opacity:1.0; 
stroke:#FFFFFF; stroke-width:0; stroke-opacity:1; 
stroke-linecap:round; stroke-linejoin:round;">
<circle cx="25700" cy="8262.99" r="200" /> 
</g>
<g style="fill:#FFFFFF; fill-opacity:1.0; 
stroke:#FFFFFF; stroke-width:39.3701; stroke-opacity:1; 
stroke-linecap:round; stroke-linejoin:round;">
</g>
<g style="fill:#FFFFFF; fill-opacity:1.0; 
stroke:#FFFFFF; stroke-width:0; stroke-opacity:1; 
stroke-linecap:round; stroke-linejoin:round;">
<circle cx="26700" cy="8262.99" r="200" /> 
</g>
<g style="fill:#FFFFFF; fill-opacity:1.0; 
stroke:#FFFFFF; stroke-width:39.3701; stroke-opacity:1; 
stroke-linecap:round; stroke-linejoin:round;">
</g>
<g style="fill:#FFFFFF; fill-opacity:1.0; 
stroke:#FFFFFF; stroke-width:0; stroke-opacity:1; 
stroke-linecap:round; stroke-linejoin:round;">
<circle cx="28300" cy="8262.99" r="200" /> 
</g>
<g style="fill:#FFFFFF; fill-opacity:1.0; 
stroke:#FFFFFF; stroke-width:39.3701; stroke-opacity:1; 
stroke-linecap:round; stroke-linejoin:round;">
</g>
<g style="fill:#FFFFFF; fill-opacity:1.0; 
stroke:#FFFFFF; stroke-width:0; stroke-opacity:1; 
stroke-linecap:round; stroke-linejoin:round;">
<circle cx="29300" cy="8262.99" r="200" /> 
</g>
<g style="fill:#FFFFFF; fill-opacity:1.0; 
stroke:#FFFFFF; stroke-width:39.3701; stroke-opacity:1; 
stroke-linecap:round; stroke-linejoin:round;">
</g>
<g style="fill:#FFFFFF; fill-opacity:1.0; 
stroke:#FFFFFF; stroke-width:0; stroke-opacity:1; 
stroke-linecap:round; stroke-linejoin:round;">
<circle cx="30300" cy="8262.99" r="200" /> 
</g>
<g style="fill:#FFFFFF; fill-opacity:1.0; 
stroke:#FFFFFF; stroke-width:39.3701; stroke-opacity:1; 
stroke-linecap:round; stroke-linejoin:round;">
</g>
<g style="fill:#FFFFFF; fill-opacity:1.0; 
stroke:#FFFFFF; stroke-width:0; stroke-opacity:1; 
stroke-linecap:round; stroke-linejoin:round;">
<circle cx="31300" cy="8262.99" r="200" /> 
</g>
<g style="fill:#FFFFFF; fill-opacity:1.0; 
stroke:#FFFFFF; stroke-width:39.3701; stroke-opacity:1; 
stroke-linecap:round; stroke-linejoin:round;">
</g>
<g style="fill:#FFFFFF; fill-opacity:1.0; 
stroke:#FFFFFF; stroke-width:0; stroke-opacity:1; 
stroke-linecap:round; stroke-linejoin:round;">
<circle cx="32300" cy="8262.99" r="200" /> 
</g>
<g style="fill:#FFFFFF; fill-opacity:1.0; 
stroke:#FFFFFF; stroke-width:39.3701; stroke-opacity:1; 
stroke-linecap:round; stroke-linejoin:round;">
</g>
<g style="fill:#FFFFFF; fill-opacity:1.0; 
stroke:#FFFFFF; stroke-width:0; stroke-opacity:1; 
stroke-linecap:round; stroke-linejoin:round;">
<circle cx="33300" cy="8262.99" r="200" /> 
</g>
<g style="fill:#FFFFFF; fill-opacity:1.0; 
stroke:#FFFFFF; stroke-width:39.3701; stroke-opacity:1; 
stroke-linecap:round; stroke-linejoin:round;">
</g>
<g style="fill:#FFFFFF; fill-opacity:1.0; 
stroke:#FFFFFF; stroke-width:0; stroke-opacity:1; 
stroke-linecap:round; stroke-linejoin:round;">
<circle cx="34300" cy="8262.99" r="200" /> 
</g>
<g style="fill:#FFFFFF; fill-opacity:1.0; 
stroke:#FFFFFF; stroke-width:39.3701; stroke-opacity:1; 
stroke-linecap:round; stroke-linejoin:round;">
</g>
<g style="fill:#FFFFFF; fill-opacity:1.0; 
stroke:#FFFFFF; stroke-width:0; stroke-opacity:1; 
stroke-linecap:round; stroke-linejoin:round;">
<circle cx="35300" cy="8262.99" r="200" /> 
</g>
<g style="fill:#FFFFFF; fill-opacity:1.0; 
stroke:#FFFFFF; stroke-width:39.3701; stroke-opacity:1; 
stroke-linecap:round; stroke-linejoin:round;">
</g>
<g style="fill:#FFFFFF; fill-opacity:1.0; 
stroke:#FFFFFF; stroke-width:0; stroke-opacity:1; 
stroke-linecap:round; stroke-linejoin:round;">
<circle cx="29300" cy="6262.99" r="200" /> 
</g>
<g style="fill:#FFFFFF; fill-opacity:1.0; 
stroke:#FFFFFF; stroke-width:39.3701; stroke-opacity:1; 
stroke-linecap:round; stroke-linejoin:round;">
</g>
<g style="fill:#FFFFFF; fill-opacity:1.0; 
stroke:#FFFFFF; stroke-width:0; stroke-opacity:1; 
stroke-linecap:round; stroke-linejoin:round;">
<circle cx="29300" cy="5262.99" r="200" /> 
</g>
<g style="fill:#FFFFFF; fill-opacity:1.0; 
stroke:#FFFFFF; stroke-width:39.3701; stroke-opacity:1; 
stroke-linecap:round; stroke-linejoin:round;">
</g>
<g style="fill:#FFFFFF; fill-opacity:1.0; 
stroke:#FFFFFF; stroke-width:0; stroke-opacity:1; 
stroke-linecap:round; stroke-linejoin:round;">
<circle cx="29300" cy="4262.99" r="200" /> 
</g>
<g style="fill:#FFFFFF; fill-opacity:1.0; 
stroke:#FFFFFF; stroke-width:39.3701; stroke-opacity:1; 
stroke-linecap:round; stroke-linejoin:round;">
</g>
<g style="fill:#FFFFFF; fill-opacity:1.0; 
stroke:#FFFFFF; stroke-width:0; stroke-opacity:1; 
stroke-linecap:round; stroke-linejoin:round;">
<circle cx="30800" cy="6262.99" r="200" /> 
</g>
<g style="fill:#FFFFFF; fill-opacity:1.0; 
stroke:#FFFFFF; stroke-width:39.3701; stroke-opacity:1; 
stroke-linecap:round; stroke-linejoin:round;">
</g>
<g style="fill:#FFFFFF; fill-opacity:1.0; 
stroke:#FFFFFF; stroke-width:0; stroke-opacity:1; 
stroke-linecap:round; stroke-linejoin:round;">
<circle cx="30800" cy="5262.99" r="200" /> 
</g>
<g style="fill:#FFFFFF; fill-opacity:1.0; 
stroke:#FFFFFF; stroke-width:39.3701; stroke-opacity:1; 
stroke-linecap:round; stroke-linejoin:round;">
</g>
<g style="fill:#FFFFFF; fill-opacity:1.0; 
stroke:#FFFFFF; stroke-width:0; stroke-opacity:1; 
stroke-linecap:round; stroke-linejoin:round;">
<circle cx="30800" cy="4262.99" r="200" /> 
</g>
<g style="fill:#FFFFFF; fill-opacity:1.0; 
stroke:#FFFFFF; stroke-width:39.3701; stroke-opacity:1; 
stroke-linecap:round; stroke-linejoin:round;">
</g>
<g style="fill:#FFFFFF; fill-opacity:1.0; 
stroke:#FFFFFF; stroke-width:0; stroke-opacity:1; 
stroke-linecap:round; stroke-linejoin:round;">
<circle cx="17300" cy="6262.99" r="200" /> 
</g>
<g style="fill:#FFFFFF; fill-opacity:1.0; 
stroke:#FFFFFF; stroke-width:39.3701; stroke-opacity:1; 
stroke-linecap:round; stroke-linejoin:round;">
</g>
<g style="fill:#FFFFFF; fill-opacity:1.0; 
stroke:#FFFFFF; stroke-width:0; stroke-opacity:1; 
stroke-linecap:round; stroke-linejoin:round;">
<circle cx="18300" cy="6262.99" r="200" /> 
</g>
<g style="fill:#FFFFFF; fill-opacity:1.0; 
stroke:#FFFFFF; stroke-width:39.3701; stroke-opacity:1; 
stroke-linecap:round; stroke-linejoin:round;">
</g>
<g style="fill:#FFFFFF; fill-opacity:1.0; 
stroke:#FFFFFF; stroke-width:0; stroke-opacity:1; 
stroke-linecap:round; stroke-linejoin:round;">
<circle cx="19300" cy="6262.99" r="200" /> 
</g>
<g style="fill:#FFFFFF; fill-opacity:1.0; 
stroke:#FFFFFF; stroke-width:39.3701; stroke-opacity:1; 
stroke-linecap:round; stroke-linejoin:round;">
</g>
<g style="fill:#FFFFFF; fill-opacity:1.0; 
stroke:#FFFFFF; stroke-width:0; stroke-opacity:1; 
stroke-linecap:round; stroke-linejoin:round;">
<circle cx="20300" cy="6262.99" r="200" /> 
</g>
<g style="fill:#FFFFFF; fill-opacity:1.0; 
stroke:#FFFFFF; stroke-width:39.3701; stroke-opacity:1; 
stroke-linecap:round; stroke-linejoin:round;">
</g>
<g style="fill:#FFFFFF; fill-opacity:1.0; 
stroke:#FFFFFF; stroke-width:0; stroke-opacity:1; 
stroke-linecap:round; stroke-linejoin:round;">
<circle cx="21300" cy="6262.99" r="200" /> 
</g>
<g style="fill:#FFFFFF; fill-opacity:1.0; 
stroke:#FFFFFF; stroke-width:39.3701; stroke-opacity:1; 
stroke-linecap:round; stroke-linejoin:round;">
</g>
<g style="fill:#FFFFFF; fill-opacity:1.0; 
stroke:#FFFFFF; stroke-width:0; stroke-opacity:1; 
stroke-linecap:round; stroke-linejoin:round;">
<circle cx="22300" cy="6262.99" r="200" /> 
</g>
<g style="fill:#FFFFFF; fill-opacity:1.0; 
stroke:#FFFFFF; stroke-width:39.3701; stroke-opacity:1; 
stroke-linecap:round; stroke-linejoin:round;">
</g>
<g style="fill:#FFFFFF; fill-opacity:1.0; 
stroke:#FFFFFF; stroke-width:0; stroke-opacity:1; 
stroke-linecap:round; stroke-linejoin:round;">
<circle cx="23300" cy="6262.99" r="200" /> 
</g>
<g style="fill:#FFFFFF; fill-opacity:1.0; 
stroke:#FFFFFF; stroke-width:39.3701; stroke-opacity:1; 
stroke-linecap:round; stroke-linejoin:round;">
</g>
<g style="fill:#FFFFFF; fill-opacity:1.0; 
stroke:#FFFFFF; stroke-width:0; stroke-opacity:1; 
stroke-linecap:round; stroke-linejoin:round;">
<circle cx="24300" cy="6262.99" r="200" /> 
</g>
<g style="fill:#FFFFFF; fill-opacity:1.0; 
stroke:#FFFFFF; stroke-width:39.3701; stroke-opacity:1; 
stroke-linecap:round; stroke-linejoin:round;">
</g>
<g style="fill:#FFFFFF; fill-opacity:1.0; 
stroke:#FFFFFF; stroke-width:0; stroke-opacity:1; 
stroke-linecap:round; stroke-linejoin:round;">
<circle cx="25300" cy="6262.99" r="200" /> 
</g>
<g style="fill:#FFFFFF; fill-opacity:1.0; 
stroke:#FFFFFF; stroke-width:39.3701; stroke-opacity:1; 
stroke-linecap:round; stroke-linejoin:round;">
</g>
<g style="fill:#FFFFFF; fill-opacity:1.0; 
stroke:#FFFFFF; stroke-width:0; stroke-opacity:1; 
stroke-linecap:round; stroke-linejoin:round;">
<circle cx="27050" cy="6262.99" r="200" /> 
</g>
<g style="fill:#FFFFFF; fill-opacity:1.0; 
stroke:#FFFFFF; stroke-width:39.3701; stroke-opacity:1; 
stroke-linecap:round; stroke-linejoin:round;">
</g>
<g style="fill:#FFFFFF; fill-opacity:1.0; 
stroke:#FFFFFF; stroke-width:0; stroke-opacity:1; 
stroke-linecap:round; stroke-linejoin:round;">
<circle cx="32700" cy="6262.99" r="200" /> 
</g>
<g style="fill:#FFFFFF; fill-opacity:1.0; 
stroke:#FFFFFF; stroke-width:39.3701; stroke-opacity:1; 
stroke-linecap:round; stroke-linejoin:round;">
</g>
<g style="fill:#FFFFFF; fill-opacity:1.0; 
stroke:#FFFFFF; stroke-width:0; stroke-opacity:1; 
stroke-linecap:round; stroke-linejoin:round;">
<circle cx="32700" cy="5262.99" r="200" /> 
</g>
<g style="fill:#FFFFFF; fill-opacity:1.0; 
stroke:#FFFFFF; stroke-width:39.3701; stroke-opacity:1; 
stroke-linecap:round; stroke-linejoin:round;">
</g>
<g style="fill:#FFFFFF; fill-opacity:1.0; 
stroke:#FFFFFF; stroke-width:0; stroke-opacity:1; 
stroke-linecap:round; stroke-linejoin:round;">
<circle cx="32700" cy="4262.99" r="200" /> 
</g>
<g style="fill:#FFFFFF; fill-opacity:1.0; 
stroke:#FFFFFF; stroke-width:39.3701; stroke-opacity:1; 
stroke-linecap:round; stroke-linejoin:round;">
</g>
<g style="fill:#FFFFFF; fill-opacity:1.0; 
stroke:#FFFFFF; stroke-width:0; stroke-opacity:1; 
stroke-linecap:round; stroke-linejoin:round;">
<circle cx="34400" cy="12463" r="200" /> 
</g>
<g style="fill:#FFFFFF; fill-opacity:1.0; 
stroke:#FFFFFF; stroke-width:39.3701; stroke-opacity:1; 
stroke-linecap:round; stroke-linejoin:round;">
</g>
<g style="fill:#FFFFFF; fill-opacity:1.0; 
stroke:#FFFFFF; stroke-width:0; stroke-opacity:1; 
stroke-linecap:round; stroke-linejoin:round;">
<circle cx="35400" cy="12463" r="200" /> 
</g>
<g style="fill:#FFFFFF; fill-opacity:1.0; 
stroke:#FFFFFF; stroke-width:39.3701; stroke-opacity:1; 
stroke-linecap:round; stroke-linejoin:round;">
</g>
<g style="fill:#FFFFFF; fill-opacity:1.0; 
stroke:#FFFFFF; stroke-width:0; stroke-opacity:1; 
stroke-linecap:round; stroke-linejoin:round;">
<circle cx="36400" cy="12463" r="200" /> 
</g>
<g style="fill:#FFFFFF; fill-opacity:1.0; 
stroke:#FFFFFF; stroke-width:39.3701; stroke-opacity:1; 
stroke-linecap:round; stroke-linejoin:round;">
</g>
<g style="fill:#FFFFFF; fill-opacity:1.0; 
stroke:#FFFFFF; stroke-width:0; stroke-opacity:1; 
stroke-linecap:round; stroke-linejoin:round;">
<circle cx="26100" cy="13863" r="200" /> 
</g>
<g style="fill:#FFFFFF; fill-opacity:1.0; 
stroke:#FFFFFF; stroke-width:39.3701; stroke-opacity:1; 
stroke-linecap:round; stroke-linejoin:round;">
</g>
<g style="fill:#FFFFFF; fill-opacity:1.0; 
stroke:#FFFFFF; stroke-width:0; stroke-opacity:1; 
stroke-linecap:round; stroke-linejoin:round;">
<circle cx="27100" cy="13863" r="200" /> 
</g>
<g style="fill:#FFFFFF; fill-opacity:1.0; 
stroke:#FFFFFF; stroke-width:39.3701; stroke-opacity:1; 
stroke-linecap:round; stroke-linejoin:round;">
</g>
<g style="fill:#FFFFFF; fill-opacity:1.0; 
stroke:#FFFFFF; stroke-width:0; stroke-opacity:1; 
stroke-linecap:round; stroke-linejoin:round;">
<circle cx="29100" cy="23563" r="200" /> 
</g>
<g style="fill:#FFFFFF; fill-opacity:1.0; 
stroke:#FFFFFF; stroke-width:39.3701; stroke-opacity:1; 
stroke-linecap:round; stroke-linejoin:round;">
</g>
<g style="fill:#FFFFFF; fill-opacity:1.0; 
stroke:#FFFFFF; stroke-width:0; stroke-opacity:1; 
stroke-linecap:round; stroke-linejoin:round;">
<circle cx="28100" cy="23563" r="200" /> 
</g>
<g style="fill:#FFFFFF; fill-opacity:1.0; 
stroke:#FFFFFF; stroke-width:39.3701; stroke-opacity:1; 
stroke-linecap:round; stroke-linejoin:round;">
</g>
<g style="fill:#FFFFFF; fill-opacity:1.0; 
stroke:#FFFFFF; stroke-width:0; stroke-opacity:1; 
stroke-linecap:round; stroke-linejoin:round;">
<circle cx="27100" cy="23563" r="200" /> 
</g>
<g style="fill:#FFFFFF; fill-opacity:1.0; 
stroke:#FFFFFF; stroke-width:39.3701; stroke-opacity:1; 
stroke-linecap:round; stroke-linejoin:round;">
</g>
<g style="fill:#FFFFFF; fill-opacity:1.0; 
stroke:#FFFFFF; stroke-width:0; stroke-opacity:1; 
stroke-linecap:round; stroke-linejoin:round;">
<circle cx="26100" cy="23563" r="200" /> 
</g>
<g style="fill:#FFFFFF; fill-opacity:1.0; 
stroke:#FFFFFF; stroke-width:39.3701; stroke-opacity:1; 
stroke-linecap:round; stroke-linejoin:round;">
</g>
<g style="fill:#FFFFFF; fill-opacity:1.0; 
stroke:#FFFFFF; stroke-width:0; stroke-opacity:1; 
stroke-linecap:round; stroke-linejoin:round;">
<circle cx="25100" cy="23563" r="200" /> 
</g>
<g style="fill:#FFFFFF; fill-opacity:1.0; 
stroke:#FFFFFF; stroke-width:39.3701; stroke-opacity:1; 
stroke-linecap:round; stroke-linejoin:round;">
</g>
<g style="fill:#FFFFFF; fill-opacity:1.0; 
stroke:#FFFFFF; stroke-width:0; stroke-opacity:1; 
stroke-linecap:round; stroke-linejoin:round;">
<circle cx="24100" cy="23563" r="200" /> 
</g>
<g style="fill:#FFFFFF; fill-opacity:1.0; 
stroke:#FFFFFF; stroke-width:39.3701; stroke-opacity:1; 
stroke-linecap:round; stroke-linejoin:round;">
</g>
<g style="fill:#FFFFFF; fill-opacity:1.0; 
stroke:#FFFFFF; stroke-width:0; stroke-opacity:1; 
stroke-linecap:round; stroke-linejoin:round;">
<circle cx="23100" cy="23563" r="200" /> 
</g>
<g style="fill:#FFFFFF; fill-opacity:1.0; 
stroke:#FFFFFF; stroke-width:39.3701; stroke-opacity:1; 
stroke-linecap:round; stroke-linejoin:round;">
</g>
<g style="fill:#FFFFFF; fill-opacity:1.0; 
stroke:#FFFFFF; stroke-width:0; stroke-opacity:1; 
stroke-linecap:round; stroke-linejoin:round;">
<circle cx="22100" cy="23563" r="200" /> 
</g>
<g style="fill:#FFFFFF; fill-opacity:1.0; 
stroke:#FFFFFF; stroke-width:39.3701; stroke-opacity:1; 
stroke-linecap:round; stroke-linejoin:round;">
</g>
<g style="fill:#FFFFFF; fill-opacity:1.0; 
stroke:#FFFFFF; stroke-width:0; stroke-opacity:1; 
stroke-linecap:round; stroke-linejoin:round;">
<circle cx="21100" cy="23563" r="200" /> 
</g>
<g style="fill:#FFFFFF; fill-opacity:1.0; 
stroke:#FFFFFF; stroke-width:39.3701; stroke-opacity:1; 
stroke-linecap:round; stroke-linejoin:round;">
</g>
<g style="fill:#FFFFFF; fill-opacity:1.0; 
stroke:#FFFFFF; stroke-width:0; stroke-opacity:1; 
stroke-linecap:round; stroke-linejoin:round;">
<circle cx="20100" cy="23563" r="200" /> 
</g>
<g style="fill:#FFFFFF; fill-opacity:1.0; 
stroke:#FFFFFF; stroke-width:39.3701; stroke-opacity:1; 
stroke-linecap:round; stroke-linejoin:round;">
</g>
<g style="fill:#FFFFFF; fill-opacity:1.0; 
stroke:#FFFFFF; stroke-width:0; stroke-opacity:1; 
stroke-linecap:round; stroke-linejoin:round;">
<circle cx="29100" cy="14063" r="200" /> 
</g>
<g style="fill:#FFFFFF; fill-opacity:1.0; 
stroke:#FFFFFF; stroke-width:39.3701; stroke-opacity:1; 
stroke-linecap:round; stroke-linejoin:round;">
</g>
<g style="fill:#FFFFFF; fill-opacity:1.0; 
stroke:#FFFFFF; stroke-width:0; stroke-opacity:1; 
stroke-linecap:round; stroke-linejoin:round;">
<circle cx="30100" cy="14063" r="200" /> 
</g>
<g style="fill:#FFFFFF; fill-opacity:1.0; 
stroke:#FFFFFF; stroke-width:39.3701; stroke-opacity:1; 
stroke-linecap:round; stroke-linejoin:round;">
</g>
<g style="fill:#FFFFFF; fill-opacity:1.0; 
stroke:#FFFFFF; stroke-width:0; stroke-opacity:1; 
stroke-linecap:round; stroke-linejoin:round;">
<circle cx="31100" cy="14063" r="200" /> 
</g>
<g style="fill:#FFFFFF; fill-opacity:1.0; 
stroke:#FFFFFF; stroke-width:39.3701; stroke-opacity:1; 
stroke-linecap:round; stroke-linejoin:round;">
</g>
<g style="fill:#FFFFFF; fill-opacity:1.0; 
stroke:#FFFFFF; stroke-width:0; stroke-opacity:1; 
stroke-linecap:round; stroke-linejoin:round;">
<circle cx="32100" cy="14063" r="200" /> 
</g>
<g style="fill:#FFFFFF; fill-opacity:1.0; 
stroke:#FFFFFF; stroke-width:39.3701; stroke-opacity:1; 
stroke-linecap:round; stroke-linejoin:round;">
</g>
<g style="fill:#FFFFFF; fill-opacity:1.0; 
stroke:#FFFFFF; stroke-width:0; stroke-opacity:1; 
stroke-linecap:round; stroke-linejoin:round;">
<circle cx="15300" cy="4562.99" r="200" /> 
</g>
<g style="fill:#FFFFFF; fill-opacity:1.0; 
stroke:#FFFFFF; stroke-width:39.3701; stroke-opacity:1; 
stroke-linecap:round; stroke-linejoin:round;">
</g>
<g style="fill:#FFFFFF; fill-opacity:1.0; 
stroke:#FFFFFF; stroke-width:0; stroke-opacity:1; 
stroke-linecap:round; stroke-linejoin:round;">
<circle cx="16300" cy="4562.99" r="200" /> 
</g>
<g style="fill:#FFFFFF; fill-opacity:1.0; 
stroke:#FFFFFF; stroke-width:39.3701; stroke-opacity:1; 
stroke-linecap:round; stroke-linejoin:round;">
</g>
<g style="fill:#FFFFFF; fill-opacity:1.0; 
stroke:#FFFFFF; stroke-width:0; stroke-opacity:1; 
stroke-linecap:round; stroke-linejoin:round;">
<circle cx="17300" cy="4562.99" r="200" /> 
</g>
<g style="fill:#FFFFFF; fill-opacity:1.0; 
stroke:#FFFFFF; stroke-width:39.3701; stroke-opacity:1; 
stroke-linecap:round; stroke-linejoin:round;">
</g>
<g style="fill:#FFFFFF; fill-opacity:1.0; 
stroke:#FFFFFF; stroke-width:0; stroke-opacity:1; 
stroke-linecap:round; stroke-linejoin:round;">
<circle cx="18300" cy="4562.99" r="200" /> 
</g>
<g style="fill:#FFFFFF; fill-opacity:1.0; 
stroke:#FFFFFF; stroke-width:39.3701; stroke-opacity:1; 
stroke-linecap:round; stroke-linejoin:round;">
</g>
<g style="fill:#FFFFFF; fill-opacity:1.0; 
stroke:#FFFFFF; stroke-width:0; stroke-opacity:1; 
stroke-linecap:round; stroke-linejoin:round;">
<circle cx="31300" cy="25363" r="200" /> 
</g>
<g style="fill:#FFFFFF; fill-opacity:1.0; 
stroke:#FFFFFF; stroke-width:39.3701; stroke-opacity:1; 
stroke-linecap:round; stroke-linejoin:round;">
</g>
<g style="fill:#FFFFFF; fill-opacity:1.0; 
stroke:#FFFFFF; stroke-width:0; stroke-opacity:1; 
stroke-linecap:round; stroke-linejoin:round;">
<circle cx="32300" cy="25363" r="200" /> 
</g>
<g style="fill:#FFFFFF; fill-opacity:1.0; 
stroke:#FFFFFF; stroke-width:39.3701; stroke-opacity:1; 
stroke-linecap:round; stroke-linejoin:round;">
</g>
<g style="fill:#FFFFFF; fill-opacity:1.0; 
stroke:#FFFFFF; stroke-width:0; stroke-opacity:1; 
stroke-linecap:round; stroke-linejoin:round;">
<circle cx="33300" cy="25363" r="200" /> 
</g>
<g style="fill:#FFFFFF; fill-opacity:1.0; 
stroke:#FFFFFF; stroke-width:39.3701; stroke-opacity:1; 
stroke-linecap:round; stroke-linejoin:round;">
</g>
<g style="fill:#FFFFFF; fill-opacity:1.0; 
stroke:#FFFFFF; stroke-width:0; stroke-opacity:1; 
stroke-linecap:round; stroke-linejoin:round;">
<circle cx="34300" cy="25363" r="200" /> 
</g>
<g style="fill:#FFFFFF; fill-opacity:1.0; 
stroke:#FFFFFF; stroke-width:39.3701; stroke-opacity:1; 
stroke-linecap:round; stroke-linejoin:round;">
</g>
<g style="fill:#000000; fill-opacity:1.0; 
stroke:#000000; stroke-width:39.3701; stroke-opacity:1; 
stroke-linecap:round; stroke-linejoin:round;">
</g>
<g style="fill:#000000; fill-opacity:1.0; 
stroke:#000000; stroke-width:59.0551; stroke-opacity:1; 
stroke-linecap:round; stroke-linejoin:round;">
</g>
<g style="fill:#000000; fill-opacity:0.0; 
stroke:#000000; stroke-width:59.0551; stroke-opacity:1; 
stroke-linecap:round; stroke-linejoin:round;">
<path d="M37000 28962
L2000 28962
" />
<path d="M36300 2762
L2000 2762
" />
<path d="M2000 2762
L2000 28962
" />
<path d="M38100 27862
L37000 28962
" />
<path d="M38100 4562
L38100 27862
" />
<path d="M36300 2762
L38100 4562
" />
</g> 
</svg>
